# Blender v2.82 (sub 1) OBJ File: 'base.blend'
# www.blender.org
o print
v 6.561281 -25.499321 -0.104309
v 7.547754 14.403654 -0.119992
v 6.455557 -25.499321 1.177737
v 7.426135 14.403654 1.354807
v 6.101750 -25.499321 2.414524
v 7.019134 14.403654 2.777543
v 5.513457 -25.499321 3.558522
v 6.342393 14.403654 4.093538
v 4.713284 -25.499321 4.565768
v 5.421916 14.403654 5.252221
v 3.731982 -25.499321 5.397554
v 4.293077 14.403654 6.209065
v 2.607263 -25.499321 6.021915
v 2.999259 14.403654 6.927297
v 1.382348 -25.499321 6.414857
v 1.590181 14.403654 7.379317
v 0.104310 -25.499321 6.561281
v 0.119992 14.403654 7.547755
v -1.177736 -25.499321 6.455558
v -1.354807 14.403654 7.426137
v -2.414523 -25.499321 6.101751
v -2.777541 14.403654 7.019136
v -3.558522 -25.499321 5.513457
v -4.093538 14.403654 6.342393
v -4.565768 -25.499321 4.713284
v -5.252222 14.403654 5.421916
v -5.397554 -25.499321 3.731982
v -6.209065 14.403654 4.293077
v -6.021916 -25.499321 2.607262
v -6.927299 14.403654 2.999258
v -6.414858 -25.499321 1.382346
v -7.379319 14.403654 1.590179
v -6.561281 -25.499321 0.104307
v -7.547755 14.403654 0.119990
v -6.455557 -25.499321 -1.177740
v -7.426136 14.403654 -1.354810
v -6.101749 -25.499321 -2.414527
v -7.019134 14.403654 -2.777546
v -5.513455 -25.499321 -3.558525
v -6.342391 14.403654 -4.093542
v -4.713282 -25.499321 -4.565771
v -5.421914 14.403654 -5.252225
v -3.731979 -25.499321 -5.397557
v -4.293074 14.403654 -6.209068
v -2.607258 -25.499321 -6.021918
v -2.999254 14.403654 -6.927300
v -1.382342 -25.499321 -6.414859
v -1.590174 14.403654 -7.379319
v -0.104303 -25.499321 -6.561281
v -0.119985 14.403654 -7.547755
v 1.177744 -25.499321 -6.455556
v 1.354815 14.403654 -7.426135
v 2.414531 -25.499321 -6.101748
v 2.777550 14.403654 -7.019132
v 3.558529 -25.499321 -5.513453
v 4.093546 14.403654 -6.342389
v 4.565774 -25.499321 -4.713278
v 5.252228 14.403654 -5.421909
v 5.397560 -25.499321 -3.731975
v 6.209071 14.403654 -4.293070
v 6.021919 -25.499321 -2.607254
v 6.927301 14.403654 -2.999249
v 6.414860 -25.499321 -1.382338
v 7.379319 14.403654 -1.590169
v -0.112144 -5.547832 -7.054517
v 0.536720 -25.499321 -6.508419
v 0.617415 14.403654 -7.486945
v 1.266279 -5.547832 -6.940845
v 0.577068 -5.547832 -6.997681
v -0.108224 -15.523577 -6.807899
v 0.248715 14.403654 -7.517350
v -0.116065 4.427912 -7.301136
v 0.216209 -25.499321 -6.534850
v 0.232462 -5.547832 -7.026099
v 0.556894 -15.523577 -6.753050
v 0.597241 4.427912 -7.242314
v 0.240588 4.427912 -7.271725
v 0.224335 -15.523577 -6.780475
vt 0.755905 0.000000
vt 0.755905 0.999703
vt 0.724409 0.999703
vt 0.724409 0.000000
vt 0.692913 0.999703
vt 0.692913 0.000000
vt 0.661417 0.999703
vt 0.661417 0.000000
vt 0.629921 0.999703
vt 0.629921 0.000000
vt 0.598425 0.999703
vt 0.598425 0.000000
vt 0.566929 0.999703
vt 0.566929 0.000000
vt 0.535433 0.999703
vt 0.535433 0.000000
vt 0.503937 0.999703
vt 0.503937 0.000000
vt 0.472441 0.999703
vt 0.472441 0.000000
vt 0.440945 0.999703
vt 0.440945 0.000000
vt 0.409449 0.999703
vt 0.409449 0.000000
vt 0.377953 0.999703
vt 0.377953 0.000000
vt 0.346457 0.999703
vt 0.346457 0.000000
vt 0.314961 0.999703
vt 0.314961 0.000000
vt 0.283464 0.999703
vt 0.283464 0.000000
vt 0.251969 0.999703
vt 0.251969 0.000000
vt 0.220472 0.999703
vt 0.220472 0.000000
vt 0.188976 0.999703
vt 0.188976 0.000000
vt 0.157481 0.999703
vt 0.157481 0.000000
vt 0.125984 0.999703
vt 0.125984 0.000000
vt 0.094489 0.999703
vt 0.094489 0.000000
vt 0.062993 0.999703
vt 0.062993 0.000000
vt 0.031497 0.999703
vt 0.031496 0.000000
vt 0.000000 0.999703
vt 0.000000 0.749777
vt 0.000000 0.499851
vt 0.000000 0.249926
vt 0.000000 0.000000
vt 0.992126 0.499851
vt 0.992126 0.749777
vt 0.992126 0.999703
vt 0.976377 0.999703
vt 0.976377 0.499851
vt 0.976377 0.000000
vt 0.944882 0.999703
vt 0.944882 0.000000
vt 0.913386 0.999703
vt 0.913386 0.000000
vt 0.881889 0.999703
vt 0.881889 0.000000
vt 0.850393 0.999703
vt 0.850393 0.000000
vt 0.818897 0.999703
vt 0.818897 0.000000
vt 0.787401 0.999703
vt 0.787401 0.000000
vt 0.992126 0.000000
vt 0.992126 0.249926
vt 1.000000 0.249926
vt 1.000000 0.499851
vt 1.000000 0.749777
vt 1.000000 0.999703
vt 1.000000 0.000000
vn 0.9995 -0.0247 -0.0159
vn 0.9835 -0.0247 0.1794
vn 0.9295 -0.0247 0.3678
vn 0.8399 -0.0247 0.5421
vn 0.7180 -0.0247 0.6955
vn 0.5685 -0.0247 0.8223
vn 0.3972 -0.0247 0.9174
vn 0.2106 -0.0247 0.9772
vn 0.0159 -0.0247 0.9995
vn -0.1794 -0.0247 0.9835
vn -0.3678 -0.0247 0.9295
vn -0.5421 -0.0247 0.8399
vn -0.6955 -0.0247 0.7180
vn -0.8223 -0.0247 0.5685
vn -0.9174 -0.0247 0.3972
vn -0.9772 -0.0247 0.2106
vn -0.9995 -0.0247 0.0159
vn -0.9835 -0.0247 -0.1794
vn -0.9295 -0.0247 -0.3678
vn -0.8399 -0.0247 -0.5421
vn -0.7180 -0.0247 -0.6955
vn -0.5685 -0.0247 -0.8223
vn -0.3972 -0.0247 -0.9174
vn -0.2106 -0.0247 -0.9772
vn -0.1138 -0.0246 -0.9932
vn 0.0822 -0.0246 -0.9963
vn 0.1794 -0.0247 -0.9835
vn 0.3678 -0.0247 -0.9295
vn 0.5421 -0.0247 -0.8399
vn 0.6955 -0.0247 -0.7180
vn 0.8223 -0.0247 -0.5685
vn 0.9174 -0.0247 -0.3972
vn 0.9772 -0.0247 -0.2106
s 1
f 1/1/1 2/2/1 4/3/2 3/4/2
f 3/4/2 4/3/2 6/5/3 5/6/3
f 5/6/3 6/5/3 8/7/4 7/8/4
f 7/8/4 8/7/4 10/9/5 9/10/5
f 9/10/5 10/9/5 12/11/6 11/12/6
f 11/12/6 12/11/6 14/13/7 13/14/7
f 13/14/7 14/13/7 16/15/8 15/16/8
f 15/16/8 16/15/8 18/17/9 17/18/9
f 17/18/9 18/17/9 20/19/10 19/20/10
f 19/20/10 20/19/10 22/21/11 21/22/11
f 21/22/11 22/21/11 24/23/12 23/24/12
f 23/24/12 24/23/12 26/25/13 25/26/13
f 25/26/13 26/25/13 28/27/14 27/28/14
f 27/28/14 28/27/14 30/29/15 29/30/15
f 29/30/15 30/29/15 32/31/16 31/32/16
f 31/32/16 32/31/16 34/33/17 33/34/17
f 33/34/17 34/33/17 36/35/18 35/36/18
f 35/36/18 36/35/18 38/37/19 37/38/19
f 37/38/19 38/37/19 40/39/20 39/40/20
f 39/40/20 40/39/20 42/41/21 41/42/21
f 41/42/21 42/41/21 44/43/22 43/44/22
f 43/44/22 44/43/22 46/45/23 45/46/23
f 45/46/23 46/45/23 48/47/24 47/48/24
f 47/48/24 48/47/24 50/49/25 72/50/25 65/51/25 70/52/25 49/53/25
f 69/54/26 76/55/26 67/56/26 52/57/27 68/58/27
f 51/59/27 68/58/27 52/57/27 54/60/28 53/61/28
f 53/61/28 54/60/28 56/62/29 55/63/29
f 55/63/29 56/62/29 58/64/30 57/65/30
f 57/65/30 58/64/30 60/66/31 59/67/31
f 59/67/31 60/66/31 62/68/32 61/69/32
f 61/69/32 62/68/32 64/70/33 63/71/33
f 63/71/33 64/70/33 2/2/1 1/1/1
f 66/72/26 75/73/26 69/54/26 68/58/27 51/59/27
f 78/74/26 74/75/26 69/54/26 75/73/26
f 77/76/26 71/77/26 67/56/26 76/55/26
f 74/75/26 77/76/26 76/55/26 69/54/26
f 73/78/26 78/74/26 75/73/26 66/72/26
o body
v 6.517491 -25.499319 -0.103613
v 7.376574 14.405996 1.345765
v 6.061028 -25.499319 2.398410
v 5.476660 -25.499319 3.534773
v 4.681828 -25.499319 4.535297
v 5.385730 14.405996 5.217169
v 3.707075 -25.499319 5.361532
v 2.589862 -25.499319 5.981726
v 2.979242 14.405996 6.881065
v 1.579568 14.405996 7.330069
v 0.103614 -25.499319 6.517491
v 0.119192 14.405996 7.497382
v -1.169876 -25.499319 6.412474
v -4.066218 14.405996 6.300065
v -6.412473 -25.499319 -1.169880
v -6.061027 -25.499319 -2.398412
v -5.476659 -25.499319 -3.534776
v -6.300063 14.405996 -4.066222
v -1.373116 -25.499319 -6.372046
v 1.345773 14.405996 -7.376574
v 3.534780 -25.499319 -5.476656
v 4.535303 -25.499319 -4.681822
v 5.217175 14.405996 -5.385724
v 5.981730 -25.499319 -2.589854
v 6.881069 14.405996 -2.979233
v 7.497381 14.405996 -0.119191
v -1.345765 14.405996 7.376575
v -7.376575 14.405996 -1.345769
v -2.979237 14.405996 -6.881068
v 2.759013 14.405996 -6.972287
v 7.330070 14.405996 -1.579557
v 7.436977 14.405996 0.613287
v 7.174432 14.405996 2.052385
v 5.842897 14.405996 4.641694
v 3.621834 14.405996 6.524346
v 2.279405 14.405996 7.105567
v 0.849380 14.405996 7.413725
v -0.613287 14.405996 7.436979
v -2.052385 14.405996 7.174433
v -4.641694 14.405996 5.842898
v -7.105568 14.405996 2.279404
v -7.174432 14.405996 -2.052389
v -6.636176 14.405996 -3.412616
v -5.842895 14.405996 -4.641697
v -4.825075 14.405996 -5.692400
v -2.279399 14.405996 -7.105569
v -0.849373 14.405996 -7.413726
v 0.613294 14.405996 -7.436978
v 7.413726 14.405996 -0.849374
v 6.037922 -24.908150 -0.095989
v 5.940632 -24.908150 1.083795
v 6.833793 14.297472 1.246742
v 5.615047 -24.908150 2.221930
v 6.459256 14.297472 2.555993
v 5.073678 -24.908150 3.274678
v 5.836494 14.297472 3.767019
v 4.337331 -24.908150 4.201581
v 4.989439 14.297472 4.833280
v 3.434302 -24.908150 4.967020
v 2.399296 -24.908150 5.541579
v 2.760024 14.297472 6.374743
v 1.272085 -24.908150 5.903179
v 1.463341 14.297472 6.790709
v 0.095990 -24.908150 6.037922
v -1.083795 -24.908150 5.940632
v -1.246741 14.297472 6.833793
v -2.221929 -24.908150 5.615047
v -3.274677 -24.908150 5.073678
v -3.767018 14.297472 5.836494
v -4.201581 -24.908150 4.337331
v -4.967020 -24.908150 3.434302
v -5.713802 14.297472 3.950642
v -5.541580 -24.908150 2.399295
v -6.374744 14.297472 2.760023
v -5.903179 -24.908150 1.272084
v -6.790710 14.297472 1.463339
v -6.037922 -24.908150 0.095987
v -6.945711 14.297472 0.110419
v -5.940631 -24.908150 -1.083798
v -5.615045 -24.908150 -2.221933
v -6.459255 14.297472 -2.555996
v -5.073676 -24.908150 -3.274681
v -5.836492 14.297472 -3.767022
v -4.337328 -24.908150 -4.201584
v -4.989436 14.297472 -4.833283
v -3.434299 -24.908150 -4.967023
v -3.950639 14.297472 -5.713804
v -2.399291 -24.908150 -5.541581
v -2.760019 14.297472 -6.374747
v -1.272080 -24.908150 -5.903180
v -1.463334 14.297472 -6.790710
v -0.095983 -24.908150 -6.037923
v 1.083802 -24.908150 -5.940631
v 1.246749 14.297472 -6.833792
v 2.221937 -24.908150 -5.615044
v 3.274684 -24.908150 -5.073674
v 3.767026 14.297472 -5.836490
v 4.201587 -24.908150 -4.337325
v 4.967025 -24.908150 -3.434295
v 5.713807 14.297472 -3.950634
v 5.541584 -24.908150 -2.399287
v 6.374748 14.297472 -2.760015
v 5.903181 -24.908150 -1.272076
v 6.790710 14.297472 -1.463330
v 6.945710 14.297472 -0.110421
v 3.950641 14.297472 5.713801
v 0.110421 14.297472 6.945711
v -2.555992 14.297472 6.459257
v -4.833280 14.297472 4.989439
v -6.833793 14.297472 -1.246745
v -0.110414 14.297472 -6.945711
v 2.556000 14.297472 -6.459254
v 4.833286 14.297472 -4.989433
v 6.889751 14.297472 0.568160
v 3.355333 14.297472 6.044272
v 2.111682 14.297472 6.582726
v 0.786881 14.297472 6.868210
v -0.568160 14.297472 6.889752
v -1.901366 14.297472 6.646525
v -4.300149 14.297472 5.412967
v -5.273541 14.297472 4.470040
v -6.582727 14.297472 2.111681
v -6.868211 14.297472 0.786879
v -6.646524 14.297472 -1.901370
v -6.147874 14.297472 -3.161509
v -4.470037 14.297472 -5.273543
v -3.355329 14.297472 -6.044276
v -0.786875 14.297472 -6.868211
v 1.901374 14.297472 -6.646523
v 3.161513 14.297472 -6.147872
v 5.273546 14.297472 -4.470034
v 6.582728 14.297472 -2.111673
v -0.103607 -25.499319 -6.517491
v -0.119184 14.405996 -7.497382
v -0.115290 4.429667 -7.252409
v 0.214766 -25.499319 -6.491237
v -7.413725 14.405996 0.849377
v 7.467179 14.405996 0.247048
v 6.071481 14.405996 4.353956
v 3.943130 14.405996 6.345986
v -1.699075 14.405996 7.275504
v -3.085808 14.405996 6.804234
v -5.454783 14.405996 5.105405
v -6.345986 14.405996 3.943130
v -6.993317 14.405996 2.629323
v -7.275503 14.405996 -1.699079
v -5.105402 14.405996 -5.454787
v -3.943126 14.405996 -6.345989
v -2.629318 14.405996 -6.993319
v 3.085816 14.405996 -6.804231
v 4.353963 14.405996 -6.071476
v 6.345991 14.405996 -3.943122
v 7.371898 14.405996 -1.214465
v 6.468121 14.405996 3.739415
v 4.544752 14.405996 5.930012
v -0.979526 14.405996 7.406777
v -2.405694 14.405996 7.073362
v -4.929431 14.405996 5.614315
v -5.930013 14.405996 4.544753
v -6.702707 14.405996 3.300537
v -7.406777 14.405996 -0.979529
v -5.614312 14.405996 -4.929435
v -4.544749 14.405996 -5.930015
v -3.300533 14.405996 -6.702709
v -0.484279 14.405996 -7.455554
v 2.405703 14.405996 -7.073359
v 3.739422 14.405996 -6.468117
v 5.930017 14.405996 -4.544744
v 7.217820 14.405996 -1.929476
v 7.455554 14.405996 -0.484283
v 6.646524 14.297472 1.901367
v 6.147875 14.297472 3.161506
v 5.412966 14.297472 4.300149
v -6.044273 14.297472 3.355333
v -5.412964 14.297472 -4.300153
v -2.111677 14.297472 -6.582728
v 6.044277 14.297472 -3.355325
v 6.917730 14.297472 0.228870
v 3.652987 14.297472 5.879037
v -0.228869 14.297472 6.917731
v -2.858748 14.297472 6.303566
v -5.053410 14.297472 4.729740
v -6.740158 14.297472 -1.574057
v 0.228876 14.297472 -6.917731
v 2.858756 14.297472 -6.303563
v 5.053416 14.297472 -4.729733
v 4.210340 14.297472 5.493671
v 0.448651 14.297472 6.906960
v -2.228679 14.297472 6.552891
v -4.566715 14.297472 5.201203
v -6.861773 14.297472 -0.907454
v -0.448645 14.297472 -6.906960
v 2.228687 14.297472 -6.552888
v 4.566721 14.297472 -5.201197
v 6.906960 14.297472 -0.448648
v 7.163365 14.351732 0.590724
v 7.221545 14.351732 -0.114806
v 7.140969 14.351732 -0.818125
v 6.844149 14.351732 -2.195534
v 6.284314 14.351732 -3.488575
v 5.482975 14.351732 -4.647552
v 4.470928 14.351732 -5.627926
v 3.287066 14.351732 -6.392023
v 2.657506 14.351732 -6.715771
v 1.976884 14.351732 -6.910476
v 0.590731 14.351732 -7.163365
v -0.114799 14.351732 -7.221547
v -0.818124 14.351732 -7.140969
v -2.195538 14.351732 -6.844149
v -3.488579 14.351732 -6.284312
v -4.647557 14.351732 -5.482972
v -5.627930 14.351732 -4.470925
v -6.392025 14.351732 -3.287062
v -6.910478 14.351732 -1.976880
v -7.105184 14.351732 -1.296257
v -7.163366 14.351732 -0.590726
v -7.140969 14.351732 0.818128
v -6.844148 14.351732 2.195542
v -6.284310 14.351732 3.488583
v -5.482969 14.351732 4.647560
v -5.025225 14.351732 5.187584
v -4.470921 14.351732 5.627932
v -3.287058 14.351732 6.392027
v -2.657498 14.351732 6.715774
v -1.976876 14.351732 6.910480
v -0.590723 14.351732 7.163366
v 0.818130 14.351732 7.140968
v 2.195544 14.351732 6.844146
v 3.488583 14.351732 6.284309
v 4.107533 14.351732 5.940714
v 4.647559 14.351732 5.482969
v 5.627932 14.351732 4.470921
v 6.392026 14.351732 3.287059
v 6.910478 14.351732 1.976877
v 6.636177 14.405996 3.412612
v 4.825078 14.405996 5.692398
v -3.412611 14.405996 6.636178
v -5.692398 14.405996 4.825078
v -6.524346 14.405996 3.621833
v -7.436979 14.405996 -0.613290
v -3.621830 14.405996 -6.524349
v 2.052393 14.405996 -7.174430
v 3.412619 14.405996 -6.636174
v 4.641700 14.405996 -5.842892
v 5.692403 14.405996 -4.825071
v 6.524350 14.405996 -3.621825
v 7.105569 14.405996 -2.279395
v 7.275502 14.405996 1.699075
v 6.804233 14.405996 3.085809
v 5.105404 14.405996 5.454783
v 2.629323 14.405996 6.993315
v 1.214474 14.405996 7.371897
v -0.247047 14.405996 7.467180
v -4.353956 14.405996 6.071481
v -7.371898 14.405996 1.214472
v -7.467180 14.405996 -0.247051
v -6.804233 14.405996 -3.085812
v -6.071478 14.405996 -4.353960
v -1.214467 14.405996 -7.371898
v 1.699083 14.405996 -7.275502
v 5.454789 14.405996 -5.105398
v 6.993319 14.405996 -2.629313
v 7.406776 14.405996 0.979526
v 7.073361 14.405996 2.405695
v 5.614314 14.405996 4.929431
v 3.300538 14.405996 6.702706
v 1.929486 14.405996 7.217818
v 0.484286 14.405996 7.455554
v -3.739414 14.405996 6.468122
v -7.217820 14.405996 1.929485
v -7.455554 14.405996 0.484283
v -7.073361 14.405996 -2.405699
v -6.468119 14.405996 -3.739419
v -1.929481 14.405996 -7.217820
v 0.979534 14.405996 -7.406776
v 4.929438 14.405996 -5.614308
v 6.702710 14.405996 -3.300529
v 4.470040 14.297472 5.273540
v -3.161505 14.297472 6.147876
v -6.889752 14.297472 -0.568163
v 0.568167 14.297472 -6.889752
v 4.300156 14.297472 -5.412961
v 6.868210 14.297472 -0.786875
v 6.740158 14.297472 1.574054
v 6.303566 14.297472 2.858750
v 5.624731 14.297472 4.033584
v 4.729739 14.297472 5.053410
v 2.435853 14.297472 6.478734
v 1.125111 14.297472 6.829459
v -1.574054 14.297472 6.740159
v -4.033584 14.297472 5.624731
v -5.879037 14.297472 3.652987
v -6.478736 14.297472 2.435852
v -6.829461 14.297472 1.125109
v -6.917731 14.297472 -0.228872
v -6.303565 14.297472 -2.858752
v -5.624728 14.297472 -4.033588
v -4.729737 14.297472 -5.053413
v -3.652983 14.297472 -5.879040
v -2.435848 14.297472 -6.478737
v -1.125105 14.297472 -6.829461
v 1.574062 14.297472 -6.740158
v 4.033591 14.297472 -5.624726
v 5.879042 14.297472 -3.652979
v 6.478738 14.297472 -2.435844
v 6.829461 14.297472 -1.125103
v 6.861773 14.297472 0.907451
v 6.552890 14.297472 2.228680
v 5.992184 14.297472 3.464262
v 5.201203 14.297472 4.566715
v 3.057678 14.297472 6.209507
v 1.787511 14.297472 6.686717
v -0.907450 14.297472 6.861773
v -3.464262 14.297472 5.992185
v -5.493671 14.297472 4.210341
v -6.209508 14.297472 3.057678
v -6.686719 14.297472 1.787510
v -6.906960 14.297472 0.448649
v -6.552889 14.297472 -2.228683
v -5.992183 14.297472 -3.464266
v -5.201200 14.297472 -4.566718
v -4.210338 14.297472 -5.493674
v -3.057674 14.297472 -6.209511
v -1.787506 14.297472 -6.686719
v 0.907458 14.297472 -6.861773
v 3.464269 14.297472 -5.992181
v 5.493676 14.297472 -4.210334
v 6.209513 14.297472 -3.057670
v 6.686719 14.297472 -1.787501
v 7.105184 14.351732 1.296254
v 7.060390 14.351732 -1.521443
v 6.627908 14.351732 -2.869624
v 5.940719 14.351732 -4.107526
v 5.025230 14.351732 -5.187579
v 3.916626 14.351732 -6.068275
v 1.296261 14.351732 -7.105183
v -1.521448 14.351732 -7.060390
v -2.869628 14.351732 -6.627907
v -4.107531 14.351732 -5.940717
v -5.187582 14.351732 -5.025228
v -6.068277 14.351732 -3.916622
v -6.715772 14.351732 -2.657502
v -7.221547 14.351732 0.114804
v -7.060390 14.351732 1.521452
v -6.627906 14.351732 2.869632
v -5.940714 14.351732 4.107534
v -3.916618 14.351732 6.068279
v -1.296253 14.351732 7.105184
v 0.114807 14.351732 7.221547
v 1.521454 14.351732 7.060389
v 2.869633 14.351732 6.627904
v 5.187584 14.351732 5.025224
v 6.068279 14.351732 3.916619
v 6.715772 14.351732 2.657499
v 7.007831 14.351732 1.636565
v 6.813125 14.351732 2.317188
v 6.553899 14.351732 2.972279
v 6.230153 14.351732 3.601839
v 5.848105 14.351732 4.193770
v 5.407758 14.351732 4.748073
v 4.917572 14.351732 5.254097
v 4.377546 14.351732 5.711841
v 3.798058 14.351732 6.112512
v 3.179108 14.351732 6.456106
v 2.532588 14.351732 6.736024
v 1.858499 14.351732 6.952267
v 1.169792 14.351732 7.100678
v 0.466468 14.351732 7.181258
v -0.237958 14.351732 7.192457
v -0.943488 14.351732 7.134274
v -1.636564 14.351732 7.007833
v -2.317187 14.351732 6.813127
v -2.972278 14.351732 6.553901
v -3.601838 14.351732 6.230153
v -4.193770 14.351732 5.848106
v -4.748073 14.351732 5.407759
v -5.254097 14.351732 4.917572
v -5.711842 14.351732 4.377547
v -6.112512 14.351732 3.798058
v -6.456108 14.351732 3.179107
v -6.736026 14.351732 2.532587
v -6.952269 14.351732 1.858497
v -7.100679 14.351732 1.169790
v -7.181258 14.351732 0.466466
v -7.192457 14.351732 -0.237961
v -7.134274 14.351732 -0.943492
v -7.007831 14.351732 -1.636568
v -6.813125 14.351732 -2.317191
v -6.553899 14.351732 -2.972282
v -6.230151 14.351732 -3.601842
v -5.848104 14.351732 -4.193773
v -5.407755 14.351732 -4.748076
v -4.917569 14.351732 -5.254100
v -4.377543 14.351732 -5.711844
v -3.798054 14.351732 -6.112514
v -3.179104 14.351732 -6.456110
v -2.532583 14.351732 -6.736028
v -1.858493 14.351732 -6.952270
v -1.169786 14.351732 -7.100679
v -0.466462 14.351732 -7.181258
v 0.237966 14.351732 -7.192456
v 0.943496 14.351732 -7.134274
v 1.636572 14.351732 -7.007829
v 2.317195 14.351732 -6.813124
v 2.972286 14.351732 -6.553897
v 3.601846 14.351732 -6.230149
v 4.193777 14.351732 -5.848101
v 4.748079 14.351732 -5.407753
v 5.254103 14.351732 -4.917565
v 5.711847 14.351732 -4.377539
v 6.112516 14.351732 -3.798051
v 6.456111 14.351732 -3.179099
v 6.736029 14.351732 -2.532578
v 6.952270 14.351732 -1.858488
v 7.100679 14.351732 -1.169784
v 7.181257 14.351732 -0.466466
v 7.192455 14.351732 0.237959
v 7.134274 14.351732 0.943489
v 6.412474 -25.499319 1.169877
v 6.972289 14.405996 2.759006
v 6.300064 14.405996 4.066218
v 4.264425 14.405996 6.167626
v 1.373122 -25.499319 6.372046
v -2.398409 -25.499319 6.061028
v -2.759005 14.405996 6.972291
v -3.534772 -25.499319 5.476661
v -4.535297 -25.499319 4.681828
v -5.217169 14.405996 5.385731
v -5.361532 -25.499319 3.707075
v -6.167627 14.405996 4.264426
v -5.981727 -25.499319 2.589861
v -6.881067 14.405996 2.979241
v -6.372046 -25.499319 1.373120
v -7.330070 14.405996 1.579566
v -6.517491 -25.499319 0.103611
v -7.497382 14.405996 0.119189
v -6.972290 14.405996 -2.759009
v -4.681825 -25.499319 -4.535300
v -5.385728 14.405996 -5.217172
v -3.707072 -25.499319 -5.361534
v -4.264422 14.405996 -6.167629
v -2.589857 -25.499319 -5.981728
v -1.579562 14.405996 -7.330070
v 1.169884 -25.499319 -6.412472
v 2.398417 -25.499319 -6.061025
v 4.066226 14.405996 -6.300060
v 5.361537 -25.499319 -3.707068
v 6.167632 14.405996 -4.264418
v 6.372048 -25.499319 -1.373112
v -0.111396 -5.546661 -7.007436
v 0.533138 -25.499319 -6.464982
v 1.257828 -5.546661 -6.894523
v -0.107501 -15.522990 -6.762464
v 0.247055 14.405996 -7.467180
v -0.000000 -25.499319 -0.000000
v 0.000000 -24.908150 0.000000
v 0.214766 -25.499319 -6.491237
vt 0.000000 0.000000
vt 1.000000 0.000000
vt 1.000000 1.000000
vt 0.000000 0.000000
vt 1.000000 0.000000
vt 1.000000 1.000000
vt 0.000000 0.000000
vt 1.000000 0.000000
vt 1.000000 1.000000
vt 0.000000 0.000000
vt 1.000000 0.000000
vt 1.000000 1.000000
vt 0.000000 0.000000
vt 1.000000 0.000000
vt 1.000000 1.000000
vt 0.000000 0.000000
vt 1.000000 0.000000
vt 1.000000 1.000000
vt 0.000000 0.000000
vt 1.000000 0.000000
vt 1.000000 1.000000
vt 0.000000 0.000000
vt 1.000000 0.000000
vt 1.000000 1.000000
vt 0.000000 0.000000
vt 1.000000 0.000000
vt 1.000000 1.000000
vt 0.000000 0.000000
vt 1.000000 0.000000
vt 1.000000 1.000000
vt 0.000000 0.000000
vt 1.000000 0.000000
vt 1.000000 1.000000
vt 0.000000 0.000000
vt 1.000000 0.000000
vt 1.000000 1.000000
vt 0.000000 0.000000
vt 1.000000 0.000000
vt 1.000000 1.000000
vt 0.000000 0.000000
vt 1.000000 0.000000
vt 1.000000 1.000000
vt 0.000000 0.000000
vt 1.000000 0.000000
vt 1.000000 1.000000
vt 0.500000 1.000000
vt 0.975528 0.654508
vt 0.793893 0.095491
vt 0.206107 0.095492
vt 0.024472 0.654509
vt 0.000000 0.000000
vt 1.000000 0.000000
vt 1.000000 1.000000
vt 0.000000 0.000000
vt 1.000000 0.000000
vt 1.000000 1.000000
vt 0.000000 0.000000
vt 1.000000 0.000000
vt 1.000000 1.000000
vt 0.000000 0.000000
vt 1.000000 0.000000
vt 1.000000 1.000000
vt 0.000000 0.000000
vt 1.000000 0.000000
vt 1.000000 1.000000
vt 0.000000 0.000000
vt 1.000000 0.000000
vt 1.000000 1.000000
vt 0.000000 0.000000
vt 1.000000 0.000000
vt 1.000000 1.000000
vt 0.000000 0.000000
vt 1.000000 0.000000
vt 1.000000 1.000000
vt 0.000000 0.000000
vt 1.000000 0.000000
vt 1.000000 1.000000
vt 0.000000 0.000000
vt 1.000000 0.000000
vt 1.000000 1.000000
vt 0.000000 0.000000
vt 1.000000 0.000000
vt 1.000000 1.000000
vt 0.000000 0.000000
vt 1.000000 0.000000
vt 1.000000 1.000000
vt 0.000000 0.000000
vt 1.000000 0.000000
vt 1.000000 1.000000
vt 0.000000 0.000000
vt 1.000000 0.000000
vt 1.000000 1.000000
vt 0.000000 0.000000
vt 1.000000 0.000000
vt 1.000000 1.000000
vt 0.000000 0.000000
vt 1.000000 0.000000
vt 1.000000 1.000000
vt 0.500000 1.000000
vt 0.975528 0.654508
vt 0.793893 0.095491
vt 0.206107 0.095492
vt 0.024472 0.654509
vt 0.500000 1.000000
vt 0.975528 0.654508
vt 0.793893 0.095491
vt 0.206107 0.095492
vt 0.024472 0.654509
vt 0.500000 1.000000
vt 0.975528 0.654508
vt 0.793893 0.095491
vt 0.206107 0.095492
vt 0.024472 0.654509
vt 0.500000 1.000000
vt 0.975528 0.654508
vt 0.793893 0.095491
vt 0.206107 0.095492
vt 0.024472 0.654509
vt 0.500000 1.000000
vt 0.975528 0.654508
vt 0.793893 0.095491
vt 0.206107 0.095492
vt 0.024472 0.654509
vt 0.000000 0.000000
vt 1.000000 0.000000
vt 1.000000 1.000000
vt 0.000000 1.000000
vt 0.500000 1.000000
vt 0.975528 0.654508
vt 0.793893 0.095491
vt 0.206107 0.095492
vt 0.024472 0.654509
vt 0.500000 1.000000
vt 0.975528 0.654508
vt 0.793893 0.095491
vt 0.206107 0.095492
vt 0.024472 0.654509
vt 0.500000 1.000000
vt 0.975528 0.654508
vt 0.793893 0.095491
vt 0.206107 0.095492
vt 0.024472 0.654509
vt 0.500000 1.000000
vt 0.975528 0.654508
vt 0.793893 0.095491
vt 0.206107 0.095492
vt 0.024472 0.654509
vt 0.500000 1.000000
vt 0.975528 0.654508
vt 0.793893 0.095491
vt 0.206107 0.095492
vt 0.024472 0.654509
vt 0.500000 1.000000
vt 0.975528 0.654508
vt 0.793893 0.095491
vt 0.206107 0.095492
vt 0.024472 0.654509
vt 0.500000 1.000000
vt 0.975528 0.654508
vt 0.793893 0.095491
vt 0.206107 0.095492
vt 0.024472 0.654509
vt 0.500000 1.000000
vt 0.975528 0.654508
vt 0.793893 0.095491
vt 0.206107 0.095492
vt 0.024472 0.654509
vt 0.500000 1.000000
vt 0.975528 0.654508
vt 0.793893 0.095491
vt 0.206107 0.095492
vt 0.024472 0.654509
vt 0.500000 1.000000
vt 0.975528 0.654508
vt 0.793893 0.095491
vt 0.206107 0.095492
vt 0.024472 0.654509
vt 0.500000 1.000000
vt 0.975528 0.654508
vt 0.793893 0.095491
vt 0.206107 0.095492
vt 0.024472 0.654509
vt 0.500000 1.000000
vt 0.975528 0.654508
vt 0.793893 0.095491
vt 0.206107 0.095492
vt 0.024472 0.654509
vt 0.500000 1.000000
vt 0.975528 0.654508
vt 0.793893 0.095491
vt 0.206107 0.095492
vt 0.024472 0.654509
vt 0.500000 1.000000
vt 0.975528 0.654508
vt 0.793893 0.095491
vt 0.206107 0.095492
vt 0.024472 0.654509
vt 0.500000 1.000000
vt 0.975528 0.654508
vt 0.793893 0.095491
vt 0.206107 0.095492
vt 0.024472 0.654509
vt 0.500000 1.000000
vt 0.975528 0.654508
vt 0.793893 0.095491
vt 0.206107 0.095492
vt 0.024472 0.654509
vt 0.500000 1.000000
vt 0.975528 0.654508
vt 0.793893 0.095491
vt 0.206107 0.095492
vt 0.024472 0.654509
vt 0.500000 1.000000
vt 0.975528 0.654508
vt 0.793893 0.095491
vt 0.206107 0.095492
vt 0.024472 0.654509
vt 0.500000 1.000000
vt 0.975528 0.654508
vt 0.793893 0.095491
vt 0.206107 0.095492
vt 0.024472 0.654509
vt 0.500000 1.000000
vt 0.975528 0.654508
vt 0.793893 0.095491
vt 0.206107 0.095492
vt 0.024472 0.654509
vt 0.500000 1.000000
vt 0.975528 0.654508
vt 0.793893 0.095491
vt 0.206107 0.095492
vt 0.024472 0.654509
vt 0.500000 1.000000
vt 0.975528 0.654508
vt 0.793893 0.095491
vt 0.206107 0.095492
vt 0.024472 0.654509
vt 0.500000 1.000000
vt 0.975528 0.654508
vt 0.793893 0.095491
vt 0.206107 0.095492
vt 0.024472 0.654509
vt 0.500000 1.000000
vt 0.975528 0.654508
vt 0.793893 0.095491
vt 0.206107 0.095492
vt 0.024472 0.654509
vt 0.000000 0.000000
vt 1.000000 0.000000
vt 1.000000 1.000000
vt 0.500000 1.000000
vt 0.975528 0.654508
vt 0.793893 0.095491
vt 0.206107 0.095492
vt 0.024472 0.654509
vt 0.500000 1.000000
vt 0.975528 0.654508
vt 0.793893 0.095491
vt 0.206107 0.095492
vt 0.024472 0.654509
vt 0.000000 0.000000
vt 1.000000 0.000000
vt 1.000000 1.000000
vt 0.000000 0.000000
vt 1.000000 0.000000
vt 1.000000 1.000000
vt 0.000000 0.000000
vt 1.000000 0.000000
vt 1.000000 1.000000
vt 0.000000 0.000000
vt 1.000000 0.000000
vt 1.000000 1.000000
vt 0.000000 0.000000
vt 1.000000 0.000000
vt 1.000000 1.000000
vt 0.000000 0.000000
vt 1.000000 0.000000
vt 1.000000 1.000000
vt 0.000000 0.000000
vt 1.000000 0.000000
vt 1.000000 1.000000
vt 0.000000 0.000000
vt 1.000000 0.000000
vt 1.000000 1.000000
vt 0.000000 0.000000
vt 1.000000 0.000000
vt 1.000000 1.000000
vt 0.000000 0.000000
vt 1.000000 0.000000
vt 1.000000 1.000000
vt 0.000000 0.000000
vt 1.000000 0.000000
vt 1.000000 1.000000
vt 0.000000 0.000000
vt 1.000000 0.000000
vt 1.000000 1.000000
vt 0.000000 0.000000
vt 1.000000 0.000000
vt 1.000000 1.000000
vt 0.000000 0.000000
vt 1.000000 0.000000
vt 1.000000 1.000000
vt 0.500000 1.000000
vt 0.975528 0.654508
vt 0.793893 0.095491
vt 0.206107 0.095492
vt 0.024472 0.654509
vt 0.000000 0.000000
vt 1.000000 0.000000
vt 1.000000 1.000000
vt 0.000000 0.000000
vt 1.000000 0.000000
vt 1.000000 1.000000
vt 0.000000 0.000000
vt 1.000000 0.000000
vt 1.000000 1.000000
vt 0.000000 0.000000
vt 1.000000 0.000000
vt 1.000000 1.000000
vt 0.000000 0.000000
vt 1.000000 0.000000
vt 1.000000 1.000000
vt 0.000000 0.000000
vt 1.000000 0.000000
vt 1.000000 1.000000
vt 0.000000 0.000000
vt 1.000000 0.000000
vt 1.000000 1.000000
vt 0.000000 0.000000
vt 1.000000 0.000000
vt 1.000000 1.000000
vt 0.000000 0.000000
vt 1.000000 0.000000
vt 1.000000 1.000000
vt 0.000000 0.000000
vt 1.000000 0.000000
vt 1.000000 1.000000
vt 0.000000 0.000000
vt 1.000000 0.000000
vt 1.000000 1.000000
vt 0.000000 0.000000
vt 1.000000 0.000000
vt 1.000000 1.000000
vt 0.000000 0.000000
vt 1.000000 0.000000
vt 1.000000 1.000000
vt 0.000000 0.000000
vt 1.000000 0.000000
vt 1.000000 1.000000
vt 0.000000 0.000000
vt 1.000000 0.000000
vt 1.000000 1.000000
vt 0.000000 0.000000
vt 1.000000 0.000000
vt 1.000000 1.000000
vt 0.000000 0.000000
vt 1.000000 1.000000
vt 0.000000 1.000000
vt 0.000000 0.000000
vt 1.000000 0.000000
vt 0.000000 1.000000
vt 0.000000 0.000000
vt 1.000000 1.000000
vt 0.000000 1.000000
vt 0.000000 0.000000
vt 1.000000 0.000000
vt 0.000000 1.000000
vt 0.000000 0.000000
vt 1.000000 1.000000
vt 0.000000 1.000000
vt 0.000000 0.000000
vt 1.000000 0.000000
vt 0.000000 1.000000
vt 0.000000 0.000000
vt 1.000000 1.000000
vt 0.000000 1.000000
vt 0.000000 0.000000
vt 1.000000 0.000000
vt 0.000000 1.000000
vt 0.000000 0.000000
vt 1.000000 1.000000
vt 0.000000 1.000000
vt 0.000000 0.000000
vt 1.000000 0.000000
vt 0.000000 1.000000
vt 0.000000 0.000000
vt 1.000000 1.000000
vt 0.000000 1.000000
vt 0.000000 0.000000
vt 1.000000 0.000000
vt 0.000000 1.000000
vt 0.000000 0.000000
vt 1.000000 1.000000
vt 0.000000 1.000000
vt 0.000000 0.000000
vt 1.000000 0.000000
vt 0.000000 1.000000
vt 0.000000 0.000000
vt 1.000000 1.000000
vt 0.000000 1.000000
vt 0.000000 0.000000
vt 1.000000 0.000000
vt 0.000000 1.000000
vt 0.000000 0.000000
vt 1.000000 1.000000
vt 0.000000 1.000000
vt 0.000000 0.000000
vt 1.000000 0.000000
vt 0.000000 1.000000
vt 0.000000 0.000000
vt 1.000000 1.000000
vt 0.000000 1.000000
vt 0.000000 0.000000
vt 1.000000 0.000000
vt 0.000000 1.000000
vt 0.000000 0.000000
vt 1.000000 1.000000
vt 0.000000 1.000000
vt 0.000000 0.000000
vt 1.000000 0.000000
vt 0.000000 1.000000
vt 0.000000 0.000000
vt 1.000000 1.000000
vt 0.000000 1.000000
vt 0.000000 0.000000
vt 1.000000 0.000000
vt 0.000000 1.000000
vt 0.000000 0.000000
vt 1.000000 1.000000
vt 0.000000 1.000000
vt 0.000000 0.000000
vt 1.000000 0.000000
vt 0.000000 1.000000
vt 0.000000 0.000000
vt 1.000000 1.000000
vt 0.000000 1.000000
vt 0.000000 0.000000
vt 1.000000 0.000000
vt 0.000000 1.000000
vt 0.000000 0.000000
vt 1.000000 1.000000
vt 0.000000 1.000000
vt 0.000000 0.000000
vt 1.000000 0.000000
vt 0.000000 1.000000
vt 0.000000 0.000000
vt 1.000000 1.000000
vt 0.000000 1.000000
vt 0.000000 0.000000
vt 1.000000 0.000000
vt 0.000000 1.000000
vt 0.000000 0.000000
vt 1.000000 1.000000
vt 0.000000 1.000000
vt 0.000000 0.000000
vt 1.000000 0.000000
vt 0.000000 1.000000
vt 0.000000 0.000000
vt 1.000000 1.000000
vt 0.000000 1.000000
vt 0.000000 0.000000
vt 1.000000 0.000000
vt 0.000000 1.000000
vt 0.000000 0.000000
vt 1.000000 1.000000
vt 0.000000 1.000000
vt 0.000000 0.000000
vt 1.000000 0.000000
vt 0.000000 1.000000
vt 0.000000 0.000000
vt 1.000000 1.000000
vt 0.000000 1.000000
vt 0.000000 0.000000
vt 1.000000 0.000000
vt 0.000000 1.000000
vt 0.000000 0.000000
vt 1.000000 1.000000
vt 0.000000 1.000000
vt 0.000000 0.000000
vt 1.000000 0.000000
vt 0.000000 1.000000
vt 0.000000 0.000000
vt 1.000000 1.000000
vt 0.000000 1.000000
vt 0.000000 0.000000
vt 1.000000 0.000000
vt 0.000000 1.000000
vt 0.000000 0.000000
vt 1.000000 1.000000
vt 0.000000 1.000000
vt 0.000000 0.000000
vt 1.000000 0.000000
vt 0.000000 1.000000
vt 0.000000 0.000000
vt 1.000000 1.000000
vt 0.000000 1.000000
vt 0.000000 0.000000
vt 1.000000 0.000000
vt 0.000000 1.000000
vt 0.000000 0.000000
vt 1.000000 1.000000
vt 0.000000 1.000000
vt 0.000000 0.000000
vt 1.000000 0.000000
vt 0.000000 1.000000
vt 0.000000 0.000000
vt 1.000000 1.000000
vt 0.000000 1.000000
vt 0.000000 0.000000
vt 1.000000 0.000000
vt 0.000000 1.000000
vt 0.000000 0.000000
vt 1.000000 1.000000
vt 0.000000 1.000000
vt 0.000000 0.000000
vt 1.000000 0.000000
vt 0.000000 1.000000
vt 0.000000 0.000000
vt 1.000000 0.000000
vt 0.000000 1.000000
vt 0.000000 0.000000
vt 1.000000 0.000000
vt 1.000000 1.000000
vt 0.000000 1.000000
vt 0.000000 0.000000
vt 1.000000 1.000000
vt 0.000000 1.000000
vt 0.000000 0.000000
vt 1.000000 0.000000
vt 0.000000 1.000000
vt 0.000000 0.000000
vt 1.000000 1.000000
vt 0.000000 1.000000
vt 0.000000 0.000000
vt 1.000000 0.000000
vt 0.000000 1.000000
vt 0.000000 0.000000
vt 1.000000 1.000000
vt 0.000000 1.000000
vt 0.000000 0.000000
vt 1.000000 0.000000
vt 0.000000 1.000000
vt 0.000000 0.000000
vt 1.000000 1.000000
vt 0.000000 1.000000
vt 0.000000 0.000000
vt 1.000000 0.000000
vt 0.000000 1.000000
vt 0.000000 0.000000
vt 1.000000 0.000000
vt 1.000000 1.000000
vt 0.000000 1.000000
vt 1.000000 0.000000
vt 1.000000 1.000000
vt 0.000000 1.000000
vt 0.000000 0.000000
vt 1.000000 0.000000
vt 1.000000 1.000000
vt 0.000000 1.000000
vt 0.000000 0.000000
vt 1.000000 0.000000
vt 1.000000 1.000000
vt 0.000000 1.000000
vt 0.000000 0.000000
vt 1.000000 0.000000
vt 1.000000 1.000000
vt 0.000000 1.000000
vt 0.000000 0.000000
vt 1.000000 0.000000
vt 1.000000 1.000000
vt 0.000000 1.000000
vt 0.000000 0.000000
vt 1.000000 0.000000
vt 1.000000 1.000000
vt 0.000000 1.000000
vt 1.000000 0.000000
vt 1.000000 1.000000
vt 0.000000 1.000000
vt 0.000000 0.000000
vt 1.000000 0.000000
vt 1.000000 1.000000
vt 0.000000 1.000000
vt 0.000000 0.000000
vt 1.000000 0.000000
vt 1.000000 1.000000
vt 0.000000 1.000000
vt 0.000000 0.000000
vt 1.000000 0.000000
vt 1.000000 1.000000
vt 0.000000 1.000000
vt 0.000000 0.000000
vt 1.000000 0.000000
vt 1.000000 1.000000
vt 0.000000 1.000000
vt 0.000000 0.000000
vt 1.000000 0.000000
vt 1.000000 1.000000
vt 0.000000 1.000000
vt 1.000000 0.000000
vt 1.000000 1.000000
vt 0.000000 1.000000
vt 0.000000 0.000000
vt 1.000000 0.000000
vt 1.000000 1.000000
vt 0.000000 1.000000
vt 0.000000 0.000000
vt 1.000000 0.000000
vt 1.000000 1.000000
vt 0.000000 1.000000
vt 0.000000 0.000000
vt 1.000000 0.000000
vt 1.000000 1.000000
vt 0.000000 1.000000
vt 0.000000 0.000000
vt 1.000000 0.000000
vt 1.000000 1.000000
vt 0.000000 1.000000
vt 0.000000 0.000000
vt 1.000000 0.000000
vt 1.000000 1.000000
vt 0.000000 1.000000
vt 1.000000 0.000000
vt 1.000000 1.000000
vt 0.000000 1.000000
vt 0.000000 0.000000
vt 1.000000 0.000000
vt 1.000000 1.000000
vt 0.000000 1.000000
vt 0.000000 0.000000
vt 1.000000 0.000000
vt 1.000000 1.000000
vt 0.000000 1.000000
vt 0.000000 0.000000
vt 1.000000 0.000000
vt 1.000000 1.000000
vt 0.000000 1.000000
vt 0.000000 0.000000
vt 1.000000 0.000000
vt 1.000000 1.000000
vt 0.000000 1.000000
vt 0.000000 0.000000
vt 1.000000 0.000000
vt 1.000000 1.000000
vt 0.000000 1.000000
vt 1.000000 0.000000
vt 1.000000 1.000000
vt 0.000000 1.000000
vt 0.000000 0.000000
vt 1.000000 0.000000
vt 1.000000 1.000000
vt 0.000000 1.000000
vt 0.000000 0.000000
vt 1.000000 0.000000
vt 1.000000 1.000000
vt 0.000000 1.000000
vt 0.000000 0.000000
vt 1.000000 0.000000
vt 1.000000 1.000000
vt 0.000000 1.000000
vt 0.000000 0.000000
vt 1.000000 0.000000
vt 1.000000 1.000000
vt 0.000000 1.000000
vt 0.000000 0.000000
vt 1.000000 0.000000
vt 1.000000 1.000000
vt 0.000000 1.000000
vt 0.000000 0.000000
vt 1.000000 0.000000
vt 1.000000 1.000000
vt 0.000000 1.000000
vt 0.000000 0.000000
vt 1.000000 0.000000
vt 1.000000 1.000000
vt 0.000000 1.000000
vt 0.000000 0.000000
vt 1.000000 0.000000
vt 1.000000 1.000000
vt 0.000000 1.000000
vt 0.000000 0.000000
vt 1.000000 0.000000
vt 1.000000 1.000000
vt 0.000000 1.000000
vt 0.000000 0.000000
vt 1.000000 0.000000
vt 1.000000 1.000000
vt 0.000000 1.000000
vt 0.000000 0.000000
vt 1.000000 0.000000
vt 1.000000 1.000000
vt 0.000000 1.000000
vt 1.000000 0.000000
vt 1.000000 1.000000
vt 0.000000 1.000000
vt 0.000000 0.000000
vt 1.000000 0.000000
vt 1.000000 1.000000
vt 0.000000 1.000000
vt 0.000000 0.000000
vt 1.000000 0.000000
vt 1.000000 1.000000
vt 0.000000 1.000000
vt 0.000000 0.000000
vt 1.000000 0.000000
vt 1.000000 1.000000
vt 0.000000 1.000000
vt 0.000000 0.000000
vt 1.000000 0.000000
vt 1.000000 1.000000
vt 0.000000 1.000000
vt 0.000000 0.000000
vt 1.000000 0.000000
vt 1.000000 1.000000
vt 0.000000 1.000000
vt 1.000000 0.000000
vt 1.000000 1.000000
vt 0.000000 1.000000
vt 0.000000 0.000000
vt 1.000000 0.000000
vt 1.000000 1.000000
vt 0.000000 1.000000
vt 0.000000 0.000000
vt 1.000000 0.000000
vt 1.000000 1.000000
vt 0.000000 1.000000
vt 0.000000 0.000000
vt 1.000000 0.000000
vt 1.000000 1.000000
vt 0.000000 1.000000
vt 0.000000 0.000000
vt 1.000000 0.000000
vt 1.000000 1.000000
vt 0.000000 1.000000
vt 0.000000 0.000000
vt 1.000000 0.000000
vt 1.000000 1.000000
vt 0.000000 1.000000
vt 1.000000 0.000000
vt 1.000000 1.000000
vt 0.000000 1.000000
vt 0.000000 0.000000
vt 1.000000 0.000000
vt 1.000000 1.000000
vt 0.000000 1.000000
vt 0.000000 0.000000
vt 1.000000 0.000000
vt 1.000000 1.000000
vt 0.000000 1.000000
vt 0.000000 0.000000
vt 1.000000 0.000000
vt 1.000000 1.000000
vt 0.000000 1.000000
vt 0.000000 0.000000
vt 1.000000 0.000000
vt 1.000000 1.000000
vt 0.000000 1.000000
vt 0.000000 0.000000
vt 1.000000 0.000000
vt 1.000000 1.000000
vt 0.000000 1.000000
vt 1.000000 0.000000
vt 1.000000 1.000000
vt 0.000000 1.000000
vt 0.000000 0.000000
vt 1.000000 0.000000
vt 1.000000 1.000000
vt 0.000000 1.000000
vt 0.000000 0.000000
vt 1.000000 0.000000
vt 1.000000 1.000000
vt 0.000000 1.000000
vt 0.000000 0.000000
vt 1.000000 0.000000
vt 1.000000 1.000000
vt 0.000000 1.000000
vt 0.000000 0.000000
vt 1.000000 0.000000
vt 1.000000 1.000000
vt 0.000000 1.000000
vt 0.000000 0.000000
vt 1.000000 0.000000
vt 1.000000 1.000000
vt 0.000000 1.000000
vt 1.000000 0.000000
vt 1.000000 1.000000
vt 0.000000 1.000000
vt 0.000000 0.000000
vt 1.000000 0.000000
vt 1.000000 1.000000
vt 0.000000 1.000000
vt 0.000000 0.000000
vt 1.000000 0.000000
vt 1.000000 1.000000
vt 0.000000 1.000000
vt 0.000000 0.000000
vt 1.000000 0.000000
vt 1.000000 1.000000
vt 0.000000 1.000000
vt 0.000000 0.000000
vt 1.000000 0.000000
vt 1.000000 1.000000
vt 0.000000 1.000000
vt 0.000000 0.000000
vt 1.000000 0.000000
vt 1.000000 1.000000
vt 0.000000 1.000000
vt 1.000000 0.000000
vt 1.000000 1.000000
vt 0.000000 1.000000
vt 0.000000 0.000000
vt 1.000000 0.000000
vt 1.000000 1.000000
vt 0.000000 1.000000
vt 0.000000 0.000000
vt 1.000000 0.000000
vt 1.000000 1.000000
vt 0.000000 1.000000
vt 0.000000 0.000000
vt 1.000000 0.000000
vt 1.000000 1.000000
vt 0.000000 1.000000
vt 0.000000 0.000000
vt 1.000000 0.000000
vt 1.000000 1.000000
vt 0.000000 1.000000
vt 0.000000 0.000000
vt 1.000000 0.000000
vt 1.000000 1.000000
vt 0.000000 1.000000
vt 1.000000 0.000000
vt 1.000000 1.000000
vt 0.000000 1.000000
vt 0.000000 0.000000
vt 1.000000 0.000000
vt 1.000000 1.000000
vt 0.000000 1.000000
vt 0.000000 0.000000
vt 1.000000 0.000000
vt 1.000000 1.000000
vt 0.000000 1.000000
vt 0.000000 0.000000
vt 1.000000 0.000000
vt 1.000000 1.000000
vt 0.000000 1.000000
vt 0.000000 0.000000
vt 1.000000 0.000000
vt 1.000000 1.000000
vt 0.000000 1.000000
vt 0.000000 0.000000
vt 1.000000 0.000000
vt 1.000000 1.000000
vt 0.000000 1.000000
vt 1.000000 0.000000
vt 1.000000 1.000000
vt 0.000000 1.000000
vt 0.000000 0.000000
vt 1.000000 0.000000
vt 1.000000 1.000000
vt 0.000000 1.000000
vt 0.000000 0.000000
vt 1.000000 0.000000
vt 1.000000 1.000000
vt 0.000000 1.000000
vt 0.000000 0.000000
vt 1.000000 0.000000
vt 1.000000 1.000000
vt 0.000000 1.000000
vt 0.000000 0.000000
vt 1.000000 0.000000
vt 1.000000 1.000000
vt 0.000000 1.000000
vt 0.000000 0.000000
vt 1.000000 0.000000
vt 1.000000 1.000000
vt 0.000000 1.000000
vt 1.000000 0.000000
vt 1.000000 1.000000
vt 0.000000 1.000000
vt 0.000000 0.000000
vt 1.000000 0.000000
vt 1.000000 1.000000
vt 0.000000 1.000000
vt 0.000000 0.000000
vt 1.000000 0.000000
vt 1.000000 1.000000
vt 0.000000 1.000000
vt 0.000000 0.000000
vt 1.000000 0.000000
vt 1.000000 1.000000
vt 0.000000 1.000000
vt 0.000000 0.000000
vt 1.000000 0.000000
vt 1.000000 1.000000
vt 0.000000 1.000000
vt 0.000000 0.000000
vt 1.000000 0.000000
vt 1.000000 1.000000
vt 0.000000 1.000000
vt 1.000000 0.000000
vt 1.000000 1.000000
vt 0.000000 1.000000
vt 0.000000 0.000000
vt 1.000000 0.000000
vt 1.000000 1.000000
vt 0.000000 1.000000
vt 0.000000 0.000000
vt 1.000000 0.000000
vt 1.000000 1.000000
vt 0.000000 1.000000
vt 0.000000 0.000000
vt 1.000000 0.000000
vt 1.000000 1.000000
vt 0.000000 1.000000
vt 0.000000 0.000000
vt 1.000000 0.000000
vt 1.000000 1.000000
vt 0.000000 1.000000
vt 0.000000 0.000000
vt 1.000000 0.000000
vt 1.000000 1.000000
vt 0.000000 1.000000
vt 1.000000 0.000000
vt 1.000000 1.000000
vt 0.000000 1.000000
vt 0.000000 0.000000
vt 1.000000 0.000000
vt 1.000000 1.000000
vt 0.000000 1.000000
vt 0.000000 0.000000
vt 1.000000 0.000000
vt 1.000000 1.000000
vt 0.000000 1.000000
vt 0.000000 0.000000
vt 1.000000 0.000000
vt 1.000000 1.000000
vt 0.000000 1.000000
vt 0.000000 0.000000
vt 1.000000 0.000000
vt 1.000000 1.000000
vt 0.000000 1.000000
vt 0.000000 0.000000
vt 1.000000 0.000000
vt 1.000000 1.000000
vt 0.000000 1.000000
vt 1.000000 0.000000
vt 1.000000 1.000000
vt 0.000000 1.000000
vt 0.000000 0.000000
vt 1.000000 0.000000
vt 1.000000 1.000000
vt 0.000000 1.000000
vt 0.000000 0.000000
vt 1.000000 0.000000
vt 1.000000 1.000000
vt 0.000000 1.000000
vt 0.000000 0.000000
vt 1.000000 0.000000
vt 1.000000 1.000000
vt 0.000000 1.000000
vt 0.000000 0.000000
vt 1.000000 0.000000
vt 1.000000 1.000000
vt 0.000000 1.000000
vt 0.000000 0.000000
vt 1.000000 0.000000
vt 1.000000 1.000000
vt 0.000000 1.000000
vt 1.000000 0.000000
vt 1.000000 1.000000
vt 0.000000 1.000000
vt 0.000000 0.000000
vt 1.000000 0.000000
vt 1.000000 1.000000
vt 0.000000 1.000000
vt 0.000000 0.000000
vt 1.000000 0.000000
vt 1.000000 1.000000
vt 0.000000 1.000000
vt 0.000000 0.000000
vt 1.000000 0.000000
vt 1.000000 1.000000
vt 0.000000 1.000000
vt 0.000000 0.000000
vt 1.000000 0.000000
vt 1.000000 1.000000
vt 0.000000 1.000000
vt 0.000000 0.000000
vt 1.000000 0.000000
vt 1.000000 1.000000
vt 0.000000 1.000000
vt 1.000000 0.000000
vt 1.000000 1.000000
vt 0.000000 1.000000
vt 0.000000 0.000000
vt 1.000000 0.000000
vt 1.000000 1.000000
vt 0.000000 1.000000
vt 0.000000 0.000000
vt 1.000000 0.000000
vt 1.000000 1.000000
vt 0.000000 1.000000
vt 0.000000 0.000000
vt 1.000000 0.000000
vt 1.000000 1.000000
vt 0.000000 1.000000
vt 0.000000 0.000000
vt 1.000000 0.000000
vt 1.000000 1.000000
vt 0.000000 1.000000
vt 0.000000 0.000000
vt 1.000000 0.000000
vt 1.000000 1.000000
vt 0.000000 1.000000
vt 1.000000 0.000000
vt 1.000000 1.000000
vt 0.000000 1.000000
vt 0.000000 0.000000
vt 1.000000 0.000000
vt 1.000000 1.000000
vt 0.000000 1.000000
vt 0.000000 0.000000
vt 1.000000 0.000000
vt 1.000000 1.000000
vt 0.000000 1.000000
vt 0.000000 0.000000
vt 1.000000 0.000000
vt 1.000000 1.000000
vt 0.000000 1.000000
vt 0.000000 0.000000
vt 1.000000 0.000000
vt 1.000000 1.000000
vt 0.000000 1.000000
vt 0.000000 0.000000
vt 1.000000 0.000000
vt 1.000000 1.000000
vt 0.000000 1.000000
vt 1.000000 0.000000
vt 1.000000 1.000000
vt 0.000000 1.000000
vt 0.000000 0.000000
vt 1.000000 0.000000
vt 1.000000 1.000000
vt 0.000000 1.000000
vt 0.000000 0.000000
vt 1.000000 0.000000
vt 1.000000 1.000000
vt 0.000000 1.000000
vt 0.000000 0.000000
vt 1.000000 0.000000
vt 1.000000 1.000000
vt 0.000000 1.000000
vt 0.000000 0.000000
vt 1.000000 0.000000
vt 1.000000 1.000000
vt 0.000000 1.000000
vt 0.000000 0.000000
vt 1.000000 0.000000
vt 1.000000 1.000000
vt 0.000000 1.000000
vt 1.000000 0.000000
vt 1.000000 1.000000
vt 0.000000 1.000000
vt 0.000000 0.000000
vt 1.000000 0.000000
vt 1.000000 1.000000
vt 0.000000 1.000000
vt 0.000000 0.000000
vt 1.000000 0.000000
vt 1.000000 1.000000
vt 0.000000 1.000000
vt 0.000000 0.000000
vt 1.000000 0.000000
vt 1.000000 1.000000
vt 0.000000 1.000000
vt 0.000000 0.000000
vt 1.000000 0.000000
vt 1.000000 1.000000
vt 0.000000 1.000000
vt 0.000000 0.000000
vt 1.000000 0.000000
vt 1.000000 1.000000
vt 0.000000 1.000000
vt 1.000000 0.000000
vt 1.000000 1.000000
vt 0.000000 1.000000
vt 0.000000 0.000000
vt 1.000000 0.000000
vt 1.000000 1.000000
vt 0.000000 1.000000
vt 0.000000 0.000000
vt 1.000000 0.000000
vt 1.000000 1.000000
vt 0.000000 1.000000
vt 0.000000 0.000000
vt 1.000000 0.000000
vt 1.000000 1.000000
vt 0.000000 1.000000
vt 0.000000 0.000000
vt 1.000000 0.000000
vt 1.000000 1.000000
vt 0.000000 1.000000
vt 0.000000 0.000000
vt 1.000000 0.000000
vt 1.000000 1.000000
vt 0.000000 1.000000
vt 1.000000 0.000000
vt 1.000000 1.000000
vt 0.000000 1.000000
vt 0.000000 0.000000
vt 1.000000 0.000000
vt 1.000000 1.000000
vt 0.000000 1.000000
vt 0.000000 0.000000
vt 1.000000 0.000000
vt 1.000000 1.000000
vt 0.000000 1.000000
vt 0.000000 0.000000
vt 1.000000 0.000000
vt 1.000000 1.000000
vt 0.000000 1.000000
vt 0.000000 0.000000
vt 1.000000 0.000000
vt 1.000000 1.000000
vt 0.000000 1.000000
vt 0.000000 0.000000
vt 1.000000 0.000000
vt 1.000000 1.000000
vt 0.000000 1.000000
vt 1.000000 0.000000
vt 1.000000 1.000000
vt 0.000000 1.000000
vt 0.000000 0.000000
vt 1.000000 0.000000
vt 1.000000 1.000000
vt 0.000000 1.000000
vt 0.000000 0.000000
vt 1.000000 0.000000
vt 1.000000 1.000000
vt 0.000000 1.000000
vt 0.000000 0.000000
vt 1.000000 0.000000
vt 1.000000 1.000000
vt 0.000000 1.000000
vt 0.000000 0.000000
vt 1.000000 0.000000
vt 1.000000 1.000000
vt 0.000000 1.000000
vt 0.000000 0.000000
vt 1.000000 0.000000
vt 1.000000 1.000000
vt 0.000000 1.000000
vt 1.000000 0.000000
vt 1.000000 1.000000
vt 0.000000 1.000000
vt 0.000000 0.000000
vt 1.000000 0.000000
vt 1.000000 1.000000
vt 0.000000 1.000000
vt 0.000000 0.000000
vt 1.000000 0.000000
vt 1.000000 1.000000
vt 0.000000 1.000000
vt 0.000000 0.000000
vt 1.000000 0.000000
vt 1.000000 1.000000
vt 0.000000 1.000000
vt 0.000000 0.000000
vt 1.000000 0.000000
vt 1.000000 1.000000
vt 0.000000 1.000000
vt 0.000000 0.000000
vt 1.000000 0.000000
vt 1.000000 1.000000
vt 0.000000 1.000000
vt 1.000000 0.000000
vt 1.000000 1.000000
vt 0.000000 1.000000
vt 0.000000 0.000000
vt 1.000000 0.000000
vt 1.000000 1.000000
vt 0.000000 1.000000
vt 0.000000 0.000000
vt 1.000000 0.000000
vt 1.000000 1.000000
vt 0.000000 1.000000
vt 0.000000 0.000000
vt 1.000000 0.000000
vt 1.000000 1.000000
vt 0.000000 1.000000
vt 0.000000 0.000000
vt 1.000000 0.000000
vt 1.000000 1.000000
vt 0.000000 1.000000
vt 0.000000 0.000000
vt 1.000000 0.000000
vt 1.000000 1.000000
vt 0.000000 1.000000
vt 1.000000 0.000000
vt 1.000000 1.000000
vt 0.000000 1.000000
vt 0.000000 0.000000
vt 1.000000 0.000000
vt 1.000000 1.000000
vt 0.000000 1.000000
vt 0.000000 0.000000
vt 1.000000 0.000000
vt 1.000000 1.000000
vt 0.000000 1.000000
vt 0.000000 0.000000
vt 1.000000 0.000000
vt 1.000000 1.000000
vt 0.000000 1.000000
vt 0.000000 0.000000
vt 1.000000 0.000000
vt 1.000000 1.000000
vt 0.000000 1.000000
vt 0.000000 0.000000
vt 1.000000 0.000000
vt 1.000000 1.000000
vt 0.000000 1.000000
vt 1.000000 0.000000
vt 1.000000 1.000000
vt 0.000000 1.000000
vt 0.000000 0.000000
vt 1.000000 0.000000
vt 1.000000 1.000000
vt 0.000000 1.000000
vt 0.000000 0.000000
vt 1.000000 0.000000
vt 1.000000 1.000000
vt 0.000000 1.000000
vt 0.000000 0.000000
vt 1.000000 0.000000
vt 1.000000 1.000000
vt 0.000000 1.000000
vt 0.000000 0.000000
vt 1.000000 0.000000
vt 1.000000 1.000000
vt 0.000000 1.000000
vt 0.000000 0.000000
vt 1.000000 0.000000
vt 1.000000 1.000000
vt 0.000000 1.000000
vt 1.000000 0.000000
vt 1.000000 1.000000
vt 0.000000 1.000000
vt 0.000000 0.000000
vt 1.000000 0.000000
vt 1.000000 1.000000
vt 0.000000 1.000000
vt 0.000000 0.000000
vt 1.000000 0.000000
vt 1.000000 1.000000
vt 0.000000 1.000000
vt 0.000000 0.000000
vt 1.000000 0.000000
vt 1.000000 1.000000
vt 0.000000 1.000000
vt 0.000000 0.000000
vt 1.000000 0.000000
vt 1.000000 1.000000
vt 0.000000 1.000000
vt 0.000000 0.000000
vt 1.000000 0.000000
vt 1.000000 1.000000
vt 0.000000 1.000000
vt 1.000000 0.000000
vt 1.000000 1.000000
vt 0.000000 1.000000
vt 0.000000 0.000000
vt 1.000000 0.000000
vt 1.000000 1.000000
vt 0.000000 1.000000
vt 0.000000 0.000000
vt 1.000000 0.000000
vt 1.000000 1.000000
vt 0.000000 1.000000
vt 0.000000 0.000000
vt 1.000000 0.000000
vt 1.000000 1.000000
vt 0.000000 1.000000
vt 0.000000 0.000000
vt 1.000000 0.000000
vt 1.000000 1.000000
vt 0.000000 1.000000
vt 0.000000 0.000000
vt 0.000000 0.000000
vt 0.000000 0.000000
vt 0.000000 0.000000
vt 0.000000 0.000000
vt 0.000000 0.000000
vt 0.000000 0.000000
vt 0.000000 0.000000
vt 0.000000 0.000000
vt 0.000000 0.000000
vt 0.000000 0.000000
vt 0.000000 0.000000
vt 0.000000 0.000000
vt 0.000000 0.000000
vt 0.000000 0.000000
vt 0.000000 0.000000
vt 0.000000 0.000000
vt 0.000000 0.000000
vt 0.000000 0.000000
vt 0.000000 0.000000
vt 0.000000 0.000000
vt 0.000000 0.000000
vt 0.000000 0.000000
vt 0.000000 0.000000
vt 0.000000 0.000000
vt 0.000000 0.000000
vt 0.000000 0.000000
vt 0.000000 0.000000
vt 0.000000 0.000000
vt 0.000000 0.000000
vt 0.000000 0.000000
vt 0.000000 0.000000
vt 0.000000 0.000000
vt 0.000000 0.000000
vt 0.000000 0.000000
vt 0.000000 0.000000
vt 0.000000 0.000000
vt 0.000000 0.000000
vt 0.000000 0.000000
vt 0.000000 0.000000
vt 0.000000 0.000000
vt 0.000000 0.000000
vt 0.000000 0.000000
vt 0.000000 0.000000
vt 0.000000 0.000000
vt 0.000000 0.000000
vt 0.000000 0.000000
vt 0.000000 0.000000
vt 0.000000 0.000000
vt 1.000000 0.000000
vt 1.000000 1.000000
vt 1.000000 0.000000
vt 1.000000 1.000000
vt 1.000000 0.000000
vt 1.000000 1.000000
vt 1.000000 0.000000
vt 1.000000 1.000000
vt 1.000000 1.000000
vt 1.000000 0.000000
vt 1.000000 0.000000
vt 1.000000 1.000000
vt 1.000000 0.000000
vt 1.000000 1.000000
vt 1.000000 1.000000
vt 1.000000 0.000000
vt 1.000000 1.000000
vt 1.000000 0.000000
vt 1.000000 0.000000
vt 1.000000 1.000000
vt 1.000000 0.000000
vt 1.000000 1.000000
vt 1.000000 1.000000
vt 1.000000 0.000000
vt 1.000000 1.000000
vt 1.000000 0.000000
vt 1.000000 1.000000
vt 1.000000 1.000000
vt 1.000000 0.000000
vt 1.000000 0.000000
vt 1.000000 1.000000
vt 1.000000 0.000000
vt 1.000000 1.000000
vt 1.000000 1.000000
vt 1.000000 0.000000
vt 1.000000 0.000000
vt 1.000000 1.000000
vt 1.000000 0.000000
vt 1.000000 1.000000
vt 1.000000 1.000000
vt 1.000000 0.000000
vt 1.000000 1.000000
vt 1.000000 0.000000
vt 1.000000 1.000000
vt 1.000000 0.000000
vt 1.000000 0.000000
vt 1.000000 1.000000
vt 1.000000 0.000000
vt 1.000000 1.000000
vt 1.000000 1.000000
vt 1.000000 0.000000
vt 1.000000 1.000000
vt 1.000000 0.000000
vt 1.000000 1.000000
vt 1.000000 0.000000
vt 1.000000 1.000000
vt 1.000000 0.000000
vt 1.000000 1.000000
vt 1.000000 0.000000
vt 1.000000 0.000000
vt 1.000000 1.000000
vt 1.000000 0.000000
vt 1.000000 1.000000
vt 1.000000 0.000000
vt 1.000000 1.000000
vt 1.000000 0.000000
vt 1.000000 1.000000
vt 1.000000 0.000000
vt 1.000000 1.000000
vt 1.000000 0.000000
vt 1.000000 1.000000
vt 1.000000 1.000000
vt 1.000000 0.000000
vt 1.000000 1.000000
vt 1.000000 0.000000
vt 1.000000 0.000000
vt 1.000000 1.000000
vt 1.000000 0.000000
vt 1.000000 1.000000
vt 1.000000 0.000000
vt 1.000000 1.000000
vt 1.000000 0.000000
vt 1.000000 1.000000
vt 1.000000 0.000000
vt 1.000000 1.000000
vt 1.000000 0.000000
vt 1.000000 1.000000
vt 1.000000 0.000000
vt 1.000000 1.000000
vt 1.000000 0.000000
vt 1.000000 1.000000
vt 0.000000 0.000000
vt 1.000000 1.000000
vt 0.000000 1.000000
vt 0.000000 0.000000
vt 1.000000 1.000000
vt 0.000000 1.000000
vt 0.000000 0.000000
vt 1.000000 1.000000
vt 0.000000 1.000000
vt 0.000000 0.000000
vt 1.000000 1.000000
vt 0.000000 1.000000
vt 0.000000 0.000000
vt 1.000000 1.000000
vt 0.000000 1.000000
vt 0.000000 0.000000
vt 1.000000 0.000000
vt 1.000000 1.000000
vt 0.000000 1.000000
vt 0.000000 0.000000
vt 1.000000 1.000000
vt 0.000000 1.000000
vt 0.000000 0.000000
vt 1.000000 1.000000
vt 0.000000 1.000000
vt 0.000000 0.000000
vt 1.000000 1.000000
vt 0.000000 1.000000
vt 0.000000 0.000000
vt 1.000000 1.000000
vt 0.000000 1.000000
vt 0.000000 0.000000
vt 1.000000 1.000000
vt 0.000000 1.000000
vt 0.000000 0.000000
vt 1.000000 1.000000
vt 0.000000 1.000000
vt 0.000000 0.000000
vt 1.000000 1.000000
vt 0.000000 1.000000
vt 0.000000 0.000000
vt 1.000000 1.000000
vt 0.000000 1.000000
vt 0.000000 0.000000
vt 1.000000 1.000000
vt 0.000000 1.000000
vt 0.000000 0.000000
vt 1.000000 1.000000
vt 0.000000 1.000000
vt 0.000000 0.000000
vt 1.000000 1.000000
vt 0.000000 1.000000
vt 0.000000 0.000000
vt 1.000000 1.000000
vt 0.000000 1.000000
vt 0.000000 0.000000
vt 1.000000 1.000000
vt 0.000000 1.000000
vt 0.000000 0.000000
vt 1.000000 1.000000
vt 0.000000 1.000000
vt 0.000000 0.000000
vt 1.000000 1.000000
vt 0.000000 1.000000
vt 0.000000 0.000000
vt 1.000000 1.000000
vt 0.000000 1.000000
vt 0.000000 0.000000
vt 1.000000 1.000000
vt 0.000000 1.000000
vt 0.500000 1.000000
vt 0.890916 0.811745
vt 0.987464 0.388739
vt 0.716942 0.049516
vt 0.283058 0.049516
vt 0.012536 0.388740
vt 0.109084 0.811745
vt 0.024472 0.654509
vt 0.024472 0.654509
vt 0.500000 1.000000
vt 0.000000 1.000000
vt 0.000000 0.000000
vt 0.000000 0.000000
vt 0.000000 0.000000
vt 0.000000 0.000000
vt 1.000000 0.000000
vt 1.000000 0.000000
vt 1.000000 1.000000
vt 0.206107 0.095492
vt 0.500000 1.000000
vt 0.975528 0.654508
vt 0.793893 0.095491
vt 0.206107 0.095492
vt 0.024472 0.654509
vt 0.000000 0.000000
vt 1.000000 1.000000
vt 0.000000 1.000000
vt 0.000000 0.000000
vt 1.000000 1.000000
vt 0.000000 1.000000
vt 0.000000 0.000000
vt 1.000000 1.000000
vt 0.000000 1.000000
vt 0.000000 0.000000
vt 1.000000 1.000000
vt 0.000000 1.000000
vt 0.000000 0.000000
vt 1.000000 1.000000
vt 0.000000 1.000000
vt 0.000000 0.000000
vt 1.000000 1.000000
vt 0.000000 1.000000
vt 1.000000 0.000000
vt 1.000000 1.000000
vt 1.000000 0.000000
vt 1.000000 0.000000
vt 1.000000 0.000000
vt 1.000000 0.000000
vt 1.000000 0.000000
vt 1.000000 0.000000
vt 1.000000 0.000000
vt 1.000000 0.000000
vt 1.000000 0.000000
vt 1.000000 0.000000
vt 1.000000 0.000000
vt 1.000000 0.000000
vt 1.000000 0.000000
vt 1.000000 0.000000
vt 1.000000 0.000000
vt 1.000000 0.000000
vt 1.000000 0.000000
vt 1.000000 0.000000
vt 1.000000 0.000000
vt 1.000000 0.000000
vt 1.000000 0.000000
vt 1.000000 0.000000
vt 0.000000 0.000000
vt 1.000000 0.000000
vt 0.250000 0.000000
vt 1.000000 0.000000
vt 0.000000 0.000000
vt 1.000000 0.000000
vt 1.000000 0.000000
vt 1.000000 0.000000
vt 1.000000 0.000000
vt 1.000000 0.000000
vt 1.000000 0.000000
vt 1.000000 0.000000
vt 0.000000 0.000000
vt 1.000000 0.000000
vt 1.000000 1.000000
vt 0.000000 0.000000
vt 1.000000 0.000000
vt 0.000000 0.000000
vt 1.000000 0.000000
vt 0.000000 0.000000
vt 1.000000 0.000000
vt 0.000000 0.000000
vt 1.000000 0.000000
vt 0.000000 0.000000
vt 1.000000 0.000000
vt 0.000000 0.000000
vt 1.000000 0.000000
vt 0.000000 0.000000
vt 1.000000 0.000000
vt 0.000000 0.000000
vt 1.000000 0.000000
vt 0.000000 0.000000
vt 1.000000 0.000000
vt 0.000000 0.000000
vt 1.000000 0.000000
vt 0.000000 0.000000
vt 1.000000 0.000000
vt 0.000000 0.000000
vt 1.000000 0.000000
vt 0.000000 0.000000
vt 1.000000 0.000000
vt 0.000000 0.000000
vt 1.000000 0.000000
vt 0.000000 0.000000
vt 1.000000 0.000000
vt 0.000000 0.000000
vt 1.000000 0.000000
vt 0.000000 0.000000
vt 1.000000 0.000000
vt 0.000000 0.000000
vt 1.000000 0.000000
vt 0.000000 0.000000
vt 1.000000 0.000000
vt 0.000000 0.000000
vt 1.000000 0.000000
vt 0.000000 0.000000
vt 1.000000 0.000000
vt 0.000000 0.000000
vt 1.000000 0.000000
vt 0.000000 0.000000
vt 1.000000 0.000000
vt 0.000000 0.000000
vt 1.000000 0.000000
vt 0.000000 0.000000
vt 0.000000 0.000000
vt 1.000000 0.000000
vt 1.000000 0.000000
vt 0.000000 0.000000
vt 1.000000 0.000000
vt 0.000000 0.000000
vt 1.000000 0.000000
vt 0.000000 0.000000
vt 1.000000 0.000000
vt 0.000000 0.000000
vt 1.000000 0.000000
vn -0.1386 0.9812 -0.1344
vn 0.0000 0.7071 -0.7071
vn -0.0805 0.8950 -0.4388
vn 0.0000 0.4472 -0.8944
vn 0.0000 -0.2425 0.9701
vn 0.0000 -1.0000 0.0000
vn 0.0000 -0.8944 -0.4472
vn 0.0000 0.0000 -1.0000
vn -0.1098 0.9812 -0.1588
vn -0.6435 -0.0974 -0.7592
vn 0.0000 -0.9923 -0.1240
vn 0.0000 -0.3764 0.9265
vn 0.0000 1.0000 0.0000
vn 0.3972 -0.0246 0.9174
vn 0.5685 -0.0246 0.8223
vn -0.0107 0.7411 -0.6713
vn 0.0111 0.9952 0.0968
vn 0.0000 -0.8944 0.4472
vn 0.1047 0.9812 -0.1622
vn 0.0000 0.1240 0.9923
vn 0.0643 0.8015 0.5946
vn 0.1386 0.9812 0.1343
vn 0.0000 -0.7071 0.7071
vn 0.1716 0.3095 0.9353
vn -0.1588 0.9812 0.1098
vn 0.0000 0.0000 1.0000
vn -0.0986 0.6539 0.7501
vn 0.1929 0.9812 -0.0030
vn 0.1347 0.6862 -0.7149
vn 0.1794 -0.0244 -0.9835
vn 0.0822 -0.0243 -0.9963
vn -0.0031 0.9812 -0.1930
vn 0.0000 0.1769 -0.9842
vn -0.0134 0.7013 -0.7128
vn 0.1899 0.9812 0.0346
vn 0.9919 -0.0969 0.0818
vn -0.9996 0.0232 0.0159
vn -0.9835 0.0232 -0.1794
vn -0.9964 0.0230 -0.0822
vn -0.9296 0.0232 -0.3679
vn -0.9612 0.0230 -0.2750
vn -0.8400 0.0232 -0.5421
vn -0.8891 0.0230 -0.4572
vn -0.7181 0.0232 -0.6956
vn -0.7828 0.0230 -0.6219
vn -0.5686 0.0232 -0.8223
vn -0.6464 0.0230 -0.7626
vn -0.3972 0.0232 -0.9174
vn -0.2106 0.0232 -0.9773
vn -0.3054 0.0230 -0.9520
vn -0.0159 0.0232 -0.9996
vn -0.1138 0.0230 -0.9932
vn 0.1794 0.0232 -0.9835
vn 0.0822 0.0230 -0.9964
vn 0.3679 0.0232 -0.9296
vn 0.2750 0.0230 -0.9612
vn 0.5421 0.0232 -0.8400
vn 0.4572 0.0230 -0.8891
vn 0.6956 0.0232 -0.7181
vn 0.6219 0.0230 -0.7828
vn 0.8223 0.0232 -0.5686
vn 0.7626 0.0230 -0.6464
vn 0.9174 0.0232 -0.3972
vn 0.8741 0.0230 -0.4852
vn 0.9773 0.0232 -0.2106
vn 0.9520 0.0230 -0.3054
vn 0.9996 0.0232 -0.0159
vn 0.9932 0.0230 -0.1138
vn 0.9835 0.0232 0.1794
vn 0.9964 0.0230 0.0822
vn 0.9296 0.0232 0.3679
vn 0.9612 0.0230 0.2750
vn 0.8400 0.0232 0.5421
vn 0.8891 0.0230 0.4572
vn 0.7181 0.0232 0.6956
vn 0.7828 0.0230 0.6219
vn 0.5686 0.0232 0.8223
vn 0.6464 0.0230 0.7626
vn 0.3972 0.0232 0.9174
vn 0.4852 0.0230 0.8741
vn 0.2106 0.0232 0.9773
vn 0.3054 0.0230 0.9520
vn 0.0159 0.0232 0.9996
vn 0.1138 0.0230 0.9932
vn -0.1794 0.0232 0.9835
vn -0.0822 0.0230 0.9964
vn -0.3679 0.0232 0.9296
vn -0.2750 0.0230 0.9612
vn -0.5421 0.0232 0.8400
vn -0.4572 0.0230 0.8891
vn -0.6956 0.0232 0.7181
vn -0.6219 0.0230 0.7828
vn -0.8223 0.0232 0.5686
vn -0.7626 0.0230 0.6464
vn -0.9174 0.0232 0.3972
vn -0.8741 0.0230 0.4852
vn -0.1386 0.9812 -0.1343
vn -0.0763 0.9952 -0.0606
vn -0.9773 0.0232 0.2106
vn -0.9520 0.0230 0.3054
vn -0.9932 0.0230 0.1138
vn 0.1587 0.9812 -0.1098
vn 0.0743 0.9952 -0.0630
vn 0.0767 0.9812 0.1771
vn 0.0615 0.6415 0.7647
vn -0.1887 0.9812 0.0407
vn -0.1268 0.6740 0.7277
vn 0.0346 0.9812 -0.1899
vn 0.0080 0.9952 -0.0971
vn -0.1047 0.9812 0.1622
vn -0.4552 -0.0968 0.8851
vn 0.0407 0.9812 0.1887
vn 0.0432 0.8066 -0.5895
vn 0.0000 0.1240 -0.9923
vn -0.1929 0.9812 0.0031
vn -0.0974 0.9862 0.1337
vn 0.0000 0.9701 0.2425
vn 0.0000 0.2137 0.9769
vn 0.0000 -0.2425 -0.9701
vn 0.1886 0.9812 -0.0406
vn 0.1269 0.6741 -0.7277
vn 0.0000 -0.3218 0.9468
vn -0.1795 0.9812 -0.0709
vn -0.1355 0.7130 0.6880
vn 0.1047 0.9812 -0.1621
vn 0.0529 0.7299 -0.6815
vn 0.0000 0.2425 -0.9701
vn -0.1587 0.9812 0.1098
vn -0.0743 0.9952 0.0630
vn 0.0000 -0.2137 0.9769
vn 0.0000 -0.9701 -0.2425
vn -0.0346 0.9812 0.1899
vn -0.0080 0.9952 0.0971
vn 0.0000 -0.4472 -0.8944
vn 0.1343 0.9812 -0.1386
vn 0.0817 0.8285 0.5541
vn 0.0000 0.2425 0.9701
vn 0.1098 0.9812 0.1587
vn 0.6435 -0.0974 0.7592
vn -0.1771 0.9812 0.0767
vn -0.1146 0.6632 0.7396
vn 0.0000 -0.0312 0.9995
vn -0.1932 0.9810 -0.0159
vn -0.1899 0.9812 -0.0346
vn -0.1926 0.9810 0.0221
vn -0.1930 0.9812 0.0031
vn -0.5882 0.0332 0.8080
vn -0.1846 0.9810 0.0592
vn -0.1695 0.9810 0.0941
vn -0.0852 0.9952 0.0473
vn -0.1479 0.9810 0.1254
vn -0.1206 0.9810 0.1518
vn -0.1343 0.9812 0.1386
vn -0.6191 -0.0974 0.7793
vn -0.0887 0.9810 0.1724
vn -0.0445 0.9952 0.0866
vn -0.0533 0.9810 0.1864
vn -0.0710 0.9812 0.1794
vn -0.0710 0.9812 0.1795
vn -0.0372 0.8334 -0.5514
vn -0.0159 0.9810 0.1932
vn -0.0140 0.7166 -0.6973
vn 0.0221 0.9810 0.1926
vn 0.0031 0.9812 0.1930
vn 0.0133 0.7040 0.7101
vn 0.0592 0.9810 0.1846
vn 0.3040 -0.0969 0.9477
vn 0.0941 0.9810 0.1695
vn 0.1254 0.9810 0.1479
vn 0.0630 0.9952 0.0743
vn 0.1518 0.9810 0.1206
vn 0.1594 0.5606 -0.8126
vn 0.1724 0.9810 0.0887
vn 0.1621 0.9812 0.1047
vn 0.1622 0.9812 0.1047
vn 0.1864 0.9810 0.0533
vn 0.1795 0.9812 0.0710
vn 0.1932 0.9810 0.0159
vn 0.1926 0.9810 -0.0221
vn 0.1930 0.9812 -0.0031
vn 0.0976 0.9889 0.1117
vn 0.1846 0.9810 -0.0592
vn 0.1887 0.9812 -0.0407
vn 0.1346 0.7152 0.6858
vn 0.1695 0.9810 -0.0941
vn 0.1771 0.9812 -0.0766
vn 0.1771 0.9812 -0.0767
vn 0.1479 0.9810 -0.1254
vn 0.1664 0.3082 -0.9367
vn 0.1206 0.9810 -0.1518
vn 0.0887 0.9810 -0.1724
vn 0.0445 0.9952 -0.0866
vn 0.0533 0.9810 -0.1864
vn 0.0710 0.9812 -0.1795
vn 0.0268 0.9952 -0.0937
vn 0.0159 0.9810 -0.1932
vn 0.0159 0.6596 0.7515
vn -0.0221 0.9810 -0.1926
vn -0.0592 0.9810 -0.1846
vn -0.0407 0.9812 -0.1887
vn -0.0941 0.9810 -0.1695
vn -0.0767 0.9812 -0.1771
vn -0.1254 0.9810 -0.1479
vn -0.1098 0.9812 -0.1587
vn -0.1518 0.9810 -0.1206
vn -0.0863 0.8121 -0.5771
vn -0.1724 0.9810 -0.0887
vn -0.1621 0.9812 -0.1048
vn -0.1622 0.9812 -0.1047
vn -0.8851 -0.0968 -0.4552
vn -0.1864 0.9810 -0.0533
vn -0.1795 0.9812 -0.0710
vn -0.0956 0.9618 -0.2567
vn -0.1898 0.9812 -0.0347
vn -0.1277 0.7267 0.6750
vn -0.0298 0.9952 -0.0928
vn 0.0099 0.9058 0.4236
vn 0.0606 0.9952 -0.0763
vn 0.1118 0.7417 0.6613
vn 0.1588 0.9812 -0.1098
vn 0.1963 0.3173 -0.9278
vn 0.0946 0.9611 -0.2595
vn 0.0972 0.9928 0.0704
vn 0.6436 -0.0969 0.7592
vn 0.0543 0.7683 0.6378
vn 0.0529 0.7649 -0.6420
vn -0.0446 0.9952 0.0866
vn -0.0795 0.6464 0.7589
vn -0.9477 -0.0974 0.3040
vn -0.0976 0.9889 -0.1117
vn 0.0000 0.2137 -0.9769
vn 0.0000 -0.1664 -0.9861
vn 0.0000 -0.1240 0.9923
vn 0.0000 -0.1843 -0.9829
vn 0.0000 0.4472 0.8944
vn 0.0000 0.0624 0.9981
vn 0.0000 0.1843 0.9829
vn 0.0000 -0.9701 0.2425
vn 0.0000 0.9701 -0.2425
vn 0.0000 -0.3189 0.9478
vn 0.0000 0.8944 -0.4472
vn 0.0000 -0.7071 -0.7071
vn 0.0000 0.9923 -0.1240
vn 0.0000 0.9923 0.1240
vn 0.0000 0.0156 -0.9999
vn 0.0000 0.9981 -0.0624
vn 0.0000 0.8944 0.4472
vn 0.0000 0.4808 0.8768
vn 0.0000 0.3511 0.9363
vn 0.7193 -0.6946 -0.0114
vn 0.9996 -0.0246 -0.0159
vn 0.9835 -0.0246 0.1794
vn 0.7077 -0.6946 0.1291
vn 0.9296 -0.0246 0.3678
vn 0.6690 -0.6946 0.2647
vn 0.8399 -0.0246 0.5421
vn 0.6045 -0.6946 0.3901
vn 0.7180 -0.0246 0.6956
vn 0.5167 -0.6946 0.5006
vn 0.4092 -0.6946 0.5918
vn 0.2858 -0.6946 0.6602
vn 0.2106 -0.0246 0.9773
vn 0.1516 -0.6946 0.7033
vn 0.0159 -0.0246 0.9996
vn 0.0114 -0.6946 0.7193
vn -0.1794 -0.0246 0.9835
vn -0.1291 -0.6946 0.7077
vn -0.3678 -0.0246 0.9296
vn -0.2647 -0.6946 0.6690
vn -0.5421 -0.0246 0.8399
vn -0.3901 -0.6946 0.6045
vn -0.6956 -0.0246 0.7180
vn -0.5006 -0.6946 0.5167
vn -0.8223 -0.0246 0.5685
vn -0.5918 -0.6946 0.4092
vn -0.9174 -0.0246 0.3972
vn -0.6602 -0.6946 0.2858
vn -0.9773 -0.0246 0.2106
vn -0.7033 -0.6946 0.1516
vn -0.9996 -0.0246 0.0159
vn -0.7193 -0.6946 0.0114
vn -0.9835 -0.0246 -0.1794
vn -0.7077 -0.6946 -0.1291
vn -0.9296 -0.0246 -0.3678
vn -0.6690 -0.6946 -0.2647
vn -0.8399 -0.0246 -0.5421
vn -0.6045 -0.6946 -0.3901
vn -0.7180 -0.0246 -0.6956
vn -0.5167 -0.6946 -0.5006
vn -0.5685 -0.0246 -0.8223
vn -0.4092 -0.6946 -0.5918
vn -0.3972 -0.0246 -0.9174
vn -0.2858 -0.6946 -0.6602
vn -0.2106 -0.0246 -0.9773
vn -0.1516 -0.6946 -0.7033
vn -0.0159 -0.0246 -0.9996
vn -0.0114 -0.6946 -0.7193
vn 0.1794 -0.0246 -0.9835
vn 0.1291 -0.6946 -0.7077
vn 0.0822 -0.0244 -0.9963
vn 0.3678 -0.0246 -0.9296
vn 0.2647 -0.6946 -0.6690
vn 0.5421 -0.0246 -0.8399
vn 0.3901 -0.6946 -0.6045
vn 0.6956 -0.0246 -0.7180
vn 0.5006 -0.6946 -0.5167
vn 0.8223 -0.0246 -0.5685
vn 0.5918 -0.6946 -0.4092
vn 0.9174 -0.0246 -0.3972
vn 0.6602 -0.6946 -0.2858
vn 0.9773 -0.0246 -0.2106
vn 0.7033 -0.6946 -0.1516
s 1
f 84/79/34 112/80/35 343/81/36
f 508/82/37 316/83/37 237/84/37
f 107/85/38 319/86/38 242/87/38
f 109/88/39 325/89/39 247/90/39
f 105/91/39 116/92/39 234/93/39
f 515/94/40 120/95/40 350/96/40
f 524/97/41 321/98/41 245/99/41
f 500/100/42 314/101/39 233/102/43
f 510/103/41 317/104/41 238/105/41
f 521/106/39 124/107/39 352/108/39
f 80/109/44 110/110/44 341/111/44
f 104/112/39 127/113/39 248/114/39
f 503/115/45 117/116/45 235/117/45
f 96/118/46 121/119/46 351/120/46
f 101/121/39 322/122/39 354/123/39
f 87/124/47 500/125/48 218/126/46 113/127/46 344/128/46
f 512/129/40 119/130/40 348/131/40
f 212/132/49 125/133/46 243/134/50
f 498/135/51 111/136/51 342/137/51
f 92/138/52 315/139/53 347/140/54
f 517/141/55 122/142/56 240/143/57
f 526/144/58 323/145/59 246/146/60
f 88/147/38 114/148/38 345/149/38
f 514/150/61 215/151/41 349/152/62
f 98/153/63 126/154/64 353/155/46
f 499/156/59 313/157/59 232/158/59
f 506/159/59 118/160/59 236/161/59
f 519/162/59 123/163/59 241/164/59
f 103/165/59 324/166/59 355/167/59
f 90/168/65 115/169/66 346/170/67
f 106/171/68 318/172/39 239/173/69
f 108/174/59 320/175/59 244/176/59
f 128/177/70 129/178/71 130/179/71 192/180/72 183/181/70
f 129/182/71 131/183/73 132/184/73 249/185/74 130/186/71
f 131/187/73 133/188/75 134/189/75 250/190/76 132/191/73
f 133/192/75 135/193/77 136/194/77 251/195/78 134/196/75
f 135/197/77 137/198/79 184/199/79 356/200/80 136/201/77
f 137/202/79 138/203/81 139/204/81 184/205/79
f 138/206/81 140/207/82 141/208/82 194/209/83 139/210/81
f 140/211/82 142/212/84 185/213/84 195/214/85 141/215/82
f 142/216/84 143/217/86 144/218/86 196/219/87 185/220/84
f 143/221/86 145/222/88 186/223/88 197/224/89 144/225/86
f 145/226/88 146/227/90 147/228/90 357/229/91 186/230/88
f 146/231/90 148/232/92 187/233/92 198/234/93 147/235/90
f 148/236/92 149/237/94 150/238/94 199/239/95 187/240/92
f 149/241/94 151/242/96 152/243/96 252/244/97 150/245/94
f 151/246/96 153/247/98 154/248/98 200/249/99 152/250/96
f 153/251/98 155/252/100 156/253/100 201/254/101 154/255/98
f 155/256/100 157/257/102 188/258/102 358/259/103 156/260/100
f 157/261/102 158/262/104 159/263/104 202/264/105 188/265/102
f 158/266/104 160/267/106 161/268/106 203/269/107 159/270/104
f 160/271/106 162/272/108 163/273/108 253/274/109 161/275/106
f 162/276/108 164/277/110 165/278/110 204/279/111 163/280/108
f 164/281/110 166/282/112 167/283/112 205/284/113 165/285/110
f 166/286/112 168/287/114 169/288/114 254/289/115 167/290/112
f 168/291/114 170/292/116 189/293/116 206/294/117 169/295/114
f 170/296/116 171/297/118 172/298/118 359/299/119 189/300/116
f 171/301/118 173/302/120 190/303/120 207/304/121 172/305/118
f 173/306/120 174/307/122 175/308/122 208/309/123 190/310/120
f 174/311/122 176/312/124 191/313/124 360/314/125 175/315/122
f 176/316/124 177/317/126 178/318/126 209/319/127 191/320/124
f 177/321/126 179/322/128 180/323/128 255/324/129 178/325/126
f 136/326/130 388/327/131 251/328/46
f 179/329/128 181/330/132 182/331/132 210/332/133 180/333/128
f 181/334/132 128/335/70 183/336/70 361/337/134 182/338/132
f 150/339/135 393/340/136 199/341/46
f 167/342/137 401/343/138 205/344/59
f 182/345/139 407/346/140 210/347/59
f 144/348/141 391/349/142 196/350/46
f 159/351/39 397/352/39 202/353/39
f 175/354/143 404/355/144 208/356/39
f 184/357/38 265/358/38 356/359/38
f 152/360/59 394/361/59 252/362/59
f 169/363/145 402/364/146 254/365/147
f 130/366/46 385/367/46 192/368/46
f 183/369/148 273/370/149 361/371/150
f 186/372/151 267/373/151 197/374/151
f 161/375/35 398/376/35 203/377/35
f 191/378/39 272/379/39 360/380/39
f 139/381/152 389/382/152 193/383/152 257/384/152 184/385/152
f 154/386/153 395/387/154 200/388/41
f 189/389/155 270/390/155 206/391/155
f 132/392/156 386/393/157 249/394/59
f 147/395/158 392/396/159 357/397/160
f 163/398/46 399/399/46 253/400/46
f 178/401/161 405/402/162 209/403/46
f 141/404/163 390/405/163 194/406/163
f 156/407/164 396/408/164 201/409/164
f 172/410/165 403/411/166 359/412/46
f 134/413/167 387/414/167 250/415/167
f 187/416/168 268/417/169 198/418/170
f 165/419/171 400/420/172 204/421/39
f 180/422/173 406/423/174 255/424/59
f 185/425/39 266/426/39 195/427/39
f 188/428/44 269/429/44 358/430/44
f 190/431/175 271/432/175 207/433/175
f 496/434/176 385/367/176 130/435/177 408/436/177
f 495/437/176 256/438/176 192/368/176 274/439/176
f 494/440/178 273/370/149 183/441/148 275/442/179
f 493/443/178 384/444/180 361/371/178 276/445/178
f 492/446/181 407/346/140 182/447/139 409/448/139
f 491/449/181 383/450/181 210/347/181 277/451/181
f 490/452/182 406/423/174 180/453/173 410/454/173
f 489/455/182 382/456/183 255/424/182 278/457/182
f 488/458/184 405/402/162 178/459/161 411/460/161
f 487/461/184 264/462/184 209/403/184 279/463/184
f 486/464/185 272/379/185 191/465/186 412/466/186
f 485/467/185 381/468/187 360/380/185 280/469/185
f 484/470/188 404/355/144 175/471/143 413/472/143
f 483/473/188 263/474/189 208/356/188 281/475/188
f 482/476/190 271/432/190 190/477/191 282/478/192
f 481/479/190 380/480/193 207/433/190 283/481/190
f 480/482/194 403/411/166 172/483/165 414/484/165
f 479/485/194 262/486/195 359/412/194 284/487/194
f 478/488/196 270/390/196 189/489/197 285/490/197
f 477/491/196 379/492/198 206/391/196 286/493/196
f 476/494/199 402/364/146 169/495/145 415/496/145
f 475/497/199 378/498/200 254/365/199 287/499/199
f 474/500/201 401/343/138 167/501/137 416/502/137
f 473/503/201 377/504/138 205/344/201 288/505/201
f 472/506/202 400/420/172 165/507/171 417/508/171
f 471/509/202 376/510/203 204/421/202 289/511/202
f 470/512/204 399/399/204 163/513/55 418/514/55
f 469/515/204 375/516/205 253/400/204 290/517/204
f 468/518/206 398/376/206 161/519/207 419/520/208
f 467/521/206 374/522/206 203/377/206 291/523/206
f 466/524/209 397/352/209 159/525/210 420/526/210
f 465/527/209 261/528/209 202/353/209 292/529/209
f 464/530/211 269/429/211 188/531/68 293/532/68
f 463/533/211 373/534/211 358/430/211 294/535/211
f 462/536/212 396/408/212 156/537/213 421/538/213
f 461/539/212 372/540/214 201/409/212 295/541/212
f 460/542/215 395/387/154 154/543/153 422/544/216
f 459/545/215 371/546/217 200/388/215 296/547/215
f 458/548/218 394/361/218 152/549/219 423/550/220
f 457/551/218 370/552/218 252/362/218 297/553/218
f 456/554/221 393/340/136 150/555/135 424/556/135
f 455/557/221 260/558/222 199/341/221 298/559/221
f 454/560/223 268/417/169 187/561/168 299/562/168
f 453/563/223 369/564/223 198/418/223 300/565/223
f 452/566/224 392/396/159 147/567/158 425/568/52
f 451/569/224 259/570/225 357/397/224 301/571/224
f 450/572/226 267/373/226 186/573/227 302/574/227
f 449/575/226 368/576/228 197/374/226 303/577/226
f 448/578/229 391/349/142 144/579/141 426/580/141
f 447/581/229 258/582/230 196/350/229 304/583/229
f 446/584/231 266/426/231 185/585/65 427/586/65
f 445/587/231 367/588/231 195/427/231 305/589/231
f 444/590/232 390/405/232 141/591/233 428/592/233
f 443/593/232 366/594/232 194/406/232 306/595/232
f 442/596/234 389/597/234 139/204/235 429/598/235
f 441/599/234 257/600/234 193/601/234 307/602/234
f 440/603/236 265/358/236 184/604/237 308/605/237
f 439/606/236 365/607/236 356/359/236 309/608/236
f 438/609/238 388/327/131 136/610/130 430/611/130
f 437/612/238 364/613/239 251/328/238 310/614/238
f 436/615/240 387/414/240 134/616/241 431/617/242
f 435/618/240 363/619/243 250/415/240 311/620/240
f 434/621/244 386/393/157 132/622/156 432/623/245
f 433/624/244 362/625/157 249/394/244 312/626/244
f 326/627/246 433/628/244 312/629/244 111/630/244
f 80/109/247 408/631/177 433/632/244 326/633/246
f 408/634/177 130/635/177 362/636/157 433/637/244
f 342/638/244 434/639/244 432/640/245 498/641/156
f 111/642/244 312/643/244 434/644/244 342/645/244
f 312/646/244 249/647/244 386/648/157 434/649/244
f 327/650/248 435/651/240 311/652/240 313/653/240
f 498/135/156 432/654/245 435/655/240 327/656/248
f 432/657/245 132/658/156 363/659/243 435/660/240
f 232/661/240 436/662/240 431/663/242 499/664/242
f 313/665/240 311/666/240 436/667/240 232/668/240
f 311/669/240 250/670/240 387/671/240 436/672/240
f 217/673/238 437/674/238 310/675/238 112/676/238
f 499/156/242 431/677/242 437/678/238 217/679/238
f 431/680/242 134/681/241 364/682/239 437/683/238
f 343/684/36 438/685/238 430/686/130 84/687/34
f 112/688/238 310/689/238 438/690/238 343/691/36
f 310/692/238 251/693/238 388/694/131 438/695/238
f 328/696/236 439/697/236 309/698/236 314/699/236
f 84/79/34 430/700/130 439/701/236 328/702/236
f 430/703/130 136/704/130 365/705/236 439/706/236
f 233/707/43 440/708/236 308/709/237 500/710/42
f 314/711/236 309/712/236 440/713/236 233/714/43
f 309/715/236 356/716/236 265/717/236 440/718/236
f 218/719/234 441/720/234 307/721/234 113/722/234
f 500/100/42 308/723/237 441/724/234 218/725/234
f 308/726/237 184/727/237 257/728/234 441/729/234
f 344/730/234 442/731/234 429/732/235 87/733/235
f 113/734/234 307/735/234 442/736/234 344/737/234
f 307/738/234 193/739/234 389/740/234 442/741/234
f 329/742/249 443/743/232 306/744/232 114/745/232
f 87/746/235 429/747/235 443/748/232 329/749/249
f 429/750/235 139/751/235 366/752/232 443/753/232
f 345/754/232 444/755/232 428/756/233 88/757/233
f 114/758/232 306/759/232 444/760/232 345/761/232
f 306/762/232 194/763/232 390/764/232 444/765/232
f 330/766/231 445/767/231 305/768/231 115/769/231
f 88/147/233 428/770/233 445/771/231 330/772/231
f 428/773/233 141/774/233 367/775/231 445/776/231
f 346/777/67 446/778/231 427/779/65 90/780/65
f 115/781/231 305/782/231 446/783/231 346/784/67
f 305/785/231 195/786/231 266/787/231 446/788/231
f 331/789/250 447/790/229 304/791/229 116/792/229
f 90/168/65 427/793/65 447/794/229 331/795/250
f 427/796/65 185/797/65 258/798/230 447/799/229
f 234/800/229 448/801/229 426/802/141 105/803/141
f 116/804/229 304/805/229 448/806/229 234/807/229
f 304/808/229 196/809/229 391/810/142 448/811/229
f 219/812/228 449/813/226 303/814/226 117/815/226
f 105/91/141 426/816/141 449/817/226 219/818/228
f 426/819/141 144/820/141 368/821/228 449/822/226
f 235/823/226 450/824/226 302/825/227 503/826/227
f 117/827/226 303/828/226 450/829/226 235/830/226
f 303/831/226 197/832/226 267/833/226 450/834/226
f 220/835/225 451/836/224 301/837/224 315/838/224
f 503/115/227 302/839/227 451/840/224 220/841/225
f 302/842/227 186/843/227 259/844/225 451/845/224
f 347/846/54 452/847/224 425/848/52 92/849/52
f 315/850/224 301/851/224 452/852/224 347/853/54
f 301/854/224 357/855/224 392/856/159 452/857/224
f 332/858/251 453/859/223 300/860/223 118/861/223
f 92/138/52 425/862/52 453/863/223 332/864/251
f 425/865/52 147/866/158 369/867/223 453/868/223
f 236/869/223 454/870/223 299/871/168 506/872/168
f 118/873/223 300/874/223 454/875/223 236/876/223
f 300/877/223 198/878/223 268/879/169 454/880/223
f 221/881/252 455/882/221 298/883/221 316/884/221
f 506/159/168 299/885/168 455/886/221 221/887/252
f 299/888/168 187/889/168 260/890/222 455/891/221
f 237/892/221 456/893/221 424/894/135 508/895/253
f 316/896/221 298/897/221 456/898/221 237/899/221
f 298/900/221 199/901/221 393/902/136 456/903/221
f 222/904/254 457/905/218 297/906/218 317/907/218
f 508/82/253 424/908/135 457/909/218 222/910/254
f 424/911/135 150/912/135 370/913/218 457/914/218
f 238/915/218 458/916/218 423/917/220 510/918/220
f 317/919/218 297/920/218 458/921/218 238/922/218
f 297/923/218 252/924/218 394/925/218 458/926/218
f 223/927/255 459/928/215 296/929/215 119/930/215
f 510/103/220 423/931/220 459/932/215 223/933/255
f 423/934/220 152/935/219 371/936/217 459/937/215
f 348/938/215 460/939/215 422/940/216 512/941/216
f 119/942/215 296/943/215 460/944/215 348/945/215
f 296/946/215 200/947/215 395/948/154 460/949/215
f 333/950/212 461/951/212 295/952/212 215/953/212
f 512/129/216 422/954/216 461/955/212 333/956/212
f 422/957/216 154/958/153 372/959/214 461/960/212
f 349/961/62 462/962/212 421/963/213 514/964/61
f 215/965/212 295/966/212 462/967/212 349/968/62
f 295/969/212 201/970/212 396/971/212 462/972/212
f 334/973/256 463/974/211 294/975/211 318/976/211
f 514/150/61 421/977/213 463/978/211 334/979/256
f 421/980/213 156/981/213 373/982/211 463/983/211
f 239/984/69 464/985/211 293/986/68 106/987/68
f 318/988/211 294/989/211 464/990/211 239/991/69
f 294/992/211 358/993/211 269/994/211 464/995/211
f 224/996/209 465/997/209 292/998/209 120/999/209
f 106/171/68 293/1000/68 465/1001/209 224/1002/209
f 293/1003/68 188/1004/68 261/1005/209 465/1006/209
f 350/1007/209 466/1008/209 420/1009/210 515/1010/210
f 120/1011/209 292/1012/209 466/1013/209 350/1014/209
f 292/1015/209 202/1016/209 397/1017/209 466/1018/209
f 335/1019/206 467/1020/206 291/1021/206 121/1022/206
f 515/94/210 420/1023/210 467/1024/206 335/1025/206
f 420/1026/210 159/1027/210 374/1028/206 467/1029/206
f 351/1030/206 468/1031/206 419/1032/208 96/1033/208
f 121/1034/206 291/1035/206 468/1036/206 351/1037/206
f 291/1038/206 203/1039/206 398/1040/206 468/1041/206
f 336/1042/204 469/1043/204 290/1044/204 122/1045/204
f 96/118/208 419/1046/208 469/1047/204 336/1048/204
f 419/1049/208 161/1050/207 375/1051/205 469/1052/204
f 240/1053/57 470/1054/204 418/1055/55 517/1056/55
f 122/1057/204 290/1058/204 470/1059/204 240/1060/57
f 290/1061/204 253/1062/204 399/1063/204 470/1064/204
f 225/1065/257 471/1066/202 289/1067/202 123/1068/202
f 517/141/55 418/1069/55 471/1070/202 225/1071/257
f 418/1072/55 163/1073/55 376/1074/203 471/1075/202
f 241/1076/202 472/1077/202 417/1078/171 519/1079/171
f 123/1080/202 289/1081/202 472/1082/202 241/1083/202
f 289/1084/202 204/1085/202 400/1086/172 472/1087/202
f 226/1088/258 473/1089/201 288/1090/201 319/1091/201
f 519/162/171 417/1092/171 473/1093/201 226/1094/258
f 417/1095/171 165/1096/171 377/1097/138 473/1098/201
f 242/1099/201 474/1100/201 416/1101/137 107/1102/137
f 319/1103/201 288/1104/201 474/1105/201 242/1106/201
f 288/1107/201 205/1108/201 401/1109/138 474/1110/201
f 227/1111/200 475/1112/199 287/1113/199 124/1114/199
f 107/85/137 416/1115/137 475/1116/199 227/1117/200
f 416/1118/137 167/1119/137 378/1120/200 475/1121/199
f 352/1122/199 476/1123/199 415/1124/145 521/1125/145
f 124/1126/199 287/1127/199 476/1128/199 352/1129/199
f 287/1130/199 254/1131/199 402/1132/146 476/1133/199
f 337/1134/196 477/1135/196 286/1136/196 125/1137/196
f 521/106/145 415/1138/145 477/1139/196 337/1140/196
f 415/1141/145 169/1142/145 379/1143/198 477/1144/196
f 243/1145/50 478/1146/196 285/1147/197 212/1148/49
f 125/1149/196 286/1150/196 478/1151/196 243/1152/50
f 286/1153/196 206/1154/196 270/1155/196 478/1156/196
f 532/1157/259 479/1158/194 284/1159/194 126/1160/194
f 212/132/49 285/1161/197 479/1162/194 532/1163/259
f 285/1164/197 189/1165/197 262/1166/195 479/1167/194
f 353/1168/194 480/1169/194 414/1170/165 98/1171/165
f 126/1172/194 284/1173/194 480/1174/194 353/1175/194
f 284/1176/194 359/1177/194 403/1178/166 480/1179/194
f 338/1180/190 481/1181/190 283/1182/190 320/1183/190
f 98/153/165 414/1184/165 481/1185/190 338/1186/190
f 414/1187/165 172/1188/165 380/1189/193 481/1190/190
f 244/1191/190 482/1192/190 282/1193/192 108/1194/191
f 320/1195/190 283/1196/190 482/1197/190 244/1198/190
f 283/1199/190 207/1200/190 271/1201/190 482/1202/190
f 228/1203/260 483/1204/188 281/1205/188 321/1206/188
f 108/174/191 282/1207/192 483/1208/188 228/1209/260
f 282/1210/192 190/1211/191 263/1212/189 483/1213/188
f 245/1214/188 484/1215/188 413/1216/143 524/1217/143
f 321/1218/188 281/1219/188 484/1220/188 245/1221/188
f 281/1222/188 208/1223/188 404/1224/144 484/1225/188
f 229/1226/261 485/1227/185 280/1228/185 322/1229/185
f 524/97/143 413/1230/143 485/1231/185 229/1232/261
f 413/1233/143 175/1234/143 381/1235/187 485/1236/185
f 354/1237/185 486/1238/185 412/1239/186 101/1240/186
f 322/1241/185 280/1242/185 486/1243/185 354/1244/185
f 280/1245/185 360/1246/185 272/1247/185 486/1248/185
f 339/1249/184 487/1250/184 279/1251/184 323/1252/184
f 101/121/186 412/1253/186 487/1254/184 339/1255/184
f 412/1256/186 191/1257/186 264/1258/184 487/1259/184
f 246/1260/60 488/1261/184 411/1262/161 526/1263/58
f 323/1264/184 279/1265/184 488/1266/184 246/1267/60
f 279/1268/184 209/1269/184 405/1270/162 488/1271/184
f 230/1272/182 489/1273/182 278/1274/182 324/1275/182
f 526/144/58 411/1276/161 489/1277/182 230/1278/182
f 411/1279/161 178/1280/161 382/1281/183 489/1282/182
f 355/1283/182 490/1284/182 410/1285/173 103/1286/173
f 324/1287/182 278/1288/182 490/1289/182 355/1290/182
f 278/1291/182 255/1292/182 406/1293/174 490/1294/182
f 340/1295/262 491/1296/181 277/1297/181 325/1298/181
f 103/165/173 410/1299/173 491/1300/181 340/1301/262
f 410/1302/173 180/1303/173 383/1304/181 491/1305/181
f 247/1306/181 492/1307/181 409/1308/139 109/1309/139
f 325/1310/181 277/1311/181 492/1312/181 247/1313/181
f 277/1314/181 210/1315/181 407/1316/140 492/1317/181
f 231/1318/263 493/1319/178 276/1320/178 127/1321/178
f 109/88/139 409/1322/139 493/1323/178 231/1324/263
f 409/1325/139 182/1326/139 384/1327/180 493/1328/178
f 248/1329/178 494/1330/178 275/1331/179 104/1332/179
f 127/1333/178 276/1334/178 494/1335/178 248/1336/178
f 276/1337/178 361/1338/178 273/1339/149 494/1340/178
f 216/1341/176 495/1342/176 274/1343/176 110/1344/176
f 104/112/179 275/1345/179 495/1346/176 216/1347/176
f 275/1348/179 183/1349/148 256/1350/176 495/1351/176
f 341/1352/176 496/1353/176 408/1354/177 80/1355/247
f 110/1356/176 274/1357/176 496/1358/176 341/1359/176
f 274/1360/176 192/1361/176 385/1362/176 496/1363/176
f 207/1364/264 380/480/193 172/483/165
f 271/1365/39 207/1200/39 380/1189/39
f 358/1366/44 373/534/44 156/537/44
f 358/1366/59 373/534/59 269/994/59
f 195/1367/39 367/588/39 141/591/39
f 266/1368/46 195/786/46 367/775/46
f 255/1369/46 382/456/183 178/459/161
f 255/1369/59 406/423/59 382/1281/59
f 204/1370/46 376/510/203 163/513/55
f 400/1371/59 376/510/59 204/421/59
f 198/1372/46 369/564/46 147/567/46
f 268/1373/160 369/564/160 198/418/160
f 250/1374/39 363/619/243 132/622/156
f 250/1374/37 363/619/37 387/671/37
f 359/1375/265 262/486/195 189/489/197
f 359/1375/39 262/486/39 403/1178/39
f 201/1376/150 372/540/214 154/543/153
f 396/1377/46 372/540/46 201/409/46
f 194/1378/266 366/594/266 139/204/266
f 390/1379/267 366/594/267 194/406/267
f 209/1380/167 264/462/167 191/465/167
f 405/1381/268 264/462/268 209/403/268
f 253/1382/167 375/516/205 161/519/207
f 253/1382/59 375/516/59 399/1063/59
f 357/1383/46 259/570/225 186/573/227
f 357/1383/269 392/396/269 259/844/269
f 249/1384/59 362/625/157 130/435/177
f 249/1384/59 386/393/59 362/636/59
f 206/1385/270 379/492/198 169/495/145
f 270/1386/39 379/492/39 206/391/39
f 200/1387/59 371/546/217 152/549/219
f 395/1388/59 371/546/59 200/388/59
f 360/1389/39 381/468/187 175/471/143
f 360/1389/46 381/468/46 272/1247/46
f 203/1390/46 374/522/46 159/525/46
f 398/1391/59 374/1028/59 203/1039/59
f 197/1392/46 368/576/228 144/579/141
f 267/1393/270 368/576/270 197/374/270
f 361/1394/271 384/444/180 182/447/139
f 361/1394/272 273/370/272 384/1327/272
f 192/1395/46 256/438/46 183/441/46
f 385/1396/39 256/1350/39 192/1361/39
f 254/1397/39 378/498/200 167/501/137
f 254/1397/59 378/498/59 402/1132/59
f 252/1398/39 370/552/39 150/555/39
f 252/1398/46 370/552/46 394/925/46
f 356/1399/39 365/607/39 136/610/39
f 356/1399/37 365/705/37 265/358/37
f 208/1400/46 263/474/189 190/477/191
f 404/1401/41 263/474/41 208/356/41
f 202/1402/59 261/528/59 188/531/59
f 397/1403/41 261/528/41 202/353/41
f 196/1404/273 258/582/230 185/585/65
f 391/1405/39 258/798/39 196/809/39
f 210/1406/39 383/450/39 180/453/39
f 407/1407/274 383/450/274 210/347/274
f 205/1408/59 377/504/138 165/507/171
f 401/1409/46 205/1108/46 377/1097/46
f 199/1410/275 260/558/222 187/561/168
f 393/1411/59 260/558/59 199/341/59
f 251/1412/37 364/613/239 134/616/241
f 251/1412/167 364/613/167 388/694/167
f 244/1191/46 338/1413/46 320/1414/46
f 320/1195/39 98/1415/39 338/1416/39
f 239/984/276 334/1417/276 318/1418/276
f 318/988/277 514/1419/61 334/1420/256
f 346/777/278 115/169/278 330/1421/278
f 115/781/39 88/1422/39 330/1421/39
f 355/1283/59 230/1423/59 324/1424/59
f 324/1287/46 526/1425/46 230/1426/46
f 241/1076/39 123/163/39 225/1427/39
f 123/1080/39 517/1428/55 225/1427/257
f 236/869/46 118/160/46 332/1429/46
f 118/873/46 92/1430/52 332/1429/251
f 232/661/46 327/1431/46 313/1432/46
f 313/665/59 498/1433/156 327/1434/248
f 353/1168/46 126/154/46 532/1435/46
f 349/961/150 333/1436/150 215/1437/150
f 215/965/59 512/1438/59 333/1439/59
f 345/754/147 114/148/147 329/1440/147
f 114/758/46 87/1441/235 329/1440/249
f 246/1260/59 339/1442/59 323/1443/59
f 323/1264/39 101/1444/39 339/1445/39
f 240/1053/46 122/142/46 336/1446/46
f 122/1057/46 96/1447/46 336/1446/46
f 347/846/39 220/1448/39 315/1449/39
f 315/850/46 503/1450/227 220/1451/225
f 342/638/59 111/136/59 326/1452/59
f 111/642/274 80/1453/247 326/1452/246
f 243/1145/46 125/133/46 337/1454/46
f 125/1149/46 521/1455/46 337/1454/46
f 348/938/46 119/130/46 223/1456/46
f 119/942/274 510/1457/220 223/1456/255
f 354/1237/46 229/1458/46 322/1459/46
f 322/1241/59 524/1460/143 229/1461/261
f 351/1030/39 121/119/39 335/1462/39
f 121/1034/59 515/1463/59 335/1462/59
f 235/823/46 117/116/46 219/1464/46
f 117/827/46 105/1465/141 219/1464/228
f 248/1329/59 127/113/59 231/1466/59
f 127/1333/272 109/1467/139 231/1466/263
f 341/1352/59 110/110/59 216/1468/59
f 110/1356/279 104/1469/279 216/1468/279
f 352/1122/39 124/107/39 227/1470/39
f 124/1126/39 107/1471/137 227/1470/200
f 238/915/275 222/1472/275 317/1473/275
f 317/919/275 508/1474/253 222/1475/254
f 233/707/46 328/1476/46 314/1477/46
f 314/711/46 84/1478/46 328/1479/46
f 245/1214/39 228/1480/39 321/1481/39
f 321/1218/46 108/1482/191 228/1483/260
f 350/1007/280 120/95/280 224/1484/280
f 120/1011/59 106/1485/59 224/1484/59
f 234/800/46 116/92/46 331/1486/46
f 116/804/281 90/1487/65 331/1486/250
f 247/1306/39 340/1488/39 325/1489/39
f 325/1310/39 103/1490/173 340/1491/262
f 242/1099/266 226/1492/266 319/1493/266
f 319/1103/282 519/1494/171 226/1495/258
f 237/892/35 221/1496/35 316/1497/35
f 316/896/59 506/1498/168 221/1499/252
f 343/684/46 217/1500/46 112/1501/46
f 112/688/59 499/1502/59 217/1503/59
f 79/1504/283 104/1469/284 80/1505/285 497/1506/286
f 497/1507/286 80/1453/285 498/1508/287 81/1509/288
f 81/1510/288 498/1433/287 499/1511/289 82/1512/290
f 82/1513/290 499/1502/289 84/1514/291 83/1515/292
f 83/1516/292 84/1478/291 500/1517/48 85/1518/293
f 85/1519/293 500/1520/48 87/1521/47 86/1522/294
f 86/1523/294 87/1441/47 88/1524/295 501/1525/296
f 501/1526/296 88/1422/295 90/1527/297 89/1528/298
f 89/1529/298 90/1487/297 105/1530/299 91/1531/300
f 91/1532/300 105/1465/299 503/1533/301 502/1534/302
f 502/1535/302 503/1450/301 92/1536/303 504/1537/304
f 504/1538/304 92/1430/303 506/1539/305 505/1540/306
f 505/1541/306 506/1498/305 508/1542/307 507/1543/308
f 507/1544/308 508/1474/307 510/1545/309 509/1546/310
f 509/1547/310 510/1457/309 512/1548/311 511/1549/312
f 511/1550/312 512/1438/311 514/1551/313 513/1552/314
f 513/1553/314 514/1419/313 106/1554/315 93/1555/316
f 93/1556/316 106/1485/315 515/1557/317 94/1558/318
f 94/1559/318 515/1463/317 96/1560/319 95/1561/320
f 95/1562/320 96/1447/319 517/1563/321 516/1564/322
f 516/1565/322 517/1428/321 519/1566/323 518/1567/324
f 518/1568/324 519/1494/323 107/1569/325 520/1570/326
f 520/1571/326 107/1471/325 521/1572/327 97/1573/328
f 97/1574/328 521/1575/327 212/1576/49 213/1577/329 528/1578/329 531/1579/329 211/1580/330
f 530/1581/331 522/1582/332 529/1583/333 214/1584/333 211/1585/330 531/1586/329 528/1587/329 213/1588/329 212/1589/49 532/1590/259 126/1591/64 98/1592/63
f 522/1593/332 530/1594/331 98/1595/63 108/1596/334 523/1597/335
f 523/1598/335 108/1482/334 524/1599/336 99/1600/337
f 99/1601/337 524/1460/336 101/1602/338 100/1603/339
f 100/1604/339 101/1444/338 526/1605/340 525/1606/341
f 525/1607/341 526/1425/340 103/1608/342 102/1609/343
f 102/1610/343 103/1490/342 109/1611/344 527/1612/345
f 527/1613/345 109/1467/344 104/1614/284 79/1615/283
f 79/1504/283 497/1616/286 533/1617/39
f 497/1507/286 81/1618/288 533/1617/39
f 81/1510/288 82/1619/290 533/1617/39
f 82/1513/290 83/1620/292 533/1617/39
f 83/1516/292 85/1621/293 533/1617/39
f 85/1519/293 86/1622/294 533/1617/39
f 86/1523/294 501/1623/296 533/1617/39
f 501/1526/296 89/1624/298 533/1617/39
f 89/1529/298 91/1625/300 533/1617/39
f 91/1532/300 502/1626/302 533/1617/39
f 502/1535/302 504/1627/304 533/1617/39
f 504/1538/304 505/1628/306 533/1617/39
f 505/1541/306 507/1629/308 533/1617/39
f 507/1544/308 509/1630/310 533/1617/39
f 509/1547/310 511/1631/312 533/1617/39
f 511/1550/312 513/1632/314 533/1617/39
f 513/1553/314 93/1633/316 533/1617/39
f 93/1556/316 94/1634/318 533/1617/39
f 94/1559/318 95/1635/320 533/1617/39
f 95/1562/320 516/1636/322 533/1617/39
f 516/1565/322 518/1637/324 533/1617/39
f 518/1568/324 520/1638/326 533/1617/39
f 520/1571/326 97/1639/328 533/1617/39
f 97/1640/328 211/1641/330 533/1617/39
f 211/1585/330 535/1642/39 522/1643/332 533/1617/39
f 522/1644/332 523/1645/335 533/1617/39
f 523/1598/335 99/1646/337 533/1617/39
f 99/1601/337 100/1647/339 533/1617/39
f 100/1604/339 525/1648/341 533/1617/39
f 525/1607/341 102/1649/343 533/1617/39
f 102/1610/343 527/1650/345 533/1617/39
f 527/1613/345 79/1651/283 533/1617/39
f 128/1652/46 181/1653/46 534/1654/46
f 181/1655/46 179/1656/46 534/1654/46
f 179/1657/46 177/1658/46 534/1654/46
f 177/1659/46 176/1660/46 534/1654/46
f 176/1661/46 174/1662/46 534/1654/46
f 174/1663/46 173/1664/46 534/1654/46
f 173/1665/46 171/1666/46 534/1654/46
f 171/1667/46 170/1668/46 534/1654/46
f 170/1669/46 168/1670/46 534/1654/46
f 168/1671/46 166/1672/46 534/1654/46
f 166/1673/46 164/1674/46 534/1654/46
f 164/1675/46 162/1676/46 534/1654/46
f 162/1677/46 160/1678/46 534/1654/46
f 160/1679/46 158/1680/46 534/1654/46
f 158/1681/46 157/1682/46 534/1654/46
f 157/1683/46 155/1684/46 534/1654/46
f 155/1685/46 153/1686/46 534/1654/46
f 153/1687/46 151/1688/46 534/1654/46
f 151/1689/46 149/1690/46 534/1654/46
f 149/1691/46 148/1692/46 534/1654/46
f 148/1693/46 146/1694/46 534/1654/46
f 146/1695/46 145/1696/46 534/1654/46
f 145/1697/46 143/1698/46 534/1654/46
f 143/1699/46 142/1700/46 534/1654/46
f 142/1701/46 140/1702/46 534/1654/46
f 140/1703/46 138/203/46 534/1654/46
f 138/1704/46 137/1705/46 534/1654/46
f 137/202/46 135/1706/46 534/1654/46
f 135/1707/46 133/1708/46 534/1654/46
f 133/1709/46 131/1710/46 534/1654/46
f 131/1711/46 129/1712/46 534/1654/46
f 129/1713/46 128/1714/46 534/1654/46
l 529 522
