# Blender 4.4.3
# www.blender.org
o bottom
v -0.000001 -20.492710 0.000005
v 0.000005 -20.492710 16.089840
v 0.000005 -19.669498 16.825125
v -3.282413 -19.669498 16.501837
v -3.138967 -20.492710 15.780679
v -6.438692 -19.669498 15.544389
v -6.157310 -20.492710 14.865076
v -9.347533 -19.669498 13.989583
v -8.939032 -20.492710 13.378215
v -11.897156 -19.669498 11.897163
v -11.377231 -20.492710 11.377238
v -13.989578 -19.669498 9.347543
v -13.378209 -20.492710 8.939039
v -15.544385 -19.669498 6.438701
v -14.865072 -20.492710 6.157320
v -16.501833 -19.669498 3.282425
v -15.780677 -20.492710 3.138978
v -16.825125 -19.669498 0.000007
v -16.089838 -20.492710 0.000007
v -16.501837 -19.669498 -3.282411
v -15.780679 -20.492710 -3.138965
v -15.544390 -19.669498 -6.438689
v -14.865076 -20.492710 -6.157308
v -13.989584 -19.669498 -9.347533
v -13.378219 -20.492710 -8.939030
v -11.897163 -19.669498 -11.897156
v -11.377238 -20.492710 -11.377231
v -9.347543 -19.669498 -13.989578
v -8.939040 -20.492710 -13.378211
v -6.438699 -19.669498 -15.544388
v -6.157318 -20.492710 -14.865074
v -3.282420 -19.669498 -16.501833
v -3.138973 -20.492710 -15.780677
v -0.000000 -19.669498 -16.825125
v -0.000000 -20.492710 -16.089840
v 3.282420 -19.669498 -16.501835
v 3.138974 -20.492710 -15.780678
v 6.438698 -19.669498 -15.544387
v 6.157318 -20.492710 -14.865073
v 9.347542 -19.669498 -13.989576
v 8.939040 -20.492710 -13.378211
v 11.897163 -19.669498 -11.897156
v 11.377239 -20.492710 -11.377232
v 13.989583 -19.669498 -9.347533
v 13.378216 -20.492710 -8.939032
v 15.544391 -19.669498 -6.438689
v 14.865075 -20.492710 -6.157308
v 16.501835 -19.669498 -3.282410
v 15.780681 -20.492710 -3.138963
v 16.825125 -19.669498 0.000011
v 16.089840 -20.492710 0.000011
v 16.501833 -19.669498 3.282431
v 15.780675 -20.492710 3.138984
v 15.544382 -19.669498 6.438709
v 14.865068 -20.492710 6.157328
v 13.989572 -19.669498 9.347551
v 13.378206 -20.492710 8.939048
v 11.897147 -19.669498 11.897170
v 11.377223 -20.492710 11.377245
v 9.347525 -19.669498 13.989590
v 8.939023 -20.492710 13.378222
v 6.438679 -19.669498 15.544395
v 6.157298 -20.492710 14.865080
v 3.282399 -19.669498 16.501837
v 3.138953 -20.492710 15.780682
vn 0.0464 -0.9713 0.2335
vn -0.0000 -0.9713 0.2381
vn -0.0000 -1.0000 -0.0000
vn -0.1323 -0.9713 0.1979
vn -0.1683 -0.9713 0.1683
vn -0.1683 -0.9713 -0.1683
vn -0.1323 -0.9713 -0.1979
vn 0.1979 -0.9713 -0.1323
vn 0.2199 -0.9713 -0.0911
vn 0.0911 -0.9713 0.2199
vn -0.2381 -0.9713 -0.0000
vn -0.2335 -0.9713 -0.0465
vn 0.0465 -0.9713 -0.2335
vn 0.0911 -0.9713 -0.2199
vn 0.2199 -0.9713 0.0911
vn 0.1979 -0.9713 0.1323
vn -0.1979 -0.9713 0.1322
vn -0.0911 -0.9713 -0.2199
vn 0.2335 -0.9713 -0.0464
vn -0.2199 -0.9713 -0.0911
vn 0.1323 -0.9713 -0.1979
vn 0.1683 -0.9713 0.1683
vn -0.2199 -0.9713 0.0911
vn -0.0464 -0.9713 -0.2335
vn 0.2381 -0.9713 -0.0000
vn -0.1979 -0.9713 -0.1323
vn 0.1683 -0.9713 -0.1683
vn 0.1323 -0.9713 0.1979
vn -0.2335 -0.9713 0.0464
vn -0.0000 -0.9713 -0.2381
vn 0.2335 -0.9713 0.0464
vn -0.0911 -0.9713 0.2199
vn -0.0464 -0.9713 0.2335
vn -0.0000 -0.6679 0.7442
vn -0.1452 -0.6679 0.7299
vn -0.1198 -0.7892 0.6023
vn -0.0000 -0.7892 0.6141
vn -0.2848 -0.6679 0.6876
vn -0.2350 -0.7892 0.5674
vn -0.4135 -0.6679 0.6188
vn -0.3412 -0.7892 0.5106
vn -0.5263 -0.6679 0.5263
vn -0.4342 -0.7892 0.4342
vn -0.6188 -0.6679 0.4135
vn -0.5106 -0.7892 0.3412
vn -0.7658 -0.5746 0.2887
vn -0.5674 -0.7892 0.2350
vn -0.8384 -0.5210 0.1600
vn -0.6023 -0.7892 0.1198
vn -0.8534 -0.5213 -0.0000
vn -0.6141 -0.7892 -0.0000
vn -0.8384 -0.5210 -0.1600
vn -0.6023 -0.7892 -0.1198
vn -0.7658 -0.5746 -0.2888
vn -0.5674 -0.7892 -0.2350
vn -0.6188 -0.6679 -0.4135
vn -0.5106 -0.7892 -0.3412
vn -0.5263 -0.6679 -0.5263
vn -0.4342 -0.7892 -0.4342
vn -0.4135 -0.6679 -0.6188
vn -0.3412 -0.7892 -0.5106
vn -0.2848 -0.6679 -0.6876
vn -0.2350 -0.7892 -0.5674
vn -0.1452 -0.6679 -0.7300
vn -0.1198 -0.7892 -0.6023
vn -0.0000 -0.6679 -0.7442
vn -0.0000 -0.7892 -0.6141
vn 0.1452 -0.6679 -0.7299
vn 0.1198 -0.7892 -0.6023
vn 0.2848 -0.6679 -0.6876
vn 0.2350 -0.7892 -0.5674
vn 0.4135 -0.6679 -0.6188
vn 0.3412 -0.7892 -0.5106
vn 0.5263 -0.6679 -0.5263
vn 0.4342 -0.7892 -0.4342
vn 0.6188 -0.6679 -0.4135
vn 0.5106 -0.7892 -0.3412
vn 0.6876 -0.6679 -0.2848
vn 0.5674 -0.7892 -0.2350
vn 0.7299 -0.6679 -0.1452
vn 0.6023 -0.7892 -0.1198
vn 0.7442 -0.6679 -0.0000
vn 0.6141 -0.7892 -0.0000
vn 0.7299 -0.6679 0.1452
vn 0.6023 -0.7892 0.1198
vn 0.6876 -0.6679 0.2848
vn 0.5674 -0.7892 0.2350
vn 0.6188 -0.6679 0.4135
vn 0.5106 -0.7892 0.3412
vn 0.5263 -0.6679 0.5263
vn 0.4342 -0.7892 0.4342
vn 0.4135 -0.6679 0.6188
vn 0.3412 -0.7892 0.5106
vn 0.2848 -0.6679 0.6876
vn 0.2350 -0.7892 0.5674
vn 0.1452 -0.6680 0.7299
vn 0.1198 -0.7892 0.6023
s 1
f 65//1 2//2 1//3
f 9//4 11//5 1//3
f 27//6 29//7 1//3
f 45//8 47//9 1//3
f 63//10 65//1 1//3
f 19//11 21//12 1//3
f 37//13 39//14 1//3
f 55//15 57//16 1//3
f 11//5 13//17 1//3
f 29//7 31//18 1//3
f 47//9 49//19 1//3
f 21//12 23//20 1//3
f 39//14 41//21 1//3
f 57//16 59//22 1//3
f 13//17 15//23 1//3
f 31//18 33//24 1//3
f 49//19 51//25 1//3
f 23//20 25//26 1//3
f 41//21 43//27 1//3
f 59//22 61//28 1//3
f 15//23 17//29 1//3
f 33//24 35//30 1//3
f 51//25 53//31 1//3
f 7//32 9//4 1//3
f 25//26 27//6 1//3
f 43//27 45//8 1//3
f 61//28 63//10 1//3
f 17//29 19//11 1//3
f 35//30 37//13 1//3
f 53//31 55//15 1//3
f 5//33 7//32 1//3
f 3//34 4//35 5//36 2//37
f 4//35 6//38 7//39 5//36
f 6//38 8//40 9//41 7//39
f 8//40 10//42 11//43 9//41
f 10//42 12//44 13//45 11//43
f 12//44 14//46 15//47 13//45
f 14//46 16//48 17//49 15//47
f 16//48 18//50 19//51 17//49
f 18//50 20//52 21//53 19//51
f 20//52 22//54 23//55 21//53
f 22//54 24//56 25//57 23//55
f 24//56 26//58 27//59 25//57
f 26//58 28//60 29//61 27//59
f 28//60 30//62 31//63 29//61
f 30//62 32//64 33//65 31//63
f 32//64 34//66 35//67 33//65
f 34//66 36//68 37//69 35//67
f 36//68 38//70 39//71 37//69
f 38//70 40//72 41//73 39//71
f 40//72 42//74 43//75 41//73
f 42//74 44//76 45//77 43//75
f 44//76 46//78 47//79 45//77
f 46//78 48//80 49//81 47//79
f 48//80 50//82 51//83 49//81
f 50//82 52//84 53//85 51//83
f 52//84 54//86 55//87 53//85
f 54//86 56//88 57//89 55//87
f 56//88 58//90 59//91 57//89
f 58//90 60//92 61//93 59//91
f 60//92 62//94 63//95 61//93
f 62//94 64//96 65//97 63//95
f 64//96 3//34 2//37 65//97
f 2//2 5//33 1//3
o inside
v -2.832691 -19.013678 14.240923
v 0.000005 -19.013678 14.519918
v -5.556528 -19.013678 13.414658
v -8.066830 -19.013678 12.072873
v -10.267128 -19.013678 10.267136
v -12.072867 -19.013678 8.066837
v -13.414652 -19.013678 5.556537
v -14.240919 -19.013678 2.832701
v -14.519918 -19.013678 0.000007
v -14.240921 -19.013678 -2.832689
v -13.414658 -19.013678 -5.556524
v -12.072873 -19.013678 -8.066829
v -10.267136 -19.013678 -10.267128
v -8.066837 -19.013678 -12.072868
v -5.556534 -19.013678 -13.414655
v -2.832697 -19.013678 -14.240918
v -0.000000 -19.013678 -14.519917
v 2.832697 -19.013678 -14.240920
v 5.556534 -19.013678 -13.414653
v 8.066837 -19.013678 -12.072867
v 10.267135 -19.013678 -10.267130
v 12.072873 -19.013678 -8.066829
v 13.414657 -19.013678 -5.556524
v 14.240923 -19.013678 -2.832687
v 14.519918 -19.013678 0.000010
v 14.240918 -19.013678 2.832706
v 13.414651 -19.013678 5.556544
v 12.072863 -19.013678 8.066846
v 10.267122 -19.013678 10.267141
v 8.066822 -19.013678 12.072878
v 5.556516 -19.013678 13.414660
v 2.832678 -19.013678 14.240924
v -0.000002 -17.672863 0.000005
v 0.000005 16.384888 16.825125
v 0.000005 17.363823 15.950748
v -3.111832 17.363823 15.644261
v -3.282413 16.384888 16.501837
v -6.104083 17.363823 14.736573
v -6.438692 16.384888 15.544389
v -8.861757 17.363823 13.262566
v -9.347533 16.384888 13.989583
v -11.278878 17.363823 11.278886
v -11.897156 16.384888 11.897163
v -13.262562 17.363823 8.861766
v -13.989578 16.384888 9.347543
v -14.736569 17.363823 6.104093
v -15.544385 16.384888 6.438701
v -15.644259 17.363823 3.111843
v -16.501833 16.384888 3.282425
v -15.950750 17.363823 0.000007
v -16.825125 16.384888 0.000007
v -15.644261 17.363823 -3.111830
v -16.501837 16.384888 -3.282411
v -14.736574 17.363823 -6.104080
v -15.544390 16.384888 -6.438689
v -13.262568 17.363823 -8.861756
v -13.989584 16.384888 -9.347533
v -11.278886 17.363823 -11.278878
v -11.897163 16.384888 -11.897156
v -8.861766 17.363823 -13.262562
v -9.347543 16.384888 -13.989578
v -6.104090 17.363823 -14.736570
v -6.438699 16.384888 -15.544388
v -3.111838 17.363823 -15.644259
v -3.282420 16.384888 -16.501833
v -0.000000 17.363823 -15.950750
v -0.000000 16.384888 -16.825125
v 3.111838 17.363823 -15.644259
v 3.282420 16.384888 -16.501835
v 6.104090 17.363823 -14.736569
v 6.438698 16.384888 -15.544387
v 8.861765 17.363823 -13.262561
v 9.347542 16.384888 -13.989576
v 11.278887 17.363823 -11.278880
v 11.897163 16.384888 -11.897156
v 13.262568 17.363823 -8.861757
v 13.989583 16.384888 -9.347533
v 14.736572 17.363823 -6.104080
v 15.544391 16.384888 -6.438689
v 15.644262 17.363823 -3.111828
v 16.501835 16.384888 -3.282410
v 15.950750 17.363823 0.000010
v 16.825125 16.384888 0.000011
v 15.644258 17.363823 3.111849
v 16.501833 16.384888 3.282431
v 14.736565 17.363823 6.104100
v 15.544382 16.384888 6.438709
v 13.262555 17.363823 8.861773
v 13.989572 16.384888 9.347551
v 11.278872 17.363823 11.278893
v 11.897147 16.384888 11.897170
v 8.861749 17.363823 13.262572
v 9.347525 16.384888 13.989590
v 6.104070 17.363823 14.736578
v 6.438679 16.384888 15.544395
v 3.111818 17.363823 15.644264
v 3.282399 16.384888 16.501837
v -2.832691 17.138374 14.240923
v -3.007521 17.363823 15.119855
v 0.000005 17.363823 15.416068
v 0.000005 17.138374 14.519918
v -5.556528 17.138374 13.414658
v -5.899468 17.363823 14.242593
v -8.066830 17.138374 12.072873
v -8.564704 17.363823 12.817994
v -10.267128 17.138374 10.267136
v -10.900802 17.363823 10.900809
v -12.072867 17.138374 8.066837
v -12.817990 17.363823 8.564711
v -13.414652 17.138374 5.556537
v -14.242586 17.363823 5.899478
v -14.240919 17.138374 2.832701
v -15.119852 17.363823 3.007531
v -14.519918 17.138374 0.000007
v -15.416066 17.363823 0.000007
v -14.240921 17.138374 -2.832689
v -15.119852 17.363823 -3.007518
v -13.414658 17.138374 -5.556524
v -14.242593 17.363823 -5.899466
v -12.072873 17.138374 -8.066829
v -12.817993 17.363823 -8.564703
v -10.267136 17.138374 -10.267128
v -10.900809 17.363823 -10.900802
v -8.066837 17.138374 -12.072868
v -8.564712 17.363823 -12.817987
v -5.556534 17.138374 -13.414655
v -5.899476 17.363823 -14.242589
v -2.832697 17.138374 -14.240918
v -3.007527 17.363823 -15.119850
v -0.000000 17.138374 -14.519917
v -0.000000 17.363823 -15.416065
v 2.832697 17.138374 -14.240920
v 3.007527 17.363823 -15.119852
v 5.556534 17.138374 -13.414653
v 5.899475 17.363823 -14.242588
v 8.066837 17.138374 -12.072867
v 8.564712 17.363823 -12.817988
v 10.267135 17.138374 -10.267130
v 10.900809 17.363823 -10.900803
v 12.072873 17.138374 -8.066829
v 12.817996 17.363823 -8.564702
v 13.414657 17.138374 -5.556524
v 14.242592 17.363823 -5.899466
v 14.240923 17.138374 -2.832687
v 15.119853 17.363823 -3.007517
v 14.519918 17.138374 0.000010
v 15.416066 17.363823 0.000010
v 14.240918 17.138374 2.832706
v 15.119851 17.363823 3.007537
v 13.414651 17.138374 5.556544
v 14.242585 17.363823 5.899486
v 12.072863 17.138374 8.066846
v 12.817985 17.363823 8.564720
v 10.267122 17.138374 10.267141
v 10.900796 17.363823 10.900816
v 8.066822 17.138374 12.072878
v 8.564695 17.363823 12.817999
v 5.556516 17.138374 13.414660
v 5.899457 17.363823 14.242596
v 2.832678 17.138374 14.240924
v 3.007507 17.363823 15.119855
vn -0.1505 0.9194 0.3634
vn -0.0767 0.9194 0.3858
vn 0.0289 0.9889 -0.1454
vn 0.0568 0.9889 -0.1370
vn -0.2185 0.9194 0.3270
vn 0.0824 0.9889 -0.1233
vn -0.2781 0.9194 0.2782
vn 0.1048 0.9889 -0.1048
vn -0.3271 0.9194 0.2185
vn 0.1233 0.9889 -0.0824
vn -0.3634 0.9194 0.1505
vn 0.1370 0.9889 -0.0567
vn -0.3858 0.9194 0.0767
vn 0.1454 0.9889 -0.0289
vn -0.3933 0.9194 -0.0000
vn 0.1483 0.9889 -0.0000
vn -0.3858 0.9194 -0.0767
vn 0.1454 0.9889 0.0289
vn -0.3634 0.9194 -0.1505
vn 0.1370 0.9889 0.0567
vn -0.3271 0.9194 -0.2185
vn 0.1233 0.9889 0.0824
vn -0.2782 0.9194 -0.2781
vn 0.1048 0.9889 0.1048
vn -0.2185 0.9194 -0.3271
vn 0.0824 0.9889 0.1233
vn -0.1506 0.9194 -0.3634
vn 0.0567 0.9889 0.1370
vn -0.0768 0.9194 -0.3858
vn 0.0289 0.9889 0.1454
vn -0.0000 0.9194 -0.3933
vn -0.0000 0.9889 0.1483
vn 0.0767 0.9194 -0.3858
vn -0.0289 0.9889 0.1454
vn 0.1505 0.9194 -0.3634
vn -0.0567 0.9889 0.1370
vn 0.2185 0.9194 -0.3270
vn -0.0824 0.9889 0.1233
vn 0.2781 0.9194 -0.2781
vn -0.1048 0.9889 0.1048
vn 0.3271 0.9194 -0.2185
vn -0.1233 0.9889 0.0824
vn 0.3634 0.9194 -0.1505
vn -0.1370 0.9889 0.0567
vn 0.3858 0.9194 -0.0767
vn -0.1454 0.9889 0.0289
vn 0.3933 0.9194 -0.0000
vn -0.1483 0.9889 -0.0000
vn 0.3858 0.9194 0.0767
vn -0.1454 0.9889 -0.0289
vn 0.3634 0.9194 0.1505
vn -0.1370 0.9889 -0.0567
vn 0.3270 0.9194 0.2185
vn -0.1233 0.9889 -0.0824
vn 0.2781 0.9194 0.2781
vn -0.1048 0.9889 -0.1048
vn 0.2185 0.9194 0.3271
vn -0.0824 0.9889 -0.1233
vn 0.1505 0.9194 0.3634
vn -0.0567 0.9889 -0.1370
vn 0.0767 0.9194 0.3858
vn -0.0289 0.9889 -0.1454
vn -0.0000 0.9194 0.3933
vn -0.0000 0.9889 -0.1483
vn -0.2713 0.7051 0.6551
vn -0.1384 0.7051 0.6954
vn -0.1272 0.7587 0.6389
vn -0.2493 0.7587 0.6019
vn 0.1384 0.7051 -0.6954
vn 0.0001 0.7051 -0.7091
vn 0.0001 0.7587 -0.6515
vn 0.1272 0.7587 -0.6389
vn -0.4607 0.7587 0.4606
vn -0.3620 0.7586 0.5417
vn -0.0000 1.0000 -0.0000
vn 0.5896 0.7051 -0.3940
vn 0.5015 0.7051 -0.5013
vn 0.4607 0.7587 -0.4606
vn 0.5417 0.7587 -0.3619
vn -0.3941 0.7051 0.5895
vn -0.3621 0.7587 0.5416
vn 0.6551 0.7051 -0.2713
vn 0.6019 0.7587 -0.2492
vn 0.3939 0.7051 -0.5896
vn 0.2714 0.7051 -0.6551
vn 0.2494 0.7587 -0.6018
vn 0.3620 0.7587 -0.5417
vn -0.5015 0.7051 0.5013
vn 0.6954 0.7051 -0.1384
vn 0.6390 0.7587 -0.1271
vn -0.5896 0.7051 0.3940
vn -0.5417 0.7587 0.3619
vn 0.7091 0.7051 0.0001
vn 0.6515 0.7587 0.0001
vn -0.6551 0.7051 0.2713
vn -0.6019 0.7587 0.2492
vn 0.6954 0.7051 0.1384
vn 0.6389 0.7587 0.1272
vn -0.6954 0.7051 0.1384
vn -0.6390 0.7587 0.1271
vn 0.6551 0.7051 0.2713
vn 0.6019 0.7587 0.2493
vn -0.7091 0.7051 -0.0002
vn -0.6515 0.7587 -0.0002
vn 0.5895 0.7051 0.3941
vn 0.5416 0.7587 0.3621
vn -0.6954 0.7051 -0.1385
vn -0.6389 0.7587 -0.1273
vn 0.5014 0.7051 0.5014
vn 0.4606 0.7587 0.4607
vn -0.6551 0.7051 -0.2713
vn -0.6019 0.7587 -0.2493
vn 0.3938 0.7051 0.5897
vn 0.3618 0.7587 0.5418
vn -0.5895 0.7051 -0.3941
vn -0.5416 0.7587 -0.3621
vn 0.2712 0.7051 0.6552
vn 0.2491 0.7587 0.6020
vn -0.5014 0.7051 -0.5014
vn -0.4607 0.7587 -0.4606
vn 0.1384 0.7051 0.6954
vn 0.1271 0.7587 0.6390
vn -0.3940 0.7051 -0.5896
vn -0.3619 0.7587 -0.5417
vn -0.0000 0.7051 0.7091
vn -0.0000 0.7587 0.6515
vn -0.1384 0.7051 -0.6954
vn -0.1271 0.7587 -0.6390
vn -0.2714 0.7051 -0.6551
vn -0.2493 0.7587 -0.6019
vn 0.6019 0.7587 -0.2493
vn 0.6515 0.7586 -0.0000
vn -0.6019 0.7587 0.2493
vn 0.6390 0.7586 0.1271
vn -0.6515 0.7587 -0.0000
vn 0.5417 0.7587 0.3620
vn -0.6390 0.7587 -0.1271
vn 0.4607 0.7587 0.4607
vn 0.3619 0.7586 0.5417
vn -0.5417 0.7586 -0.3620
vn 0.2494 0.7587 0.6019
vn 0.1271 0.7587 -0.6390
vn -0.0000 0.7586 -0.6515
vn -0.4606 0.7587 -0.4607
vn 0.2493 0.7587 -0.6019
vn -0.1271 0.7587 0.6390
vn -0.1271 0.7586 -0.6390
vn -0.1307 0.7424 0.6571
vn -0.0000 0.7424 0.6699
vn -0.0000 0.9194 0.3934
vn -0.0768 0.9194 0.3858
vn -0.2564 0.7424 0.6189
vn -0.3722 0.7424 0.5570
vn -0.2186 0.9194 0.3271
vn -0.4737 0.7424 0.4737
vn -0.5570 0.7424 0.3722
vn -0.6189 0.7424 0.2564
vn -0.6571 0.7424 0.1307
vn -0.3858 0.9194 0.0768
vn -0.6699 0.7424 -0.0000
vn -0.3934 0.9194 -0.0000
vn -0.6570 0.7424 -0.1307
vn -0.3858 0.9194 -0.0768
vn -0.6189 0.7424 -0.2564
vn -0.5570 0.7424 -0.3722
vn -0.3271 0.9194 -0.2186
vn -0.4737 0.7424 -0.4737
vn -0.2781 0.9194 -0.2782
vn -0.3722 0.7424 -0.5570
vn -0.2564 0.7424 -0.6189
vn -0.1505 0.9194 -0.3634
vn -0.1307 0.7424 -0.6571
vn -0.0000 0.7424 -0.6699
vn -0.0000 0.9194 -0.3934
vn 0.1307 0.7424 -0.6571
vn 0.0768 0.9194 -0.3858
vn 0.2564 0.7424 -0.6189
vn 0.3722 0.7424 -0.5570
vn 0.2186 0.9194 -0.3271
vn 0.4737 0.7424 -0.4737
vn 0.2782 0.9194 -0.2781
vn 0.5570 0.7424 -0.3722
vn 0.6189 0.7424 -0.2564
vn 0.6571 0.7424 -0.1307
vn 0.3858 0.9194 -0.0768
vn 0.6699 0.7424 -0.0000
vn 0.3934 0.9194 -0.0000
vn 0.6570 0.7424 0.1307
vn 0.3858 0.9194 0.0768
vn 0.6189 0.7424 0.2564
vn 0.5570 0.7424 0.3722
vn 0.3271 0.9194 0.2185
vn 0.4737 0.7424 0.4737
vn 0.2782 0.9194 0.2781
vn 0.3722 0.7424 0.5570
vn 0.2564 0.7424 0.6189
vn 0.1506 0.9194 0.3634
vn 0.1307 0.7424 0.6571
vn -0.0000 0.7051 -0.7091
vn 0.2713 0.7051 -0.6551
vn 0.3940 0.7051 -0.5895
vn 0.5014 0.7051 -0.5014
vn 0.5896 0.7051 -0.3939
vn 0.6954 0.7051 -0.1383
vn 0.7091 0.7051 -0.0000
vn 0.5895 0.7051 0.3940
vn 0.3939 0.7051 0.5896
vn 0.2714 0.7051 0.6551
vn 0.1383 0.7051 0.6954
vn -0.3940 0.7051 0.5895
vn -0.5014 0.7051 0.5014
vn -0.5896 0.7051 0.3939
vn -0.6551 0.7051 0.2714
vn -0.6955 0.7051 0.1383
vn -0.7091 0.7051 -0.0000
vn -0.6954 0.7051 -0.1384
vn -0.5895 0.7051 -0.3940
vn -0.3939 0.7051 -0.5896
vn -0.2713 0.7051 -0.6551
vn -0.1383 0.7051 -0.6954
s 1
f 103//98 101//99 164//100 168//101
f 105//102 103//98 168//101 170//103
f 107//104 105//102 170//103 172//105
f 109//106 107//104 172//105 174//107
f 111//108 109//106 174//107 176//109
f 113//110 111//108 176//109 178//111
f 115//112 113//110 178//111 180//113
f 117//114 115//112 180//113 182//115
f 119//116 117//114 182//115 184//117
f 121//118 119//116 184//117 186//119
f 123//120 121//118 186//119 188//121
f 125//122 123//120 188//121 190//123
f 127//124 125//122 190//123 192//125
f 129//126 127//124 192//125 194//127
f 131//128 129//126 194//127 196//129
f 133//130 131//128 196//129 198//131
f 135//132 133//130 198//131 200//133
f 137//134 135//132 200//133 202//135
f 139//136 137//134 202//135 204//137
f 141//138 139//136 204//137 206//139
f 143//140 141//138 206//139 208//141
f 145//142 143//140 208//141 210//143
f 147//144 145//142 210//143 212//145
f 149//146 147//144 212//145 214//147
f 151//148 149//146 214//147 216//149
f 153//150 151//148 216//149 218//151
f 155//152 153//150 218//151 220//153
f 157//154 155//152 220//153 222//155
f 159//156 157//154 222//155 224//157
f 161//158 159//156 224//157 226//159
f 100//160 161//158 226//159 165//161
f 199//162 197//163 83//164 84//165
f 163//166 166//167 67//168 66//169
f 101//99 100//160 165//161 164//100
f 86//170 85//171 98//172
f 173//173 171//174 70//175 71//176
f 201//177 199//162 84//165 85//178
f 175//179 173//173 71//176 72//180
f 169//181 167//182 68//183 69//184
f 203//185 201//177 85//178 86//170
f 177//186 175//179 72//180 73//187
f 205//188 203//185 86//170 87//189
f 179//190 177//186 73//187 74//191
f 207//192 205//188 87//189 88//193
f 181//194 179//190 74//191 75//195
f 209//196 207//192 88//193 89//197
f 183//198 181//194 75//195 76//199
f 211//200 209//196 89//197 90//201
f 185//202 183//198 76//199 77//203
f 213//204 211//200 90//201 91//205
f 187//206 185//202 77//203 78//207
f 215//208 213//204 91//205 92//209
f 189//210 187//206 78//207 79//211
f 217//212 215//208 92//209 93//213
f 191//214 189//210 79//211 80//215
f 219//216 217//212 93//213 94//217
f 193//218 191//214 80//215 81//219
f 167//182 163//166 66//169 68//183
f 221//220 219//216 94//217 95//221
f 195//222 193//218 81//219 82//223
f 166//167 225//224 97//225 67//168
f 223//226 221//220 95//221 96//227
f 197//163 195//222 82//223 83//164
f 171//174 169//181 69//184 70//175
f 225//224 223//226 96//227 97//225
f 73//187 72//228 98//172
f 87//189 86//170 98//172
f 74//229 73//187 98//172
f 88//230 87//189 98//172
f 75//231 74//229 98//172
f 89//197 88//230 98//172
f 76//199 75//231 98//172
f 90//232 89//197 98//172
f 77//233 76//199 98//172
f 91//234 90//232 98//172
f 78//235 77//233 98//172
f 92//209 91//234 98//172
f 79//236 78//235 98//172
f 93//237 92//209 98//172
f 80//238 79//236 98//172
f 66//239 67//240 98//172
f 94//241 93//237 98//172
f 81//219 80//238 98//172
f 68//242 66//239 98//172
f 95//221 94//241 98//172
f 82//223 81//219 98//172
f 69//184 68//242 98//172
f 96//227 95//221 98//172
f 83//243 82//223 98//172
f 70//175 69//184 98//172
f 97//244 96//227 98//172
f 84//165 83//243 98//172
f 71//176 70//175 98//172
f 67//240 97//244 98//172
f 85//171 84//165 98//172
f 72//228 71//176 98//172
f 102//245 99//246 100//247 101//248
f 104//249 102//245 101//248 103//98
f 106//250 104//249 103//98 105//251
f 108//252 106//250 105//251 107//104
f 110//253 108//252 107//104 109//106
f 112//254 110//253 109//106 111//108
f 114//255 112//254 111//108 113//256
f 116//257 114//255 113//256 115//258
f 118//259 116//257 115//258 117//260
f 120//261 118//259 117//260 119//116
f 122//262 120//261 119//116 121//263
f 124//264 122//262 121//263 123//265
f 126//266 124//264 123//265 125//122
f 128//267 126//266 125//122 127//268
f 130//269 128//267 127//268 129//126
f 132//270 130//269 129//126 131//271
f 134//272 132//270 131//271 133//273
f 136//274 134//272 133//273 135//132
f 138//275 136//274 135//132 137//276
f 140//277 138//275 137//276 139//278
f 142//279 140//277 139//278 141//138
f 144//280 142//279 141//138 143//140
f 146//281 144//280 143//140 145//282
f 148//283 146//281 145//282 147//284
f 150//285 148//283 147//284 149//286
f 152//287 150//285 149//286 151//148
f 154//288 152//287 151//148 153//289
f 156//290 154//288 153//289 155//291
f 158//292 156//290 155//291 157//154
f 160//293 158//292 157//154 159//294
f 162//295 160//293 159//294 161//158
f 99//246 162//295 161//158 100//247
f 164//100 165//161 166//296 163//166
f 168//101 164//100 163//166 167//297
f 170//103 168//101 167//297 169//298
f 172//105 170//103 169//298 171//299
f 174//107 172//105 171//299 173//300
f 176//109 174//107 173//300 175//179
f 178//111 176//109 175//179 177//301
f 180//113 178//111 177//301 179//302
f 182//115 180//113 179//302 181//194
f 184//117 182//115 181//194 183//198
f 186//119 184//117 183//198 185//303
f 188//121 186//119 185//303 187//206
f 190//123 188//121 187//206 189//304
f 192//125 190//123 189//304 191//305
f 194//127 192//125 191//305 193//306
f 196//129 194//127 193//306 195//222
f 198//131 196//129 195//222 197//163
f 200//133 198//131 197//163 199//162
f 202//135 200//133 199//162 201//307
f 204//137 202//135 201//307 203//308
f 206//139 204//137 203//308 205//309
f 208//141 206//139 205//309 207//310
f 210//143 208//141 207//310 209//311
f 212//145 210//143 209//311 211//312
f 214//147 212//145 211//312 213//313
f 216//149 214//147 213//313 215//208
f 218//151 216//149 215//208 217//314
f 220//153 218//151 217//314 219//216
f 222//155 220//153 219//216 221//315
f 224//157 222//155 221//315 223//316
f 226//159 224//157 223//316 225//317
f 165//161 226//159 225//317 166//296
o print
v -16.501833 16.384888 3.282425
v -16.825125 16.384888 0.000007
v -16.501837 16.384888 -3.282411
v -15.544385 -19.669498 6.438701
v -16.501833 -19.669498 3.282425
v -16.825125 -19.669498 0.000007
v -16.501837 -19.669498 -3.282411
v -15.544390 -19.669498 -6.438689
v 0.000005 16.384888 16.825125
v -3.282413 16.384888 16.501837
v -6.438692 16.384888 15.544389
v -9.347533 16.384888 13.989583
v -11.897156 16.384888 11.897163
v -13.989578 16.384888 9.347543
v -15.544385 16.384888 6.438701
v -15.544390 16.384888 -6.438689
v -13.989584 16.384888 -9.347533
v -11.897163 16.384888 -11.897156
v -9.347543 16.384888 -13.989578
v -6.438699 16.384888 -15.544388
v -3.282420 16.384888 -16.501833
v -0.000000 16.384888 -16.825125
v 3.282420 16.384888 -16.501835
v 6.438698 16.384888 -15.544387
v 9.347542 16.384888 -13.989576
v 11.897163 16.384888 -11.897156
v 13.989583 16.384888 -9.347533
v 15.544391 16.384888 -6.438689
v 16.501835 16.384888 -3.282410
v 16.825125 16.384888 0.000011
v 16.501833 16.384888 3.282431
v 15.544382 16.384888 6.438709
v 13.989572 16.384888 9.347551
v 11.897147 16.384888 11.897170
v 9.347525 16.384888 13.989590
v 6.438679 16.384888 15.544395
v 3.282399 16.384888 16.501837
v 0.000005 -19.669498 16.825125
v -3.282413 -19.669498 16.501837
v -6.438692 -19.669498 15.544389
v -9.347533 -19.669498 13.989583
v -11.897156 -19.669498 11.897163
v -13.989578 -19.669498 9.347543
v -13.989584 -19.669498 -9.347533
v -11.897163 -19.669498 -11.897156
v -9.347543 -19.669498 -13.989578
v -6.438699 -19.669498 -15.544388
v -3.282420 -19.669498 -16.501833
v -0.000000 -19.669498 -16.825125
v 3.282420 -19.669498 -16.501835
v 6.438698 -19.669498 -15.544387
v 9.347542 -19.669498 -13.989576
v 11.897163 -19.669498 -11.897156
v 13.989583 -19.669498 -9.347533
v 15.544391 -19.669498 -6.438689
v 16.501835 -19.669498 -3.282410
v 16.825125 -19.669498 0.000011
v 16.501833 -19.669498 3.282431
v 15.544382 -19.669498 6.438709
v 13.989572 -19.669498 9.347551
v 11.897147 -19.669498 11.897170
v 9.347525 -19.669498 13.989590
v 6.438679 -19.669498 15.544395
v 3.282399 -19.669498 16.501837
vn -0.8910 -0.1983 0.4084
vn -0.9286 0.1186 0.3517
vn -0.9831 -0.0000 0.1831
vn -0.9656 -0.1824 0.1853
vn -1.0000 -0.0000 -0.0000
vn -0.9832 -0.1828 -0.0000
vn -0.9831 -0.0000 -0.1831
vn -0.9656 -0.1824 -0.1853
vn -0.9602 0.0469 -0.2754
vn -0.8910 -0.1983 -0.4084
vn 0.7071 -0.0000 0.7071
vn 0.5556 -0.0000 0.8315
vn -0.1951 -0.0000 -0.9808
vn -0.0000 -0.0000 -1.0000
vn 1.0000 -0.0000 -0.0000
vn 0.9808 -0.0000 0.1951
vn -0.3827 -0.0000 0.9239
vn -0.5556 -0.0000 0.8315
vn -0.8246 -0.0000 -0.5657
vn -0.7071 -0.0000 -0.7071
vn 0.7071 -0.0000 -0.7071
vn 0.8315 -0.0000 -0.5556
vn 0.3827 -0.0000 0.9239
vn 0.1951 -0.0000 -0.9808
vn 0.9239 -0.0000 0.3827
vn -0.7071 -0.0000 0.7071
vn -0.5556 -0.0000 -0.8315
vn 0.9239 -0.0000 -0.3827
vn 0.1951 -0.0000 0.9808
vn 0.3827 -0.0000 -0.9239
vn 0.8315 -0.0000 0.5556
vn -0.8246 -0.0000 0.5657
vn -0.3827 -0.0000 -0.9239
vn 0.9808 -0.0000 -0.1951
vn -0.0000 -0.0000 1.0000
vn -0.1951 -0.0000 0.9808
vn 0.5556 -0.0000 -0.8315
vt 0.062500 0.000000
vt 0.062500 1.000000
vt 0.031250 1.000000
vt 0.031250 0.000000
vt 0.000000 1.000000
vt 0.000000 0.000000
vt 1.000000 0.000000
vt 1.000000 1.000000
vt 0.968750 1.000000
vt 0.968750 0.000000
vt 0.937500 1.000000
vt 0.937500 0.000000
vt 0.375000 0.000000
vt 0.375000 1.000000
vt 0.343750 1.000000
vt 0.343750 0.000000
vt 0.781250 0.000000
vt 0.781250 1.000000
vt 0.750000 1.000000
vt 0.750000 0.000000
vt 0.500000 0.000000
vt 0.500000 1.000000
vt 0.468750 1.000000
vt 0.468750 0.000000
vt 0.187500 0.000000
vt 0.187500 1.000000
vt 0.156250 1.000000
vt 0.156250 0.000000
vt 0.906250 0.000000
vt 0.906250 1.000000
vt 0.875000 1.000000
vt 0.875000 0.000000
vt 0.625000 0.000000
vt 0.625000 1.000000
vt 0.593750 1.000000
vt 0.593750 0.000000
vt 0.312500 1.000000
vt 0.312500 0.000000
vt 0.718750 1.000000
vt 0.718750 0.000000
vt 0.437500 1.000000
vt 0.437500 0.000000
vt 0.125000 1.000000
vt 0.125000 0.000000
vt 0.843750 1.000000
vt 0.843750 0.000000
vt 0.562500 1.000000
vt 0.562500 0.000000
vt 0.281250 1.000000
vt 0.281250 0.000000
vt 0.687500 1.000000
vt 0.687500 0.000000
vt 0.406250 1.000000
vt 0.406250 0.000000
vt 0.093750 1.000000
vt 0.093750 0.000000
vt 0.812500 1.000000
vt 0.812500 0.000000
vt 0.531250 1.000000
vt 0.531250 0.000000
vt 0.250000 1.000000
vt 0.250000 0.000000
vt 0.218750 1.000000
vt 0.218750 0.000000
vt 0.656250 1.000000
vt 0.656250 0.000000
s 1
f 230/1/318 241/2/319 227/3/320 231/4/321
f 231/4/321 227/3/320 228/5/322 232/6/323
f 232/7/323 228/8/322 229/9/324 233/10/325
f 233/10/325 229/9/324 242/11/326 234/12/327
f 287/13/328 260/14/328 261/15/329 288/16/329
f 274/17/330 247/18/330 248/19/331 275/20/331
f 283/21/332 256/22/332 257/23/333 284/24/333
f 266/25/334 237/26/334 238/27/335 267/28/335
f 270/29/336 243/30/336 244/31/337 271/32/337
f 279/33/338 252/34/338 253/35/339 280/36/339
f 288/16/329 261/15/329 262/37/340 289/38/340
f 275/20/331 248/19/331 249/39/341 276/40/341
f 284/24/333 257/23/333 258/41/342 285/42/342
f 267/28/335 238/27/335 239/43/343 268/44/343
f 271/32/337 244/31/337 245/45/344 272/46/344
f 280/36/339 253/35/339 254/47/345 281/48/345
f 289/38/340 262/37/340 263/49/346 290/50/346
f 276/40/341 249/39/341 250/51/347 277/52/347
f 285/42/342 258/41/342 259/53/348 286/54/348
f 268/44/343 239/43/343 240/55/349 269/56/349
f 272/46/344 245/45/344 246/57/350 273/58/350
f 281/48/345 254/47/345 255/59/351 282/60/351
f 290/50/346 263/49/346 235/61/352 264/62/352
f 264/62/352 235/61/352 236/63/353 265/64/353
f 277/52/347 250/51/347 251/65/354 278/66/354
f 286/54/348 259/53/348 260/14/328 287/13/328
f 269/56/349 240/55/349 241/2/319 230/1/318
f 273/58/350 246/57/350 247/18/330 274/17/330
f 282/60/351 255/59/351 256/22/332 283/21/332
f 265/64/353 236/63/353 237/26/334 266/25/334
f 234/12/327 242/11/326 243/30/336 270/29/336
f 278/66/354 251/65/354 252/34/338 279/33/338
o handle
v -17.909456 -9.950622 2.237788
v -17.687080 -9.545819 1.481512
v -17.909458 -9.950623 -2.237776
v -19.610498 -13.047487 -1.483083
v -18.870750 -11.700597 2.791641
v -18.870750 -11.700597 -2.791627
v -18.426064 -10.889969 -2.791159
v -22.240522 10.245449 -0.939570
v -22.343412 10.697170 -1.696221
v -21.294058 10.725998 -1.717872
v -21.209614 10.259434 -0.951999
v -21.847376 13.152966 -0.949019
v -21.730305 12.690369 -1.711252
v -22.763346 12.567924 -1.697388
v -22.863756 13.019512 -0.941046
v -21.294058 10.725998 1.717885
v -22.343412 10.697170 1.696235
v -22.240522 10.245449 0.939585
v -21.209614 10.259434 0.952013
v -21.730305 12.690369 1.711266
v -21.847376 13.152966 0.949033
v -22.863756 13.019512 0.941061
v -22.763346 12.567924 1.697402
v -27.129505 8.416840 1.241098
v -27.831631 7.853519 1.254887
v -27.558332 7.414024 1.992673
v -26.756018 8.056532 1.978325
v -25.577126 5.042791 2.053812
v -24.942091 4.471148 1.267715
v -24.405193 4.882965 1.259543
v -24.802094 5.563978 2.031608
v -24.942091 4.471148 -1.267699
v -25.577127 5.042791 -2.053795
v -24.802094 5.563978 -2.031592
v -24.405193 4.882965 -1.259527
v -27.831631 7.853519 -1.254869
v -27.129505 8.416840 -1.241081
v -26.756018 8.056532 -1.978307
v -27.558332 7.414024 -1.992655
v -25.350540 11.528297 -0.818237
v -25.036200 11.193098 -1.580309
v -25.670235 10.354685 -1.661583
v -25.993196 10.725723 -0.873280
v -25.670233 10.354685 1.661599
v -25.036200 11.193098 1.580325
v -25.350540 11.528297 0.818253
v -25.993196 10.725723 0.873297
v -24.423273 9.131044 1.676931
v -24.060186 8.810556 0.867016
v -23.580290 9.646572 0.837933
v -23.897823 9.978994 1.601664
v -23.897823 9.978994 -1.601649
v -23.580292 9.646576 -0.837918
v -24.060186 8.810556 -0.867000
v -24.423273 9.131044 -1.676916
v -19.717224 10.419178 1.734504
v -19.741665 9.948961 0.973570
v -18.852165 9.463303 1.090788
v -18.790314 9.945559 1.894622
v -18.569328 12.178806 1.919980
v -18.530262 12.657555 1.126081
v -19.541914 12.889778 0.974357
v -19.578985 12.426506 1.733510
v -18.790316 9.945559 -1.894611
v -18.852165 9.463303 -1.090776
v -19.741665 9.948961 -0.973557
v -19.717224 10.419176 -1.734492
v -19.578985 12.426506 -1.733498
v -19.541914 12.889778 -0.974345
v -18.530262 12.657555 -1.126069
v -18.569328 12.178806 -1.919967
v -29.931557 7.310987 0.970616
v -30.909206 6.962780 0.847911
v -30.616711 6.580936 1.617886
v -29.558432 6.941196 1.765588
v -29.085846 4.903008 0.850158
v -28.064058 4.975538 0.970614
v -28.333290 5.385487 1.798684
v -29.085846 4.903006 -0.850140
v -29.452631 5.270603 -1.623695
v -28.333290 5.385487 -1.798666
v -28.064058 4.975538 -0.970596
v -29.931557 7.310987 -0.970598
v -29.558432 6.941196 -1.765569
v -30.909206 6.962780 -0.847892
v -32.093269 6.448027 0.852943
v -32.910805 5.839865 0.919136
v -32.607853 5.485355 1.678481
v -31.774776 6.096094 1.614445
v -31.307953 4.009056 1.704695
v -30.993719 3.659821 0.939463
v -30.282249 4.381338 0.852012
v -30.584221 4.737158 1.611597
v -30.993721 3.659822 -0.939444
v -31.307953 4.009056 -1.704675
v -30.584221 4.737158 -1.611578
v -30.282249 4.381338 -0.851993
v -32.093269 6.448027 -0.852924
v -31.774776 6.096094 -1.614427
v -32.607853 5.485352 -1.678460
v -32.910805 5.839865 -0.919116
v -34.255207 3.940014 1.058977
v -33.835888 3.660662 1.831500
v -33.417732 4.605082 1.765663
v -33.825485 4.836382 1.006021
v -31.978977 2.592722 1.853633
v -31.559761 2.370287 1.083779
v -31.204754 3.322996 0.981913
v -31.605707 3.554920 1.741659
v -31.978979 2.592722 -1.853613
v -31.605707 3.554920 -1.741639
v -31.204754 3.322996 -0.981893
v -34.255211 3.940014 -1.058956
v -33.825485 4.836382 -1.006000
v -33.417732 4.605082 -1.765642
v -33.835888 3.660662 -1.831479
v -34.120548 -0.961935 1.040294
v -33.700836 -0.766125 1.796875
v -33.976254 0.245485 1.831093
v -34.417469 0.005535 1.059097
v -31.717827 0.166300 1.796834
v -31.299536 0.364435 1.040293
v -32.034805 1.146061 1.853181
v -31.299536 0.364435 -1.040273
v -31.717827 0.166300 -1.796814
v -32.034805 1.146061 -1.853161
v -34.417469 0.005535 -1.059075
v -33.976254 0.245485 -1.831071
v -33.700836 -0.766125 -1.796853
v -34.120548 -0.961935 -1.040272
v -32.160301 -3.865328 1.040293
v -31.438400 -4.601548 1.055626
v -31.044359 -4.328455 1.819244
v -31.788937 -3.590710 1.796285
v -29.278461 -3.015244 1.823067
v -28.908911 -2.719263 1.057219
v -29.659807 -2.017578 1.040292
v -30.031641 -2.291960 1.796396
v -28.908911 -2.719263 -1.057201
v -29.278461 -3.015244 -1.823049
v -30.031641 -2.291960 -1.796378
v -29.659807 -2.017578 -1.040274
v -31.438400 -4.601547 -1.055606
v -32.160301 -3.865328 -1.040273
v -31.788937 -3.590710 -1.796265
v -31.044359 -4.328453 -1.819224
v -19.610498 -13.047487 1.483097
v -19.388186 -12.641712 2.239686
v -17.687080 -9.545819 -1.481500
v -19.388186 -12.641712 -2.239673
v -28.533661 -6.804904 -1.160783
v -28.210171 -6.471650 -1.923764
v -27.359661 -7.087035 -1.953413
v -27.692387 -7.412951 -1.190359
v -27.359661 -7.087035 1.953430
v -28.210171 -6.471650 1.923781
v -28.533661 -6.804902 1.160802
v -27.692387 -7.412951 1.190377
v -25.652220 -5.368300 1.956466
v -25.329433 -5.032580 1.191831
v -26.211445 -4.485289 1.159426
v -26.549864 -4.811957 1.923767
v -26.549864 -4.811957 -1.923750
v -26.211445 -4.485289 -1.159409
v -25.329433 -5.032580 -1.191815
v -25.652220 -5.368300 -1.956449
v -34.073944 1.435110 1.893227
v -34.032043 2.468149 1.893245
v -34.482204 2.486736 1.112917
v -34.524216 1.456331 1.112789
v -32.014107 2.381290 1.868319
v -32.052536 1.344128 1.868055
v -31.598970 1.328190 1.084063
v -32.052536 1.344128 -1.868034
v -32.014107 2.381290 -1.868299
v -31.561607 2.358383 -1.084815
v -31.598970 1.328190 -1.084043
v -34.032043 2.468149 -1.893224
v -34.073944 1.435110 -1.893206
v -34.524216 1.456331 -1.112767
v -34.482204 2.486736 -1.112895
v -23.477360 12.362282 1.704911
v -23.693022 12.773418 0.936661
v -24.567596 12.269066 0.895500
v -24.364300 11.843708 1.666986
v -22.424492 10.221415 0.938117
v -22.617231 10.650303 1.714261
v -23.566439 10.244183 1.645591
v -23.346048 9.832027 0.871824
v -24.364300 11.843708 -1.666970
v -24.567596 12.269066 -0.895484
v -23.693022 12.773418 -0.936646
v -23.477360 12.362282 -1.704896
v -23.566439 10.244183 -1.645576
v -22.617231 10.650303 -1.714247
v -22.424492 10.221418 -0.938102
v -23.346048 9.832027 -0.871809
v -21.109386 12.672108 1.715248
v -20.073709 12.536430 1.731185
v -20.082378 13.007805 0.967984
v -21.108255 13.132736 0.956659
v -21.111855 10.249352 -0.953585
v -21.112549 10.711529 -1.712903
v -20.081223 10.521713 -1.734597
v -20.097033 10.051817 -0.968740
v -20.081223 10.521713 1.734609
v -21.112549 10.711529 1.712917
v -21.111855 10.249352 0.953598
v -20.097033 10.051813 0.968753
v -20.073709 12.536430 -1.731171
v -21.109386 12.672108 -1.715233
v -21.108255 13.132736 -0.956645
v -20.082378 13.007805 -0.967971
v -26.859299 9.106537 -1.180099
v -26.404325 10.035662 -1.028914
v -26.048695 9.718138 -1.803645
v -26.510666 8.735556 -1.960124
v -24.704077 7.107918 -1.973206
v -24.559704 8.253675 -1.820414
v -24.194565 7.864357 -1.038013
v -24.296450 6.832300 -1.163922
v -26.048697 9.718138 1.803663
v -26.404325 10.035662 1.028931
v -26.859299 9.106537 1.180117
v -26.510666 8.735556 1.960141
v -24.559704 8.253675 1.820430
v -24.704077 7.107918 1.973222
v -24.296448 6.832300 1.163938
v -24.194565 7.864357 1.038029
v -27.665489 5.346945 -1.889690
v -26.474836 5.212070 -2.048205
v -26.285469 4.752497 -1.221238
v -27.310295 4.906336 -1.104275
v -27.879253 7.383678 -2.014527
v -28.959812 7.141066 -1.877520
v -29.213543 7.550432 -1.104271
v -28.208391 7.794693 -1.232947
v -27.310295 4.906338 1.104292
v -26.285469 4.752497 1.221255
v -26.474836 5.212070 2.048222
v -27.665489 5.346945 1.889707
v -27.879253 7.383678 2.014544
v -28.208391 7.794689 1.232965
v -29.213543 7.550428 1.104290
v -28.959812 7.141066 1.877538
v -30.447910 4.825249 -1.600987
v -29.196356 4.876749 -0.842347
v -30.137217 4.475063 -0.840725
v -30.604485 6.585571 -1.618817
v -31.608648 6.175833 -1.602712
v -31.908665 6.536633 -0.839906
v -30.955465 6.945236 -0.844297
v -30.137217 4.475063 0.840743
v -29.196356 4.876749 0.842365
v -29.483906 5.263172 1.621508
v -30.447910 4.825249 1.601005
v -30.955465 6.945240 0.844317
v -31.908665 6.536636 0.839925
v -31.608650 6.175831 1.602732
v -30.686447 -1.477188 -1.798982
v -31.269316 -0.617500 -1.797157
v -30.873095 -0.381140 -1.040273
v -30.289761 -1.235800 -1.040273
v -33.143147 -1.735682 -1.797148
v -32.561897 -2.596649 -1.798528
v -32.962246 -2.832014 -1.040272
v -33.539299 -1.972137 -1.040272
v -30.289761 -1.235800 1.040293
v -30.873095 -0.381140 1.040293
v -31.269316 -0.617500 1.797177
v -30.686447 -1.477190 1.799002
v -33.143147 -1.735682 1.797169
v -33.539299 -1.972137 1.040294
v -32.962246 -2.832012 1.040293
v -32.561897 -2.596649 1.798548
v -30.146364 -5.054276 1.854156
v -30.493673 -5.364943 1.092054
v -29.667919 -5.993191 1.122067
v -29.300835 -5.691549 1.887179
v -28.090267 -3.292082 1.090355
v -28.454050 -3.593866 1.853823
v -27.568184 -4.182419 1.890649
v -27.223154 -3.861897 1.123364
v -29.300833 -5.691549 -1.887159
v -29.667919 -5.993191 -1.122048
v -30.493673 -5.364943 -1.092035
v -30.146364 -5.054276 -1.854137
v -27.568184 -4.182419 -1.890632
v -28.454050 -3.593868 -1.853804
v -28.090267 -3.292080 -1.090337
v -27.223154 -3.861898 -1.123347
v -23.212572 -10.654635 -1.352611
v -24.064095 -10.061447 -1.321781
v -23.793196 -9.689787 -2.081636
v -22.941082 -10.282652 -2.112797
v -21.318151 -8.050983 -2.115088
v -22.213009 -7.521414 -2.080379
v -21.941689 -7.149424 -1.320235
v -21.047956 -7.676707 -1.354098
v -23.793196 -9.689787 2.081652
v -24.064095 -10.061447 1.321797
v -23.212572 -10.654635 1.352626
v -22.941082 -10.282653 2.112813
v -22.213009 -7.521414 2.080393
v -21.318151 -8.050983 2.115102
v -21.047956 -7.676707 1.354112
v -21.941689 -7.149422 1.320250
v -21.409058 11.246080 1.979634
v -21.615086 12.175140 1.978579
v -22.652847 12.073971 1.971408
v -22.450722 11.172792 1.971397
v -22.450722 11.172792 -1.971382
v -22.652847 12.073971 -1.971393
v -21.615086 12.175140 -1.978565
v -21.409058 11.246080 -1.979620
v -25.398716 6.313274 2.434544
v -26.154428 7.300953 2.413871
v -26.963072 6.695860 2.427860
v -26.146019 5.725220 2.443102
v -25.398716 6.313274 -2.434527
v -26.146019 5.725220 -2.443085
v -26.963070 6.695860 -2.427843
v -26.154428 7.300953 -2.413853
v -24.786509 10.925665 -1.795166
v -24.156475 10.254349 -1.795766
v -24.698875 9.411537 -1.866937
v -25.417759 10.086599 -1.853491
v -24.156475 10.254349 1.795782
v -24.786507 10.925665 1.795182
v -25.417759 10.086599 1.853506
v -24.698875 9.411537 1.866953
v -19.680374 10.954609 -2.018334
v -19.616526 11.886585 -2.017655
v -18.611252 11.558369 -2.233050
v -18.752295 10.586636 -2.238159
v -18.752295 10.586636 2.238171
v -18.611252 11.558369 2.233061
v -19.616526 11.886585 2.017668
v -19.680374 10.954609 2.018348
v -28.643427 5.772198 2.019777
v -29.257957 6.594961 2.001565
v -30.374687 6.302040 1.807352
v -28.643427 5.772198 -2.019760
v -29.703341 5.559515 -1.819963
v -30.374687 6.302040 -1.807333
v -29.257957 6.594961 -2.001548
v -30.866386 5.062315 1.832488
v -31.490063 5.767998 1.837333
v -32.278240 5.105768 1.948838
v -31.657854 4.405254 1.952085
v -30.866386 5.062315 -1.832470
v -31.657854 4.405254 -1.952065
v -32.278240 5.105768 -1.948819
v -31.490063 5.768000 -1.837314
v -32.095692 3.841698 2.054698
v -32.906204 4.305281 2.059021
v -33.340530 3.369267 2.148900
v -32.494274 2.891531 2.154245
v -32.095692 3.841698 -2.054678
v -32.494274 2.891531 -2.154224
v -33.340530 3.369267 -2.148878
v -32.906204 4.305281 -2.059001
v -32.573807 0.893471 2.155123
v -33.456482 0.492645 2.149904
v -33.128300 -0.496920 2.121805
v -32.290337 -0.102896 2.121804
v -32.573807 0.893473 -2.155102
v -32.290337 -0.102896 -2.121784
v -33.128300 -0.496920 -2.121783
v -33.456482 0.492645 -2.149884
v -30.538435 -2.666487 2.122330
v -31.281441 -3.215649 2.122330
v -30.544090 -3.958733 2.138722
v -29.781397 -3.387535 2.141290
v -30.538435 -2.666487 -2.122311
v -29.781395 -3.387535 -2.141272
v -30.544090 -3.958733 -2.138703
v -31.281441 -3.215649 -2.122310
v -18.426064 -10.889969 2.791171
v -27.710876 -5.970825 -2.295059
v -27.048664 -5.311807 -2.296993
v -26.179165 -5.897448 -2.344623
v -26.834259 -6.559948 -2.343017
v -27.048664 -5.311807 2.297011
v -27.710876 -5.970824 2.295077
v -26.834259 -6.559948 2.343034
v -26.179165 -5.897448 2.344640
v -33.511990 1.412523 -2.196860
v -33.471218 2.441542 -2.197362
v -32.568558 2.405746 -2.195087
v -32.608894 1.368555 -2.194367
v -32.608894 1.368555 2.194389
v -32.568558 2.405746 2.195107
v -33.471218 2.441542 2.197383
v -33.511990 1.412523 2.196881
v -23.751568 10.609797 1.870786
v -22.836939 11.092339 1.952143
v -23.258356 11.926868 1.951657
v -24.164352 11.457914 1.880169
v -24.164352 11.457914 -1.880154
v -23.258356 11.926868 -1.951642
v -22.836939 11.092339 -1.952128
v -23.751568 10.609797 -1.870771
v -20.079216 11.057461 -2.006044
v -21.111969 11.225960 -1.991391
v -21.110474 12.148033 -1.991179
v -20.075256 11.999878 -2.005140
v -21.111969 11.225956 1.991406
v -20.079216 11.057461 2.006057
v -20.075256 11.999878 2.005154
v -21.110474 12.148033 1.991193
v -25.969820 8.241375 -2.285498
v -25.667389 9.362852 -2.075037
v -24.956854 8.631641 -2.117302
v -25.193113 7.554136 -2.297289
v -25.193113 7.554138 2.297305
v -24.956854 8.631641 2.117318
v -25.667391 9.362852 2.075053
v -25.969820 8.241375 2.285514
v -28.005926 5.828838 2.218386
v -26.850639 5.794716 2.369445
v -27.440704 6.709785 2.358016
v -28.639280 6.666264 2.170959
v -28.639280 6.666264 -2.170941
v -27.440704 6.709785 -2.357999
v -26.850637 5.794716 -2.369427
v -28.005926 5.828838 -2.218369
v -30.723135 5.142405 1.816463
v -29.733173 5.550415 1.816644
v -31.331612 5.856586 1.819607
v -31.331612 5.856586 -1.819588
v -30.723135 5.142405 -1.816444
v -31.225262 -1.798891 2.119908
v -31.810087 -0.940197 2.121486
v -32.602448 -1.413029 2.121488
v -32.022888 -2.274864 2.119909
v -32.022888 -2.274864 -2.119888
v -32.602448 -1.413029 -2.121466
v -31.810087 -0.940197 -2.121467
v -31.225262 -1.798891 -2.119888
v -28.079546 -4.626231 2.239623
v -28.944145 -4.018137 2.193753
v -29.655952 -4.629259 2.191490
v -28.791222 -5.249845 2.237374
v -28.791222 -5.249845 -2.237356
v -29.655952 -4.629259 -2.191472
v -28.944145 -4.018139 -2.193734
v -28.079546 -4.626231 -2.239605
v -22.400900 -9.540948 -2.591838
v -23.273855 -8.976671 -2.543604
v -22.731487 -8.233072 -2.543940
v -21.859327 -8.794528 -2.592525
v -21.859327 -8.794528 2.592540
v -22.731487 -8.233072 2.543955
v -23.273855 -8.976671 2.543620
v -22.400900 -9.540948 2.591853
vn -0.3681 0.8760 0.3118
vn -0.3681 0.8760 -0.3118
vn -0.2036 0.9396 -0.2752
vn -0.2036 0.9396 0.2752
vn -0.1448 0.1815 0.9727
vn -0.5831 0.3194 0.7470
vn -0.4872 0.3764 0.7881
vn -0.0837 0.1553 0.9843
vn 0.0136 -0.2339 -0.9722
vn 0.0669 -0.6820 -0.7283
vn 0.1721 -0.6469 -0.7429
vn 0.0261 -0.2251 -0.9740
vn 0.0825 -0.6547 0.7514
vn 0.0009 -0.2962 0.9551
vn -0.1399 -0.3317 0.9329
vn -0.1573 -0.7359 0.6586
vn 0.0009 -0.2962 -0.9551
vn 0.0825 -0.6547 -0.7514
vn -0.1573 -0.7359 -0.6586
vn -0.1399 -0.3317 -0.9329
vn 0.7439 -0.0159 0.6682
vn 0.3431 0.0691 0.9368
vn 0.2826 -0.0641 0.9571
vn 0.6080 -0.2497 0.7536
vn 0.7051 -0.1522 0.6925
vn 0.3212 0.0403 0.9461
vn 0.3717 0.1126 0.9215
vn 0.7656 -0.0115 0.6432
vn -0.3876 -0.8860 0.2546
vn -0.2286 -0.9356 0.2692
vn -0.2286 -0.9356 -0.2692
vn -0.3876 -0.8860 -0.2546
vn 0.9284 -0.2823 -0.2418
vn 0.9284 -0.2823 0.2418
vn 0.9687 -0.0850 0.2331
vn 0.9687 -0.0850 -0.2331
vn -0.7774 0.5742 0.2567
vn -0.7774 0.5742 -0.2567
vn -0.8224 0.4983 -0.2744
vn -0.8224 0.4983 0.2744
vn -0.0462 0.2504 0.9670
vn 0.0939 0.6844 0.7230
vn 0.1109 0.6788 0.7259
vn 0.0292 0.2435 0.9695
vn -0.3172 -0.6341 0.7052
vn -0.1909 -0.2140 0.9580
vn -0.0686 -0.2288 0.9710
vn -0.1647 -0.6640 0.7293
vn -0.3554 0.8962 0.2657
vn -0.3553 0.8962 -0.2657
vn -0.3692 0.8920 -0.2609
vn -0.3692 0.8920 0.2609
vn 0.2356 -0.0631 -0.9698
vn 0.5613 -0.3691 -0.7407
vn 0.6371 -0.2463 -0.7303
vn 0.2495 -0.0185 -0.9682
vn -0.1550 -0.7628 0.6277
vn -0.1758 -0.3490 0.9205
vn -0.1668 -0.3667 0.9152
vn -0.0922 -0.7638 0.6388
vn -0.2263 0.1321 0.9651
vn -0.2829 0.6106 0.7397
vn -0.3209 0.6003 0.7326
vn -0.2432 0.1371 0.9602
vn -0.1074 0.2510 0.9620
vn -0.4277 0.5469 0.7197
vn -0.5486 0.4222 0.7217
vn -0.1613 0.2095 0.9644
vn 0.3390 -0.5907 0.7322
vn 0.1423 -0.1782 0.9737
vn 0.2055 -0.1101 0.9725
vn 0.4623 -0.4809 0.7450
vn -0.0704 0.2544 0.9645
vn -0.2674 0.6469 0.7142
vn -0.3193 0.6208 0.7160
vn -0.0657 0.2705 0.9605
vn 0.5613 -0.3691 0.7407
vn 0.2356 -0.0631 0.9698
vn 0.2495 -0.0185 0.9682
vn 0.6372 -0.2466 0.7302
vn 0.6232 0.2529 0.7401
vn 0.2063 0.0705 0.9759
vn 0.1952 0.1213 0.9732
vn 0.5744 0.3591 0.7356
vn -0.3916 0.8831 0.2584
vn -0.3916 0.8831 -0.2584
vn -0.4864 0.8327 -0.2646
vn -0.4864 0.8327 0.2646
vn -0.2674 0.6468 -0.7142
vn -0.0708 0.2543 -0.9645
vn -0.0657 0.2705 -0.9605
vn -0.3193 0.6208 -0.7160
vn 0.1409 -0.1784 -0.9738
vn 0.3376 -0.5921 -0.7317
vn 0.4623 -0.4809 -0.7450
vn 0.2055 -0.1101 -0.9725
vn 0.1288 0.2012 -0.9711
vn 0.4163 0.5411 -0.7306
vn 0.3720 0.5865 -0.7195
vn 0.1104 0.2277 -0.9675
vn 0.2063 0.0705 -0.9759
vn 0.6232 0.2529 -0.7401
vn 0.5744 0.3591 -0.7356
vn 0.1952 0.1213 -0.9732
vn 0.7002 -0.0124 0.7138
vn 0.2542 -0.0295 0.9667
vn 0.2368 -0.0048 0.9716
vn 0.6802 0.0841 0.7282
vn -0.2277 -0.1130 0.9671
vn -0.6339 -0.2808 0.7206
vn -0.5808 -0.3618 0.7293
vn -0.2037 -0.1276 0.9707
vn -0.1659 -0.1770 0.9701
vn -0.4027 -0.5541 0.7285
vn -0.4264 -0.4718 0.7717
vn -0.1728 -0.1532 0.9730
vn 0.5446 0.4026 0.7357
vn 0.1857 0.1365 0.9731
vn 0.1617 0.1600 0.9738
vn 0.4935 0.4646 0.7353
vn -0.1947 -0.1420 0.9705
vn -0.5539 -0.4016 0.7294
vn -0.5202 -0.4504 0.7256
vn -0.1886 -0.1558 0.9696
vn 0.4163 0.5411 0.7306
vn 0.1288 0.2012 0.9711
vn 0.1104 0.2277 0.9675
vn 0.3720 0.5865 0.7195
vn -0.4027 -0.5541 -0.7285
vn -0.1659 -0.1770 -0.9701
vn -0.1818 -0.2044 -0.9619
vn -0.4264 -0.4718 -0.7717
vn 0.3208 0.6045 0.7292
vn 0.0859 0.2263 0.9703
vn 0.0874 0.2394 0.9670
vn 0.2215 0.5901 0.7763
vn -0.5484 -0.7919 0.2686
vn -0.5484 -0.7919 -0.2686
vn -0.5322 -0.7623 -0.3682
vn -0.5322 -0.7623 0.3682
vn 0.3475 0.5985 0.7218
vn 0.1002 0.2305 0.9679
vn 0.0938 0.2265 0.9695
vn 0.3380 0.5986 0.7262
vn 0.5027 0.8227 -0.2654
vn 0.5027 0.8227 0.2654
vn 0.4928 0.8280 0.2676
vn 0.4928 0.8280 -0.2676
vn -0.5723 -0.7748 0.2684
vn -0.5723 -0.7748 -0.2684
vn -0.5657 -0.7798 -0.2682
vn -0.5657 -0.7798 0.2682
vn -0.2315 0.1323 0.9638
vn -0.6542 0.2368 0.7183
vn -0.6958 0.0857 0.7131
vn -0.2480 0.0515 0.9674
vn 0.2495 0.0104 -0.9683
vn 0.6804 -0.1162 -0.7236
vn 0.6995 -0.0420 -0.7134
vn 0.2560 0.0092 -0.9666
vn -0.6542 0.2368 -0.7183
vn -0.2315 0.1323 -0.9638
vn -0.2480 0.0515 -0.9674
vn -0.6958 0.0857 -0.7131
vn 0.6806 -0.1162 0.7233
vn 0.2495 0.0104 0.9683
vn 0.2560 0.0092 0.9666
vn 0.6995 -0.0419 0.7134
vn -0.0209 0.2486 -0.9684
vn -0.0370 0.6884 -0.7244
vn 0.0462 0.6872 -0.7250
vn 0.0041 0.2433 -0.9699
vn 0.0041 0.2433 0.9699
vn 0.0462 0.6872 0.7250
vn -0.0370 0.6884 0.7244
vn -0.0209 0.2486 0.9684
vn -0.0528 0.9621 0.2676
vn 0.0694 0.9611 0.2673
vn 0.0694 0.9611 -0.2673
vn -0.0528 0.9621 -0.2676
vn -0.0252 -0.6803 -0.7325
vn -0.0181 -0.2338 -0.9721
vn -0.0462 -0.2324 -0.9715
vn -0.0979 -0.6783 -0.7283
vn -0.1415 0.6778 -0.7215
vn -0.0606 0.2409 -0.9686
vn -0.1285 0.2148 -0.9682
vn -0.2833 0.6280 -0.7248
vn -0.1996 0.9428 0.2668
vn -0.1996 0.9428 -0.2668
vn -0.3859 0.8828 -0.2677
vn -0.3859 0.8828 0.2677
vn 0.0767 -0.9597 -0.2705
vn 0.0767 -0.9597 0.2705
vn 0.2502 -0.9271 0.2791
vn 0.2502 -0.9271 -0.2791
vn 0.1586 0.9505 0.2672
vn 0.1930 0.9466 0.2583
vn 0.1930 0.9466 -0.2583
vn 0.1586 0.9505 -0.2672
vn 0.0292 0.2435 -0.9695
vn 0.1109 0.6788 -0.7259
vn 0.0939 0.6844 -0.7230
vn -0.0462 0.2504 -0.9670
vn 0.4693 -0.8380 -0.2783
vn 0.4693 -0.8380 0.2783
vn 0.7258 -0.6348 0.2651
vn 0.7258 -0.6348 -0.2651
vn 0.0378 -0.2368 -0.9708
vn 0.2896 -0.6070 -0.7400
vn 0.4949 -0.4552 -0.7402
vn 0.1399 -0.1580 -0.9775
vn -0.2170 0.1585 0.9632
vn -0.4522 0.5276 0.7191
vn -0.5329 0.4699 0.7037
vn -0.2201 0.1715 0.9603
vn -0.1304 0.2611 0.9565
vn -0.5215 0.4623 0.7172
vn -0.5305 0.4196 0.7366
vn -0.0814 0.2660 0.9605
vn -0.8680 0.4119 0.2775
vn -0.8680 0.4119 -0.2775
vn -0.7640 0.5634 -0.3145
vn -0.7640 0.5634 0.3145
vn -0.1207 0.1272 0.9845
vn -0.2294 0.5806 0.7812
vn -0.1578 0.6481 0.7450
vn -0.1216 0.1915 0.9739
vn 0.3431 0.0691 -0.9368
vn 0.7439 -0.0159 -0.6682
vn 0.6080 -0.2497 -0.7536
vn 0.2826 -0.0641 -0.9571
vn -0.5831 0.3194 -0.7470
vn -0.1448 0.1815 -0.9727
vn -0.0837 0.1553 -0.9843
vn -0.4872 0.3764 -0.7881
vn -0.3061 0.9111 0.2760
vn -0.3061 0.9111 -0.2760
vn -0.3492 0.8982 -0.2669
vn -0.3492 0.8982 0.2669
vn -0.1758 -0.3490 -0.9205
vn -0.1550 -0.7628 -0.6277
vn -0.0935 -0.7637 -0.6387
vn -0.1679 -0.3678 -0.9146
vn -0.2829 0.6106 -0.7397
vn -0.2263 0.1321 -0.9651
vn -0.2435 0.1366 -0.9602
vn -0.3210 0.6003 -0.7325
vn -0.2514 -0.0318 0.9674
vn -0.7004 -0.0294 0.7132
vn -0.6833 -0.1493 0.7147
vn -0.2555 -0.0839 0.9632
vn -0.9650 -0.0217 0.2613
vn -0.9650 -0.0217 -0.2613
vn -0.9461 -0.1881 -0.2638
vn -0.9461 -0.1881 0.2638
vn 0.2542 -0.0295 -0.9667
vn 0.7003 -0.0123 -0.7138
vn 0.6802 0.0841 -0.7282
vn 0.2368 -0.0048 -0.9716
vn -0.7004 -0.0294 -0.7132
vn -0.2514 -0.0318 -0.9674
vn -0.2555 -0.0839 -0.9632
vn -0.6833 -0.1493 -0.7147
vn -0.1839 -0.1664 0.9688
vn -0.4726 -0.4995 0.7260
vn -0.4401 -0.5272 0.7269
vn -0.1751 -0.1637 0.9708
vn -0.7808 -0.5639 0.2689
vn -0.7808 -0.5639 -0.2689
vn -0.7267 -0.6328 -0.2673
vn -0.7267 -0.6328 0.2673
vn -0.5539 -0.4016 -0.7294
vn -0.1947 -0.1420 -0.9705
vn -0.1886 -0.1558 -0.9696
vn -0.5202 -0.4504 -0.7256
vn 0.1857 0.1365 -0.9731
vn 0.5446 0.4026 -0.7357
vn 0.4935 0.4646 -0.7353
vn 0.1617 0.1600 -0.9738
vn 0.5110 0.8179 -0.2646
vn 0.5110 0.8179 0.2646
vn 0.5006 0.8244 0.2641
vn 0.5006 0.8244 -0.2641
vn 0.1052 0.2307 -0.9673
vn 0.3554 0.5962 -0.7199
vn 0.3481 0.6017 -0.7189
vn 0.1024 0.2335 -0.9669
vn -0.1700 -0.1716 0.9704
vn -0.4238 -0.5408 0.7266
vn -0.4170 -0.5452 0.7273
vn -0.1676 -0.1711 0.9709
vn -0.1692 -0.1701 0.9708
vn -0.4197 -0.5423 0.7278
vn -0.4153 -0.5461 0.7275
vn -0.1694 -0.1734 0.9702
vn 0.3554 0.5962 0.7199
vn 0.1052 0.2307 0.9673
vn 0.1024 0.2335 0.9669
vn 0.3481 0.6017 0.7189
vn -0.5783 -0.7707 0.2677
vn -0.5783 -0.7707 -0.2677
vn -0.5685 -0.7777 -0.2681
vn -0.5685 -0.7777 0.2681
vn 0.7726 0.5735 -0.2722
vn 0.7726 0.5735 0.2722
vn 0.7034 0.6567 0.2719
vn 0.7034 0.6567 -0.2719
vn -0.6528 -0.7091 0.2667
vn -0.6528 -0.7091 -0.2667
vn -0.6007 -0.7532 -0.2681
vn -0.6007 -0.7532 0.2681
vn -0.6329 0.7268 0.2670
vn -0.6329 0.7268 -0.2670
vn -0.7916 0.5481 -0.2702
vn -0.7916 0.5480 0.2702
vn -0.1429 -0.9637 -0.2255
vn -0.1429 -0.9637 0.2255
vn -0.0423 -0.9747 0.2196
vn -0.0429 -0.9745 -0.2201
vn -0.4522 0.5276 -0.7191
vn -0.2170 0.1585 -0.9632
vn -0.2201 0.1715 -0.9603
vn -0.5329 0.4699 -0.7037
vn 0.9683 -0.0574 -0.2430
vn 0.9683 -0.0574 0.2430
vn 0.8188 -0.4661 0.3352
vn 0.8188 -0.4661 -0.3352
vn 0.2896 -0.6070 0.7400
vn 0.0378 -0.2368 0.9708
vn 0.1399 -0.1580 0.9775
vn 0.4949 -0.4552 0.7402
vn -0.5870 0.7650 0.2648
vn -0.5870 0.7650 -0.2648
vn -0.7153 0.6514 -0.2532
vn -0.7153 0.6514 0.2532
vn -0.1648 -0.6640 -0.7293
vn -0.0686 -0.2288 -0.9710
vn -0.1909 -0.2140 -0.9580
vn -0.3172 -0.6341 -0.7052
vn -0.1391 -0.9528 0.2700
vn -0.0402 -0.9618 0.2707
vn -0.0402 -0.9618 -0.2707
vn -0.1390 -0.9528 -0.2700
vn 0.0669 -0.6820 0.7283
vn 0.0136 -0.2339 0.9722
vn 0.0261 -0.2251 0.9740
vn 0.1721 -0.6469 0.7429
vn -0.0979 -0.6783 0.7283
vn -0.0462 -0.2324 0.9715
vn -0.0181 -0.2338 0.9721
vn -0.0252 -0.6803 0.7325
vn -0.8836 -0.3844 0.2673
vn -0.8836 -0.3844 -0.2673
vn -0.8177 -0.5089 -0.2690
vn -0.8177 -0.5089 0.2690
vn 0.1002 0.2305 -0.9679
vn 0.3475 0.5985 -0.7218
vn 0.3380 0.5986 -0.7262
vn 0.0938 0.2265 -0.9695
vn -0.4197 -0.5423 -0.7278
vn -0.1692 -0.1701 -0.9708
vn -0.1694 -0.1734 -0.9702
vn -0.4153 -0.5461 -0.7275
vn 0.4712 0.8400 -0.2689
vn 0.4712 0.8400 0.2689
vn 0.3805 0.8632 0.3319
vn 0.3805 0.8631 -0.3319
vn -0.4238 -0.5408 -0.7266
vn -0.1700 -0.1716 -0.9704
vn -0.1676 -0.1711 -0.9709
vn -0.4170 -0.5452 -0.7273
vn 0.0859 0.2263 -0.9703
vn 0.3208 0.6045 -0.7292
vn 0.2215 0.5901 -0.7763
vn 0.0578 0.2141 -0.9751
vn 0.6002 0.7533 -0.2688
vn 0.6002 0.7533 0.2688
vn 0.5342 0.8028 0.2647
vn 0.5342 0.8028 -0.2647
vn -0.6339 -0.2808 -0.7206
vn -0.2277 -0.1130 -0.9671
vn -0.2037 -0.1276 -0.9707
vn -0.5808 -0.3618 -0.7293
vn -0.4726 -0.4995 -0.7260
vn -0.1839 -0.1664 -0.9688
vn -0.1751 -0.1637 -0.9708
vn -0.4401 -0.5272 -0.7269
vn -0.9152 0.3009 0.2681
vn -0.9152 0.3009 -0.2681
vn -0.9601 0.1001 -0.2613
vn -0.9601 0.1001 0.2613
vn 0.4574 -0.8485 -0.2662
vn 0.4580 -0.8479 0.2671
vn 0.6228 -0.7323 0.2755
vn 0.6228 -0.7323 -0.2755
vn 0.8845 0.3783 -0.2729
vn 0.8845 0.3783 0.2729
vn 0.8157 0.5104 0.2723
vn 0.8157 0.5104 -0.2723
vn 0.7694 -0.5777 -0.2725
vn 0.7694 -0.5777 0.2725
vn 0.8729 -0.4044 0.2728
vn 0.8731 -0.4042 -0.2728
vn 0.1177 -0.9642 -0.2377
vn 0.1177 -0.9644 0.2368
vn 0.2904 -0.9217 0.2572
vn 0.2908 -0.9218 -0.2565
vn -0.4277 0.5469 -0.7197
vn -0.1074 0.2510 -0.9620
vn -0.1613 0.2095 -0.9644
vn -0.5486 0.4222 -0.7217
vn 0.3212 0.0403 -0.9461
vn 0.7051 -0.1522 -0.6925
vn 0.7656 -0.0115 -0.6432
vn 0.3717 0.1126 -0.9215
vn -0.5215 0.4623 -0.7172
vn -0.1304 0.2611 -0.9565
vn -0.0814 0.2660 -0.9605
vn -0.5305 0.4196 -0.7366
vn -0.2294 0.5806 -0.7812
vn -0.1207 0.1272 -0.9845
vn -0.1216 0.1915 -0.9739
vn -0.1578 0.6481 -0.7450
vn 0.2381 -0.9112 -0.3361
vn 0.2381 -0.9112 0.3361
vn -0.1833 -0.9539 0.2377
vn -0.1833 -0.9539 -0.2377
vn -0.0606 0.2409 0.9686
vn -0.1415 0.6778 0.7215
vn -0.2833 0.6280 0.7248
vn -0.1285 0.2148 0.9682
vn -0.4879 -0.8366 0.2493
vn -0.4326 -0.6192 0.6554
vn 0.0234 0.6496 0.7599
vn 0.1694 0.9392 0.2988
vn -0.4326 -0.6192 -0.6554
vn -0.4879 -0.8366 -0.2493
vn 0.1694 0.9392 -0.2988
vn 0.0234 0.6496 -0.7599
vn -0.2901 0.6302 0.7202
vn 0.1212 -0.7003 0.7035
vn 0.1166 -0.7028 -0.7018
vn -0.2905 0.6298 -0.7204
vn 0.9447 -0.1710 0.2798
vn 0.9449 -0.1696 -0.2799
vn 0.9536 0.1168 0.2776
vn 0.9536 0.1169 -0.2776
vn -0.1453 0.2139 -0.9660
vn -0.3050 -0.2334 -0.9233
vn -0.3050 -0.2334 0.9233
vn -0.1453 0.2139 0.9660
vn -0.1532 0.2046 0.9668
vn -0.0068 -0.2760 0.9611
vn -0.0097 -0.2781 -0.9605
vn -0.1530 0.2052 -0.9667
s 1
f 315//355 326//356 527//357 533//358
f 709//359 515//360 317//361 607//362
f 602//363 299//364 485//365 692//366
f 318//367 609//368 711//369 530//370
f 611//371 323//372 521//373 716//374
f 517//375 706//376 606//377 321//378
f 338//379 621//380 707//381 516//382
f 347//383 499//384 495//385 356//386
f 344//387 339//388 519//389 510//390
f 337//391 333//392 505//393 513//394
f 628//395 353//396 489//397 700//398
f 346//399 629//400 699//401 496//402
f 363//403 375//404 542//405 547//406
f 642//407 385//408 401//409 649//410
f 531//411 710//412 630//413 368//414
f 713//415 535//416 365//417 631//418
f 639//419 378//420 394//421 646//422
f 546//423 718//424 637//425 383//426
f 720//427 549//428 379//429 638//430
f 380//431 640//432 645//433 399//434
f 411//435 656//436 724//437 560//438
f 548//439 541//440 388//441 376//442
f 540//443 721//444 644//445 389//446
f 722//447 536//448 386//449 641//450
f 666//451 430//452 579//453 737//454
f 658//455 415//456 551//457 729//458
f 462//459 682//460 653//461 413//462
f 655//463 408//464 562//465 725//466
f 746//467 593//468 438//469 295//470
f 561//471 723//472 661//473 428//474
f 726//475 565//476 424//477 662//478
f 425//479 664//480 732//481 571//482
f 585//483 739//484 296//485 440//486
f 595//487 743//488 669//489 291//490
f 592//491 582//492 294//493 437//494
f 449//495 677//496 744//497 594//498
f 455//499 450//500 597//501 588//502
f 448//503 444//504 583//505 591//506
f 647//507 393//508 458//509 684//510
f 650//511 400//512 465//513 680//514
f 406//515 651//516 679//517 468//518
f 396//519 648//520 683//521 461//522
f 604//523 303//524 501//525 696//526
f 701//527 488//528 310//529 599//530
f 311//531 491//532 502//533 302//534
f 300//535 605//536 695//537 493//538
f 304//539 603//540 691//541 483//542
f 312//543 305//544 482//545 473//546
f 298//547 308//548 476//549 486//550
f 490//551 352//552 359//553 503//554
f 697//555 500//556 358//557 623//558
f 487//559 479//560 340//561 343//562
f 693//563 484//564 342//565 615//566
f 689//567 475//568 335//569 619//570
f 620//571 334//572 512//573 708//574
f 514//575 504//576 327//577 314//578
f 608//579 316//580 532//581 712//582
f 705//583 508//584 324//585 610//586
f 507//587 702//588 613//589 328//590
f 534//591 526//592 373//593 362//594
f 717//595 520//596 371//597 633//598
f 525//599 714//600 636//601 374//602
f 685//603 457//604 409//605 654//606
f 460//607 470//608 417//609 410//610
f 681//611 464//612 416//613 657//614
f 469//615 678//616 660//617 418//618
f 663//619 423//620 566//621 733//622
f 564//623 556//624 434//625 421//626
f 555//627 727//628 668//629 435//630
f 730//631 550//632 431//633 665//634
f 581//635 573//636 451//637 454//638
f 738//639 578//640 453//641 671//642
f 734//643 569//644 446//645 675//646
f 676//647 445//648 590//649 745//650
f 572//651 731//652 674//653 452//654
f 568//655 575//656 441//657 447//658
f 553//659 558//660 427//661 432//662
f 422//663 433//664 576//665 567//666
f 377//667 391//668 404//669 395//670
f 523//671 528//672 367//673 372//674
f 480//675 690//676 614//677 331//678
f 511//679 518//680 320//681 325//682
f 478//683 686//684 618//685 341//686
f 474//687 481//688 330//689 336//690
f 494//691 694//692 622//693 357//694
f 498//695 309//696 301//697 492//698
f 307//699 601//700 687//701 477//702
f 497//703 698//704 598//705 306//706
f 407//707 420//708 557//709 563//710
f 672//711 456//712 587//713 741//714
f 443//715 673//716 740//717 584//718
f 589//719 596//720 292//721 439//722
f 574//723 735//724 670//725 442//726
f 742//727 586//728 293//729 297//730
f 429//731 426//732 570//733 580//734
f 419//735 659//736 728//737 554//738
f 436//739 667//740 736//741 577//742
f 392//743 403//744 471//745 459//746
f 538//747 543//748 382//749 387//750
f 414//751 412//752 559//753 552//754
f 384//755 381//756 398//757 402//758
f 369//759 366//760 544//761 537//762
f 390//763 643//764 652//765 405//766
f 616//767 345//768 509//769 704//770
f 332//771 617//772 703//773 506//774
f 329//775 612//776 715//777 524//778
f 322//779 319//780 529//781 522//782
f 600//783 313//784 472//785 688//786
f 298//547 299//364 300//535 301//697
f 302//534 303//524 304//539 305//544
f 306//706 307//699 308//548 309//696
f 310//529 311//531 312//543 313//784
f 314//578 315//355 316//580 317//361
f 318//367 319//780 320//681 321//378
f 322//779 323//372 324//585 325//682
f 326//356 327//577 328//590 329//775
f 330//689 331//678 332//771 333//392
f 334//572 335//569 336//690 337//391
f 338//379 339//388 340//561 341//686
f 342//565 343//562 344//387 345//768
f 346//399 347//383 348//787 349//788
f 350//789 351//790 352//552 353//396
f 354//791 355//792 356//386 357//694
f 358//557 359//553 360//793 361//794
f 362//594 363//403 364//795 365//417
f 545//796 366//760 367//673 368//414
f 369//759 370//797 371//597 372//674
f 373//593 374//602 539//798 375//404
f 376//442 377//667 378//420 379//429
f 380//431 381//756 382//749 383//426
f 384//755 385//408 386//449 387//750
f 388//441 389//446 390//763 391//668
f 392//743 393//508 394//421 395//670
f 396//519 397//799 398//757 399//434
f 466//800 400//512 401//409 402//758
f 403//744 404//669 405//766 406//515
f 407//707 408//464 409//605 410//610
f 411//435 412//752 463//801 413//462
f 414//751 415//456 416//613 467//802
f 417//609 418//618 419//735 420//708
f 421//626 422//663 423//620 424//477
f 425//479 426//732 427//661 428//474
f 429//731 430//452 431//633 432//662
f 433//664 434//625 435//630 436//739
f 441//657 442//726 443//715 444//504
f 445//648 446//645 447//658 448//503
f 449//495 450//500 451//637 452//654
f 453//641 454//638 455//499 456//712
f 457//604 458//509 459//746 460//607
f 461//522 462//459 463//801 397//799
f 464//612 465//513 466//800 467//802
f 468//518 469//615 470//608 471//745
f 472//785 473//546 474//687 475//568
f 476//549 477//702 478//683 479//560
f 480//675 481//688 482//545 483//542
f 484//564 485//365 486//550 487//559
f 488//528 489//397 490//551 491//532
f 492//698 493//538 494//691 495//385
f 496//402 497//703 498//695 499//384
f 500//556 501//525 502//533 503//554
f 504//576 505//393 506//774 507//587
f 508//584 509//769 510//390 511//679
f 512//573 513//394 514//575 515//360
f 516//382 517//375 518//680 519//389
f 520//596 521//373 522//782 523//671
f 524//778 525//599 526//592 527//357
f 528//672 529//781 530//370 531//411
f 532//581 533//358 534//591 535//416
f 536//448 370//797 537//762 538//747
f 539//798 540//443 541//440 542//405
f 543//748 544//761 545//796 546//423
f 364//795 547//406 548//439 549//428
f 550//632 551//457 552//754 553//659
f 554//738 555//627 556//624 557//709
f 558//660 559//753 560//438 561//471
f 562//465 563//710 564//623 565//476
f 566//621 567//666 568//655 569//644
f 570//733 571//482 572//651 573//636
f 574//723 575//656 576//665 577//742
f 578//640 579//453 580//734 581//635
f 582//492 583//505 584//718 585//483
f 586//728 587//713 588//502 589//719
f 590//649 591//506 592//491 593//468
f 594//498 595//487 596//720 597//501
f 598//705 599//530 600//783 601//700
f 602//363 603//540 604//523 605//536
f 606//377 607//362 608//579 609//368
f 610//586 611//371 612//776 613//589
f 614//677 615//566 616//767 617//772
f 618//685 619//570 620//571 621//380
f 622//693 623//558 624//803 625//804
f 626//805 627//806 628//395 629//400
f 630//413 631//418 632//807 719//808
f 633//598 634//809 635//810 636//601
f 637//425 638//430 639//419 640//432
f 641//450 642//407 643//764 644//445
f 645//433 646//422 647//507 648//520
f 649//410 650//511 651//516 652//765
f 653//461 654//606 655//463 656//436
f 657//614 658//455 659//736 660//617
f 661//473 662//478 663//619 664//480
f 665//634 666//451 667//740 668//629
f 670//725 671//642 672//711 673//716
f 674//653 675//646 676//647 677//496
f 678//616 679//517 680//514 681//611
f 682//460 683//521 684//510 685//603
f 686//684 687//701 688//786 689//567
f 690//676 691//541 692//366 693//563
f 694//692 695//537 696//526 697//555
f 698//704 699//401 700//398 701//527
f 702//588 703//773 704//770 705//583
f 706//376 707//381 708//574 709//359
f 710//412 711//369 712//582 713//415
f 714//600 715//777 716//374 717//595
f 718//424 719//808 632//807 720//427
f 721//444 635//810 634//809 722//447
f 723//472 724//437 725//466 726//475
f 727//628 728//737 729//458 730//631
f 731//652 732//481 733//622 734//643
f 735//724 736//741 737//454 738//639
f 739//484 740//717 741//714 742//727
f 743//488 744//497 745//650 746//467
f 491//532 311//531 310//529 488//528
f 601//700 307//699 306//706 598//705
f 301//697 309//696 308//548 298//547
f 311//531 302//534 305//544 312//543
f 605//536 300//535 299//364 602//363
f 492//698 301//697 300//535 493//538
f 609//368 318//367 321//378 606//377
f 325//682 320//681 319//780 322//779
f 314//578 327//577 326//356 315//355
f 610//586 324//585 323//372 611//371
f 507//587 328//590 327//577 504//576
f 472//785 313//784 312//543 473//546
f 476//549 308//548 307//699 477//702
f 511//679 325//682 324//585 508//584
f 480//675 331//678 330//689 481//688
f 512//573 334//572 337//391 513//394
f 519//389 339//388 338//379 516//382
f 487//559 343//562 342//565 484//564
f 339//388 344//387 343//562 340//561
f 617//772 332//771 331//678 614//677
f 621//380 338//379 341//686 618//685
f 333//392 337//391 336//690 330//689
f 499//384 347//383 346//399 496//402
f 503//554 359//553 358//557 500//556
f 351//790 360//793 359//553 352//552
f 347//383 356//386 355//792 348//787
f 625//804 354//791 357//694 622//693
f 629//400 346//399 349//788 626//805
f 719//808 545//796 368//414 630//413
f 372//674 367//673 366//760 369//759
f 362//594 373//593 375//404 363//403
f 633//598 371//597 370//797 634//809
f 523//671 372//674 371//597 520//596
f 527//357 326//356 329//775 524//778
f 531//411 368//414 367//673 528//672
f 532//581 316//580 315//355 533//358
f 640//432 380//431 383//426 637//425
f 387//750 382//749 381//756 384//755
f 376//442 388//441 391//668 377//667
f 641//450 386//449 385//408 642//407
f 538//747 387//750 386//449 536//448
f 542//405 375//404 539//798
f 546//423 383//426 382//749 543//748
f 364//795 363//403 547//406
f 648//520 396//519 399//434 645//433
f 402//758 398//757 397//799 466//800
f 395//670 404//669 403//744 392//743
f 649//410 401//409 400//512 650//511
f 390//763 405//766 404//669 391//668
f 394//421 378//420 377//667 395//670
f 398//757 381//756 380//431 399//434
f 384//755 402//758 401//409 385//408
f 656//436 411//435 413//462 653//461
f 467//802 463//801 412//752 414//751
f 410//610 417//609 420//708 407//707
f 657//614 416//613 415//456 658//455
f 460//607 410//610 409//605 457//604
f 397//799 396//519 461//522
f 467//802 416//613 464//612
f 471//745 403//744 406//515 468//518
f 664//480 425//479 428//474 661//473
f 432//662 427//661 426//732 429//731
f 421//626 434//625 433//664 422//663
f 665//634 431//633 430//452 666//451
f 553//659 432//662 431//633 550//632
f 557//709 420//708 419//735 554//738
f 561//471 428//474 427//661 558//660
f 562//465 408//464 407//707 563//710
f 585//483 440//486 294//493 582//492
f 566//621 423//620 422//663 567//666
f 570//733 426//732 425//479 571//482
f 589//719 439//722 293//729 586//728
f 574//723 442//726 441//657 575//656
f 590//649 445//648 448//503 591//506
f 597//501 450//500 449//495 594//498
f 581//635 454//638 453//641 578//640
f 450//500 455//499 454//638 451//637
f 673//716 443//715 442//726 670//725
f 677//496 449//495 452//654 674//653
f 444//504 448//503 447//658 441//657
f 392//743 459//746 458//509 393//508
f 463//801 462//459 413//462
f 466//800 465//513 400//512
f 417//609 470//608 469//615 418//618
f 470//608 460//607 459//746 471//745
f 463//801 467//802 466//800 397//799
f 678//616 469//615 468//518 679//517
f 682//460 462//459 461//522 683//521
f 335//569 475//568 474//687 336//690
f 340//561 479//560 478//683 341//686
f 304//539 483//542 482//545 305//544
f 298//547 486//550 485//365 299//364
f 481//688 474//687 473//546 482//545
f 686//684 478//683 477//702 687//701
f 690//676 480//675 483//542 691//541
f 479//560 487//559 486//550 476//549
f 352//552 490//551 489//397 353//396
f 356//386 495//385 494//691 357//694
f 309//696 498//695 497//703 306//706
f 302//534 502//533 501//525 303//524
f 694//692 494//691 493//538 695//537
f 490//551 503//554 502//533 491//532
f 498//695 492//698 495//385 499//384
f 698//704 497//703 496//402 699//401
f 332//771 506//774 505//393 333//392
f 344//387 510//390 509//769 345//768
f 317//361 515//360 514//575 314//578
f 320//681 518//680 517//375 321//378
f 518//680 511//679 510//390 519//389
f 702//588 507//587 506//774 703//773
f 706//376 517//375 516//382 707//381
f 504//576 514//575 513//394 505//393
f 322//779 522//782 521//373 323//372
f 373//593 526//592 525//599 374//602
f 318//367 530//370 529//781 319//780
f 365//417 535//416 534//591 362//594
f 710//412 531//411 530//370 711//369
f 526//592 534//591 533//358 527//357
f 528//672 523//671 522//782 529//781
f 714//600 525//599 524//778 715//777
f 369//759 537//762 370//797
f 388//441 541//440 540//443 389//446
f 545//796 544//761 366//760
f 379//429 549//428 548//439 376//442
f 718//424 546//423 545//796 719//808
f 541//440 548//439 547//406 542//405
f 543//748 538//747 537//762 544//761
f 721//444 540//443 539//798 635//810
f 414//751 552//754 551//457 415//456
f 434//625 556//624 555//627 435//630
f 411//435 560//438 559//753 412//752
f 424//477 565//476 564//623 421//626
f 723//472 561//471 560//438 724//437
f 556//624 564//623 563//710 557//709
f 558//660 553//659 552//754 559//753
f 727//628 555//627 554//738 728//737
f 446//645 569//644 568//655 447//658
f 451//637 573//636 572//651 452//654
f 436//739 577//742 576//665 433//664
f 429//731 580//734 579//453 430//452
f 575//656 568//655 567//666 576//665
f 731//652 572//651 571//482 732//481
f 735//724 574//723 577//742 736//741
f 573//636 581//635 580//734 570//733
f 443//715 584//718 583//505 444//504
f 455//499 588//502 587//713 456//712
f 438//469 593//468 592//491 437//494
f 292//721 596//720 595//487 291//490
f 596//720 589//719 588//502 597//501
f 739//484 585//483 584//718 740//717
f 743//488 595//487 594//498 744//497
f 582//492 592//491 591//506 583//505
f 313//784 600//783 599//530 310//529
f 303//524 604//523 603//540 304//539
f 316//580 608//579 607//362 317//361
f 328//590 613//589 612//776 329//775
f 345//768 616//767 615//566 342//565
f 334//572 620//571 619//570 335//569
f 361//794 624//803 623//558 358//557
f 353//396 628//395 627//806 350//789
f 364//795 632//807 631//418 365//417
f 374//602 636//601 635//810 539//798
f 378//420 639//419 638//430 379//429
f 389//446 644//445 643//764 390//763
f 393//508 647//507 646//422 394//421
f 405//766 652//765 651//516 406//515
f 408//464 655//463 654//606 409//605
f 418//618 660//617 659//736 419//735
f 423//620 663//619 662//478 424//477
f 435//630 668//629 667//740 436//739
f 456//712 672//711 671//642 453//641
f 445//648 676//647 675//646 446//645
f 464//612 681//611 680//514 465//513
f 457//604 685//603 684//510 458//509
f 475//568 689//567 688//786 472//785
f 484//564 693//563 692//366 485//365
f 500//556 697//555 696//526 501//525
f 488//528 701//527 700//398 489//397
f 508//584 705//583 704//770 509//769
f 515//360 709//359 708//574 512//573
f 535//416 713//415 712//582 532//581
f 520//596 717//595 716//374 521//373
f 549//428 720//427 632//807 364//795
f 536//448 722//447 634//809 370//797
f 565//476 726//475 725//466 562//465
f 550//632 730//631 729//458 551//457
f 569//644 734//643 733//622 566//621
f 578//640 738//639 737//454 579//453
f 586//728 742//727 741//714 587//713
f 593//468 746//467 745//650 590//649
f 676//647 745//650 744//497 677//496
f 672//711 741//714 740//717 673//716
f 666//451 737//454 736//741 667//740
f 663//619 733//622 732//481 664//480
f 658//455 729//458 728//737 659//736
f 655//463 725//466 724//437 656//436
f 611//371 716//374 715//777 612//776
f 608//579 712//582 711//369 609//368
f 620//571 708//574 707//381 621//380
f 616//767 704//770 703//773 617//772
f 628//395 700//398 699//401 629//400
f 604//523 696//526 695//537 605//536
f 602//363 692//366 691//541 603//540
f 600//783 688//786 687//701 601//700
f 647//507 684//510 683//521 648//520
f 650//511 680//514 679//517 651//516
f 734//643 675//646 674//653 731//652
f 738//639 671//642 670//725 735//724
f 742//727 297//730 296//485 739//484
f 746//467 295//470 669//489 743//488
f 726//475 662//478 661//473 723//472
f 681//611 657//614 660//617 678//616
f 730//631 665//634 668//629 727//628
f 642//407 649//410 652//765 643//764
f 639//419 646//422 645//433 640//432
f 685//603 654//606 653//461 682//460
f 720//427 638//430 637//425 718//424
f 713//415 631//418 630//413 710//412
f 722//447 641//450 644//445 721//444
f 697//555 623//558 622//693 694//692
f 689//567 619//570 618//685 686//684
f 693//563 615//566 614//677 690//676
f 705//583 610//586 613//589 702//588
f 709//359 607//362 606//377 706//376
f 717//595 633//598 636//601 714//600
f 701//527 599//530 598//705 698//704
o other
v -16.313395 7.539253 -2.121576
v -16.675354 7.392210 -1.790753
v -16.727734 7.987690 -2.583699
v -16.828632 11.587620 -2.527406
v -16.794102 12.093178 -1.727833
v -16.313395 11.378485 -2.121576
v -16.675354 7.392210 1.790764
v -16.313395 7.539253 2.121587
v -16.727734 7.987690 2.583710
v -16.313395 11.378485 2.121587
v -16.794102 12.093178 1.727844
v -16.828632 11.587620 2.527417
v -18.716299 -13.571390 1.498991
v -18.493570 -13.166698 2.255011
v -17.909456 -9.950622 2.237788
v -16.997555 -10.446120 2.254951
v -16.775074 -10.041429 1.498991
v -17.687080 -9.545819 1.481512
v -16.775074 -10.041429 -1.498979
v -16.997555 -10.446120 -2.254940
v -17.909458 -9.950623 -2.237776
v -18.716299 -13.571390 -1.498979
v -19.610498 -13.047487 -1.483083
v -18.493570 -13.166698 -2.254998
v -15.905499 -14.434795 1.700957
v -16.388483 -14.246655 2.256895
v -16.535202 -14.689209 1.498991
v -15.382134 -11.302288 2.257310
v -14.936118 -11.597858 1.700957
v -15.226720 -10.863375 1.498990
v -15.226722 -10.863375 -1.498980
v -14.936118 -11.597858 -1.700946
v -15.382136 -11.302288 -2.257299
v -15.905499 -14.434796 -1.700946
v -16.535202 -14.689209 -1.498979
v -16.388483 -14.246654 -2.256884
v -17.416296 8.153637 1.553223
v -17.354580 8.639608 2.375544
v -18.169205 8.866964 1.309741
v -17.178469 11.730988 -2.408847
v -18.192169 12.085903 -2.045382
v -17.193417 12.255733 -1.590018
v -17.178469 11.730988 2.408858
v -17.193417 12.255733 1.590029
v -18.178713 12.572910 1.247410
v -17.354580 8.639608 -2.375532
v -17.416296 8.153637 -1.553211
v -18.169207 8.866964 -1.309729
v -16.313395 9.977879 -2.840209
v -16.313395 8.939859 -2.840209
v -16.722599 9.270796 -3.234520
v -16.829021 10.447424 -3.116102
v -16.313395 8.939859 2.840220
v -16.313395 9.977879 2.840220
v -16.829018 10.447428 3.116113
v -16.722595 9.270796 3.234531
v -18.870750 -11.700597 2.791641
v -17.967934 -12.210814 2.816431
v -17.522844 -11.401377 2.816431
v -17.522844 -11.401377 -2.816418
v -17.967934 -12.210814 -2.816417
v -18.870750 -11.700597 -2.791627
v -18.426064 -10.889969 -2.791159
v -15.252989 -12.525196 2.203772
v -15.734667 -12.333563 2.814334
v -16.035994 -13.215408 2.814335
v -15.588626 -13.507456 2.203772
v -15.734669 -12.333563 -2.814323
v -15.252991 -12.525196 -2.203760
v -15.588628 -13.507456 -2.203761
v -16.035994 -13.215408 -2.814323
v -18.160637 10.257534 2.524677
v -17.332321 9.709278 2.935305
v -17.204779 10.720285 2.924620
v -17.332325 9.709278 -2.935293
v -18.213221 11.334011 -2.438552
v -17.204779 10.720285 -2.924608
v -18.852165 9.463303 1.090788
v -18.790314 9.945559 1.894622
v -18.569328 12.178806 1.919980
v -18.530262 12.657555 1.126081
v -18.790316 9.945559 -1.894611
v -18.852165 9.463303 -1.090776
v -18.530262 12.657555 -1.126069
v -18.569328 12.178806 -1.919967
v -19.610498 -13.047487 1.483097
v -19.388186 -12.641712 2.239686
v -17.687080 -9.545819 -1.481500
v -19.388186 -12.641712 -2.239673
v -18.188643 9.410645 2.098009
v -18.178713 12.572910 -1.247399
v -18.192167 12.085903 2.045395
v -18.188643 9.410645 -2.097997
v -18.611252 11.558369 -2.233050
v -18.752295 10.586636 -2.238159
v -18.752295 10.586636 2.238171
v -18.611252 11.558369 2.233061
v -18.426064 -10.889969 2.791171
v -18.213221 11.334011 2.438564
v -18.160639 10.257534 -2.524666
vn 0.3276 0.9350 0.1356
vn 0.4561 0.8816 0.1213
vn 0.4561 0.8816 -0.1213
vn 0.3276 0.9350 -0.1356
vn 0.9781 0.0600 -0.1991
vn 0.9589 0.2404 -0.1510
vn 0.9589 0.2404 0.1510
vn 0.9781 0.0600 0.1991
vn -0.5182 -0.5609 0.6457
vn -0.2831 -0.2202 0.9335
vn -0.5223 -0.1482 0.8398
vn -0.6707 -0.4757 0.5691
vn 0.2537 0.4887 0.8347
vn 0.0876 0.1848 0.9789
vn 0.2925 0.1150 0.9493
vn 0.4211 0.4176 0.8052
vn 0.0876 0.1848 -0.9789
vn 0.2537 0.4887 -0.8347
vn 0.4211 0.4176 -0.8052
vn 0.2925 0.1150 -0.9493
vn 0.4677 0.8733 -0.1364
vn 0.4677 0.8733 0.1364
vn 0.6069 0.7859 0.1189
vn 0.6069 0.7859 -0.1189
vn 0.9854 -0.1188 0.1217
vn 0.9471 -0.2763 0.1632
vn 0.9471 -0.2763 -0.1632
vn 0.9854 -0.1188 -0.1217
vn -0.1101 -0.1800 0.9775
vn -0.2715 -0.4799 0.8343
vn -0.0684 -0.5634 0.8233
vn 0.0946 -0.2835 0.9543
vn -0.6707 -0.4757 -0.5691
vn -0.5223 -0.1482 -0.8398
vn -0.2831 -0.2202 -0.9335
vn -0.5182 -0.5609 -0.6456
vn -0.4774 -0.8680 0.1365
vn -0.4774 -0.8680 -0.1365
vn -0.2700 -0.9542 -0.1290
vn -0.2700 -0.9542 0.1290
vn -0.0810 0.2087 0.9746
vn 0.1316 0.5458 0.8275
vn -0.0649 0.5500 0.8326
vn -0.2948 0.2412 0.9246
vn -0.2716 -0.4799 -0.8343
vn -0.1101 -0.1800 -0.9775
vn 0.0946 -0.2835 -0.9543
vn -0.0684 -0.5634 -0.8233
vn 0.9146 -0.3670 0.1699
vn 0.8280 -0.5437 0.1371
vn 0.8280 -0.5436 -0.1371
vn 0.9146 -0.3670 -0.1699
vn 0.8994 -0.3605 -0.2473
vn 0.9720 -0.0386 -0.2318
vn 0.9720 -0.0386 0.2318
vn 0.8994 -0.3605 0.2473
vn -0.2948 0.2412 -0.9246
vn -0.0649 0.5500 -0.8326
vn 0.1316 0.5458 -0.8275
vn -0.0810 0.2087 -0.9746
vn 0.2260 -0.7935 -0.5650
vn -0.3044 -0.8519 -0.4262
vn -0.2652 -0.6944 -0.6689
vn 0.4514 0.6081 -0.6530
vn 0.5456 0.7892 -0.2820
vn 0.7903 0.4969 -0.3584
vn -0.3044 -0.8519 0.4262
vn 0.2260 -0.7935 0.5650
vn -0.2652 -0.6944 0.6689
vn 0.7903 0.4969 0.3584
vn 0.5456 0.7892 0.2820
vn 0.4514 0.6081 0.6530
vn -0.3552 -0.7743 0.5238
vn -0.4438 -0.8021 0.3996
vn -0.3687 -0.6604 0.6542
vn -0.4310 -0.7854 0.4442
vn 0.4498 0.7727 0.4478
vn 0.3522 0.6685 0.6550
vn 0.4306 0.8094 0.3993
vn 0.4586 0.6952 0.5536
vn 0.4306 0.8094 -0.3993
vn 0.3522 0.6685 -0.6550
vn 0.4498 0.7727 -0.4478
vn 0.4586 0.6952 -0.5536
vn -0.4438 -0.8021 -0.3996
vn -0.3552 -0.7743 -0.5238
vn -0.4310 -0.7854 -0.4442
vn -0.3687 -0.6604 -0.6542
vn 0.5228 -0.7856 0.3310
vn 0.2662 -0.6868 0.6763
vn 0.1302 -0.9686 0.2117
vn 0.7199 0.3075 0.6222
vn 0.9339 0.1931 0.3010
vn 0.8239 0.5337 0.1908
vn 0.8239 0.5337 -0.1908
vn 0.9339 0.1931 -0.3010
vn 0.7199 0.3076 -0.6222
vn 0.5228 -0.7856 -0.3310
vn 0.1302 -0.9686 -0.2117
vn 0.2662 -0.6868 -0.6763
vn -0.7296 -0.6535 0.2013
vn -0.6689 -0.4980 0.5519
vn -0.7129 -0.6676 0.2147
vn 0.0741 0.7468 -0.6610
vn -0.1012 0.5997 -0.7938
vn 0.1482 0.9101 -0.3870
vn 0.2120 0.8896 -0.4046
vn -0.1012 0.5997 0.7938
vn 0.0741 0.7468 0.6610
vn 0.2120 0.8896 0.4046
vn 0.1482 0.9101 0.3870
vn -0.6689 -0.4980 -0.5519
vn -0.7296 -0.6535 -0.2013
vn -0.7129 -0.6676 -0.2147
vn 0.7996 0.1453 -0.5827
vn 0.7305 -0.1793 -0.6589
vn 0.3221 -0.1288 -0.9379
vn 0.4370 0.2563 -0.8622
vn 0.7305 -0.1793 0.6589
vn 0.7996 0.1453 0.5827
vn 0.4370 0.2563 0.8622
vn 0.3222 -0.1288 0.9379
vn 0.0871 0.2003 0.9758
vn -0.1291 -0.2205 0.9668
vn -0.1203 -0.1690 -0.9783
vn 0.1169 0.2255 -0.9672
vn 0.8602 -0.1548 0.4859
vn 0.6309 -0.0393 0.7749
vn 0.4936 -0.3514 0.7955
vn 0.7526 -0.4206 0.5066
vn 0.6309 -0.0393 -0.7749
vn 0.8602 -0.1548 -0.4859
vn 0.7526 -0.4206 -0.5066
vn 0.4936 -0.3514 -0.7955
vn -0.5370 -0.1912 0.8216
vn -0.3336 0.2035 0.9205
vn -0.5370 -0.1913 -0.8216
vn -0.3336 0.2035 -0.9205
vn -0.0071 -0.9900 0.1412
vn -0.0071 -0.9900 -0.1412
vn 0.5191 -0.8225 -0.2323
vn 0.5191 -0.8225 0.2323
vn 0.0691 -0.5400 0.8388
vn 0.5454 -0.5429 0.6386
vn -0.5745 -0.7852 0.2312
vn 0.2643 0.3409 0.9022
vn 0.5103 0.8563 0.0799
vn 0.5103 0.8563 -0.0799
vn -0.4999 -0.8610 -0.0931
vn -0.4999 -0.8610 0.0931
vn 0.2643 0.3409 -0.9022
vn 0.5735 0.7225 -0.3861
vn 0.5162 0.5957 -0.6154
vn -0.2359 -0.8872 -0.3966
vn -0.1619 -0.7509 -0.6403
vn 0.5162 0.5957 0.6154
vn 0.5735 0.7225 0.3861
vn -0.1619 -0.7509 0.6403
vn -0.2359 -0.8872 0.3966
vn -0.5745 -0.7852 -0.2312
vn 0.0691 -0.5401 -0.8388
vn 0.5454 -0.5429 -0.6386
vn -0.1518 -0.4060 0.9012
vn -0.1518 -0.4060 -0.9012
vn -0.6264 -0.4786 -0.6153
vn -0.4940 -0.1220 -0.8609
vn -0.6822 -0.7028 0.2017
vn -0.6822 -0.7028 -0.2017
vn -0.0569 0.7240 0.6875
vn -0.2771 0.3188 0.9064
vn -0.4940 -0.1220 0.8609
vn -0.6264 -0.4786 0.6153
vn 0.1616 0.9640 0.2112
vn 0.1616 0.9640 -0.2112
vn -0.2771 0.3188 -0.9064
vn -0.0569 0.7240 -0.6875
s 1
f 790//811 757//812 751//813 788//814
f 795//815 752//816 756//817 800//818
f 755//819 802//820 819//821 784//822
f 762//823 805//824 811//825 774//826
f 806//827 766//828 779//829 814//830
f 765//831 763//832 776//833 777//834
f 775//835 810//836 815//837 778//838
f 804//839 760//840 772//841 812//842
f 792//843 821//844 797//845 749//846
f 759//847 768//848 781//849 773//850
f 801//851 758//852 789//853 820//854
f 770//855 807//856 817//857 782//858
f 813//859 771//860 780//861 816//862
f 747//863 796//864 799//865 754//866
f 823//867 786//868 750//869 798//870
f 747//871 748//872 749//873
f 750//874 751//875 752//876
f 753//877 754//878 755//879
f 756//880 757//881 758//882
f 832//883 759//884 760//885 833//886
f 761//887 762//888 763//889 764//890
f 765//891 766//892 767//893 834//894
f 768//895 769//896 835//897 770//898
f 771//899 772//900 773//901
f 774//902 775//903 776//904
f 777//905 778//906 779//907
f 780//908 781//909 782//910
f 783//911 784//822 836//912 785//913
f 786//914 787//915 837//916 788//917
f 838//918 789//919 790//920 791//921
f 839//922 792//843 793//923 794//924
f 795//925 796//926 797//927 798//928
f 799//929 800//930 801//931 802//932
f 844//933 803//934 804//839 805//824
f 806//827 807//856 808//935 809//936
f 810//937 811//938 812//939 813//940
f 814//941 815//942 816//943 817//944
f 818//945 819//821 820//854 845//946
f 821//844 846//947 822//948 823//867
f 753//949 748//950 747//951 754//952
f 798//928 750//874 752//876 795//925
f 751//875 757//881 756//880 752//876
f 802//932 755//953 754//954 799//929
f 783//911 753//955 755//819 784//822
f 788//917 751//875 750//874 786//914
f 805//824 762//823 761//956 844//933
f 834//957 764//958 763//832 765//831
f 832//959 769//960 768//848 759//847
f 809//936 767//961 766//828 806//827
f 810//937 775//903 774//902 811//938
f 777//905 776//904 775//903 778//906
f 773//901 781//909 780//908 771//899
f 814//941 779//907 778//906 815//942
f 765//891 777//962 779//963 766//892
f 781//964 768//895 770//898 782//965
f 762//888 774//966 776//967 763//889
f 772//968 760//885 759//884 773//969
f 757//881 790//920 789//919 758//882
f 748//970 793//923 792//843 749//846
f 818//945 836//912 784//822 819//821
f 785//913 794//924 793//923 783//911
f 790//811 788//814 837//916 791//921
f 821//844 792//843 839//922 846//947
f 749//971 797//927 796//926 747//972
f 758//882 801//931 800//930 756//880
f 760//840 804//839 803//934 833//973
f 835//974 808//935 807//856 770//855
f 771//899 813//940 812//939 772//900
f 782//910 817//944 816//943 780//908
f 838//918 845//946 820//854 789//853
f 786//868 823//867 822//948 787//915
f 801//851 820//854 819//821 802//820
f 804//839 812//842 811//825 805//824
f 813//859 816//862 815//837 810//836
f 806//827 814//830 817//857 807//856
f 823//867 798//870 797//845 821//844
f 795//815 800//818 799//865 796//864
f 753//955 783//911 793//923 748//970
f 828//975 841//976 846//947 839//922
f 785//913 824//977 829//978 794//924
f 845//946 838//918 826//979 843//980
f 836//912 818//945 842//981 825//982
f 827//983 791//921 837//916 830//984
f 840//985 831//986 787//915 822//948
f 791//921 827//983 826//979 838//918
f 794//924 829//978 828//975 839//922
f 824//977 785//913 836//912 825//982
f 830//984 837//916 787//915 831//986
f 840//985 822//948 846//947 841//976
f 845//946 843//980 842//981 818//945
