# Blender v2.92.0 OBJ File: 'model.blend'
# www.blender.org
o inside
v -19.772512 -19.003218 19.778122
v -19.772512 -19.003218 -19.792141
v -19.772512 20.567045 -19.792141
v 19.797750 -19.003218 19.778122
v 19.797750 20.567045 19.778122
v 19.797750 -19.003218 -19.792141
v 19.797750 20.567045 -19.792141
v -19.735476 20.824465 19.080080
v -19.772512 20.802559 -19.758495
v -5.026341 -19.003218 -19.871927
v 5.051579 -19.003218 -19.792141
v 5.051579 -19.003218 19.778122
v -5.026341 -19.003218 19.857908
v -2.506861 -19.003218 -19.871927
v -2.506861 -19.003218 19.857908
v 2.532099 -19.003218 19.778122
v -19.660059 -19.003218 -19.871927
v -19.660059 20.567045 -19.792141
v -19.550087 -19.003218 19.857908
v -19.660608 20.802559 -19.758495
v -19.623846 20.802559 19.125404
v -19.735476 17.046408 19.262451
v -19.623846 17.046408 19.262451
v -18.829208 16.453352 19.125404
v -18.723553 16.453352 19.125404
v 1.162251 20.567043 17.935791
v 1.162251 20.567043 -17.949810
v -19.772512 21.500832 11.003137
v -19.772512 21.500843 -11.098991
v -19.772512 21.774015 5.932865
v -19.772512 21.869946 -0.047928
v -19.772512 21.774015 -6.028719
v -19.660608 21.500843 -11.098991
v -19.660608 21.500832 10.776789
v -19.660608 21.774015 -6.028719
v -19.660608 21.869946 -0.047929
v -19.660608 21.774015 5.932863
v -19.623846 20.215437 19.125404
v -19.735476 20.438732 19.125404
v -19.457951 20.767071 18.541899
v -19.425972 20.767071 -18.708387
v 19.797750 20.567045 19.180868
v 19.797750 20.567045 -19.194887
v 19.797750 -19.003218 19.180868
v 19.797750 -19.003218 -19.194887
v -19.772512 -19.003218 19.180868
v -19.772512 -19.003218 -19.194887
v 5.051579 -19.003218 -19.194887
v 5.051579 -19.003218 19.180868
v 2.532099 -19.003218 19.180868
v 1.162251 20.567043 17.935791
v 1.162251 20.567043 -17.949810
v -1.469859 20.767071 16.500029
v -1.501837 20.767071 -16.673779
v -3.766601 -19.003218 -19.871927
v -3.766601 -19.003218 19.857908
v 0.012619 -19.003218 19.857908
v 0.012619 -19.003218 -19.871927
v 0.012619 -19.003218 19.180868
v -0.135176 -19.295456 19.778122
v -0.135176 -19.295456 -19.792141
v -0.135176 -19.295456 19.180868
v -0.135176 -19.295456 -19.194887
v -19.543209 -19.216972 -19.194887
v -19.543209 -19.216972 -19.792141
v -19.543209 -19.216972 19.778122
v -19.543209 -19.216972 19.180868
v -19.682451 -19.153126 -19.194887
v -19.682449 -19.153126 19.778122
v -19.682449 -19.153126 -19.792141
v -19.682451 -19.153126 19.180868
v -19.735476 18.742569 19.320473
v -19.623846 18.630922 19.320473
v -5.026341 -19.003218 -0.280053
v -5.026341 -19.003218 0.266033
v -2.506861 -19.003218 -0.280053
v -2.506861 -19.003218 0.266033
v -19.660059 -19.003218 -0.280053
v -19.550087 -19.003218 0.266033
v -3.766601 -19.003218 -0.280053
v -3.766601 -19.003218 0.266033
v 0.012619 -19.003218 0.266033
v 0.012619 -19.003218 -0.280053
vt 0.625000 0.503773
vt 0.625000 0.500000
vt 0.625000 0.500000
vt 0.625000 0.500000
vt 0.281836 0.746227
vt 0.281836 0.750000
vt 0.265918 0.750000
vt 0.265918 0.746227
vt 0.625000 0.250710
vt 0.625000 0.250000
vt 0.875000 0.500000
vt 0.874293 0.500000
vt 0.874293 0.750000
vt 0.875000 0.750000
vt 0.875000 0.750000
vt 0.874293 0.750000
vt 0.875000 0.750000
vt 0.874293 0.750000
vt 0.281835 0.500000
vt 0.375000 0.500000
vt 0.375000 0.503773
vt 0.281835 0.503773
vt 0.874293 0.695083
vt 0.875000 0.695083
vt 0.875000 0.748277
vt 0.874293 0.750000
vt 0.874293 0.662998
vt 0.875000 0.662998
vt 0.874293 0.625000
vt 0.875000 0.625000
vt 0.874293 0.587002
vt 0.875000 0.587002
vt 0.874293 0.554917
vt 0.875000 0.554917
vt 0.375000 0.746227
vt 0.375000 0.750000
vt 0.625000 0.750000
vt 0.625000 0.746227
vt 0.625000 0.750000
vt 0.625000 0.750000
vt 0.625000 0.246227
vt 0.625000 0.003773
vt 0.625000 0.003773
vt 0.625000 0.246227
vt 0.250000 0.750000
vt 0.250000 0.746227
vt 0.375000 0.246227
vt 0.375000 0.250000
vt 0.375000 0.250000
vt 0.375000 0.246227
vt 0.375000 0.000000
vt 0.375000 0.003773
vt 0.375000 0.003773
vt 0.375000 0.000000
vt 0.375000 0.003773
vt 0.375000 0.246227
vt 0.375000 0.000000
vt 0.375000 0.250000
vt 0.375000 0.246227
vt 0.375000 0.250000
vt 0.375000 0.000000
vt 0.375000 0.003773
vt 0.874293 0.750000
vt 0.875000 0.750000
vt 0.375000 0.890918
vt 0.375000 0.898877
vt 0.375000 0.898877
vt 0.375000 0.890918
vt 0.375000 0.250710
vt 0.375000 0.343164
vt 0.375000 0.343164
vt 0.375000 0.250710
vt 0.375000 0.351123
vt 0.375000 0.351123
vt 0.375000 0.906836
vt 0.375000 0.906836
vt 0.375000 0.359082
vt 0.375000 0.375000
vt 0.375000 0.375000
vt 0.375000 0.359082
vt 0.375000 0.875000
vt 0.375000 0.875000
vt 0.375000 0.999290
vt 0.375000 0.999290
vn -0.0000 1.0000 0.0000
vn 0.0000 -1.0000 0.0000
vn 0.0000 0.1414 -0.9899
vn 0.0309 0.0029 0.9995
vn 0.1270 0.0787 0.9888
vn -0.0129 -0.0876 0.9961
vn -0.0068 -0.1534 0.9881
vn 0.0000 -0.2252 0.9743
vn 0.0716 0.9957 0.0590
vn 0.1468 0.9861 0.0777
vn 0.1624 0.9833 0.0816
vn 0.0278 0.9990 0.0355
vn -0.0000 0.9994 -0.0349
vn 0.0000 0.9977 -0.0671
vn 0.0000 0.9968 -0.0804
vn -0.2153 -0.9766 0.0000
vn -0.0040 -1.0000 0.0000
vn -0.4168 -0.9090 0.0000
vn -0.8572 -0.5150 -0.0000
vn 0.1744 0.1163 0.9778
s 1
f 43/1/1 7/2/1 27/3/1 52/4/1
f 49/5/2 12/6/2 16/7/2 50/8/2
f 18/9/3 3/10/3 9/11/3 20/12/3
f 73/13/4 72/14/5 22/15/6 23/16/7
f 23/16/7 22/15/6 24/17/8 25/18/8
f 11/19/2 6/20/2 45/21/2 48/22/2
f 34/23/9 28/24/10 8/25/11 21/26/11
f 28/24/10 34/23/9 37/27/12 30/28/12
f 30/28/12 37/27/12 36/29/1 31/30/1
f 31/30/1 36/29/1 35/31/13 32/32/13
f 32/32/13 35/31/13 33/33/14 29/34/14
f 20/12/15 9/11/15 29/34/14 33/33/14
f 49/5/2 44/35/2 4/36/2 12/6/2
f 43/1/1 52/4/1 51/37/1 42/38/1
f 44/35/2 49/5/2 48/22/2 45/21/2
f 5/39/1 42/38/1 51/37/1 26/40/1
f 41/41/1 40/42/1 53/43/1 54/44/1
f 50/8/2 16/7/2 57/45/2 59/46/2
f 64/47/16 65/48/16 61/49/17 63/50/17
f 66/51/16 67/52/16 62/53/17 60/54/17
f 67/52/16 64/47/16 63/50/17 62/53/17
f 71/55/18 68/56/18 64/47/16 67/52/16
f 69/57/18 71/55/18 67/52/16 66/51/16
f 68/56/18 70/58/18 65/48/16 64/47/16
f 47/59/19 2/60/19 70/58/19 68/56/19
f 1/61/19 46/62/19 71/55/19 69/57/19
f 46/62/19 47/59/19 68/56/19 71/55/19
f 38/63/20 39/64/20 72/14/5 73/13/4
f 15/65/2 56/66/2 81/67/2 77/68/2
f 17/69/2 10/70/2 74/71/2 78/72/2
f 10/70/2 55/73/2 80/74/2 74/71/2
f 56/66/2 13/75/2 75/76/2 81/67/2
f 14/77/2 58/78/2 83/79/2 76/80/2
f 55/73/2 14/77/2 76/80/2 80/74/2
f 57/81/2 15/65/2 77/68/2 82/82/2
f 13/75/2 19/83/2 79/84/2 75/76/2
o right_side
v -19.772512 -19.003218 19.778122
v -19.772512 20.567045 19.778122
v -19.772512 -19.003218 -19.792141
v -19.772512 20.567045 -19.792141
v -19.772512 7.439403 19.778122
v -19.772512 7.439403 -19.792141
v -19.772512 19.648682 19.778122
v -19.772512 19.648682 -19.792141
v -19.772512 16.953243 -19.792141
v -19.772512 16.953243 19.778122
v -19.772512 12.584282 -19.792141
v -19.772512 12.584282 19.778122
v -19.457951 20.767071 18.541899
v -19.425972 20.767071 -18.708387
v -19.772512 20.567045 -19.194885
v -19.772512 20.567045 19.180868
v -19.772512 -19.003218 19.180868
v -19.772512 -19.003218 -19.194887
v -19.772512 7.439403 -19.194887
v -19.772512 7.439403 19.180868
v -19.772512 19.648682 19.180868
v -19.772512 19.648682 -19.194887
v -19.772512 16.953243 19.180868
v -19.772512 16.953243 -19.194887
v -19.772512 12.584282 19.180868
v -19.772512 12.584282 -19.194887
vt 0.999987 0.971880
vt 0.999987 0.994971
vt 0.984894 0.994971
vt 0.984894 0.971880
vt 0.015093 0.971880
vt 0.015093 0.994971
vt 0.000000 0.994971
vt 0.000000 0.971880
vt 0.999987 0.904105
vt 0.984894 0.904105
vt 0.999987 0.794252
vt 0.984894 0.794252
vt 0.999987 0.664888
vt 0.984894 0.664888
vt 0.015093 0.000013
vt 0.015093 0.664888
vt 0.000000 0.664888
vt 0.000000 0.000013
vt 0.015093 0.794252
vt 0.000000 0.794252
vt 0.968746 1.000000
vt 0.027388 1.000000
vt 0.015093 0.904105
vt 0.000000 0.904105
vt 0.999987 0.000013
vt 0.984894 0.000013
vn -1.0000 0.0000 0.0000
vn -0.5178 0.8555 -0.0002
s 1
f 90/85/21 85/86/21 99/87/21 104/88/21
f 105/89/21 98/90/21 87/91/21 91/92/21
f 93/93/21 90/85/21 104/88/21 106/94/21
f 95/95/21 93/93/21 106/94/21 108/96/21
f 88/97/21 95/95/21 108/96/21 103/98/21
f 101/99/21 102/100/21 89/101/21 86/102/21
f 102/100/21 109/103/21 94/104/21 89/101/21
f 98/90/22 99/87/22 96/105/22 97/106/22
f 109/103/21 107/107/21 92/108/21 94/104/21
f 107/107/21 105/89/21 91/92/21 92/108/21
f 84/109/21 88/97/21 103/98/21 100/110/21
f 109/103/21 102/100/21 103/98/21 108/96/21
f 107/107/21 109/103/21 108/96/21 106/94/21
f 105/89/21 107/107/21 106/94/21 104/88/21
f 102/100/21 101/99/21 100/110/21 103/98/21
f 98/90/21 105/89/21 104/88/21 99/87/21
o front
v 19.797750 -19.003218 19.778122
v 19.797750 20.567045 19.778122
v 4.671706 19.690878 19.778122
v 5.051579 -19.003218 19.778122
v -5.026341 -19.003218 19.857908
v -5.026341 20.567045 19.778122
v 5.051579 20.567045 19.778122
v -2.506861 -19.003218 19.857908
v 4.671706 20.567045 19.778122
v 2.532099 -19.003218 19.778122
v -4.646469 20.567045 19.778122
v 19.797750 7.439403 19.778122
v -1.565441 13.864512 19.778122
v -5.026341 7.439403 19.778122
v 5.051579 7.439403 19.778122
v -2.506861 5.555964 19.778122
v 2.532099 5.555964 19.778122
v -4.646469 19.690878 19.778122
v 3.342832 17.782782 19.778122
v -3.317597 17.782782 19.778122
v 1.276865 16.634027 19.778122
v -1.251634 16.634027 19.778122
v 1.590674 13.864512 19.778122
v 5.051579 19.648682 19.778122
v 19.797750 19.648682 19.778122
v -5.026341 19.648682 19.778122
v 19.797750 16.953243 19.778122
v -5.026341 16.953243 19.778122
v -1.879248 11.094996 19.778122
v 5.051579 16.953243 19.778122
v 19.797750 12.584282 19.778122
v -5.026341 12.584282 19.778122
v 1.904482 11.094996 19.778122
v 5.051579 12.584282 19.778122
v -19.550087 -19.003218 19.857908
v -19.550087 20.567045 19.778122
v -19.550087 7.439403 19.778122
v -19.550087 19.648682 19.778122
v -19.550087 16.953243 19.778122
v -19.550087 12.584282 19.778122
v -19.550087 -19.003218 16.646109
v -19.550087 20.567045 16.646109
v -19.550087 7.439403 16.646109
v -19.550087 19.648682 16.646109
v -19.550087 16.953243 16.646109
v -19.550087 12.584282 16.646109
v -3.295891 15.408878 19.778122
v -3.452795 11.839639 19.778122
v -3.766601 -19.003218 19.857908
v -3.766601 6.497683 19.778122
v -2.399695 17.057915 19.778122
v 0.012619 -19.003218 19.857908
v 0.012616 13.864512 19.778122
v 0.012619 5.555964 19.778122
v 0.012617 11.094996 19.778122
v 0.012615 16.470438 19.778122
v -4.167930 18.683716 19.778122
v -19.550087 18.300962 16.646109
v -5.026341 18.300962 19.778122
v -19.550087 18.300962 19.778122
vt 0.999986 0.976786
vt 0.999986 0.999995
vt 0.625227 0.999995
vt 0.625227 0.976786
vt 0.497167 0.000000
vt 0.497167 0.620644
vt 0.433136 0.620644
vt 0.433136 0.000000
vt 0.000000 0.976786
vt 0.000000 0.999995
vt 0.000000 0.999995
vt 0.000000 0.976786
vt 0.561197 0.620644
vt 0.561197 0.000000
vt 0.625227 0.000000
vt 0.625227 0.668241
vt 0.497167 0.760623
vt 0.545246 0.760623
vt 0.537271 0.830612
vt 0.497167 0.830612
vt 0.401122 0.644443
vt 0.401122 0.000000
vt 0.390922 0.952400
vt 0.378761 0.977853
vt 0.369106 0.976786
vt 0.369106 0.942728
vt 0.615573 0.999995
vt 0.615573 0.977853
vt 0.529296 0.900602
vt 0.497167 0.896468
vt 0.581801 0.929633
vt 0.625227 0.908669
vt 0.000000 0.668241
vt 0.000000 0.798259
vt 0.000000 0.798259
vt 0.000000 0.668241
vt 0.999986 0.000000
vt 0.999986 0.668241
vt 0.000000 0.942728
vt 0.000000 0.942728
vt 0.999986 0.908669
vt 0.378761 0.999995
vt 0.369106 0.999995
vt 0.999986 0.798259
vt 0.625227 0.798259
vt 0.000000 0.000000
vt 0.000000 0.000000
vt 0.000000 0.908669
vt 0.000000 0.908669
vt 0.409097 0.779441
vt 0.369106 0.798259
vt 0.369106 0.668241
vt 0.413084 0.869641
vt 0.435860 0.911314
vt 0.412533 0.929633
vt 0.369106 0.908669
vt 0.369106 0.000000
vt 0.457062 0.830612
vt 0.449087 0.760623
vt 0.465037 0.900602
vn 0.0000 0.0000 1.0000
vn 0.0079 0.0024 1.0000
vn 0.0040 0.0012 1.0000
vn 0.0004 0.0019 1.0000
vn 0.0006 0.0032 1.0000
vn -1.0000 0.0000 0.0000
vn 0.0040 0.0004 1.0000
vn 0.0079 0.0008 1.0000
vn 0.0006 0.0016 1.0000
vn 0.0012 0.0031 1.0000
vn 0.0002 0.0012 1.0000
vn 0.0000 0.0015 1.0000
vn 0.0006 0.0030 1.0000
vn 0.0000 0.0030 1.0000
s 1
f 134/111/23 111/112/23 116/113/23 133/114/23
f 161/115/24 163/116/25 125/117/26 117/118/27
f 147/119/28 145/120/28 151/121/28 153/122/28
f 126/123/29 119/124/30 113/125/23 124/126/23
f 164/127/23 142/128/23 132/129/23 162/130/23
f 159/131/31 158/132/32 117/118/27 125/117/26
f 166/133/23 127/134/23 135/135/23 168/136/23
f 118/137/23 112/138/23 133/114/23 116/113/23
f 162/130/23 132/129/23 130/139/23 165/140/23
f 133/114/23 112/138/23 128/141/23 139/142/23
f 146/143/28 149/144/28 155/145/28 152/146/28
f 163/116/25 126/123/29 142/128/23 164/127/23
f 110/147/23 121/148/23 124/126/23 113/125/23
f 169/149/28 147/119/28 153/122/28 167/150/28
f 136/151/23 134/111/23 133/114/23 139/142/23
f 127/134/23 120/152/23 115/153/23 135/135/23
f 140/154/23 136/151/23 139/142/23 143/155/23
f 144/156/28 146/143/28 152/146/28 150/157/28
f 143/155/23 142/128/23 126/123/29 124/126/23
f 149/144/28 148/158/28 154/159/28 155/145/28
f 121/148/23 140/154/23 143/155/23 124/126/23
f 157/160/23 141/161/23 123/162/33 159/131/31
f 130/139/23 132/129/23 139/142/23 128/141/23
f 156/163/23 160/164/23 129/165/23 137/166/23
f 156/163/23 137/166/23 141/161/23 157/160/23
f 139/142/23 132/129/23 142/128/23 143/155/23
f 123/162/33 141/161/23 149/144/23 146/143/34
f 141/161/23 137/166/23 148/158/23 149/144/23
f 168/136/23 135/135/23 147/119/23 169/149/23
f 114/167/35 123/162/33 146/143/34 144/156/36
f 135/135/23 115/153/23 145/120/23 147/119/23
f 122/168/23 156/163/23 157/160/23 138/169/23
f 122/168/23 131/170/23 160/164/23 156/163/23
f 138/169/23 157/160/23 159/131/31 125/117/26
f 123/162/33 114/167/35 158/132/32 159/131/31
f 125/117/26 163/116/25 164/127/23 138/169/23
f 122/168/23 162/130/23 165/140/23 131/170/23
f 138/169/23 164/127/23 162/130/23 122/168/23
f 119/124/30 126/123/29 163/116/25 161/115/24
f 137/166/23 168/136/23 169/149/23 148/158/23
f 148/158/28 169/149/28 167/150/28 154/159/28
f 129/165/23 166/133/23 168/136/23 137/166/23
o left_side
v 19.797750 -19.003218 19.778122
v 19.797750 20.567045 19.778122
v 19.797750 -19.003218 -19.792141
v 19.797750 20.567045 -19.792141
v 19.797750 7.439403 -19.792141
v 19.797750 7.439403 19.778122
v 19.797750 19.648682 -19.792141
v 19.797750 19.648682 19.778122
v 19.797750 16.953243 -19.792141
v 19.797750 16.953243 19.778122
v 19.797750 12.584282 -19.792141
v 19.797750 12.584282 19.778122
v 19.797750 20.567045 19.180868
v 19.797750 20.567045 -19.194887
v 19.797750 -19.003218 19.180868
v 19.797750 -19.003218 -19.194887
v 19.797750 7.439403 19.180868
v 19.797750 7.439403 -19.194887
v 19.797750 19.648682 -19.194887
v 19.797750 19.648682 19.180868
v 19.797750 16.953243 -19.194887
v 19.797750 16.953243 19.180868
v 19.797750 12.584282 -19.194887
v 19.797750 12.584282 19.180868
vt 0.015093 0.000000
vt 0.015093 0.668242
vt 0.000000 0.668242
vt 0.000000 0.000000
vt 0.999989 0.908670
vt 0.999989 0.976788
vt 0.984896 0.976788
vt 0.984896 0.908670
vt 0.999989 0.798260
vt 0.984896 0.798260
vt 0.999989 0.668242
vt 0.984896 0.668242
vt 0.015093 0.798260
vt 0.000000 0.798260
vt 0.999989 0.999996
vt 0.984896 0.999996
vt 0.015093 0.908670
vt 0.015093 0.976788
vt 0.000000 0.976788
vt 0.000000 0.908670
vt 0.999989 0.000000
vt 0.984896 0.000000
vt 0.015093 0.999996
vt 0.000000 0.999996
vn 1.0000 0.0000 0.0000
s 1
f 184/171/37 186/172/37 175/173/37 170/174/37
f 178/175/37 176/176/37 188/177/37 190/178/37
f 180/179/37 178/175/37 190/178/37 192/180/37
f 174/181/37 180/179/37 192/180/37 187/182/37
f 186/172/37 193/183/37 181/184/37 175/173/37
f 176/176/37 173/185/37 183/186/37 188/177/37
f 191/187/37 189/188/37 177/189/37 179/190/37
f 193/183/37 191/187/37 179/190/37 181/184/37
f 172/191/37 174/181/37 187/182/37 185/192/37
f 189/188/37 182/193/37 171/194/37 177/189/37
f 193/183/37 186/172/37 187/182/37 192/180/37
f 191/187/37 193/183/37 192/180/37 190/178/37
f 189/188/37 191/187/37 190/178/37 188/177/37
f 186/172/37 184/171/37 185/192/37 187/182/37
f 182/193/37 189/188/37 188/177/37 183/186/37
o back
v -19.772512 -19.003218 -19.792141
v -19.772512 20.567045 -19.792141
v 19.797750 -19.003218 -19.792141
v 19.797750 20.567045 -19.792141
v -5.026341 -19.003218 -19.871927
v 5.051579 -19.003218 -19.792141
v 5.051579 20.567045 -19.792141
v -5.026341 20.567045 -19.792141
v -2.506861 20.567045 -19.792141
v -2.506861 -19.003218 -19.871927
v 2.532099 -19.003218 -19.792141
v 2.532099 20.567045 -19.792141
v -19.772512 7.439403 -19.792141
v 19.797750 7.439403 -19.792141
v 5.051579 7.439403 -19.792141
v -5.026341 7.439403 -19.792141
v -2.506861 7.439403 -19.792141
v 2.532099 7.439403 -19.792141
v -5.026341 19.648682 -19.792141
v -2.506861 19.648682 -19.792141
v 2.532099 19.648682 -19.792141
v -19.772512 19.648682 -19.792141
v 19.797750 19.648682 -19.792141
v 5.051579 19.648682 -19.792141
v -19.772512 16.953243 -19.792141
v 19.797750 16.953243 -19.792141
v 5.051579 16.953243 -19.792141
v -5.026341 16.953243 -19.792141
v -2.506861 16.953243 -19.792141
v 2.532099 16.953243 -19.792141
v -19.772512 12.584282 -19.792141
v 19.797750 12.584282 -19.792141
v 5.051579 12.584282 -19.792141
v -5.026341 12.584282 -19.792141
v -2.506861 12.584282 -19.792141
v 2.532099 12.584282 -19.792141
v -19.660059 -19.003218 -19.871927
v -19.660059 20.567045 -19.792141
v -19.660059 7.439403 -19.792141
v -19.660059 19.648682 -19.792141
v -19.660059 16.953243 -19.792141
v -19.660059 12.584282 -19.792141
v -3.766601 -19.003218 -19.871927
v -3.766601 20.567045 -19.792141
v -3.766601 7.439403 -19.792141
v -3.766601 19.648682 -19.792141
v -3.766601 16.953243 -19.792141
v -3.766601 12.584282 -19.792141
v 0.012619 -19.003218 -19.871927
v 0.012619 20.567045 -19.792141
v 0.012619 7.439403 -19.792141
v 0.012619 19.648682 -19.792141
v 0.012619 16.953243 -19.792141
v 0.012619 12.584282 -19.792141
vt 0.372661 0.976789
vt 0.372661 0.999997
vt 0.000005 0.999997
vt 0.000005 0.976789
vt 0.595509 0.668243
vt 0.595509 0.000000
vt 0.627344 0.000000
vt 0.627344 0.668243
vt 0.997158 0.976789
vt 0.997158 0.999997
vt 0.627344 0.999997
vt 0.627344 0.976789
vt 0.500003 0.908671
vt 0.500003 0.976789
vt 0.436332 0.976789
vt 0.436332 0.908671
vt 0.500003 0.999997
vt 0.563673 0.976789
vt 0.563673 0.999997
vt 0.372661 0.668243
vt 0.372661 0.000000
vt 0.436332 0.000000
vt 0.436332 0.668243
vt 0.372661 0.798261
vt 0.436332 0.798261
vt 0.436332 0.999997
vt 0.500003 0.000000
vt 0.500003 0.668243
vt 0.595509 0.999997
vt 0.595509 0.976789
vt 0.997158 0.000000
vt 0.997158 0.668243
vt 0.595509 0.798261
vt 0.627344 0.798261
vt 0.000005 0.668243
vt 0.000005 0.000000
vt 0.997158 0.908671
vt 0.627344 0.908671
vt 0.372661 0.908671
vt 0.000005 0.908671
vt 0.000005 0.798261
vt 0.997158 0.798261
vt 0.500003 0.798261
vt 0.563673 0.798261
vt 0.563673 0.908671
vt 0.595509 0.908671
vt 0.563673 0.668243
vt 1.000000 0.668243
vt 1.000000 0.798261
vt 1.000000 0.908671
vt 1.000000 0.976789
vt 1.000000 0.000000
vt 1.000000 0.999997
vt 0.563673 0.000000
vn 0.0000 0.0000 -1.0000
vn 0.0000 0.0015 -1.0000
vn 0.0000 0.0030 -1.0000
vn 0.0079 0.0008 -1.0000
vn 0.0040 0.0004 -1.0000
vn 0.0079 0.0023 -1.0000
vn 0.0040 0.0011 -1.0000
vn -0.1695 0.0023 -0.9855
vn -0.0845 0.0011 -0.9964
vn -0.1696 0.0007 -0.9855
vn -0.3343 0.0014 -0.9425
s 1
f 217/195/38 200/196/38 197/197/38 216/198/38
f 238/199/39 236/200/40 198/201/40 209/202/39
f 233/203/38 231/204/38 201/205/38 212/206/38
f 246/207/38 245/208/38 214/209/38 223/210/38
f 243/211/38 245/208/38 213/212/38 202/213/38
f 208/214/38 199/215/38 204/216/41 211/217/42
f 226/218/38 208/214/38 211/217/42 229/219/38
f 200/196/38 217/195/38 214/209/38 205/220/38
f 242/221/43 244/222/44 211/217/42 204/216/41
f 237/223/38 239/224/38 212/206/38 201/205/38
f 230/225/45 232/226/46 209/202/39 198/201/40
f 241/227/38 238/199/39 209/202/39 227/228/38
f 199/215/38 208/214/38 207/229/38 196/230/38
f 234/231/38 233/203/38 212/206/38 221/232/38
f 220/233/38 217/195/38 216/198/38 219/234/38
f 226/218/38 220/233/38 219/234/38 225/235/38
f 235/236/38 234/231/38 221/232/38 227/228/38
f 246/207/38 247/237/38 228/238/38 222/239/38
f 239/224/38 240/240/38 221/232/38 212/206/38
f 217/195/38 220/233/38 223/210/38 214/209/38
f 232/226/46 235/236/38 227/228/38 209/202/39
f 208/214/38 226/218/38 225/235/38 207/229/38
f 240/240/38 241/227/38 227/228/38 221/232/38
f 247/237/38 244/222/44 210/241/39 228/238/38
f 220/233/38 226/218/38 229/219/38 223/210/38
f 206/242/47 224/243/38 235/236/38 232/226/46
f 224/243/38 218/244/38 234/231/38 235/236/38
f 218/244/38 215/245/38 233/203/38 234/231/38
f 194/246/48 206/242/47 232/226/46 230/225/45
f 215/245/38 195/247/38 231/204/38 233/203/38
f 222/239/38 228/238/38 241/227/38 240/240/38
f 213/212/38 222/239/38 240/240/38 239/224/38
f 228/238/38 210/241/39 238/199/39 241/227/38
f 202/213/38 213/212/38 239/224/38 237/223/38
f 210/241/39 203/248/40 236/200/40 238/199/39
f 229/219/38 211/217/42 244/222/44 247/237/38
f 223/210/38 229/219/38 247/237/38 246/207/38
f 203/248/40 210/241/39 244/222/44 242/221/43
f 205/220/38 214/209/38 245/208/38 243/211/38
f 222/239/38 213/212/38 245/208/38 246/207/38
o top_side
v 19.797750 20.567045 -19.792141
v 19.737656 20.802559 19.125404
v 19.797750 20.802559 -19.758495
v 5.051579 20.567045 -19.792141
v -5.026341 20.567045 -19.792141
v -2.506861 20.567045 -19.792141
v 2.532099 20.567045 -19.792141
v -2.463464 20.802559 -19.758495
v 2.488705 20.802559 -19.758495
v -5.098258 20.802559 -19.758495
v 5.123497 20.802559 -19.758495
v 5.099422 20.802559 19.125404
v -5.097242 20.802559 19.125404
v -2.468914 20.802559 19.125404
v 2.471099 20.802559 19.125404
v -19.660059 20.567045 -19.792141
v -19.660608 20.802559 -19.758495
v -19.623846 20.802559 19.125404
v 19.737656 17.046408 19.262451
v 5.099422 17.046408 19.262451
v -5.097242 17.046408 19.262451
v -2.468914 17.046408 19.262451
v 2.471099 17.046408 19.262451
v -19.623846 17.046408 19.262451
v 18.531294 16.453352 19.125404
v 4.676508 16.453352 19.125404
v -4.974423 16.453352 19.125404
v -2.486767 16.453352 19.125404
v 2.188854 16.453352 19.125404
v -18.723553 16.453352 19.125404
v -2.463464 21.500843 -11.098991
v -2.463464 21.500832 10.776789
v -2.463464 21.774015 -6.028719
v -2.463464 21.869946 -0.047929
v -2.463464 21.774015 5.932863
v 19.797750 21.500843 -11.098991
v 19.797750 21.500832 10.776789
v 19.797750 21.774015 -6.028719
v 19.797750 21.869946 -0.047929
v 19.797750 21.774015 5.932863
v -5.098258 21.500832 10.776789
v -5.098258 21.500843 -11.098991
v -5.098258 21.774015 5.932863
v -5.098258 21.869946 -0.047929
v -5.098258 21.774015 -6.028719
v 5.123497 21.500843 -11.098991
v 5.123497 21.500832 10.776789
v 5.123497 21.774015 -6.028719
v 5.123497 21.869946 -0.047929
v 5.123497 21.774015 5.932863
v 2.488706 21.500832 10.776789
v 2.488705 21.500843 -11.098991
v 2.488706 21.774015 5.932863
v 2.488705 21.869946 -0.047929
v 2.488705 21.774015 -6.028719
v -19.660608 21.500843 -11.098991
v -19.660608 21.500832 10.776789
v -19.660608 21.774015 -6.028719
v -19.660608 21.869946 -0.047929
v -19.660608 21.774015 5.932863
v -2.468914 20.438732 19.170158
v -5.097242 20.215437 19.170158
v 2.471099 20.438732 19.170158
v -19.623846 20.215437 19.125404
v 5.099422 20.438732 19.170158
v 19.737656 20.438732 19.170158
v -18.058983 20.802559 19.125404
v -18.058983 17.046408 19.262451
v -17.242443 16.453352 19.125404
v -18.091894 21.500832 10.776789
v -18.091894 21.774015 5.932863
v -18.058983 20.215437 19.170158
v -3.766601 20.567045 -19.792141
v -3.783078 20.802559 19.125404
v -3.780862 20.802559 -19.758495
v -3.783078 17.046408 19.262451
v -3.730595 16.453352 19.125404
v -3.780861 21.500832 10.776789
v -3.780861 21.774015 5.932863
v -3.780861 21.869946 -0.047929
v -3.780862 21.774015 -6.028719
v -3.780862 21.500843 -11.098991
v -3.783078 20.327084 19.170158
v 0.012621 20.802559 -19.758495
v 0.012619 20.567045 -19.792141
v 0.001093 20.802559 19.125404
v 0.001093 17.046408 19.262451
v -0.148956 16.453352 19.125404
v 0.012621 21.500832 10.776789
v 0.012621 21.774015 5.932863
v 0.012621 21.869946 -0.047929
v 0.012621 21.774015 -6.028719
v 0.012621 21.500843 -11.098991
v 0.001093 20.438732 19.170158
v -5.097242 18.630922 19.320473
v -2.468914 18.742569 19.320473
v 2.471099 18.742569 19.320473
v -19.623846 18.630922 19.320473
v 5.099422 18.742569 19.320473
v 19.737656 18.742569 19.320473
v -18.058983 18.630922 19.320473
v -3.783078 18.686747 19.320473
v 0.001093 18.742569 19.320473
vt 1.000000 0.218438
vt 0.628110 0.218438
vt 0.627500 0.004987
vt 0.998477 0.004987
vt 0.402446 0.999138
vt 0.402446 0.777739
vt 0.435833 0.777739
vt 0.435833 0.999138
vt 1.000000 0.999138
vt 0.628110 0.999138
vt 0.628110 0.777739
vt 1.000000 0.777739
vt 0.498585 0.999138
vt 0.498585 0.777739
vt 0.561336 0.777739
vt 0.561336 0.999138
vt 1.000000 0.999998
vt 0.626287 0.999998
vt 0.562436 0.999998
vt 0.498585 0.999998
vt 0.434733 0.999998
vt 0.402808 0.999998
vt 0.370882 0.999998
vt 0.369060 0.999138
vt 0.000019 0.999998
vt 0.000005 0.999138
vt 0.000005 0.777739
vt 0.369060 0.777739
vt 0.402390 0.000000
vt 0.369085 0.000000
vt 0.369085 0.001483
vt 0.402390 0.001483
vt 0.498293 0.000000
vt 0.435695 0.000000
vt 0.435695 0.001483
vt 0.498293 0.001483
vt 0.627500 0.000000
vt 0.560890 0.000000
vt 0.560890 0.001483
vt 0.627500 0.001483
vt 0.040595 0.000000
vt 0.000937 0.000000
vt 0.000937 0.001483
vt 0.040595 0.001483
vt 0.998477 0.000000
vt 0.998477 0.001483
vt 0.616782 0.004987
vt 0.967904 0.004987
vt 0.372198 0.004987
vt 0.403720 0.004987
vt 0.023753 0.004987
vt 0.061289 0.004987
vt 0.553737 0.004987
vt 0.435243 0.004987
vt 0.494490 0.004987
vt 0.402446 0.218438
vt 0.402390 0.004987
vt 0.435695 0.004987
vt 0.435833 0.218438
vt 0.039761 0.218438
vt 0.000005 0.218438
vt 0.000937 0.004987
vt 0.040595 0.004987
vt 0.561336 0.218438
vt 0.560890 0.004987
vt 0.498585 0.218438
vt 0.498293 0.004987
vt 0.369060 0.218438
vt 0.369060 0.342283
vt 0.039761 0.342283
vt 0.000005 0.342283
vt 0.369060 0.495195
vt 0.000005 0.495195
vt 0.369060 0.648106
vt 0.000005 0.648106
vt 0.561336 0.342283
vt 0.498585 0.342283
vt 0.561336 0.495195
vt 0.498585 0.495195
vt 0.561336 0.648106
vt 0.498585 0.648106
vt 1.000000 0.342283
vt 0.628110 0.342283
vt 1.000000 0.495195
vt 0.628110 0.495195
vt 1.000000 0.648106
vt 0.628110 0.648106
vt 0.435833 0.342283
vt 0.402446 0.342283
vt 0.435833 0.495195
vt 0.402446 0.495195
vt 0.435833 0.648106
vt 0.402446 0.648106
vt 0.627500 0.003843
vt 0.998477 0.003843
vt 0.560890 0.003843
vt 0.435695 0.003843
vt 0.498293 0.003843
vt 0.369085 0.004987
vt 0.369085 0.003843
vt 0.402390 0.003843
vt 0.040595 0.003843
vt 0.000937 0.004987
vn 0.0000 0.9976 0.0698
vn 0.0000 0.9965 0.0833
vn 0.0000 0.9968 -0.0804
vn 0.0000 0.9977 -0.0671
vn 0.0000 0.1414 -0.9899
vn -0.0025 0.0280 0.9996
vn -0.0012 0.0279 0.9996
vn 0.0002 -0.1313 0.9913
vn 0.0004 -0.1309 0.9914
vn 0.0000 0.0271 0.9996
vn -0.0013 0.0282 0.9996
vn 0.0002 -0.1304 0.9915
vn 0.0000 -0.1303 0.9915
vn -0.0036 0.0325 0.9995
vn -0.0071 0.0360 0.9993
vn 0.0000 -0.0887 0.9961
vn 0.0000 -0.1315 0.9913
vn 0.0000 -0.0782 0.9969
vn 0.0000 -0.2252 0.9743
vn 0.0000 0.9993 0.0362
vn 0.0000 1.0000 -0.0000
vn 0.0000 0.9994 -0.0349
vn 0.0000 0.1221 0.9925
vn 0.0000 0.1052 0.9945
vn -0.0023 0.1141 0.9935
vn -0.0025 0.1018 0.9948
vn -0.0040 0.0950 0.9955
vn -0.0018 0.0800 0.9968
vn -0.0024 0.0869 0.9962
vn -0.0049 0.0928 0.9957
vn 0.0000 0.0760 0.9971
vn -0.0047 0.0929 0.9957
vn -0.0142 0.1083 0.9940
s 1
f 284/249/49 294/250/49 259/251/50 249/252/50
f 322/253/51 329/254/52 278/255/52 255/256/51
f 250/257/51 258/258/51 293/259/52 283/260/52
f 331/261/51 340/262/52 299/263/52 256/264/51
f 248/265/53 251/266/53 258/258/53 250/257/53
f 251/266/53 254/267/53 256/264/53 258/258/53
f 332/268/53 253/269/53 255/256/53 331/261/53
f 320/270/53 252/271/53 257/272/53 322/253/53
f 252/271/53 263/273/53 264/274/53 257/272/53
f 257/272/51 264/274/51 303/275/52 289/276/52
f 349/277/54 342/278/55 268/279/56 323/280/57
f 350/281/58 343/282/59 269/283/60 334/284/61
f 346/285/58 344/286/58 270/287/61 267/288/61
f 348/289/62 345/290/63 271/291/64 315/292/65
f 347/293/58 346/285/58 267/288/61 266/294/66
f 266/294/66 267/288/61 273/295/67 272/296/67
f 323/280/57 268/279/56 274/297/67 324/298/67
f 315/292/65 271/291/64 277/299/67 316/300/67
f 267/288/61 270/287/61 276/301/67 273/295/67
f 334/284/61 269/283/60 275/302/67 335/303/67
f 256/264/51 299/263/52 293/259/52 258/258/51
f 325/304/49 321/305/50 261/306/50 279/307/49
f 317/308/49 304/309/49 265/310/50 314/311/50
f 298/312/49 262/313/50 259/251/50 294/250/49
f 336/314/49 333/315/50 262/313/50 298/312/49
f 317/308/49 288/316/49 290/317/68 318/318/68
f 307/319/68 318/318/68 290/317/68 291/320/69 306/321/69
f 306/321/69 291/320/69 292/322/70 305/323/70
f 305/323/70 292/322/70 289/276/52 303/275/52
f 336/314/49 298/312/49 300/324/68 337/325/68
f 337/325/68 300/324/68 301/326/69 338/327/69
f 338/327/69 301/326/69 302/328/70 339/329/70
f 339/329/70 302/328/70 299/263/52 340/262/52
f 294/250/49 284/249/49 287/330/68 297/331/68
f 297/331/68 287/330/68 286/332/69 296/333/69
f 296/333/69 286/332/69 285/334/70 295/335/70
f 295/335/70 285/334/70 283/260/52 293/259/52
f 298/312/49 294/250/49 297/331/68 300/324/68
f 300/324/68 297/331/68 296/333/69 301/326/69
f 301/326/69 296/333/69 295/335/70 302/328/70
f 302/328/70 295/335/70 293/259/52 299/263/52
f 325/304/49 279/307/49 282/336/68 326/337/68
f 326/337/68 282/336/68 281/338/69 327/339/69
f 327/339/69 281/338/69 280/340/70 328/341/70
f 328/341/70 280/340/70 278/255/52 329/254/52
f 249/252/71 259/251/71 312/342/72 313/343/72
f 259/251/71 262/313/71 310/344/72 312/342/72
f 333/315/71 261/306/73 308/345/74 341/346/72
f 321/305/75 260/347/76 309/348/77 330/349/78
f 260/347/76 314/311/79 319/350/80 309/348/77
f 304/309/49 317/308/49 318/318/68 307/319/68
f 288/316/49 317/308/49 314/311/50 260/347/50
f 268/279/56 315/292/65 316/300/67 274/297/67
f 342/278/55 348/289/62 315/292/65 268/279/56
f 261/306/73 321/305/75 330/349/78 308/345/74
f 292/322/70 328/341/70 329/254/52 289/276/52
f 291/320/69 327/339/69 328/341/70 292/322/70
f 290/317/68 326/337/68 327/339/69 291/320/69
f 288/316/49 325/304/49 326/337/68 290/317/68
f 288/316/49 260/347/50 321/305/50 325/304/49
f 269/283/60 323/280/57 324/298/67 275/302/67
f 343/282/59 349/277/54 323/280/57 269/283/60
f 253/269/53 320/270/53 322/253/53 255/256/53
f 257/272/51 289/276/52 329/254/52 322/253/51
f 262/313/71 333/315/71 341/346/72 310/344/72
f 280/340/70 339/329/70 340/262/52 278/255/52
f 281/338/69 338/327/69 339/329/70 280/340/70
f 282/336/68 337/325/68 338/327/69 281/338/69
f 279/307/49 336/314/49 337/325/68 282/336/68
f 279/307/49 261/306/50 333/315/50 336/314/49
f 270/287/61 334/284/61 335/303/67 276/301/67
f 344/286/58 350/281/58 334/284/61 270/287/61
f 254/267/53 332/268/53 331/261/53 256/264/53
f 255/256/51 278/255/52 340/262/52 331/261/51
f 310/344/72 341/346/72 350/281/58 344/286/58
f 308/345/74 330/349/78 349/277/54 343/282/59
f 309/348/77 319/350/80 348/289/62 342/278/55
f 313/343/72 312/342/72 346/285/58 347/293/58
f 319/350/80 311/351/81 345/290/63 348/289/62
f 312/342/72 310/344/72 344/286/58 346/285/58
f 341/346/72 308/345/74 343/282/59 350/281/58
f 330/349/78 309/348/77 342/278/55 349/277/54
