# Blender v2.82 (sub 1) OBJ File: 'base.blend'
# www.blender.org
o print
v 6.517491 -25.499319 -0.103613
v 7.497381 14.405996 -0.119191
v 6.412474 -25.499319 1.169877
v 7.376574 14.405996 1.345765
v 6.061028 -25.499319 2.398410
v 6.972289 14.405996 2.759006
v 5.476660 -25.499319 3.534773
v 6.300064 14.405996 4.066218
v 4.681828 -25.499319 4.535297
v 5.385730 14.405996 5.217169
v 3.707075 -25.499319 5.361532
v 4.264425 14.405996 6.167626
v 2.589862 -25.499319 5.981726
v 2.979242 14.405996 6.881065
v 1.373122 -25.499319 6.372046
v 1.579568 14.405996 7.330069
v 0.103614 -25.499319 6.517491
v 0.119192 14.405996 7.497382
v -1.169876 -25.499319 6.412474
v -1.345765 14.405996 7.376575
v -2.398409 -25.499319 6.061028
v -2.759005 14.405996 6.972291
v -3.534772 -25.499319 5.476661
v -4.066218 14.405996 6.300065
v -4.535297 -25.499319 4.681828
v -5.217169 14.405996 5.385731
v -5.361532 -25.499319 3.707075
v -6.167627 14.405996 4.264426
v -5.981727 -25.499319 2.589861
v -6.881067 14.405996 2.979241
v -6.372046 -25.499319 1.373120
v -7.330070 14.405996 1.579566
v -6.517491 -25.499319 0.103611
v -7.497382 14.405996 0.119189
v -6.412473 -25.499319 -1.169880
v -7.376575 14.405996 -1.345769
v -6.061027 -25.499319 -2.398412
v -6.972290 14.405996 -2.759009
v -5.476659 -25.499319 -3.534776
v -6.300063 14.405996 -4.066222
v -4.681825 -25.499319 -4.535300
v -5.385728 14.405996 -5.217172
v -3.707072 -25.499319 -5.361534
v -4.264422 14.405996 -6.167629
v -2.589857 -25.499319 -5.981728
v -2.979237 14.405996 -6.881068
v -1.373116 -25.499319 -6.372046
v -1.579562 14.405996 -7.330070
v -0.103607 -25.499319 -6.517491
v -0.119184 14.405996 -7.497382
v 1.169884 -25.499319 -6.412472
v 1.345773 14.405996 -7.376574
v 2.398417 -25.499319 -6.061025
v 2.759013 14.405996 -6.972287
v 3.534780 -25.499319 -5.476656
v 4.066226 14.405996 -6.300060
v 4.535303 -25.499319 -4.681822
v 5.217175 14.405996 -5.385724
v 5.361537 -25.499319 -3.707068
v 6.167632 14.405996 -4.264418
v 5.981730 -25.499319 -2.589854
v 6.881069 14.405996 -2.979233
v 6.372048 -25.499319 -1.373112
v 7.330070 14.405996 -1.579557
v -0.111396 -5.546661 -7.007436
v 0.533138 -25.499319 -6.464982
v 0.613294 14.405996 -7.436978
v 1.257828 -5.546661 -6.894523
v 0.573216 -5.546661 -6.950979
v -0.107501 -15.522990 -6.762464
v 0.247055 14.405996 -7.467180
v -0.115290 4.429667 -7.252409
v 0.214766 -25.499319 -6.491237
v 0.230910 -5.546661 -6.979208
v 0.553177 -15.522990 -6.707981
v 0.593255 4.429667 -7.193979
v 0.238983 4.429667 -7.223194
v 0.222838 -15.522990 -6.735223
vt 0.755905 0.000000
vt 0.755905 0.999703
vt 0.724409 0.999703
vt 0.724409 0.000000
vt 0.692913 0.999703
vt 0.692913 0.000000
vt 0.661417 0.999703
vt 0.661417 0.000000
vt 0.629921 0.999703
vt 0.629921 0.000000
vt 0.598425 0.999703
vt 0.598425 0.000000
vt 0.566929 0.999703
vt 0.566929 0.000000
vt 0.535433 0.999703
vt 0.535433 0.000000
vt 0.503937 0.999703
vt 0.503937 0.000000
vt 0.472441 0.999703
vt 0.472441 0.000000
vt 0.440945 0.999703
vt 0.440945 0.000000
vt 0.409449 0.999703
vt 0.409449 0.000000
vt 0.377953 0.999703
vt 0.377953 0.000000
vt 0.346457 0.999703
vt 0.346457 0.000000
vt 0.314961 0.999703
vt 0.314961 0.000000
vt 0.283464 0.999703
vt 0.283464 0.000000
vt 0.251969 0.999703
vt 0.251969 0.000000
vt 0.220472 0.999703
vt 0.220472 0.000000
vt 0.188976 0.999703
vt 0.188976 0.000000
vt 0.157481 0.999703
vt 0.157481 0.000000
vt 0.125984 0.999703
vt 0.125984 0.000000
vt 0.094489 0.999703
vt 0.094489 0.000000
vt 0.062993 0.999703
vt 0.062993 0.000000
vt 0.031497 0.999703
vt 0.031496 0.000000
vt 0.000000 0.999703
vt 0.000000 0.749777
vt 0.000000 0.499851
vt 0.000000 0.249926
vt 0.000000 0.000000
vt 0.992126 0.499851
vt 0.992126 0.749777
vt 0.992126 0.999703
vt 0.976377 0.999703
vt 0.976377 0.499851
vt 0.976377 0.000000
vt 0.944882 0.999703
vt 0.944882 0.000000
vt 0.913386 0.999703
vt 0.913386 0.000000
vt 0.881889 0.999703
vt 0.881889 0.000000
vt 0.850393 0.999703
vt 0.850393 0.000000
vt 0.818897 0.999703
vt 0.818897 0.000000
vt 0.787401 0.999703
vt 0.787401 0.000000
vt 0.992126 0.000000
vt 0.992126 0.249926
vt 1.000000 0.249926
vt 1.000000 0.499851
vt 1.000000 0.749777
vt 1.000000 0.999703
vt 1.000000 0.000000
vn 0.9995 -0.0245 -0.0159
vn 0.9835 -0.0245 0.1794
vn 0.9296 -0.0245 0.3678
vn 0.8399 -0.0245 0.5421
vn 0.7180 -0.0245 0.6955
vn 0.5685 -0.0245 0.8223
vn 0.3972 -0.0245 0.9174
vn 0.2106 -0.0245 0.9773
vn 0.0159 -0.0245 0.9995
vn -0.1794 -0.0245 0.9835
vn -0.3678 -0.0245 0.9296
vn -0.5421 -0.0245 0.8399
vn -0.6955 -0.0245 0.7180
vn -0.8223 -0.0245 0.5685
vn -0.9174 -0.0245 0.3972
vn -0.9773 -0.0245 0.2106
vn -0.9995 -0.0245 0.0159
vn -0.9835 -0.0245 -0.1794
vn -0.9296 -0.0245 -0.3678
vn -0.8399 -0.0245 -0.5421
vn -0.7180 -0.0245 -0.6955
vn -0.5685 -0.0245 -0.8223
vn -0.3972 -0.0245 -0.9174
vn -0.2106 -0.0245 -0.9773
vn -0.1138 -0.0244 -0.9932
vn 0.0822 -0.0244 -0.9963
vn 0.1794 -0.0245 -0.9835
vn 0.3678 -0.0245 -0.9296
vn 0.5421 -0.0245 -0.8399
vn 0.6955 -0.0245 -0.7180
vn 0.8223 -0.0245 -0.5685
vn 0.9174 -0.0245 -0.3972
vn 0.9773 -0.0245 -0.2106
s 1
f 1/1/1 2/2/1 4/3/2 3/4/2
f 3/4/2 4/3/2 6/5/3 5/6/3
f 5/6/3 6/5/3 8/7/4 7/8/4
f 7/8/4 8/7/4 10/9/5 9/10/5
f 9/10/5 10/9/5 12/11/6 11/12/6
f 11/12/6 12/11/6 14/13/7 13/14/7
f 13/14/7 14/13/7 16/15/8 15/16/8
f 15/16/8 16/15/8 18/17/9 17/18/9
f 17/18/9 18/17/9 20/19/10 19/20/10
f 19/20/10 20/19/10 22/21/11 21/22/11
f 21/22/11 22/21/11 24/23/12 23/24/12
f 23/24/12 24/23/12 26/25/13 25/26/13
f 25/26/13 26/25/13 28/27/14 27/28/14
f 27/28/14 28/27/14 30/29/15 29/30/15
f 29/30/15 30/29/15 32/31/16 31/32/16
f 31/32/16 32/31/16 34/33/17 33/34/17
f 33/34/17 34/33/17 36/35/18 35/36/18
f 35/36/18 36/35/18 38/37/19 37/38/19
f 37/38/19 38/37/19 40/39/20 39/40/20
f 39/40/20 40/39/20 42/41/21 41/42/21
f 41/42/21 42/41/21 44/43/22 43/44/22
f 43/44/22 44/43/22 46/45/23 45/46/23
f 45/46/23 46/45/23 48/47/24 47/48/24
f 47/48/24 48/47/24 50/49/25 72/50/25 65/51/25 70/52/25 49/53/25
f 69/54/26 76/55/26 67/56/26 52/57/27 68/58/27
f 51/59/27 68/58/27 52/57/27 54/60/28 53/61/28
f 53/61/28 54/60/28 56/62/29 55/63/29
f 55/63/29 56/62/29 58/64/30 57/65/30
f 57/65/30 58/64/30 60/66/31 59/67/31
f 59/67/31 60/66/31 62/68/32 61/69/32
f 61/69/32 62/68/32 64/70/33 63/71/33
f 63/71/33 64/70/33 2/2/1 1/1/1
f 66/72/26 75/73/26 69/54/26 68/58/27 51/59/27
f 78/74/26 74/75/26 69/54/26 75/73/26
f 77/76/26 71/77/26 67/56/26 76/55/26
f 74/75/26 77/76/26 76/55/26 69/54/26
f 73/78/26 78/74/26 75/73/26 66/72/26
o body
v 6.517491 -25.499319 -0.103613
v 6.412474 -25.499319 1.169877
v 7.376574 14.405996 1.345765
v 6.061028 -25.499319 2.398410
v 6.972289 14.405996 2.759006
v 5.476660 -25.499319 3.534773
v 4.681828 -25.499319 4.535297
v 5.385730 14.405996 5.217169
v 3.707075 -25.499319 5.361532
v 2.589862 -25.499319 5.981726
v 2.979242 14.405996 6.881065
v 1.373122 -25.499319 6.372046
v 1.579568 14.405996 7.330069
v 0.103614 -25.499319 6.517491
v 0.119192 14.405996 7.497382
v -1.169876 -25.499319 6.412474
v -2.398409 -25.499319 6.061028
v -3.534772 -25.499319 5.476661
v -4.066218 14.405996 6.300065
v -4.535297 -25.499319 4.681828
v -5.361532 -25.499319 3.707075
v -5.981727 -25.499319 2.589861
v -6.372046 -25.499319 1.373120
v -7.330070 14.405996 1.579566
v -6.517491 -25.499319 0.103611
v -7.497382 14.405996 0.119189
v -6.412473 -25.499319 -1.169880
v -6.061027 -25.499319 -2.398412
v -6.972290 14.405996 -2.759009
v -5.476659 -25.499319 -3.534776
v -6.300063 14.405996 -4.066222
v -4.681825 -25.499319 -4.535300
v -3.707072 -25.499319 -5.361534
v -2.589857 -25.499319 -5.981728
v -1.373116 -25.499319 -6.372046
v -1.579562 14.405996 -7.330070
v -0.103607 -25.499319 -6.517491
v 1.169884 -25.499319 -6.412472
v 1.345773 14.405996 -7.376574
v 2.398417 -25.499319 -6.061025
v 3.534780 -25.499319 -5.476656
v 4.535303 -25.499319 -4.681822
v 5.217175 14.405996 -5.385724
v 5.361537 -25.499319 -3.707068
v 5.981730 -25.499319 -2.589854
v 6.881069 14.405996 -2.979233
v 6.372048 -25.499319 -1.373112
v 7.497381 14.405996 -0.119191
v 6.300064 14.405996 4.066218
v 4.264425 14.405996 6.167626
v -1.345765 14.405996 7.376575
v -2.759005 14.405996 6.972291
v -5.217169 14.405996 5.385731
v -6.167627 14.405996 4.264426
v -6.881067 14.405996 2.979241
v -7.376575 14.405996 -1.345769
v -5.385728 14.405996 -5.217172
v -4.264422 14.405996 -6.167629
v -2.979237 14.405996 -6.881068
v -0.119184 14.405996 -7.497382
v 2.759013 14.405996 -6.972287
v 4.066226 14.405996 -6.300060
v 6.167632 14.405996 -4.264418
v 7.330070 14.405996 -1.579557
v 7.436977 14.405996 0.613287
v 7.174432 14.405996 2.052385
v 6.636177 14.405996 3.412612
v 5.842897 14.405996 4.641694
v 4.825078 14.405996 5.692398
v 3.621834 14.405996 6.524346
v 2.279405 14.405996 7.105567
v 0.849380 14.405996 7.413725
v -0.613287 14.405996 7.436979
v -2.052385 14.405996 7.174433
v -3.412611 14.405996 6.636178
v -4.641694 14.405996 5.842898
v -5.692398 14.405996 4.825078
v -6.524346 14.405996 3.621833
v -7.105568 14.405996 2.279404
v -7.413725 14.405996 0.849377
v -7.436979 14.405996 -0.613290
v -7.174432 14.405996 -2.052389
v -6.636176 14.405996 -3.412616
v -5.842895 14.405996 -4.641697
v -4.825075 14.405996 -5.692400
v -3.621830 14.405996 -6.524349
v -2.279399 14.405996 -7.105569
v -0.849373 14.405996 -7.413726
v 0.613294 14.405996 -7.436978
v 2.052393 14.405996 -7.174430
v 3.412619 14.405996 -6.636174
v 4.641700 14.405996 -5.842892
v 5.692403 14.405996 -4.825071
v 6.524350 14.405996 -3.621825
v 7.105569 14.405996 -2.279395
v 7.413726 14.405996 -0.849374
v 6.037922 -24.908150 -0.095989
v 5.940632 -24.908150 1.083795
v 6.833793 14.297472 1.246742
v 5.615047 -24.908150 2.221930
v 6.459256 14.297472 2.555993
v 5.073678 -24.908150 3.274678
v 5.836494 14.297472 3.767019
v 4.337331 -24.908150 4.201581
v 4.989439 14.297472 4.833280
v 3.434302 -24.908150 4.967020
v 2.399296 -24.908150 5.541579
v 2.760024 14.297472 6.374743
v 1.272085 -24.908150 5.903179
v 1.463341 14.297472 6.790709
v 0.095990 -24.908150 6.037922
v -1.083795 -24.908150 5.940632
v -1.246741 14.297472 6.833793
v -2.221929 -24.908150 5.615047
v -3.274677 -24.908150 5.073678
v -3.767018 14.297472 5.836494
v -4.201581 -24.908150 4.337331
v -4.967020 -24.908150 3.434302
v -5.713802 14.297472 3.950642
v -5.541580 -24.908150 2.399295
v -6.374744 14.297472 2.760023
v -5.903179 -24.908150 1.272084
v -6.790710 14.297472 1.463339
v -6.037922 -24.908150 0.095987
v -6.945711 14.297472 0.110419
v -5.940631 -24.908150 -1.083798
v -5.615045 -24.908150 -2.221933
v -6.459255 14.297472 -2.555996
v -5.073676 -24.908150 -3.274681
v -5.836492 14.297472 -3.767022
v -4.337328 -24.908150 -4.201584
v -4.989436 14.297472 -4.833283
v -3.434299 -24.908150 -4.967023
v -3.950639 14.297472 -5.713804
v -2.399291 -24.908150 -5.541581
v -2.760019 14.297472 -6.374747
v -1.272080 -24.908150 -5.903180
v -1.463334 14.297472 -6.790710
v -0.095983 -24.908150 -6.037923
v 1.083802 -24.908150 -5.940631
v 1.246749 14.297472 -6.833792
v 2.221937 -24.908150 -5.615044
v 3.274684 -24.908150 -5.073674
v 3.767026 14.297472 -5.836490
v 4.201587 -24.908150 -4.337325
v 4.967025 -24.908150 -3.434295
v 5.713807 14.297472 -3.950634
v 5.541584 -24.908150 -2.399287
v 6.374748 14.297472 -2.760015
v 5.903181 -24.908150 -1.272076
v 6.790710 14.297472 -1.463330
v 6.945710 14.297472 -0.110421
v 3.950641 14.297472 5.713801
v 0.110421 14.297472 6.945711
v -2.555992 14.297472 6.459257
v -4.833280 14.297472 4.989439
v -6.833793 14.297472 -1.246745
v -0.110414 14.297472 -6.945711
v 2.556000 14.297472 -6.459254
v 4.833286 14.297472 -4.989433
v 6.889751 14.297472 0.568160
v 6.646524 14.297472 1.901367
v 6.147875 14.297472 3.161506
v 5.412967 14.297472 4.300149
v 4.470040 14.297472 5.273540
v 3.355333 14.297472 6.044272
v 2.111682 14.297472 6.582726
v 0.786881 14.297472 6.868210
v -0.568160 14.297472 6.889752
v -1.901366 14.297472 6.646525
v -3.161505 14.297472 6.147876
v -4.300149 14.297472 5.412967
v -5.273541 14.297472 4.470040
v -6.044272 14.297472 3.355333
v -6.582727 14.297472 2.111681
v -6.868211 14.297472 0.786879
v -6.889753 14.297472 -0.568163
v -6.646524 14.297472 -1.901370
v -6.147874 14.297472 -3.161509
v -5.412964 14.297472 -4.300153
v -4.470037 14.297472 -5.273543
v -3.355329 14.297472 -6.044276
v -2.111677 14.297472 -6.582728
v -0.786875 14.297472 -6.868211
v 0.568167 14.297472 -6.889752
v 1.901374 14.297472 -6.646523
v 3.161513 14.297472 -6.147872
v 4.300156 14.297472 -5.412961
v 5.273546 14.297472 -4.470034
v 6.044278 14.297472 -3.355325
v 6.582728 14.297472 -2.111673
v 6.868211 14.297472 -0.786876
v -0.103607 -25.499319 -6.517491
v -0.119184 14.405996 -7.497382
v -0.111396 -5.546661 -7.007436
v -0.107501 -15.522990 -6.762464
v 0.247055 14.405996 -7.467180
v -0.115290 4.429667 -7.252409
v 0.214766 -25.499319 -6.491237
v 0.230910 -5.546661 -6.979208
v 0.238983 4.429667 -7.223194
v 0.222838 -15.522990 -6.735223
v 7.174432 14.405996 2.052385
v 2.279405 14.405996 7.105567
v 0.849380 14.405996 7.413725
v -7.413725 14.405996 0.849377
v -6.636176 14.405996 -3.412616
v 7.467179 14.405996 0.247048
v 6.071481 14.405996 4.353956
v 3.943130 14.405996 6.345986
v -1.699075 14.405996 7.275504
v -3.085808 14.405996 6.804234
v -5.454783 14.405996 5.105405
v -6.345986 14.405996 3.943130
v -6.993317 14.405996 2.629323
v -7.275503 14.405996 -1.699079
v -5.105402 14.405996 -5.454787
v -3.943126 14.405996 -6.345989
v -2.629318 14.405996 -6.993319
v 0.247055 14.405996 -7.467180
v 3.085816 14.405996 -6.804231
v 4.353963 14.405996 -6.071476
v 6.345991 14.405996 -3.943122
v 7.371898 14.405996 -1.214465
v 6.468121 14.405996 3.739415
v 4.544752 14.405996 5.930012
v -0.979526 14.405996 7.406777
v -2.405694 14.405996 7.073362
v -4.929431 14.405996 5.614315
v -5.930013 14.405996 4.544753
v -6.702707 14.405996 3.300537
v -7.406777 14.405996 -0.979529
v -5.614312 14.405996 -4.929435
v -4.544749 14.405996 -5.930015
v -3.300533 14.405996 -6.702709
v -0.484279 14.405996 -7.455554
v 2.405703 14.405996 -7.073359
v 3.739422 14.405996 -6.468117
v 5.930017 14.405996 -4.544744
v 7.217820 14.405996 -1.929476
v 7.455554 14.405996 -0.484283
v 6.646524 14.297472 1.901367
v 6.147875 14.297472 3.161506
v 5.412966 14.297472 4.300149
v 2.111682 14.297472 6.582726
v -6.044273 14.297472 3.355333
v -6.582727 14.297472 2.111681
v -6.868211 14.297472 0.786879
v -6.147874 14.297472 -3.161509
v -5.412964 14.297472 -4.300153
v -4.470037 14.297472 -5.273543
v -3.355329 14.297472 -6.044276
v -2.111677 14.297472 -6.582728
v 6.044277 14.297472 -3.355325
v 6.582729 14.297472 -2.111672
v 6.917730 14.297472 0.228870
v 3.652987 14.297472 5.879037
v -0.228869 14.297472 6.917731
v -2.858748 14.297472 6.303566
v -5.053410 14.297472 4.729740
v -6.740158 14.297472 -1.574057
v 0.228876 14.297472 -6.917731
v 2.858756 14.297472 -6.303563
v 5.053416 14.297472 -4.729733
v 4.210340 14.297472 5.493671
v 0.448651 14.297472 6.906960
v -2.228679 14.297472 6.552891
v -4.566715 14.297472 5.201203
v -6.861773 14.297472 -0.907454
v -0.448645 14.297472 -6.906960
v 2.228687 14.297472 -6.552888
v 4.566721 14.297472 -5.201197
v 6.906960 14.297472 -0.448648
v 7.163365 14.351732 0.590724
v 7.221545 14.351732 -0.114806
v 7.140969 14.351732 -0.818125
v 6.844149 14.351732 -2.195534
v 6.284314 14.351732 -3.488575
v 5.482975 14.351732 -4.647552
v 4.470928 14.351732 -5.627926
v 3.287066 14.351732 -6.392023
v 2.657506 14.351732 -6.715771
v 1.976884 14.351732 -6.910476
v 0.590731 14.351732 -7.163365
v -0.114799 14.351732 -7.221547
v -0.818124 14.351732 -7.140969
v -2.195538 14.351732 -6.844149
v -3.488579 14.351732 -6.284312
v -4.647557 14.351732 -5.482972
v -5.627930 14.351732 -4.470925
v -6.392025 14.351732 -3.287062
v -6.910478 14.351732 -1.976880
v -7.105184 14.351732 -1.296257
v -7.163366 14.351732 -0.590726
v -7.140969 14.351732 0.818128
v -6.844148 14.351732 2.195542
v -6.284310 14.351732 3.488583
v -5.482969 14.351732 4.647560
v -5.025225 14.351732 5.187584
v -4.470921 14.351732 5.627932
v -3.287058 14.351732 6.392027
v -2.657498 14.351732 6.715774
v -1.976876 14.351732 6.910480
v -0.590723 14.351732 7.163366
v 0.818130 14.351732 7.140968
v 2.195544 14.351732 6.844146
v 3.488583 14.351732 6.284309
v 4.107533 14.351732 5.940714
v 4.647559 14.351732 5.482969
v 5.627932 14.351732 4.470921
v 6.392026 14.351732 3.287059
v 6.910478 14.351732 1.976877
v 7.436977 14.405996 0.613287
v 6.636177 14.405996 3.412612
v 5.842897 14.405996 4.641694
v 4.825078 14.405996 5.692398
v -0.613287 14.405996 7.436979
v -2.052385 14.405996 7.174433
v -3.412611 14.405996 6.636178
v -4.641694 14.405996 5.842898
v -5.692398 14.405996 4.825078
v -6.524346 14.405996 3.621833
v -7.105568 14.405996 2.279404
v -7.436979 14.405996 -0.613290
v -7.174432 14.405996 -2.052389
v -5.842895 14.405996 -4.641697
v -4.825075 14.405996 -5.692400
v -3.621830 14.405996 -6.524349
v -2.279399 14.405996 -7.105569
v -0.849373 14.405996 -7.413726
v 0.613294 14.405996 -7.436978
v 2.052393 14.405996 -7.174430
v 3.412619 14.405996 -6.636174
v 4.641700 14.405996 -5.842892
v 5.692403 14.405996 -4.825071
v 6.524350 14.405996 -3.621825
v 7.105569 14.405996 -2.279395
v 7.413726 14.405996 -0.849374
v 7.275502 14.405996 1.699075
v 6.804233 14.405996 3.085809
v 5.105404 14.405996 5.454783
v 2.629323 14.405996 6.993315
v 1.214474 14.405996 7.371897
v -0.247047 14.405996 7.467180
v -4.353956 14.405996 6.071481
v -7.371898 14.405996 1.214472
v -7.467180 14.405996 -0.247051
v -6.804233 14.405996 -3.085812
v -6.071478 14.405996 -4.353960
v -1.214467 14.405996 -7.371898
v 1.699083 14.405996 -7.275502
v 5.454789 14.405996 -5.105398
v 6.993319 14.405996 -2.629313
v 7.406776 14.405996 0.979526
v 7.073361 14.405996 2.405695
v 5.614314 14.405996 4.929431
v 3.300538 14.405996 6.702706
v 1.929486 14.405996 7.217818
v 0.484286 14.405996 7.455554
v -3.739414 14.405996 6.468122
v -7.217820 14.405996 1.929485
v -7.455554 14.405996 0.484283
v -7.073361 14.405996 -2.405699
v -6.468119 14.405996 -3.739419
v -1.929481 14.405996 -7.217820
v 0.979534 14.405996 -7.406776
v 4.929438 14.405996 -5.614308
v 6.702710 14.405996 -3.300529
v 6.889752 14.297472 0.568160
v 4.470040 14.297472 5.273540
v 0.786881 14.297472 6.868209
v -0.568160 14.297472 6.889751
v -1.901366 14.297472 6.646525
v -3.161505 14.297472 6.147876
v -4.300149 14.297472 5.412967
v -5.273541 14.297472 4.470040
v -6.889752 14.297472 -0.568163
v -6.646524 14.297472 -1.901370
v -0.786874 14.297472 -6.868211
v 0.568167 14.297472 -6.889752
v 1.901374 14.297472 -6.646523
v 3.161513 14.297472 -6.147872
v 4.300156 14.297472 -5.412961
v 5.273546 14.297472 -4.470034
v 6.868210 14.297472 -0.786875
v 6.740158 14.297472 1.574054
v 6.303566 14.297472 2.858750
v 5.624731 14.297472 4.033584
v 4.729739 14.297472 5.053410
v 2.435853 14.297472 6.478734
v 1.125111 14.297472 6.829459
v -1.574054 14.297472 6.740159
v -4.033584 14.297472 5.624731
v -5.879037 14.297472 3.652987
v -6.478736 14.297472 2.435852
v -6.829461 14.297472 1.125109
v -6.917731 14.297472 -0.228872
v -6.303565 14.297472 -2.858752
v -5.624728 14.297472 -4.033588
v -4.729737 14.297472 -5.053413
v -3.652983 14.297472 -5.879040
v -2.435848 14.297472 -6.478737
v -1.125105 14.297472 -6.829461
v 1.574062 14.297472 -6.740158
v 4.033591 14.297472 -5.624726
v 5.879042 14.297472 -3.652979
v 6.478738 14.297472 -2.435844
v 6.829461 14.297472 -1.125103
v 6.861773 14.297472 0.907451
v 6.552890 14.297472 2.228680
v 5.992184 14.297472 3.464262
v 5.201203 14.297472 4.566715
v 3.057678 14.297472 6.209507
v 1.787511 14.297472 6.686717
v -0.907450 14.297472 6.861773
v -3.464262 14.297472 5.992185
v -5.493671 14.297472 4.210341
v -6.209508 14.297472 3.057678
v -6.686719 14.297472 1.787510
v -6.906960 14.297472 0.448649
v -6.552889 14.297472 -2.228683
v -5.992183 14.297472 -3.464266
v -5.201200 14.297472 -4.566718
v -4.210338 14.297472 -5.493674
v -3.057674 14.297472 -6.209511
v -1.787506 14.297472 -6.686719
v 0.907458 14.297472 -6.861773
v 3.464269 14.297472 -5.992181
v 5.493676 14.297472 -4.210334
v 6.209513 14.297472 -3.057670
v 6.686719 14.297472 -1.787501
v 7.105184 14.351732 1.296254
v 7.060390 14.351732 -1.521443
v 6.627908 14.351732 -2.869624
v 5.940719 14.351732 -4.107526
v 5.025230 14.351732 -5.187579
v 3.916626 14.351732 -6.068275
v 1.296261 14.351732 -7.105183
v -1.521448 14.351732 -7.060390
v -2.869628 14.351732 -6.627907
v -4.107531 14.351732 -5.940717
v -5.187582 14.351732 -5.025228
v -6.068277 14.351732 -3.916622
v -6.715772 14.351732 -2.657502
v -7.221547 14.351732 0.114804
v -7.060390 14.351732 1.521452
v -6.627906 14.351732 2.869632
v -5.940714 14.351732 4.107534
v -3.916618 14.351732 6.068279
v -1.296253 14.351732 7.105184
v 0.114807 14.351732 7.221547
v 1.521454 14.351732 7.060389
v 2.869633 14.351732 6.627904
v 5.187584 14.351732 5.025224
v 6.068279 14.351732 3.916619
v 6.715772 14.351732 2.657499
v 7.007831 14.351732 1.636565
v 6.813125 14.351732 2.317188
v 6.553899 14.351732 2.972279
v 6.230153 14.351732 3.601839
v 5.848105 14.351732 4.193770
v 5.407758 14.351732 4.748073
v 4.917572 14.351732 5.254097
v 4.377546 14.351732 5.711841
v 3.798058 14.351732 6.112512
v 3.179108 14.351732 6.456106
v 2.532588 14.351732 6.736024
v 1.858499 14.351732 6.952267
v 1.169792 14.351732 7.100678
v 0.466468 14.351732 7.181258
v -0.237958 14.351732 7.192457
v -0.943488 14.351732 7.134274
v -1.636564 14.351732 7.007833
v -2.317187 14.351732 6.813127
v -2.972278 14.351732 6.553901
v -3.601838 14.351732 6.230153
v -4.193770 14.351732 5.848106
v -4.748073 14.351732 5.407759
v -5.254097 14.351732 4.917572
v -5.711842 14.351732 4.377547
v -6.112512 14.351732 3.798058
v -6.456108 14.351732 3.179107
v -6.736026 14.351732 2.532587
v -6.952269 14.351732 1.858497
v -7.100679 14.351732 1.169790
v -7.181258 14.351732 0.466466
v -7.192457 14.351732 -0.237961
v -7.134274 14.351732 -0.943492
v -7.007831 14.351732 -1.636568
v -6.813125 14.351732 -2.317191
v -6.553899 14.351732 -2.972282
v -6.230151 14.351732 -3.601842
v -5.848104 14.351732 -4.193773
v -5.407755 14.351732 -4.748076
v -4.917569 14.351732 -5.254100
v -4.377543 14.351732 -5.711844
v -3.798054 14.351732 -6.112514
v -3.179104 14.351732 -6.456110
v -2.532583 14.351732 -6.736028
v -1.858493 14.351732 -6.952270
v -1.169786 14.351732 -7.100679
v -0.466462 14.351732 -7.181258
v 0.237966 14.351732 -7.192456
v 0.943496 14.351732 -7.134274
v 1.636572 14.351732 -7.007829
v 2.317195 14.351732 -6.813124
v 2.972286 14.351732 -6.553897
v 3.601846 14.351732 -6.230149
v 4.193777 14.351732 -5.848101
v 4.748079 14.351732 -5.407753
v 5.254103 14.351732 -4.917565
v 5.711847 14.351732 -4.377539
v 6.112516 14.351732 -3.798051
v 6.456111 14.351732 -3.179099
v 6.736029 14.351732 -2.532578
v 6.952270 14.351732 -1.858488
v 7.100679 14.351732 -1.169784
v 7.181257 14.351732 -0.466466
v 7.192455 14.351732 0.237959
v 7.134274 14.351732 0.943489
vt 0.000000 0.000000
vt 1.000000 0.000000
vt 1.000000 1.000000
vt 0.000000 0.000000
vt 0.000000 0.000000
vt 0.000000 0.000000
vt 0.000000 0.000000
vt 1.000000 0.000000
vt 1.000000 1.000000
vt 0.000000 0.000000
vt 1.000000 0.000000
vt 1.000000 1.000000
vt 0.000000 0.000000
vt 1.000000 0.000000
vt 1.000000 1.000000
vt 0.000000 0.000000
vt 1.000000 0.000000
vt 1.000000 1.000000
vt 0.000000 0.000000
vt 1.000000 0.000000
vt 1.000000 1.000000
vt 0.000000 0.000000
vt 1.000000 0.000000
vt 1.000000 1.000000
vt 0.000000 0.000000
vt 1.000000 0.000000
vt 1.000000 1.000000
vt 0.000000 0.000000
vt 1.000000 0.000000
vt 1.000000 1.000000
vt 0.000000 0.000000
vt 1.000000 0.000000
vt 1.000000 1.000000
vt 0.000000 0.000000
vt 1.000000 0.000000
vt 1.000000 1.000000
vt 0.000000 0.000000
vt 1.000000 0.000000
vt 1.000000 1.000000
vt 0.000000 0.000000
vt 1.000000 0.000000
vt 1.000000 1.000000
vt 0.000000 0.000000
vt 1.000000 0.000000
vt 1.000000 1.000000
vt 0.000000 0.000000
vt 1.000000 0.000000
vt 1.000000 1.000000
vt 0.500000 1.000000
vt 0.975528 0.654508
vt 0.206107 0.095492
vt 0.000000 0.000000
vt 1.000000 0.000000
vt 1.000000 1.000000
vt 0.000000 0.000000
vt 1.000000 0.000000
vt 1.000000 1.000000
vt 0.000000 0.000000
vt 1.000000 0.000000
vt 1.000000 1.000000
vt 0.000000 0.000000
vt 1.000000 0.000000
vt 1.000000 1.000000
vt 0.000000 0.000000
vt 1.000000 0.000000
vt 1.000000 1.000000
vt 0.000000 0.000000
vt 1.000000 0.000000
vt 1.000000 1.000000
vt 0.000000 0.000000
vt 1.000000 0.000000
vt 1.000000 1.000000
vt 0.000000 0.000000
vt 1.000000 0.000000
vt 1.000000 1.000000
vt 0.000000 0.000000
vt 1.000000 0.000000
vt 1.000000 1.000000
vt 0.000000 0.000000
vt 1.000000 0.000000
vt 1.000000 1.000000
vt 0.000000 0.000000
vt 1.000000 0.000000
vt 1.000000 1.000000
vt 0.000000 0.000000
vt 1.000000 0.000000
vt 1.000000 1.000000
vt 0.000000 0.000000
vt 1.000000 0.000000
vt 1.000000 1.000000
vt 0.000000 0.000000
vt 1.000000 0.000000
vt 1.000000 1.000000
vt 0.000000 0.000000
vt 1.000000 0.000000
vt 1.000000 1.000000
vt 0.000000 0.000000
vt 1.000000 0.000000
vt 1.000000 1.000000
vt 0.000000 0.000000
vt 0.000000 0.000000
vt 0.000000 0.000000
vt 0.000000 0.000000
vt 0.000000 0.000000
vt 0.000000 0.000000
vt 0.000000 0.000000
vt 0.000000 0.000000
vt 0.000000 0.000000
vt 0.000000 0.000000
vt 0.000000 0.000000
vt 0.000000 0.000000
vt 0.000000 0.000000
vt 0.000000 0.000000
vt 0.000000 0.000000
vt 0.000000 0.000000
vt 0.000000 0.000000
vt 0.000000 0.000000
vt 0.000000 0.000000
vt 0.000000 0.000000
vt 0.000000 0.000000
vt 0.000000 0.000000
vt 0.000000 0.000000
vt 0.000000 0.000000
vt 0.000000 0.000000
vt 0.000000 0.000000
vt 0.000000 0.000000
vt 0.000000 0.000000
vt 0.000000 0.000000
vt 0.000000 0.000000
vt 0.000000 0.000000
vt 0.000000 0.000000
vt 0.000000 0.000000
vt 0.000000 0.000000
vt 0.000000 0.000000
vt 0.000000 0.000000
vt 0.000000 0.000000
vt 0.000000 0.000000
vt 0.000000 0.000000
vt 0.000000 0.000000
vt 0.000000 0.000000
vt 0.000000 0.000000
vt 0.000000 0.000000
vt 0.000000 0.000000
vt 0.000000 0.000000
vt 0.000000 0.000000
vt 0.000000 0.000000
vt 0.000000 0.000000
vt 0.000000 0.000000
vt 0.000000 0.000000
vt 0.000000 0.000000
vt 0.000000 0.000000
vt 0.000000 0.000000
vt 0.000000 0.000000
vt 0.000000 0.000000
vt 0.000000 0.000000
vt 0.000000 0.000000
vt 0.000000 0.000000
vt 0.000000 0.000000
vt 0.000000 0.000000
vt 0.000000 0.000000
vt 0.000000 0.000000
vt 0.000000 0.000000
vt 0.000000 0.000000
vt 0.000000 0.000000
vt 0.000000 0.000000
vt 0.000000 0.000000
vt 0.000000 0.000000
vt 0.000000 0.000000
vt 0.000000 0.000000
vt 0.000000 0.000000
vt 0.000000 0.000000
vt 0.000000 0.000000
vt 0.000000 0.000000
vt 0.000000 0.000000
vt 0.000000 0.000000
vt 0.000000 0.000000
vt 0.000000 0.000000
vt 0.000000 0.000000
vt 0.000000 0.000000
vt 0.000000 0.000000
vt 0.000000 0.000000
vt 0.000000 0.000000
vt 0.000000 0.000000
vt 0.000000 0.000000
vt 0.000000 0.000000
vt 0.000000 0.000000
vt 0.000000 0.000000
vt 1.000000 0.000000
vt 1.000000 1.000000
vt 0.000000 0.000000
vt 0.000000 0.000000
vt 0.000000 0.000000
vt 0.000000 0.000000
vt 0.000000 0.000000
vt 0.000000 0.000000
vt 1.000000 0.000000
vt 1.000000 1.000000
vt 1.000000 0.000000
vt 1.000000 1.000000
vt 1.000000 0.000000
vt 1.000000 1.000000
vt 1.000000 0.000000
vt 1.000000 1.000000
vt 1.000000 0.000000
vt 1.000000 1.000000
vt 1.000000 0.000000
vt 1.000000 1.000000
vt 1.000000 0.000000
vt 1.000000 1.000000
vt 1.000000 0.000000
vt 1.000000 1.000000
vt 1.000000 0.000000
vt 1.000000 1.000000
vt 1.000000 0.000000
vt 1.000000 1.000000
vt 1.000000 0.000000
vt 1.000000 1.000000
vt 1.000000 0.000000
vt 1.000000 1.000000
vt 1.000000 0.000000
vt 1.000000 1.000000
vt 1.000000 0.000000
vt 1.000000 1.000000
vt 0.975528 0.654508
vt 0.793893 0.095491
vt 0.024472 0.654509
vt 1.000000 0.000000
vt 1.000000 1.000000
vt 1.000000 0.000000
vt 1.000000 1.000000
vt 1.000000 0.000000
vt 1.000000 1.000000
vt 1.000000 0.000000
vt 1.000000 1.000000
vt 1.000000 0.000000
vt 1.000000 1.000000
vt 1.000000 0.000000
vt 1.000000 1.000000
vt 1.000000 0.000000
vt 1.000000 1.000000
vt 1.000000 0.000000
vt 1.000000 1.000000
vt 1.000000 0.000000
vt 1.000000 1.000000
vt 1.000000 0.000000
vt 1.000000 1.000000
vt 1.000000 0.000000
vt 1.000000 1.000000
vt 1.000000 0.000000
vt 1.000000 1.000000
vt 1.000000 0.000000
vt 1.000000 1.000000
vt 1.000000 0.000000
vt 1.000000 1.000000
vt 1.000000 0.000000
vt 1.000000 1.000000
vt 1.000000 0.000000
vt 1.000000 1.000000
vt 0.000000 0.000000
vt 1.000000 1.000000
vt 0.000000 1.000000
vt 1.000000 0.000000
vt 0.000000 1.000000
vt 0.000000 0.000000
vt 0.000000 0.000000
vt 1.000000 1.000000
vt 0.000000 1.000000
vt 1.000000 0.000000
vt 0.000000 1.000000
vt 0.000000 0.000000
vt 0.000000 0.000000
vt 1.000000 1.000000
vt 0.000000 1.000000
vt 1.000000 0.000000
vt 0.000000 1.000000
vt 0.000000 0.000000
vt 0.000000 0.000000
vt 1.000000 1.000000
vt 0.000000 1.000000
vt 1.000000 0.000000
vt 0.000000 1.000000
vt 0.000000 0.000000
vt 0.000000 0.000000
vt 1.000000 1.000000
vt 0.000000 1.000000
vt 1.000000 0.000000
vt 0.000000 1.000000
vt 0.000000 0.000000
vt 0.000000 0.000000
vt 1.000000 1.000000
vt 0.000000 1.000000
vt 1.000000 0.000000
vt 0.000000 1.000000
vt 0.000000 0.000000
vt 0.000000 0.000000
vt 1.000000 1.000000
vt 0.000000 1.000000
vt 1.000000 0.000000
vt 0.000000 1.000000
vt 0.000000 0.000000
vt 0.000000 0.000000
vt 1.000000 1.000000
vt 0.000000 1.000000
vt 1.000000 0.000000
vt 0.000000 1.000000
vt 0.000000 0.000000
vt 0.000000 0.000000
vt 1.000000 1.000000
vt 0.000000 1.000000
vt 1.000000 0.000000
vt 0.000000 1.000000
vt 0.000000 0.000000
vt 0.000000 0.000000
vt 1.000000 1.000000
vt 0.000000 1.000000
vt 1.000000 0.000000
vt 0.000000 1.000000
vt 0.000000 0.000000
vt 0.000000 0.000000
vt 1.000000 1.000000
vt 0.000000 1.000000
vt 1.000000 0.000000
vt 0.000000 1.000000
vt 0.000000 0.000000
vt 0.000000 0.000000
vt 1.000000 1.000000
vt 0.000000 1.000000
vt 1.000000 0.000000
vt 0.000000 1.000000
vt 0.000000 0.000000
vt 0.000000 0.000000
vt 1.000000 1.000000
vt 0.000000 1.000000
vt 1.000000 0.000000
vt 0.000000 1.000000
vt 0.000000 0.000000
vt 0.000000 0.000000
vt 1.000000 1.000000
vt 0.000000 1.000000
vt 1.000000 0.000000
vt 0.000000 1.000000
vt 0.000000 0.000000
vt 0.000000 0.000000
vt 1.000000 1.000000
vt 0.000000 1.000000
vt 1.000000 0.000000
vt 0.000000 1.000000
vt 0.000000 0.000000
vt 0.000000 0.000000
vt 1.000000 1.000000
vt 0.000000 1.000000
vt 1.000000 0.000000
vt 0.000000 1.000000
vt 0.000000 0.000000
vt 0.000000 0.000000
vt 1.000000 1.000000
vt 0.000000 1.000000
vt 1.000000 0.000000
vt 0.000000 1.000000
vt 0.000000 0.000000
vt 0.000000 0.000000
vt 1.000000 1.000000
vt 0.000000 1.000000
vt 1.000000 0.000000
vt 0.000000 1.000000
vt 0.000000 0.000000
vt 0.000000 0.000000
vt 1.000000 1.000000
vt 0.000000 1.000000
vt 1.000000 0.000000
vt 0.000000 1.000000
vt 0.000000 0.000000
vt 0.000000 0.000000
vt 1.000000 1.000000
vt 0.000000 1.000000
vt 1.000000 0.000000
vt 0.000000 1.000000
vt 0.000000 0.000000
vt 0.000000 0.000000
vt 1.000000 1.000000
vt 0.000000 1.000000
vt 1.000000 0.000000
vt 0.000000 1.000000
vt 0.000000 0.000000
vt 0.000000 0.000000
vt 1.000000 1.000000
vt 0.000000 1.000000
vt 1.000000 0.000000
vt 0.000000 1.000000
vt 0.000000 0.000000
vt 0.000000 0.000000
vt 1.000000 1.000000
vt 0.000000 1.000000
vt 1.000000 0.000000
vt 0.000000 1.000000
vt 0.000000 0.000000
vt 0.000000 0.000000
vt 1.000000 1.000000
vt 0.000000 1.000000
vt 1.000000 0.000000
vt 0.000000 1.000000
vt 0.000000 0.000000
vt 0.000000 0.000000
vt 1.000000 1.000000
vt 0.000000 1.000000
vt 1.000000 0.000000
vt 0.000000 1.000000
vt 0.000000 0.000000
vt 0.000000 0.000000
vt 1.000000 1.000000
vt 0.000000 1.000000
vt 1.000000 0.000000
vt 0.000000 1.000000
vt 0.000000 0.000000
vt 0.000000 0.000000
vt 1.000000 1.000000
vt 0.000000 1.000000
vt 1.000000 0.000000
vt 0.000000 1.000000
vt 0.000000 0.000000
vt 0.000000 0.000000
vt 1.000000 1.000000
vt 0.000000 1.000000
vt 1.000000 0.000000
vt 0.000000 1.000000
vt 0.000000 0.000000
vt 0.000000 0.000000
vt 1.000000 1.000000
vt 0.000000 1.000000
vt 1.000000 0.000000
vt 0.000000 1.000000
vt 0.000000 0.000000
vt 0.000000 0.000000
vt 1.000000 1.000000
vt 0.000000 1.000000
vt 1.000000 0.000000
vt 0.000000 1.000000
vt 0.000000 0.000000
vt 0.000000 0.000000
vt 1.000000 1.000000
vt 0.000000 1.000000
vt 1.000000 0.000000
vt 0.000000 1.000000
vt 0.000000 0.000000
vt 0.000000 0.000000
vt 1.000000 1.000000
vt 0.000000 1.000000
vt 1.000000 0.000000
vt 0.000000 1.000000
vt 0.000000 0.000000
vt 0.942995 0.402576
vt 0.935727 0.549222
vt 0.935727 0.402576
vt 0.942995 0.549222
vt 0.935727 0.695867
vt 0.942995 0.109285
vt 0.935727 0.255931
vt 0.935727 0.109285
vt 0.942995 0.255931
vt 1.000000 0.000000
vt 0.000000 1.000000
vt 0.000000 0.000000
vt 1.000000 0.000000
vt 0.000000 1.000000
vt 1.000000 0.000000
vt 0.000000 1.000000
vt 0.000000 0.000000
vt 0.000000 0.000000
vt 1.000000 1.000000
vt 0.000000 1.000000
vt 0.000000 0.000000
vt 1.000000 1.000000
vt 0.000000 1.000000
vt 0.000000 0.000000
vt 1.000000 1.000000
vt 0.000000 1.000000
vt 1.000000 0.000000
vt 0.000000 1.000000
vt 0.000000 0.000000
vt 1.000000 0.000000
vt 0.000000 1.000000
vt 1.000000 0.000000
vt 0.000000 1.000000
vt 0.000000 0.000000
vt 0.000000 0.000000
vt 1.000000 1.000000
vt 0.000000 1.000000
vt 0.000000 0.000000
vt 1.000000 1.000000
vt 0.000000 1.000000
vt 0.000000 0.000000
vt 1.000000 1.000000
vt 0.000000 1.000000
vt 1.000000 0.000000
vt 0.000000 1.000000
vt 0.000000 0.000000
vt 1.000000 0.000000
vt 0.000000 1.000000
vt 1.000000 0.000000
vt 0.000000 1.000000
vt 0.000000 0.000000
vt 0.000000 0.000000
vt 1.000000 1.000000
vt 0.000000 1.000000
vt 0.000000 0.000000
vt 1.000000 1.000000
vt 0.000000 1.000000
vt 0.000000 0.000000
vt 1.000000 1.000000
vt 0.000000 1.000000
vt 1.000000 0.000000
vt 0.000000 1.000000
vt 0.000000 0.000000
vt 1.000000 0.000000
vt 0.000000 1.000000
vt 1.000000 0.000000
vt 0.000000 1.000000
vt 0.000000 0.000000
vt 0.000000 0.000000
vt 1.000000 1.000000
vt 0.000000 1.000000
vt 0.000000 0.000000
vt 1.000000 1.000000
vt 0.000000 1.000000
vt 0.000000 0.000000
vt 1.000000 1.000000
vt 0.000000 1.000000
vt 1.000000 0.000000
vt 0.000000 1.000000
vt 0.000000 0.000000
vt 1.000000 0.000000
vt 0.000000 1.000000
vt 1.000000 0.000000
vt 0.000000 1.000000
vt 0.000000 0.000000
vt 0.000000 0.000000
vt 1.000000 1.000000
vt 0.000000 1.000000
vt 0.000000 0.000000
vt 1.000000 1.000000
vt 0.000000 1.000000
vt 0.000000 0.000000
vt 1.000000 1.000000
vt 0.000000 1.000000
vt 1.000000 0.000000
vt 0.000000 1.000000
vt 0.000000 0.000000
vt 1.000000 0.000000
vt 0.000000 1.000000
vt 0.000000 0.000000
vt 1.000000 0.000000
vt 0.000000 1.000000
vt 0.000000 0.000000
vt 0.000000 0.000000
vt 1.000000 1.000000
vt 0.000000 1.000000
vt 0.000000 0.000000
vt 1.000000 1.000000
vt 0.000000 1.000000
vt 0.000000 0.000000
vt 1.000000 1.000000
vt 0.000000 1.000000
vt 1.000000 0.000000
vt 0.000000 1.000000
vt 0.000000 0.000000
vt 1.000000 0.000000
vt 0.000000 1.000000
vt 1.000000 0.000000
vt 0.000000 1.000000
vt 0.000000 0.000000
vt 0.000000 0.000000
vt 1.000000 1.000000
vt 0.000000 1.000000
vt 0.000000 0.000000
vt 1.000000 1.000000
vt 0.000000 1.000000
vt 0.000000 0.000000
vt 1.000000 1.000000
vt 0.000000 1.000000
vt 1.000000 0.000000
vt 0.000000 1.000000
vt 0.000000 0.000000
vt 1.000000 0.000000
vt 0.000000 1.000000
vt 1.000000 0.000000
vt 0.000000 1.000000
vt 0.000000 0.000000
vt 0.000000 0.000000
vt 1.000000 1.000000
vt 0.000000 1.000000
vt 0.000000 0.000000
vt 1.000000 1.000000
vt 0.000000 1.000000
vt 0.000000 0.000000
vt 1.000000 1.000000
vt 0.000000 1.000000
vt 1.000000 0.000000
vt 0.000000 1.000000
vt 0.000000 0.000000
vt 1.000000 0.000000
vt 0.000000 1.000000
vt 1.000000 0.000000
vt 0.000000 1.000000
vt 0.000000 0.000000
vt 0.000000 0.000000
vt 1.000000 1.000000
vt 0.000000 1.000000
vt 0.000000 0.000000
vt 1.000000 1.000000
vt 0.000000 1.000000
vt 0.000000 0.000000
vt 1.000000 1.000000
vt 0.000000 1.000000
vt 1.000000 0.000000
vt 0.000000 1.000000
vt 0.000000 0.000000
vt 1.000000 0.000000
vt 0.000000 1.000000
vt 1.000000 0.000000
vt 0.000000 1.000000
vt 0.000000 0.000000
vt 0.000000 0.000000
vt 1.000000 1.000000
vt 0.000000 1.000000
vt 0.000000 0.000000
vt 1.000000 1.000000
vt 0.000000 1.000000
vt 0.000000 0.000000
vt 1.000000 1.000000
vt 0.000000 1.000000
vt 1.000000 0.000000
vt 0.000000 1.000000
vt 0.000000 0.000000
vt 1.000000 0.000000
vt 0.000000 1.000000
vt 1.000000 0.000000
vt 0.000000 1.000000
vt 0.000000 0.000000
vt 0.000000 0.000000
vt 1.000000 1.000000
vt 0.000000 1.000000
vt 0.000000 0.000000
vt 1.000000 1.000000
vt 0.000000 1.000000
vt 0.000000 0.000000
vt 1.000000 1.000000
vt 0.000000 1.000000
vt 1.000000 0.000000
vt 0.000000 1.000000
vt 0.000000 0.000000
vt 1.000000 0.000000
vt 0.000000 1.000000
vt 1.000000 0.000000
vt 0.000000 1.000000
vt 0.000000 0.000000
vt 0.000000 0.000000
vt 1.000000 1.000000
vt 0.000000 1.000000
vt 0.000000 0.000000
vt 1.000000 1.000000
vt 0.000000 1.000000
vt 0.000000 0.000000
vt 1.000000 1.000000
vt 0.000000 1.000000
vt 1.000000 0.000000
vt 0.000000 1.000000
vt 0.000000 0.000000
vt 1.000000 0.000000
vt 0.000000 1.000000
vt 1.000000 0.000000
vt 0.000000 1.000000
vt 0.000000 0.000000
vt 0.000000 0.000000
vt 1.000000 1.000000
vt 0.000000 1.000000
vt 0.000000 0.000000
vt 1.000000 1.000000
vt 0.000000 1.000000
vt 0.000000 0.000000
vt 1.000000 1.000000
vt 0.000000 1.000000
vt 1.000000 0.000000
vt 0.000000 1.000000
vt 0.000000 0.000000
vt 1.000000 0.000000
vt 0.000000 1.000000
vt 1.000000 0.000000
vt 0.000000 1.000000
vt 0.000000 0.000000
vt 0.000000 0.000000
vt 1.000000 1.000000
vt 0.000000 1.000000
vt 0.000000 0.000000
vt 1.000000 1.000000
vt 0.000000 1.000000
vt 0.000000 0.000000
vt 1.000000 1.000000
vt 0.000000 1.000000
vt 1.000000 0.000000
vt 0.000000 1.000000
vt 0.000000 0.000000
vt 1.000000 0.000000
vt 0.000000 1.000000
vt 1.000000 0.000000
vt 0.000000 1.000000
vt 0.000000 0.000000
vt 0.000000 0.000000
vt 1.000000 1.000000
vt 0.000000 1.000000
vt 0.000000 0.000000
vt 1.000000 1.000000
vt 0.000000 1.000000
vt 0.000000 0.000000
vt 1.000000 1.000000
vt 0.000000 1.000000
vt 1.000000 0.000000
vt 0.000000 1.000000
vt 0.000000 0.000000
vt 1.000000 0.000000
vt 0.000000 1.000000
vt 1.000000 0.000000
vt 0.000000 1.000000
vt 0.000000 0.000000
vt 0.000000 0.000000
vt 1.000000 1.000000
vt 0.000000 1.000000
vt 0.000000 0.000000
vt 1.000000 1.000000
vt 0.000000 1.000000
vt 0.000000 0.000000
vt 1.000000 1.000000
vt 0.000000 1.000000
vt 1.000000 0.000000
vt 0.000000 1.000000
vt 0.000000 0.000000
vt 1.000000 0.000000
vt 0.000000 1.000000
vt 1.000000 0.000000
vt 0.000000 1.000000
vt 0.000000 0.000000
vt 0.000000 0.000000
vt 1.000000 1.000000
vt 0.000000 1.000000
vt 0.000000 0.000000
vt 1.000000 1.000000
vt 0.000000 1.000000
vt 0.000000 0.000000
vt 1.000000 1.000000
vt 0.000000 1.000000
vt 1.000000 0.000000
vt 0.000000 1.000000
vt 0.000000 0.000000
vt 1.000000 0.000000
vt 0.000000 1.000000
vt 1.000000 0.000000
vt 0.000000 1.000000
vt 0.000000 0.000000
vt 0.000000 0.000000
vt 1.000000 1.000000
vt 0.000000 1.000000
vt 0.000000 0.000000
vt 1.000000 1.000000
vt 0.000000 1.000000
vt 0.000000 0.000000
vt 1.000000 1.000000
vt 0.000000 1.000000
vt 1.000000 0.000000
vt 0.000000 1.000000
vt 0.000000 0.000000
vt 1.000000 0.000000
vt 0.000000 1.000000
vt 1.000000 0.000000
vt 0.000000 1.000000
vt 0.000000 0.000000
vt 0.000000 0.000000
vt 1.000000 1.000000
vt 0.000000 1.000000
vt 0.000000 0.000000
vt 1.000000 1.000000
vt 0.000000 1.000000
vt 0.000000 0.000000
vt 1.000000 1.000000
vt 0.000000 1.000000
vt 1.000000 0.000000
vt 0.000000 1.000000
vt 0.000000 0.000000
vt 1.000000 0.000000
vt 0.000000 1.000000
vt 1.000000 0.000000
vt 0.000000 1.000000
vt 0.000000 0.000000
vt 0.000000 0.000000
vt 1.000000 1.000000
vt 0.000000 1.000000
vt 0.000000 0.000000
vt 1.000000 1.000000
vt 0.000000 1.000000
vt 0.000000 0.000000
vt 1.000000 1.000000
vt 0.000000 1.000000
vt 1.000000 0.000000
vt 0.000000 1.000000
vt 0.000000 0.000000
vt 1.000000 0.000000
vt 0.000000 1.000000
vt 1.000000 0.000000
vt 0.000000 1.000000
vt 0.000000 0.000000
vt 0.000000 0.000000
vt 1.000000 1.000000
vt 0.000000 1.000000
vt 0.000000 0.000000
vt 1.000000 1.000000
vt 0.000000 1.000000
vt 0.000000 0.000000
vt 1.000000 1.000000
vt 0.000000 1.000000
vt 1.000000 0.000000
vt 0.000000 1.000000
vt 0.000000 0.000000
vt 1.000000 0.000000
vt 0.000000 1.000000
vt 1.000000 0.000000
vt 0.000000 1.000000
vt 0.000000 0.000000
vt 0.000000 0.000000
vt 1.000000 1.000000
vt 0.000000 1.000000
vt 0.000000 0.000000
vt 1.000000 1.000000
vt 0.000000 1.000000
vt 0.000000 0.000000
vt 1.000000 1.000000
vt 0.000000 1.000000
vt 1.000000 0.000000
vt 0.000000 1.000000
vt 0.000000 0.000000
vt 1.000000 0.000000
vt 0.000000 1.000000
vt 1.000000 0.000000
vt 0.000000 1.000000
vt 0.000000 0.000000
vt 0.000000 0.000000
vt 1.000000 1.000000
vt 0.000000 1.000000
vt 0.000000 0.000000
vt 1.000000 1.000000
vt 0.000000 1.000000
vt 0.000000 0.000000
vt 1.000000 1.000000
vt 0.000000 1.000000
vt 1.000000 0.000000
vt 0.000000 1.000000
vt 0.000000 0.000000
vt 1.000000 0.000000
vt 0.000000 1.000000
vt 1.000000 0.000000
vt 0.000000 1.000000
vt 0.000000 0.000000
vt 0.000000 0.000000
vt 1.000000 1.000000
vt 0.000000 1.000000
vt 0.000000 0.000000
vt 1.000000 1.000000
vt 0.000000 1.000000
vt 0.000000 0.000000
vt 1.000000 1.000000
vt 0.000000 1.000000
vt 1.000000 0.000000
vt 0.000000 1.000000
vt 0.000000 0.000000
vt 1.000000 0.000000
vt 0.000000 1.000000
vt 1.000000 0.000000
vt 0.000000 1.000000
vt 0.000000 0.000000
vt 0.000000 0.000000
vt 1.000000 1.000000
vt 0.000000 1.000000
vt 0.000000 0.000000
vt 1.000000 1.000000
vt 0.000000 1.000000
vt 0.000000 0.000000
vt 1.000000 1.000000
vt 0.000000 1.000000
vt 1.000000 0.000000
vt 0.000000 1.000000
vt 0.000000 0.000000
vt 1.000000 0.000000
vt 0.000000 1.000000
vt 1.000000 0.000000
vt 0.000000 1.000000
vt 0.000000 0.000000
vt 0.000000 0.000000
vt 1.000000 1.000000
vt 0.000000 1.000000
vt 0.000000 0.000000
vt 1.000000 1.000000
vt 0.000000 1.000000
vt 0.000000 0.000000
vt 1.000000 1.000000
vt 0.000000 1.000000
vt 1.000000 0.000000
vt 0.000000 1.000000
vt 0.000000 0.000000
vt 1.000000 0.000000
vt 0.000000 1.000000
vt 1.000000 0.000000
vt 0.000000 1.000000
vt 0.000000 0.000000
vt 0.000000 0.000000
vt 1.000000 1.000000
vt 0.000000 1.000000
vt 0.000000 0.000000
vt 1.000000 1.000000
vt 0.000000 1.000000
vt 0.000000 0.000000
vt 1.000000 1.000000
vt 0.000000 1.000000
vt 1.000000 0.000000
vt 0.000000 1.000000
vt 0.000000 0.000000
vt 1.000000 0.000000
vt 0.000000 1.000000
vt 1.000000 0.000000
vt 0.000000 1.000000
vt 0.000000 0.000000
vt 0.000000 0.000000
vt 1.000000 1.000000
vt 0.000000 1.000000
vt 0.000000 0.000000
vt 1.000000 1.000000
vt 0.000000 1.000000
vt 0.000000 0.000000
vt 1.000000 1.000000
vt 0.000000 1.000000
vt 1.000000 0.000000
vt 0.000000 1.000000
vt 0.000000 0.000000
vt 1.000000 0.000000
vt 0.000000 1.000000
vt 1.000000 0.000000
vt 0.000000 1.000000
vt 0.000000 0.000000
vt 0.000000 0.000000
vt 1.000000 1.000000
vt 0.000000 1.000000
vt 0.000000 0.000000
vt 1.000000 1.000000
vt 0.000000 1.000000
vt 0.000000 0.000000
vt 1.000000 1.000000
vt 0.000000 1.000000
vt 1.000000 0.000000
vt 0.000000 1.000000
vt 0.000000 0.000000
vt 1.000000 0.000000
vt 0.000000 1.000000
vt 1.000000 0.000000
vt 0.000000 1.000000
vt 0.000000 0.000000
vt 0.000000 0.000000
vt 1.000000 1.000000
vt 0.000000 1.000000
vt 0.000000 0.000000
vt 1.000000 1.000000
vt 0.000000 1.000000
vt 0.000000 0.000000
vt 1.000000 1.000000
vt 0.000000 1.000000
vt 1.000000 0.000000
vt 0.000000 1.000000
vt 0.000000 0.000000
vt 1.000000 0.000000
vt 0.000000 1.000000
vt 1.000000 0.000000
vt 0.000000 1.000000
vt 0.000000 0.000000
vt 0.000000 0.000000
vt 1.000000 1.000000
vt 0.000000 1.000000
vt 0.000000 0.000000
vt 1.000000 1.000000
vt 0.000000 1.000000
vt 0.000000 0.000000
vt 1.000000 1.000000
vt 0.000000 1.000000
vt 1.000000 0.000000
vt 0.000000 1.000000
vt 0.000000 0.000000
vt 1.000000 0.000000
vt 0.000000 1.000000
vt 1.000000 0.000000
vt 0.000000 1.000000
vt 0.000000 0.000000
vt 0.000000 0.000000
vt 1.000000 1.000000
vt 0.000000 1.000000
vt 0.000000 0.000000
vt 1.000000 1.000000
vt 0.000000 1.000000
vt 0.000000 0.000000
vt 1.000000 1.000000
vt 0.000000 1.000000
vt 1.000000 1.000000
vt 0.000000 0.000000
vt 1.000000 0.000000
vt 1.000000 1.000000
vt 0.000000 0.000000
vt 1.000000 0.000000
vt 1.000000 1.000000
vt 0.000000 0.000000
vt 1.000000 0.000000
vt 1.000000 1.000000
vt 0.000000 0.000000
vt 1.000000 0.000000
vt 1.000000 1.000000
vt 0.000000 0.000000
vt 1.000000 0.000000
vt 1.000000 1.000000
vt 0.000000 0.000000
vt 1.000000 0.000000
vt 1.000000 1.000000
vt 0.000000 0.000000
vt 1.000000 0.000000
vt 1.000000 1.000000
vt 0.000000 0.000000
vt 1.000000 0.000000
vt 1.000000 1.000000
vt 0.000000 0.000000
vt 1.000000 0.000000
vt 1.000000 1.000000
vt 0.000000 0.000000
vt 1.000000 0.000000
vt 1.000000 1.000000
vt 0.000000 0.000000
vt 1.000000 0.000000
vt 1.000000 1.000000
vt 0.000000 0.000000
vt 1.000000 0.000000
vt 1.000000 1.000000
vt 0.000000 0.000000
vt 1.000000 0.000000
vt 1.000000 1.000000
vt 0.000000 0.000000
vt 1.000000 0.000000
vt 1.000000 1.000000
vt 0.000000 0.000000
vt 1.000000 0.000000
vt 1.000000 1.000000
vt 0.000000 0.000000
vt 1.000000 0.000000
vt 1.000000 1.000000
vt 0.000000 0.000000
vt 1.000000 0.000000
vt 1.000000 1.000000
vt 0.000000 0.000000
vt 1.000000 0.000000
vt 1.000000 1.000000
vt 0.000000 0.000000
vt 1.000000 0.000000
vt 1.000000 1.000000
vt 0.000000 0.000000
vt 1.000000 0.000000
vt 1.000000 1.000000
vt 0.000000 0.000000
vt 1.000000 0.000000
vt 1.000000 1.000000
vt 0.000000 0.000000
vt 1.000000 0.000000
vt 1.000000 1.000000
vt 0.000000 0.000000
vt 1.000000 0.000000
vt 1.000000 1.000000
vt 0.000000 0.000000
vt 1.000000 0.000000
vt 1.000000 1.000000
vt 0.000000 0.000000
vt 1.000000 0.000000
vt 1.000000 1.000000
vt 0.000000 0.000000
vt 1.000000 0.000000
vt 1.000000 1.000000
vt 0.000000 0.000000
vt 1.000000 0.000000
vt 1.000000 1.000000
vt 0.000000 0.000000
vt 1.000000 0.000000
vt 1.000000 1.000000
vt 0.000000 0.000000
vt 1.000000 0.000000
vt 1.000000 1.000000
vt 0.000000 0.000000
vt 1.000000 0.000000
vt 1.000000 1.000000
vt 0.000000 0.000000
vt 1.000000 0.000000
vt 1.000000 0.000000
vt 1.000000 1.000000
vt 1.000000 1.000000
vt 0.000000 0.000000
vt 1.000000 0.000000
vt 1.000000 0.000000
vt 1.000000 1.000000
vt 1.000000 1.000000
vt 0.000000 0.000000
vt 1.000000 0.000000
vt 1.000000 0.000000
vt 1.000000 1.000000
vt 1.000000 1.000000
vt 0.000000 0.000000
vt 1.000000 0.000000
vt 1.000000 0.000000
vt 1.000000 1.000000
vt 1.000000 1.000000
vt 0.000000 0.000000
vt 1.000000 0.000000
vt 1.000000 0.000000
vt 1.000000 1.000000
vt 1.000000 1.000000
vt 0.000000 0.000000
vt 1.000000 0.000000
vt 1.000000 0.000000
vt 1.000000 1.000000
vt 1.000000 1.000000
vt 0.000000 0.000000
vt 1.000000 0.000000
vt 1.000000 0.000000
vt 1.000000 1.000000
vt 1.000000 1.000000
vt 0.000000 0.000000
vt 1.000000 0.000000
vt 1.000000 0.000000
vt 1.000000 1.000000
vt 1.000000 1.000000
vt 0.000000 0.000000
vt 1.000000 0.000000
vt 1.000000 0.000000
vt 1.000000 1.000000
vt 1.000000 1.000000
vt 0.000000 0.000000
vt 1.000000 0.000000
vt 1.000000 0.000000
vt 1.000000 1.000000
vt 1.000000 1.000000
vt 0.000000 0.000000
vt 1.000000 0.000000
vt 1.000000 0.000000
vt 1.000000 1.000000
vt 1.000000 1.000000
vt 0.000000 0.000000
vt 1.000000 0.000000
vt 1.000000 0.000000
vt 1.000000 1.000000
vt 1.000000 1.000000
vt 0.000000 0.000000
vt 1.000000 0.000000
vt 1.000000 0.000000
vt 1.000000 1.000000
vt 1.000000 1.000000
vt 0.000000 0.000000
vt 1.000000 0.000000
vt 1.000000 0.000000
vt 1.000000 1.000000
vt 1.000000 1.000000
vt 0.000000 0.000000
vt 1.000000 0.000000
vt 1.000000 0.000000
vt 1.000000 1.000000
vt 1.000000 1.000000
vt 0.000000 0.000000
vt 1.000000 0.000000
vt 1.000000 0.000000
vt 1.000000 1.000000
vt 1.000000 1.000000
vt 0.000000 0.000000
vt 1.000000 0.000000
vt 1.000000 0.000000
vt 1.000000 1.000000
vt 1.000000 1.000000
vt 0.000000 0.000000
vt 1.000000 0.000000
vt 1.000000 0.000000
vt 1.000000 1.000000
vt 1.000000 1.000000
vt 0.000000 0.000000
vt 1.000000 0.000000
vt 1.000000 0.000000
vt 1.000000 1.000000
vt 1.000000 1.000000
vt 0.000000 0.000000
vt 1.000000 0.000000
vt 1.000000 0.000000
vt 1.000000 1.000000
vt 1.000000 1.000000
vt 0.000000 0.000000
vt 1.000000 0.000000
vt 1.000000 0.000000
vt 1.000000 1.000000
vt 1.000000 1.000000
vt 0.000000 0.000000
vt 1.000000 0.000000
vt 1.000000 0.000000
vt 1.000000 1.000000
vt 1.000000 1.000000
vt 0.000000 0.000000
vt 1.000000 0.000000
vt 1.000000 0.000000
vt 1.000000 1.000000
vt 1.000000 1.000000
vt 0.000000 0.000000
vt 1.000000 0.000000
vt 1.000000 0.000000
vt 1.000000 1.000000
vt 1.000000 1.000000
vt 0.000000 0.000000
vt 1.000000 0.000000
vt 1.000000 0.000000
vt 1.000000 1.000000
vt 1.000000 1.000000
vt 0.000000 0.000000
vt 1.000000 0.000000
vt 1.000000 0.000000
vt 1.000000 1.000000
vt 1.000000 1.000000
vt 0.000000 0.000000
vt 1.000000 0.000000
vt 1.000000 0.000000
vt 1.000000 1.000000
vt 1.000000 1.000000
vt 0.000000 0.000000
vt 1.000000 0.000000
vt 1.000000 0.000000
vt 1.000000 1.000000
vt 1.000000 1.000000
vt 0.000000 0.000000
vt 1.000000 0.000000
vt 1.000000 0.000000
vt 1.000000 1.000000
vt 1.000000 1.000000
vt 0.000000 0.000000
vt 1.000000 0.000000
vt 1.000000 0.000000
vt 1.000000 1.000000
vt 1.000000 1.000000
vt 0.000000 0.000000
vt 1.000000 0.000000
vt 1.000000 0.000000
vt 1.000000 1.000000
vt 1.000000 1.000000
vt 0.000000 0.000000
vt 1.000000 0.000000
vt 0.000000 0.000000
vt 0.000000 0.000000
vt 0.000000 0.000000
vt 0.000000 0.000000
vt 0.000000 0.000000
vt 0.000000 0.000000
vt 0.000000 0.000000
vt 0.000000 0.000000
vt 0.000000 0.000000
vt 0.000000 0.000000
vt 0.000000 0.000000
vt 0.000000 0.000000
vt 0.000000 0.000000
vt 0.000000 0.000000
vt 0.000000 0.000000
vt 0.000000 0.000000
vt 0.000000 0.000000
vt 0.000000 0.000000
vt 0.000000 0.000000
vt 0.000000 0.000000
vt 0.000000 0.000000
vt 0.000000 0.000000
vt 0.000000 0.000000
vt 0.000000 0.000000
vt 0.000000 0.000000
vt 0.000000 0.000000
vt 0.000000 0.000000
vt 0.000000 0.000000
vt 0.000000 0.000000
vt 0.793893 0.095491
vt 0.024472 0.654509
vt 0.000000 0.000000
vt 0.500000 1.000000
vt 0.206107 0.095492
vt 1.000000 1.000000
vt 1.000000 1.000000
vt 1.000000 1.000000
vt 1.000000 1.000000
vt 1.000000 1.000000
vt 1.000000 1.000000
vt 1.000000 1.000000
vt 1.000000 1.000000
vt 1.000000 1.000000
vt 1.000000 1.000000
vt 1.000000 1.000000
vt 1.000000 1.000000
vt 1.000000 1.000000
vt 1.000000 1.000000
vt 1.000000 1.000000
vt 1.000000 1.000000
vt 1.000000 1.000000
vt 1.000000 1.000000
vt 1.000000 1.000000
vt 1.000000 1.000000
vt 1.000000 1.000000
vt 1.000000 1.000000
vt 1.000000 1.000000
vt 1.000000 1.000000
vt 1.000000 1.000000
vt 1.000000 1.000000
vt 1.000000 1.000000
vt 1.000000 0.000000
vt 1.000000 1.000000
vt 1.000000 1.000000
vt 1.000000 1.000000
vt 1.000000 1.000000
vt 1.000000 1.000000
vt 0.942996 0.695867
vt 1.000000 1.000000
vt 1.000000 1.000000
vt 1.000000 0.000000
vt 1.000000 0.000000
vt 1.000000 1.000000
vt 1.000000 1.000000
vt 1.000000 0.000000
vt 1.000000 0.000000
vt 1.000000 1.000000
vt 1.000000 1.000000
vt 1.000000 0.000000
vt 1.000000 0.000000
vt 1.000000 1.000000
vt 1.000000 1.000000
vt 1.000000 0.000000
vt 1.000000 0.000000
vt 1.000000 1.000000
vt 1.000000 1.000000
vt 1.000000 1.000000
vt 1.000000 0.000000
vt 1.000000 0.000000
vt 1.000000 0.000000
vt 1.000000 1.000000
vt 1.000000 1.000000
vt 1.000000 0.000000
vt 1.000000 0.000000
vt 1.000000 1.000000
vt 1.000000 1.000000
vt 1.000000 0.000000
vt 1.000000 0.000000
vt 1.000000 1.000000
vt 1.000000 1.000000
vt 1.000000 0.000000
vt 1.000000 0.000000
vt 1.000000 1.000000
vt 1.000000 1.000000
vt 1.000000 0.000000
vt 1.000000 0.000000
vt 1.000000 1.000000
vt 1.000000 1.000000
vt 1.000000 0.000000
vt 1.000000 0.000000
vt 1.000000 1.000000
vt 1.000000 1.000000
vt 1.000000 0.000000
vt 1.000000 0.000000
vt 1.000000 1.000000
vt 1.000000 1.000000
vt 1.000000 0.000000
vt 1.000000 0.000000
vt 1.000000 1.000000
vt 1.000000 1.000000
vt 1.000000 0.000000
vt 1.000000 0.000000
vt 1.000000 1.000000
vt 1.000000 1.000000
vt 1.000000 0.000000
vt 1.000000 0.000000
vt 1.000000 1.000000
vt 1.000000 1.000000
vt 1.000000 0.000000
vt 1.000000 0.000000
vt 1.000000 1.000000
vt 1.000000 1.000000
vt 1.000000 0.000000
vt 1.000000 0.000000
vt 1.000000 1.000000
vt 1.000000 1.000000
vt 1.000000 0.000000
vt 1.000000 0.000000
vt 1.000000 1.000000
vt 1.000000 1.000000
vt 1.000000 0.000000
vt 1.000000 0.000000
vt 1.000000 1.000000
vt 1.000000 1.000000
vt 1.000000 0.000000
vt 1.000000 0.000000
vt 1.000000 1.000000
vt 1.000000 1.000000
vt 1.000000 0.000000
vt 1.000000 0.000000
vt 1.000000 1.000000
vt 1.000000 1.000000
vt 1.000000 0.000000
vt 1.000000 0.000000
vt 1.000000 1.000000
vt 1.000000 1.000000
vt 1.000000 0.000000
vt 1.000000 0.000000
vt 1.000000 1.000000
vt 1.000000 1.000000
vt 1.000000 0.000000
vt 1.000000 0.000000
vt 1.000000 1.000000
vt 1.000000 1.000000
vt 1.000000 0.000000
vt 1.000000 0.000000
vt 1.000000 1.000000
vt 1.000000 1.000000
vt 1.000000 0.000000
vt 1.000000 0.000000
vt 1.000000 1.000000
vt 1.000000 1.000000
vt 1.000000 0.000000
vt 1.000000 0.000000
vt 1.000000 1.000000
vt 1.000000 1.000000
vt 1.000000 0.000000
vt 1.000000 0.000000
vt 1.000000 1.000000
vt 1.000000 1.000000
vt 1.000000 0.000000
vt 1.000000 0.000000
vt 1.000000 1.000000
vt 1.000000 1.000000
vt 1.000000 0.000000
vt 1.000000 0.000000
vt 1.000000 1.000000
vt 1.000000 1.000000
vt 1.000000 0.000000
vt 1.000000 0.000000
vt 1.000000 1.000000
vt 1.000000 1.000000
vt 1.000000 0.000000
vt 1.000000 0.000000
vt 1.000000 1.000000
vt 1.000000 1.000000
vt 1.000000 0.000000
vt 1.000000 0.000000
vn -0.1386 0.9812 -0.1344
vn 0.0000 -1.0000 0.0000
vn -0.0805 0.8950 -0.4388
vn 0.0000 0.4472 -0.8944
vn 0.0000 -0.2425 0.9701
vn 0.0000 -0.8944 -0.4472
vn 0.0000 0.8944 0.4473
vn 0.0000 0.0000 -1.0000
vn -0.1098 0.9812 -0.1588
vn -0.6435 -0.0974 -0.7592
vn 0.0000 -0.9923 -0.1240
vn 0.0000 -0.0001 1.0000
vn 0.0000 -0.9923 -0.1239
vn 0.0000 -0.3764 0.9265
vn 0.0000 1.0000 0.0000
vn 0.0000 -0.1240 0.9923
vn -0.1097 0.9812 -0.1587
vn 0.0000 -0.1240 -0.9923
vn 0.0031 0.9812 0.1929
vn 0.0111 0.9952 0.0968
vn 0.0000 -0.8944 0.4472
vn 0.1047 0.9812 -0.1622
vn 0.0000 1.0000 0.0002
vn 0.0643 0.8015 0.5946
vn 0.1386 0.9812 0.1343
vn 0.0000 -0.7071 0.7071
vn 0.1716 0.3095 0.9353
vn -0.1588 0.9812 0.1098
vn 0.0000 0.0000 1.0000
vn -0.0986 0.6539 0.7501
vn 0.1929 0.9812 -0.0030
vn 0.1347 0.6862 -0.7149
vn -0.0031 0.9812 -0.1930
vn 0.0000 0.0156 -0.9999
vn -0.0134 0.7013 -0.7128
vn 0.1899 0.9812 0.0346
vn 0.0000 -0.9923 0.1240
vn 0.9918 -0.0978 0.0819
vn 0.0000 -1.0000 0.0001
vn -0.9835 0.0232 -0.1794
vn -0.9964 0.0230 -0.0822
vn -0.9296 0.0232 -0.3679
vn -0.9612 0.0230 -0.2750
vn -0.8400 0.0232 -0.5421
vn -0.8891 0.0230 -0.4572
vn -0.7181 0.0232 -0.6956
vn -0.7828 0.0230 -0.6219
vn -0.5686 0.0232 -0.8223
vn -0.6464 0.0230 -0.7626
vn -0.3972 0.0232 -0.9174
vn -0.2106 0.0232 -0.9773
vn -0.3054 0.0230 -0.9520
vn -0.0159 0.0232 -0.9996
vn -0.1138 0.0230 -0.9932
vn 0.1794 0.0232 -0.9835
vn 0.0822 0.0230 -0.9964
vn 0.3679 0.0232 -0.9296
vn 0.2750 0.0230 -0.9612
vn 0.5421 0.0232 -0.8400
vn 0.4572 0.0230 -0.8891
vn 0.6956 0.0232 -0.7181
vn 0.6219 0.0230 -0.7828
vn 0.8223 0.0232 -0.5686
vn 0.7626 0.0230 -0.6464
vn 0.9174 0.0232 -0.3972
vn 0.8741 0.0230 -0.4852
vn 0.9773 0.0232 -0.2106
vn 0.9520 0.0230 -0.3054
vn 0.9996 0.0232 -0.0159
vn 0.9932 0.0230 -0.1138
vn 0.9835 0.0232 0.1794
vn 0.9964 0.0230 0.0822
vn 0.9296 0.0232 0.3679
vn 0.9612 0.0230 0.2750
vn 0.8400 0.0232 0.5421
vn 0.8891 0.0230 0.4572
vn 0.7181 0.0232 0.6956
vn 0.7828 0.0230 0.6219
vn 0.5686 0.0232 0.8223
vn 0.6464 0.0230 0.7626
vn 0.3972 0.0232 0.9174
vn 0.4852 0.0230 0.8741
vn 0.2106 0.0232 0.9773
vn 0.3054 0.0230 0.9520
vn 0.0159 0.0232 0.9996
vn 0.1138 0.0230 0.9932
vn -0.1794 0.0232 0.9835
vn -0.0822 0.0230 0.9964
vn -0.3679 0.0232 0.9296
vn -0.2750 0.0230 0.9612
vn -0.5421 0.0232 0.8400
vn -0.4572 0.0230 0.8891
vn -0.6956 0.0232 0.7181
vn -0.6219 0.0230 0.7828
vn -0.8223 0.0232 0.5686
vn -0.7626 0.0230 0.6464
vn -0.9174 0.0232 0.3972
vn -0.8741 0.0230 0.4852
vn -0.1386 0.9812 -0.1343
vn -0.0763 0.9952 -0.0606
vn 0.0000 0.4473 0.8944
vn -0.9773 0.0232 0.2106
vn -0.9520 0.0230 0.3054
vn -0.9996 0.0232 0.0159
vn -0.9932 0.0230 0.1138
vn 0.1587 0.9812 -0.1098
vn 0.0743 0.9952 -0.0630
vn 0.0000 0.0001 1.0000
vn 0.0767 0.9812 0.1771
vn 0.0473 0.9952 0.0852
vn -0.1887 0.9812 0.0407
vn -0.9477 -0.0974 0.3040
vn 0.0346 0.9812 -0.1898
vn 0.0080 0.9952 -0.0971
vn 0.0000 -0.9701 -0.2425
vn 0.0000 -0.9702 -0.2425
vn -0.1047 0.9812 0.1622
vn -0.0445 0.9952 0.0866
vn 0.0000 -0.4473 0.8944
vn 0.0000 -1.0000 0.0002
vn 0.0407 0.9812 0.1887
vn 0.0432 0.8066 -0.5895
vn 0.0000 -0.9923 0.1241
vn -0.1929 0.9812 0.0031
vn -0.0974 0.9862 0.1337
vn 0.0000 0.9701 -0.2425
vn 0.0000 0.2137 0.9769
vn 0.0000 0.7071 -0.7071
vn 0.0000 -0.3511 -0.9363
vn 0.1886 0.9812 -0.0406
vn 0.1269 0.6741 -0.7277
vn 0.0000 -0.3184 0.9479
vn -0.1795 0.9812 -0.0709
vn -0.1355 0.7129 0.6880
vn 0.1047 0.9812 -0.1621
vn 0.0529 0.7299 -0.6815
vn 0.0000 0.0624 0.9981
vn -0.1587 0.9812 0.1098
vn -0.0743 0.9952 0.0630
vn 0.0000 -0.2137 0.9769
vn -0.0346 0.9812 0.1899
vn -0.0080 0.9952 0.0971
vn 0.0000 1.0000 -0.0001
vn 0.0000 -0.4472 -0.8944
vn 0.0000 -0.4473 -0.8944
vn 0.1343 0.9812 -0.1386
vn 0.0817 0.8285 0.5541
vn 0.0000 0.2425 0.9701
vn 0.1098 0.9812 0.1589
vn 0.0847 0.8270 -0.5558
vn -0.1771 0.9812 0.0767
vn -0.1146 0.6632 0.7396
vn 0.0000 -0.0312 0.9995
vn -0.1932 0.9810 -0.0159
vn -0.1899 0.9812 -0.0346
vn -0.1926 0.9810 0.0221
vn -0.1930 0.9812 0.0031
vn -0.5882 0.0332 0.8080
vn -0.1846 0.9810 0.0592
vn -0.1695 0.9810 0.0941
vn -0.0852 0.9952 0.0473
vn -0.1479 0.9810 0.1254
vn -0.1206 0.9810 0.1518
vn -0.1343 0.9812 0.1386
vn -0.6191 -0.0974 0.7793
vn -0.0887 0.9810 0.1724
vn -0.0445 0.9952 0.0867
vn -0.0533 0.9810 0.1864
vn -0.0710 0.9812 0.1794
vn -0.0710 0.9812 0.1795
vn -0.0372 0.8334 -0.5514
vn -0.0159 0.9810 0.1932
vn -0.0140 0.7166 -0.6973
vn 0.0221 0.9810 0.1926
vn 0.0031 0.9812 0.1930
vn 0.0134 0.7013 0.7128
vn 0.0592 0.9810 0.1846
vn 0.3040 -0.0969 0.9477
vn 0.0941 0.9810 0.1695
vn 0.0615 0.6415 0.7646
vn 0.1254 0.9810 0.1479
vn 0.1098 0.9812 0.1587
vn 0.0630 0.9952 0.0743
vn 0.1518 0.9810 0.1206
vn 0.1594 0.5606 -0.8126
vn 0.1724 0.9810 0.0887
vn 0.1621 0.9812 0.1047
vn 0.1622 0.9812 0.1047
vn 0.1864 0.9810 0.0533
vn 0.1795 0.9812 0.0710
vn 0.1864 0.9810 0.0535
vn 0.1932 0.9810 0.0159
vn 0.1926 0.9810 -0.0221
vn 0.1930 0.9812 -0.0031
vn 0.0976 0.9889 0.1117
vn 0.1846 0.9810 -0.0592
vn 0.1887 0.9812 -0.0407
vn 0.1346 0.7152 0.6858
vn 0.1695 0.9810 -0.0941
vn 0.1771 0.9812 -0.0766
vn 0.1771 0.9812 -0.0767
vn 0.1479 0.9810 -0.1254
vn 0.1664 0.3082 -0.9367
vn 0.1206 0.9810 -0.1518
vn 0.0887 0.9810 -0.1724
vn 0.0445 0.9952 -0.0866
vn 0.0533 0.9810 -0.1864
vn 0.0710 0.9812 -0.1795
vn 0.0268 0.9952 -0.0936
vn 0.0159 0.9810 -0.1932
vn 0.0346 0.9812 -0.1899
vn 0.0125 0.7729 0.6344
vn -0.0221 0.9810 -0.1926
vn -0.0031 0.9812 -0.1928
vn -0.0592 0.9810 -0.1846
vn -0.0407 0.9812 -0.1887
vn -0.0941 0.9810 -0.1695
vn -0.0767 0.9812 -0.1771
vn -0.1254 0.9810 -0.1479
vn -0.1098 0.9812 -0.1587
vn -0.1518 0.9810 -0.1206
vn -0.0863 0.8121 -0.5771
vn -0.1724 0.9810 -0.0887
vn -0.1621 0.9812 -0.1048
vn -0.1622 0.9812 -0.1047
vn -0.8850 -0.0964 -0.4555
vn -0.1864 0.9810 -0.0533
vn -0.1795 0.9812 -0.0710
vn 0.0822 -0.0244 -0.9963
vn -0.0956 0.9618 -0.2567
vn -0.1898 0.9812 -0.0347
vn -0.1277 0.7267 0.6750
vn -0.0298 0.9952 -0.0928
vn 0.0099 0.9058 0.4236
vn 0.0268 0.9952 -0.0937
vn 0.0606 0.9952 -0.0763
vn 0.1118 0.7417 0.6613
vn 0.1588 0.9812 -0.1098
vn 0.1963 0.3172 -0.9278
vn 0.1963 0.3173 -0.9278
vn 0.0946 0.9611 -0.2595
vn 0.0972 0.9928 0.0704
vn 0.4196 0.1949 -0.8865
vn 0.1864 0.9810 0.0534
vn 0.6435 -0.0974 0.7592
vn 0.0543 0.7683 0.6378
vn -0.0268 0.9952 0.0937
vn -0.0446 0.9952 0.0866
vn -0.0795 0.6464 0.7589
vn -0.0976 0.9889 -0.1117
vn -0.1377 0.6993 0.7015
vn -0.1932 0.9810 -0.0158
vn 0.0971 0.9945 0.0394
vn -0.0111 0.9952 -0.0968
vn 0.0000 -0.4472 0.8944
vn -0.0920 0.9007 -0.4246
vn -0.0125 0.7735 -0.6336
vn 0.0000 -0.0933 -0.9956
vn 0.0000 0.1843 0.9829
vn 0.0551 0.6872 -0.7243
vn 0.0955 0.9347 -0.3424
vn 0.0000 0.0933 0.9956
vn 0.0000 -0.1843 -0.9829
vn -0.1347 0.6862 0.7149
vn 0.0000 -0.7071 -0.7071
vn -0.0579 0.6407 0.7656
vn 0.1284 0.6759 0.7257
vn 0.0000 -0.9817 0.1902
vn 0.0000 0.9923 -0.1240
vn 0.0000 -0.0156 0.9999
vn 0.0000 0.9701 0.2425
vn 0.0000 0.1240 -0.9923
vn 0.0000 0.8944 -0.4472
vn 0.0000 0.9981 -0.0624
vn 0.0000 0.7071 0.7071
vn 0.0000 0.4808 0.8768
vn 0.0000 0.3511 0.9363
s 1
f 86/79/34 393/80/35 434/81/36
f 90/82/35 101/83/35 113/84/35
f 132/85/37 399/86/37 308/87/37
f 137/88/38 406/89/38 313/90/38
f 142/91/35 415/92/35 318/93/35
f 129/94/35 395/95/35 305/96/35
f 107/97/39 403/98/40 441/99/39
f 140/100/41 411/101/41 316/102/41
f 128/103/42 394/104/35 304/105/43
f 133/106/41 400/107/41 309/108/41
f 114/109/35 407/110/35 443/111/35
f 81/112/44 391/113/45 432/114/46
f 126/115/35 416/116/35 319/117/35
f 130/118/47 396/119/47 306/120/47
f 109/121/48 285/122/48 442/123/48
f 121/124/35 412/125/35 445/126/35
f 89/127/49 128/128/50 148/129/51
f 102/130/39 401/131/39 439/132/39
f 138/133/52 408/134/48 314/135/53
f 83/136/54 281/137/54 433/138/54
f 97/139/55 397/140/56 438/141/57
f 135/142/58 404/143/59 311/144/60
f 141/145/61 413/146/62 317/147/63
f 91/148/38 282/149/38 436/150/38
f 104/151/64 284/152/41 440/153/65
f 117/154/48 409/155/48 444/156/48
f 127/157/62 392/158/62 303/159/62
f 131/160/62 398/161/62 307/162/62
f 136/163/62 405/164/62 312/165/62
f 124/166/62 414/167/62 446/168/62
f 93/169/66 283/170/67 437/171/68
f 134/172/69 402/173/70 310/174/71
f 139/175/62 410/176/72 315/177/62
f 176/178/73 177/179/73 447/180/74
f 178/181/75 179/182/75 320/183/76
f 180/184/77 181/185/77 321/186/78
f 182/187/79 183/188/79 322/189/80
f 184/190/81 231/191/81 448/192/82
f 185/193/83 231/191/81 184/190/81
f 187/194/84 188/195/84 323/196/85
f 189/197/86 232/198/86 449/199/87
f 190/200/88 191/201/88 450/202/89
f 192/203/90 233/204/90 451/205/91
f 193/206/92 194/207/92 452/208/93
f 195/209/94 234/210/94 453/211/95
f 196/212/96 197/213/96 454/214/97
f 198/215/98 199/216/98 324/217/99
f 200/218/100 201/219/100 325/220/101
f 202/221/102 203/222/102 326/223/103
f 204/224/104 235/225/104 455/226/105
f 205/227/106 206/228/106 456/229/107
f 207/230/108 208/231/108 327/232/109
f 209/233/110 210/234/110 328/235/111
f 211/236/112 212/237/112 329/238/113
f 213/239/114 214/240/114 330/241/115
f 215/242/116 216/243/116 331/244/117
f 217/245/118 236/246/118 457/247/119
f 218/248/120 219/249/120 458/250/121
f 220/251/122 237/252/122 459/253/123
f 221/254/124 222/255/124 460/256/125
f 223/257/126 238/258/126 461/259/127
f 224/260/128 225/261/128 462/262/129
f 226/263/130 227/264/130 332/265/131
f 183/188/132 490/266/133 322/267/134
f 228/268/135 229/269/135 333/270/136
f 175/271/137 230/272/137 463/273/138
f 204/224/48 190/200/48 176/178/48
f 197/213/139 495/274/140 454/275/141
f 214/240/142 503/276/143 330/277/141
f 229/269/144 509/278/145 333/279/35
f 191/201/146 493/280/147 450/281/56
f 206/228/148 499/282/149 456/283/35
f 222/255/150 506/284/151 460/285/48
f 231/191/38 343/286/38 448/287/152
f 199/216/62 496/288/62 324/289/153
f 216/243/154 504/290/155 331/291/62
f 177/179/70 487/292/70 447/293/156
f 230/272/157 351/294/158 463/295/159
f 233/204/160 345/296/160 451/297/160
f 208/231/161 500/298/161 327/299/161
f 238/258/35 350/300/35 461/301/35
f 491/302/162 244/303/141 231/304/48
f 201/219/163 497/305/164 325/306/41
f 236/246/165 348/307/165 457/308/165
f 179/182/166 488/309/167 320/310/62
f 194/207/168 494/311/169 452/312/170
f 210/234/48 501/313/48 328/314/48
f 225/261/171 507/315/172 462/316/48
f 188/195/173 492/317/173 323/318/173
f 203/222/148 498/319/148 326/320/148
f 219/249/174 505/321/175 458/322/176
f 181/185/177 489/323/178 321/324/152
f 234/210/179 346/325/180 453/326/181
f 212/237/182 502/327/183 329/328/48
f 227/264/184 508/329/185 332/330/62
f 232/198/48 344/331/48 449/332/48
f 235/225/44 347/333/44 455/334/44
f 237/252/186 349/335/186 459/336/186
f 598/337/187 177/338/188 510/339/188
f 334/340/187 352/341/187 597/342/187
f 596/343/189 230/344/157 353/345/190
f 486/346/191 354/347/189 595/348/189
f 594/349/192 229/350/144 511/351/144
f 485/352/192 355/353/192 593/354/192
f 592/355/193 227/356/184 512/357/184
f 484/358/194 356/359/193 591/360/193
f 590/361/195 225/362/171 513/363/171
f 342/364/195 357/365/195 589/366/195
f 588/367/196 238/368/197 514/369/197
f 483/370/198 358/371/196 587/372/196
f 586/373/199 222/374/150 515/375/150
f 341/376/200 359/377/199 585/378/199
f 584/379/201 237/380/202 360/381/203
f 482/382/204 361/383/201 583/384/201
f 582/385/205 219/386/174 516/387/174
f 340/388/206 362/389/205 581/390/205
f 580/391/207 236/392/208 363/393/208
f 481/394/209 364/395/207 579/396/207
f 578/397/210 216/398/154 517/399/154
f 480/400/211 365/401/210 577/402/210
f 576/403/212 214/404/142 518/405/142
f 479/406/213 366/407/212 575/408/212
f 574/409/214 212/410/182 519/411/215
f 478/412/216 367/413/214 573/414/214
f 572/415/217 210/416/58 520/417/58
f 477/418/218 368/419/217 571/420/217
f 570/421/219 208/422/220 521/423/221
f 476/424/219 369/425/219 569/426/219
f 568/427/222 206/428/223 522/429/223
f 339/430/224 370/431/222 567/432/222
f 566/433/225 235/434/69 371/435/69
f 475/436/225 372/437/225 565/438/225
f 564/439/226 203/440/227 523/441/227
f 474/442/228 373/443/226 563/444/226
f 562/445/229 201/446/163 524/447/230
f 473/448/231 374/449/229 561/450/229
f 560/451/232 199/452/233 525/453/234
f 472/454/232 375/455/232 559/456/232
f 558/457/235 197/458/139 526/459/139
f 338/460/236 376/461/235 557/462/235
f 556/463/237 234/464/179 377/465/179
f 471/466/237 378/467/237 555/468/237
f 554/469/238 194/470/168 527/471/55
f 337/472/239 379/473/238 553/474/238
f 552/475/240 233/476/241 380/477/241
f 470/478/242 381/479/240 551/480/240
f 550/481/243 191/482/146 528/483/244
f 336/484/245 382/485/243 549/486/243
f 548/487/246 232/488/247 529/489/66
f 469/490/246 383/491/246 547/492/246
f 546/493/248 188/494/249 530/495/249
f 468/496/248 384/497/248 545/498/248
f 544/499/250 186/500/251 531/501/251
f 335/502/250 385/503/250 543/504/250
f 542/505/252 231/506/253 386/507/253
f 467/508/252 387/509/252 541/510/252
f 540/511/254 183/512/132 532/513/132
f 466/514/255 388/515/254 539/516/254
f 538/517/256 181/518/257 533/519/258
f 465/520/259 389/521/256 537/522/256
f 536/523/260 179/524/166 534/525/261
f 464/526/167 390/527/260 535/528/260
f 273/529/262 279/530/262 278/531/262
f 276/532/262 275/533/262 279/530/262
f 271/534/262 280/535/262 277/536/262
f 274/537/262 278/531/262 280/535/262
f 535/538/260 144/539/260 417/540/263
f 510/541/188 417/542/263 81/112/264
f 177/543/188 535/544/260 510/545/188
f 433/546/260 534/547/261 83/548/166
f 144/549/260 536/550/260 433/551/260
f 390/552/260 488/553/167 536/554/260
f 537/555/256 145/556/256 418/557/265
f 534/558/261 418/559/265 83/136/166
f 179/560/166 537/561/256 534/562/261
f 303/563/256 533/564/258 127/565/258
f 145/566/256 538/567/256 303/568/256
f 389/569/256 489/570/256 538/571/256
f 539/572/254 146/573/254 287/574/254
f 533/575/258 287/576/254 127/157/258
f 181/577/257 539/578/254 533/579/258
f 434/580/36 532/581/132 86/582/34
f 146/583/254 540/584/254 434/585/36
f 388/586/254 490/587/133 540/588/254
f 541/589/252 147/590/252 419/591/252
f 532/592/132 419/593/252 86/79/34
f 183/594/132 541/595/252 532/596/132
f 304/597/43 386/598/253 128/599/42
f 147/600/252 542/601/252 304/602/43
f 387/603/252 343/604/252 542/605/252
f 543/606/250 148/607/250 288/608/250
f 386/609/253 288/610/250 128/103/42
f 231/611/253 543/612/250 386/613/253
f 435/614/250 531/615/251 89/616/251
f 148/617/250 544/618/250 435/619/250
f 385/620/250 491/621/250 544/622/250
f 545/623/248 149/624/248 420/625/266
f 531/626/251 420/627/266 89/628/251
f 186/629/251 545/630/248 531/631/251
f 436/632/248 530/633/249 91/634/249
f 149/635/248 546/636/248 436/637/248
f 384/638/248 492/639/248 546/640/248
f 547/641/246 150/642/246 421/643/246
f 530/644/249 421/645/246 91/148/249
f 188/646/249 547/647/246 530/648/249
f 437/649/68 529/650/66 93/651/66
f 150/652/246 548/653/246 437/654/68
f 383/655/246 344/656/246 548/657/246
f 549/658/243 151/659/243 422/660/267
f 529/661/66 422/662/267 93/169/66
f 232/663/247 549/664/243 529/665/66
f 305/666/243 528/667/244 129/668/244
f 151/669/243 550/670/243 305/671/243
f 382/672/243 493/673/147 550/674/243
f 551/675/240 152/676/240 289/677/268
f 528/678/244 289/679/268 129/94/244
f 191/680/146 551/681/240 528/682/244
f 306/683/240 380/684/241 130/685/241
f 152/686/240 552/687/240 306/688/240
f 381/689/240 345/690/240 552/691/240
f 553/692/238 153/693/238 290/694/239
f 380/695/241 290/696/239 130/118/241
f 233/697/241 553/698/238 380/699/241
f 438/700/57 527/701/55 97/702/55
f 153/703/238 554/704/238 438/705/57
f 379/706/238 494/707/169 554/708/238
f 555/709/237 154/710/237 423/711/269
f 527/712/55 423/713/269 97/139/55
f 194/714/168 555/715/237 527/716/55
f 307/717/237 377/718/179 131/719/179
f 154/720/237 556/721/237 307/722/237
f 378/723/237 346/724/180 556/725/237
f 557/726/235 155/727/235 291/728/270
f 377/729/179 291/730/270 131/160/179
f 234/731/179 557/732/235 377/733/179
f 308/734/235 526/735/139 132/736/271
f 155/737/235 558/738/235 308/739/235
f 376/740/235 495/741/140 558/742/235
f 559/743/232 156/744/272 292/745/273
f 526/746/139 292/747/273 132/85/271
f 197/748/139 559/749/232 526/750/139
f 309/751/232 525/752/234 133/753/234
f 156/754/272 560/755/232 309/756/232
f 375/757/232 496/758/232 560/759/232
f 561/760/229 157/761/229 293/762/274
f 525/763/234 293/764/274 133/106/234
f 199/765/233 561/766/229 525/767/234
f 439/768/229 524/769/230 102/770/230
f 157/771/229 562/772/229 439/773/229
f 374/774/229 497/775/164 562/776/229
f 563/777/226 158/778/226 424/779/226
f 524/780/230 424/781/226 102/130/230
f 201/782/163 563/783/226 524/784/230
f 440/785/65 523/786/227 104/787/64
f 158/788/226 564/789/226 440/790/65
f 373/791/226 498/792/226 564/793/226
f 565/794/225 159/795/225 425/796/275
f 523/797/227 425/798/275 104/151/64
f 203/799/227 565/800/225 523/801/227
f 310/802/71 371/803/69 134/804/69
f 159/805/225 566/806/225 310/807/71
f 372/808/225 347/809/225 566/810/225
f 567/811/222 160/812/276 294/813/222
f 371/814/69 294/815/222 134/172/69
f 235/816/69 567/817/222 371/818/69
f 441/819/222 522/820/223 107/821/223
f 160/822/276 568/823/222 441/824/222
f 370/825/222 499/826/277 568/827/222
f 569/828/219 161/829/219 426/830/219
f 522/831/223 426/832/219 107/97/223
f 206/833/223 569/834/219 522/835/223
f 442/836/219 521/837/221 109/838/221
f 161/839/219 570/840/219 442/841/219
f 369/842/219 500/843/219 570/844/219
f 571/845/217 162/846/217 427/847/217
f 521/848/221 427/849/217 109/121/221
f 208/850/220 571/851/217 521/852/221
f 311/853/60 520/854/58 135/855/58
f 162/856/217 572/857/217 311/858/60
f 368/859/217 501/860/217 572/861/217
f 573/862/214 163/863/214 295/864/278
f 520/865/58 295/866/278 135/142/58
f 210/867/58 573/868/214 520/869/58
f 312/870/214 519/871/215 136/872/215
f 163/873/214 574/874/214 312/875/214
f 367/876/214 502/877/183 574/878/214
f 575/879/212 164/880/212 296/881/279
f 519/882/215 296/883/279 136/163/215
f 212/884/182 575/885/212 519/886/215
f 313/887/212 518/888/142 137/889/142
f 164/890/212 576/891/212 313/892/212
f 366/893/212 503/894/143 576/895/212
f 577/896/210 165/897/210 297/898/211
f 518/899/142 297/900/211 137/88/142
f 214/901/142 577/902/210 518/903/142
f 443/904/210 517/905/154 114/906/154
f 165/907/210 578/908/210 443/909/210
f 365/910/210 504/911/155 578/912/210
f 579/913/207 166/914/207 428/915/207
f 517/916/154 428/917/207 114/109/154
f 216/918/154 579/919/207 517/920/154
f 314/921/53 363/922/208 138/923/52
f 166/924/207 580/925/207 314/926/53
f 364/927/207 348/928/207 580/929/207
f 581/930/205 167/931/205 298/932/175
f 363/933/208 298/934/175 138/133/52
f 236/935/208 581/936/205 363/937/208
f 444/938/205 516/939/174 117/940/174
f 167/941/205 582/942/205 444/943/205
f 362/944/205 505/945/175 582/946/205
f 583/947/201 168/948/280 429/949/201
f 516/950/174 429/951/201 117/154/174
f 219/952/174 583/953/201 516/954/174
f 315/955/201 360/956/203 139/957/202
f 168/958/280 584/959/201 315/960/201
f 361/961/201 349/962/201 584/963/201
f 585/964/199 169/965/199 299/966/281
f 360/967/203 299/968/281 139/175/202
f 237/969/202 585/970/199 360/971/203
f 316/972/199 515/973/150 140/974/150
f 169/975/199 586/976/199 316/977/199
f 359/978/199 506/979/151 586/980/199
f 587/981/196 170/982/196 300/983/282
f 515/984/150 300/985/282 140/100/150
f 222/986/150 587/987/196 515/988/150
f 445/989/196 514/990/197 121/991/197
f 170/992/196 588/993/196 445/994/196
f 358/995/196 350/996/196 588/997/196
f 589/998/195 171/999/195 430/1000/195
f 514/1001/197 430/1002/195 121/124/197
f 238/1003/197 589/1004/195 514/1005/197
f 317/1006/63 513/1007/171 141/1008/61
f 171/1009/195 590/1010/195 317/1011/63
f 357/1012/195 507/1013/172 590/1014/195
f 591/1015/193 172/1016/193 301/1017/193
f 513/1018/171 301/1019/193 141/145/61
f 225/1020/171 591/1021/193 513/1022/171
f 446/1023/193 512/1024/184 124/1025/184
f 172/1026/193 592/1027/193 446/1028/193
f 356/1029/193 508/1030/185 592/1031/193
f 593/1032/192 173/1033/192 431/1034/145
f 512/1035/184 431/1036/145 124/166/184
f 227/1037/184 593/1038/192 512/1039/184
f 318/1040/192 511/1041/144 142/1042/144
f 173/1043/192 594/1044/192 318/1045/192
f 355/1046/192 509/1047/145 594/1048/192
f 595/1049/189 174/1050/189 302/1051/283
f 511/1052/144 302/1053/283 142/91/144
f 229/1054/144 595/1055/189 511/1056/144
f 319/1057/189 353/1058/190 126/1059/190
f 174/1060/189 596/1061/189 319/1062/189
f 354/1063/189 351/1064/158 596/1065/189
f 597/1066/187 143/1067/284 286/1068/187
f 353/1069/190 286/1070/187 126/115/190
f 230/1071/157 597/1072/187 353/1073/190
f 432/1074/285 510/1075/188 81/1076/264
f 143/1077/284 598/1078/187 432/1079/285
f 352/1080/187 487/1081/187 598/1082/187
f 459/253/176 482/382/204 219/386/174
f 459/253/176 349/335/48 482/1083/204
f 349/1084/35 264/1085/35 482/1083/35
f 455/226/44 475/436/44 203/440/44
f 455/226/62 347/333/62 475/1086/62
f 347/1087/225 255/1088/286 475/1086/225
f 449/199/48 469/490/48 188/494/48
f 449/199/48 344/331/48 469/1089/48
f 344/1090/246 246/1091/287 469/1089/246
f 332/265/62 484/358/194 225/362/171
f 332/265/62 508/329/185 484/1092/194
f 508/1093/185 268/1094/194 484/1092/194
f 329/238/48 478/412/216 210/416/58
f 329/238/48 502/327/183 478/1095/216
f 502/1096/62 259/1097/62 478/1095/62
f 453/211/48 471/466/48 194/470/48
f 453/211/41 346/325/41 471/1098/41
f 346/1099/38 250/1100/38 471/1098/38
f 321/186/35 465/520/259 179/524/166
f 321/186/152 489/323/178 465/1101/288
f 489/1102/256 241/1103/289 465/1101/259
f 458/250/176 340/388/206 236/392/208
f 458/250/176 505/321/175 340/1104/206
f 505/1105/175 263/1106/290 340/1104/206
f 326/223/48 474/442/228 201/446/163
f 326/223/48 498/319/48 474/1107/228
f 498/1108/35 254/1109/35 474/1107/35
f 323/196/49 468/496/49 186/500/49
f 323/196/291 492/317/291 468/1110/291
f 492/1111/292 245/1112/292 468/1110/292
f 462/262/177 342/364/177 238/368/177
f 462/262/62 507/315/62 342/1113/62
f 507/1114/177 267/1115/177 342/1113/177
f 328/235/177 477/418/218 208/422/220
f 328/235/62 501/313/62 477/1116/62
f 501/1117/41 258/1118/41 477/1116/41
f 452/208/170 337/472/239 233/476/241
f 452/208/170 494/311/169 337/1119/239
f 494/1120/169 249/1121/293 337/1119/239
f 320/183/62 464/526/167 177/338/188
f 320/183/62 488/309/167 464/1122/167
f 488/1123/54 240/1124/54 464/1122/54
f 457/247/35 481/394/209 216/398/154
f 457/247/35 348/307/35 481/1125/209
f 348/1126/48 262/1127/48 481/1125/48
f 325/220/62 473/448/231 199/452/233
f 325/220/62 497/305/62 473/1128/62
f 497/1129/62 253/1130/62 473/1128/62
f 461/259/35 483/370/198 222/374/150
f 461/259/35 350/300/35 483/1131/35
f 350/1132/48 266/1133/48 483/1131/48
f 327/232/62 476/424/35 206/428/35
f 327/232/62 500/298/294 476/1134/35
f 500/1135/294 257/1136/62 476/1134/35
f 451/205/48 470/478/242 191/482/146
f 451/205/295 345/296/295 470/1137/295
f 345/1138/296 248/1139/296 470/1137/296
f 463/273/159 486/346/191 229/350/144
f 463/273/159 351/294/158 486/1140/191
f 351/1141/158 270/1142/297 486/1140/191
f 447/180/156 334/340/62 230/344/62
f 447/180/156 487/292/70 334/1143/62
f 487/1144/70 239/1145/48 334/1143/62
f 331/244/62 480/400/211 214/404/142
f 331/244/62 504/290/155 480/1146/211
f 504/1147/62 261/1148/62 480/1146/62
f 324/217/153 472/454/35 197/458/35
f 324/217/153 496/288/62 472/1149/35
f 496/1150/62 252/1151/298 472/1149/35
f 448/192/152 467/508/35 183/512/35
f 448/192/152 343/286/38 467/1152/35
f 343/1153/41 243/1154/41 467/1152/41
f 460/256/48 341/376/200 237/380/202
f 460/256/48 506/284/151 341/1155/200
f 506/1156/151 265/1157/299 341/1155/200
f 456/229/35 339/430/54 235/434/54
f 456/229/35 499/282/149 339/1158/54
f 499/1159/277 256/1160/300 339/1158/224
f 450/202/56 336/484/245 232/488/247
f 450/202/56 493/280/147 336/1161/245
f 493/1162/147 247/1163/147 336/1161/245
f 333/270/35 485/352/35 227/356/35
f 333/270/35 509/278/301 485/1164/35
f 509/1165/301 269/1166/54 485/1164/35
f 330/241/141 479/406/213 212/410/182
f 330/241/141 503/276/143 479/1167/213
f 503/1168/143 260/1169/143 479/1167/213
f 454/214/141 338/460/236 234/464/179
f 454/214/141 495/274/140 338/1170/236
f 495/1171/41 251/1172/41 338/1170/41
f 322/189/134 466/514/255 181/518/257
f 322/189/134 490/266/133 466/1173/255
f 490/1174/35 242/1175/35 466/1173/35
f 315/955/201 429/1176/201 168/1177/280
f 315/955/62 410/176/72 429/1178/35
f 410/1179/72 117/1180/35 429/1178/35
f 310/802/302 425/1181/302 159/1182/302
f 310/802/71 402/173/70 425/1183/275
f 402/1184/70 104/1185/64 425/1183/275
f 437/649/303 421/1186/303 150/1187/303
f 437/649/68 283/170/67 421/1188/67
f 283/1189/35 91/1190/35 421/1188/35
f 446/1023/62 301/1191/62 172/1192/62
f 446/1023/62 414/167/62 301/1193/62
f 414/1194/48 141/1195/48 301/1193/48
f 312/870/48 295/1196/48 163/1197/48
f 312/870/35 405/164/35 295/1198/278
f 405/1199/35 135/1200/58 295/1198/278
f 307/717/35 423/1201/35 154/1202/35
f 307/717/48 398/161/48 423/1203/48
f 398/1204/48 97/1205/55 423/1203/269
f 303/563/48 418/1206/48 145/1207/48
f 303/563/35 392/158/35 418/1208/265
f 392/1209/35 83/1210/166 418/1208/265
f 444/938/35 298/1211/35 167/1212/35
f 444/938/48 409/155/48 298/1213/175
f 409/1214/48 138/1215/52 298/1213/175
f 440/785/304 424/1216/304 158/1217/304
f 440/785/148 284/152/148 424/1218/148
f 284/1219/62 102/1220/62 424/1218/62
f 436/632/49 420/1221/49 149/1222/49
f 436/632/305 282/149/305 420/1223/305
f 282/1224/48 89/1225/251 420/1223/266
f 317/1006/62 430/1226/62 171/1227/62
f 317/1006/63 413/146/62 430/1228/62
f 413/1229/35 121/1230/35 430/1228/35
f 311/853/35 427/1231/35 162/1232/35
f 311/853/48 404/143/48 427/1233/48
f 404/1234/48 109/1235/48 427/1233/48
f 438/700/35 290/1236/35 153/1237/35
f 438/700/57 397/140/56 290/1238/239
f 397/1239/56 130/1240/241 290/1238/239
f 433/546/62 417/1241/62 144/1242/62
f 433/546/62 281/137/62 417/1243/62
f 281/1244/306 81/1245/264 417/1243/263
f 314/921/35 428/1246/35 166/1247/35
f 314/921/53 408/134/48 428/1248/48
f 408/1249/48 114/1250/48 428/1248/48
f 439/768/35 293/1251/35 157/1252/35
f 439/768/48 401/131/48 293/1253/48
f 401/1254/306 133/1255/234 293/1253/274
f 445/989/48 300/1256/48 170/1257/48
f 445/989/35 412/125/35 300/1258/282
f 412/1259/35 140/1260/150 300/1258/282
f 442/836/48 426/1261/48 161/1262/48
f 442/836/35 285/122/35 426/1263/35
f 285/1264/62 107/1265/62 426/1263/62
f 306/683/35 289/1266/35 152/1267/35
f 306/683/48 396/119/48 289/1268/48
f 396/1269/48 129/1270/244 289/1268/268
f 319/1057/41 302/1271/41 174/1272/41
f 319/1057/62 416/116/62 302/1273/62
f 416/1274/159 142/1275/144 302/1273/283
f 432/1074/285 286/1276/187 143/1277/284
f 432/1074/46 391/113/45 286/1278/62
f 391/1279/307 126/1280/307 286/1278/307
f 443/904/48 297/1281/48 165/1282/48
f 443/904/35 407/110/35 297/1283/35
f 407/1284/35 137/1285/142 297/1283/211
f 309/751/232 292/1286/273 156/1287/272
f 309/751/308 400/107/308 292/1288/308
f 400/1289/298 132/1290/271 292/1288/273
f 304/597/48 419/1291/48 147/1292/48
f 304/597/35 394/104/35 419/1293/35
f 394/1294/48 86/1295/48 419/1293/48
f 316/972/35 299/1296/35 169/1297/35
f 316/972/48 411/101/48 299/1298/48
f 411/1299/48 139/1300/202 299/1298/281
f 441/819/222 294/1301/222 160/1302/276
f 441/819/39 403/98/40 294/1303/141
f 403/1304/40 134/1305/62 294/1303/141
f 305/666/35 422/1306/35 151/1307/35
f 305/666/48 395/95/48 422/1308/48
f 395/1309/309 93/1310/66 422/1308/267
f 318/1040/35 431/1311/35 173/1312/35
f 318/1040/48 415/92/48 431/1313/145
f 415/1314/48 124/1315/184 431/1313/145
f 313/887/49 296/1316/49 164/1317/49
f 313/887/305 406/89/305 296/1318/305
f 406/1319/310 136/1320/215 296/1318/279
f 308/734/161 291/1321/161 155/1322/161
f 308/734/59 399/86/59 291/1323/59
f 399/1324/62 131/1325/179 291/1323/270
f 434/580/48 287/1326/48 146/1327/48
f 434/580/36 393/80/35 287/1328/35
f 393/1329/62 127/1330/62 287/1328/62
f 125/1331/35 79/1332/35 80/1333/35
f 80/1333/35 82/1334/35 84/1335/35
f 84/1335/35 85/1336/35 87/1337/35
f 87/1337/35 88/1338/35 84/1335/35
f 88/1338/35 90/82/35 84/1335/35
f 90/82/35 92/1339/35 94/1340/35
f 94/1340/35 95/1341/35 90/82/35
f 95/1341/35 96/1342/35 90/82/35
f 96/1342/35 98/1343/35 101/83/35
f 98/1343/35 99/1344/35 101/83/35
f 99/1344/35 100/1345/35 101/83/35
f 101/83/35 103/1346/35 105/1347/35
f 105/1347/35 106/1348/35 108/1349/35
f 108/1349/35 110/1350/35 111/1351/35
f 111/1351/35 112/1352/35 113/84/35
f 113/84/35 115/1353/35 116/1354/35
f 116/1354/35 118/1355/35 119/1356/35
f 119/1356/35 120/1357/35 125/1331/35
f 120/1357/35 122/1358/35 125/1331/35
f 122/1358/35 123/1359/35 125/1331/35
f 125/1331/35 80/1333/35 84/1335/35
f 101/83/35 105/1347/35 113/84/35
f 105/1347/35 108/1349/35 113/84/35
f 108/1349/35 111/1351/35 113/84/35
f 113/84/35 116/1354/35 125/1331/35
f 116/1354/35 119/1356/35 125/1331/35
f 125/1331/35 84/1335/35 90/82/35
f 90/82/35 96/1342/35 101/83/35
f 125/1331/35 90/82/35 113/84/35
f 128/128/50 288/1360/48 148/129/51
f 148/129/51 435/1361/49 89/127/49
f 230/272/137 175/271/137 447/180/74
f 175/271/137 176/178/73 447/180/74
f 177/179/73 176/178/73 320/183/76
f 176/178/73 178/181/75 320/183/76
f 179/182/75 178/181/75 321/186/78
f 178/181/75 180/184/77 321/186/78
f 181/185/77 180/184/77 322/189/80
f 180/184/77 182/187/79 322/189/80
f 183/188/79 182/187/79 448/192/82
f 182/187/79 184/190/81 448/192/82
f 185/193/83 186/1362/83 231/191/81
f 186/1362/83 185/193/83 323/196/85
f 185/193/83 187/194/84 323/196/85
f 188/195/84 187/194/84 449/199/87
f 187/194/84 189/197/86 449/199/87
f 232/198/86 189/197/86 450/202/89
f 189/197/86 190/200/88 450/202/89
f 191/201/88 190/200/88 451/205/91
f 190/200/88 192/203/90 451/205/91
f 233/204/90 192/203/90 452/208/93
f 192/203/90 193/206/92 452/208/93
f 194/207/92 193/206/92 453/211/95
f 193/206/92 195/209/94 453/211/95
f 234/210/94 195/209/94 454/214/97
f 195/209/94 196/212/96 454/214/97
f 197/213/96 196/212/96 324/217/99
f 196/212/96 198/215/98 324/217/99
f 199/216/98 198/215/98 325/220/101
f 198/215/98 200/218/100 325/220/101
f 201/219/100 200/218/100 326/223/103
f 200/218/100 202/221/102 326/223/103
f 203/222/102 202/221/102 455/226/105
f 202/221/102 204/224/104 455/226/105
f 235/225/104 204/224/104 456/229/107
f 204/224/104 205/227/106 456/229/107
f 206/228/106 205/227/106 327/232/109
f 205/227/106 207/230/108 327/232/109
f 208/231/108 207/230/108 328/235/111
f 207/230/108 209/233/110 328/235/111
f 210/234/110 209/233/110 329/238/113
f 209/233/110 211/236/112 329/238/113
f 212/237/112 211/236/112 330/241/115
f 211/236/112 213/239/114 330/241/115
f 214/240/114 213/239/114 331/244/117
f 213/239/114 215/242/116 331/244/117
f 216/243/116 215/242/116 457/247/119
f 215/242/116 217/245/118 457/247/119
f 236/246/118 217/245/118 458/250/121
f 217/245/118 218/248/120 458/250/121
f 219/249/120 218/248/120 459/253/123
f 218/248/120 220/251/122 459/253/123
f 237/252/122 220/251/122 460/256/125
f 220/251/122 221/254/124 460/256/125
f 222/255/124 221/254/124 461/259/127
f 221/254/124 223/257/126 461/259/127
f 238/258/126 223/257/126 462/262/129
f 223/257/126 224/260/128 462/262/129
f 225/261/128 224/260/128 332/265/131
f 224/260/128 226/263/130 332/265/131
f 227/264/130 226/263/130 333/270/136
f 226/263/130 228/268/135 333/270/136
f 229/269/135 228/268/135 463/273/138
f 228/268/135 175/271/137 463/273/138
f 176/178/48 175/271/48 228/268/48
f 228/268/48 226/263/48 176/178/48
f 226/263/48 224/260/48 176/178/48
f 224/260/48 223/257/48 218/248/48
f 223/257/48 221/254/48 218/248/48
f 221/254/48 220/251/48 218/248/48
f 218/248/48 217/245/48 215/242/48
f 215/242/48 213/239/48 211/236/48
f 211/236/48 209/233/48 207/230/48
f 207/230/48 205/227/48 211/236/48
f 205/227/48 204/224/48 211/236/48
f 204/224/48 202/221/48 200/218/48
f 200/218/48 198/215/48 196/212/48
f 196/212/48 195/209/48 193/206/48
f 193/206/48 192/203/48 190/200/48
f 190/200/48 189/197/48 187/194/48
f 187/194/48 185/193/48 184/190/48
f 184/190/48 182/187/48 176/178/48
f 182/187/48 180/184/48 176/178/48
f 180/184/48 178/181/48 176/178/48
f 218/248/48 215/242/48 204/224/48
f 215/242/48 211/236/48 204/224/48
f 204/224/48 200/218/48 196/212/48
f 196/212/48 193/206/48 204/224/48
f 193/206/48 190/200/48 204/224/48
f 190/200/48 187/194/48 176/178/48
f 187/194/48 184/190/48 176/178/48
f 176/178/48 224/260/48 218/248/48
f 176/178/48 218/248/48 204/224/48
f 231/304/48 186/1363/162 491/302/162
f 244/303/141 335/1364/48 231/304/48
f 598/337/187 487/292/187 177/338/188
f 334/340/187 239/1365/187 352/341/187
f 596/343/189 351/294/158 230/344/157
f 486/346/191 270/1366/297 354/347/189
f 594/349/192 509/278/145 229/350/144
f 485/352/192 269/1367/192 355/353/192
f 592/355/193 508/329/185 227/356/184
f 484/358/194 268/1368/194 356/359/193
f 590/361/195 507/315/172 225/362/171
f 342/364/195 267/1369/195 357/365/195
f 588/367/196 350/300/196 238/368/197
f 483/370/198 266/1370/196 358/371/196
f 586/373/199 506/284/151 222/374/150
f 341/376/200 265/1371/299 359/377/199
f 584/379/201 349/335/201 237/380/202
f 482/382/204 264/1372/201 361/383/201
f 582/385/205 505/321/175 219/386/174
f 340/388/206 263/1373/290 362/389/205
f 580/391/207 348/307/207 236/392/208
f 481/394/209 262/1374/207 364/395/207
f 578/397/210 504/290/155 216/398/154
f 480/400/211 261/1375/210 365/401/210
f 576/403/212 503/276/143 214/404/142
f 479/406/213 260/1376/143 366/407/212
f 574/409/214 502/327/183 212/410/182
f 478/412/216 259/1377/214 367/413/214
f 572/415/217 501/313/217 210/416/58
f 477/418/218 258/1378/217 368/419/217
f 570/421/219 500/298/219 208/422/220
f 476/424/219 257/1379/219 369/425/219
f 568/427/222 499/282/277 206/428/223
f 339/430/224 256/1380/300 370/431/222
f 566/433/225 347/333/225 235/434/69
f 475/436/225 255/1381/286 372/437/225
f 564/439/226 498/319/226 203/440/227
f 474/442/228 254/1382/226 373/443/226
f 562/445/229 497/305/164 201/446/163
f 473/448/231 253/1383/229 374/449/229
f 560/451/232 496/288/232 199/452/233
f 472/454/232 252/1384/232 375/455/232
f 558/457/235 495/274/140 197/458/139
f 338/460/236 251/1385/235 376/461/235
f 556/463/237 346/325/180 234/464/179
f 471/466/237 250/1386/237 378/467/237
f 554/469/238 494/311/169 194/470/168
f 337/472/239 249/1387/293 379/473/238
f 552/475/240 345/296/240 233/476/241
f 470/478/242 248/1388/240 381/479/240
f 550/481/243 493/280/147 191/482/146
f 336/484/245 247/1389/147 382/485/243
f 548/487/246 344/331/246 232/488/247
f 469/490/246 246/1390/287 383/491/246
f 546/493/248 492/317/248 188/494/249
f 468/496/248 245/1391/248 384/497/248
f 544/499/250 491/1392/250 186/500/251
f 335/502/250 244/1393/250 385/503/250
f 542/505/252 343/286/252 231/506/253
f 467/508/252 243/1394/252 387/509/252
f 540/511/254 490/266/133 183/512/132
f 466/514/255 242/1395/254 388/515/254
f 538/517/256 489/323/256 181/518/257
f 465/520/259 241/1396/289 389/521/256
f 536/523/260 488/309/167 179/524/166
f 464/526/167 240/1397/260 390/527/260
f 273/529/262 276/532/262 279/530/262
f 276/532/262 272/1398/262 275/533/262
f 271/534/262 274/537/262 280/535/262
f 274/537/262 273/529/262 278/531/262
f 535/538/260 390/1399/260 144/539/260
f 510/541/188 535/1400/260 417/542/263
f 177/543/188 464/1122/167 535/544/260
f 433/546/260 536/1401/260 534/547/261
f 144/549/260 390/1402/260 536/550/260
f 390/552/260 240/1124/260 488/553/167
f 537/555/256 389/1403/256 145/556/256
f 534/558/261 537/1404/256 418/559/265
f 179/560/166 465/1101/259 537/561/256
f 303/563/256 538/1405/256 533/564/258
f 145/566/256 389/1406/256 538/567/256
f 389/569/256 241/1103/289 489/570/256
f 539/572/254 388/1407/254 146/573/254
f 533/575/258 539/1408/254 287/576/254
f 181/577/257 466/1173/255 539/578/254
f 434/580/36 540/1409/254 532/581/132
f 146/583/254 388/1410/254 540/584/254
f 388/586/254 242/1175/254 490/587/133
f 541/589/252 387/1411/252 147/590/252
f 532/592/132 541/1412/252 419/593/252
f 183/594/132 467/1152/252 541/595/252
f 304/597/43 542/1413/252 386/598/253
f 147/600/252 387/1414/252 542/601/252
f 387/603/252 243/1154/252 343/604/252
f 543/606/250 385/1415/250 148/607/250
f 386/609/253 543/1416/250 288/610/250
f 231/611/253 335/1417/250 543/612/250
f 435/614/250 544/1418/250 531/615/251
f 148/617/250 385/1419/250 544/618/250
f 385/620/250 244/1420/250 491/621/250
f 545/623/248 384/1421/248 149/624/248
f 531/626/251 545/1422/248 420/627/266
f 186/629/251 468/1110/248 545/630/248
f 436/632/248 546/1423/248 530/633/249
f 149/635/248 384/1424/248 546/636/248
f 384/638/248 245/1112/248 492/639/248
f 547/641/246 383/1425/246 150/642/246
f 530/644/249 547/1426/246 421/645/246
f 188/646/249 469/1089/246 547/647/246
f 437/649/68 548/1427/246 529/650/66
f 150/652/246 383/1428/246 548/653/246
f 383/655/246 246/1091/287 344/656/246
f 549/658/243 382/1429/243 151/659/243
f 529/661/66 549/1430/243 422/662/267
f 232/663/247 336/1161/245 549/664/243
f 305/666/243 550/1431/243 528/667/244
f 151/669/243 382/1432/243 550/670/243
f 382/672/243 247/1163/147 493/673/147
f 551/675/240 381/1433/240 152/676/240
f 528/678/244 551/1434/240 289/679/268
f 191/680/146 470/1137/242 551/681/240
f 306/683/240 552/1435/240 380/684/241
f 152/686/240 381/1436/240 552/687/240
f 381/689/240 248/1139/240 345/690/240
f 553/692/238 379/1437/238 153/693/238
f 380/695/241 553/1438/238 290/696/239
f 233/697/241 337/1119/239 553/698/238
f 438/700/57 554/1439/238 527/701/55
f 153/703/238 379/1440/238 554/704/238
f 379/706/238 249/1121/293 494/707/169
f 555/709/237 378/1441/237 154/710/237
f 527/712/55 555/1442/237 423/713/269
f 194/714/168 471/1098/237 555/715/237
f 307/717/237 556/1443/237 377/718/179
f 154/720/237 378/1444/237 556/721/237
f 378/723/237 250/1100/237 346/724/180
f 557/726/235 376/1445/235 155/727/235
f 377/729/179 557/1446/235 291/730/270
f 234/731/179 338/1170/236 557/732/235
f 308/734/235 558/1447/235 526/735/139
f 155/737/235 376/1448/235 558/738/235
f 376/740/235 251/1172/235 495/741/140
f 559/743/232 375/1449/232 156/744/272
f 526/746/139 559/1450/232 292/747/273
f 197/748/139 472/1149/232 559/749/232
f 309/751/232 560/1451/232 525/752/234
f 156/754/272 375/1452/232 560/755/232
f 375/757/232 252/1151/232 496/758/232
f 561/760/229 374/1453/229 157/761/229
f 525/763/234 561/1454/229 293/764/274
f 199/765/233 473/1128/231 561/766/229
f 439/768/229 562/1455/229 524/769/230
f 157/771/229 374/1456/229 562/772/229
f 374/774/229 253/1130/229 497/775/164
f 563/777/226 373/1457/226 158/778/226
f 524/780/230 563/1458/226 424/781/226
f 201/782/163 474/1107/228 563/783/226
f 440/785/65 564/1459/226 523/786/227
f 158/788/226 373/1460/226 564/789/226
f 373/791/226 254/1109/226 498/792/226
f 565/794/225 372/1461/225 159/795/225
f 523/797/227 565/1462/225 425/798/275
f 203/799/227 475/1086/225 565/800/225
f 310/802/71 566/1463/225 371/803/69
f 159/805/225 372/1464/225 566/806/225
f 372/808/225 255/1088/286 347/809/225
f 567/811/222 370/1465/222 160/812/276
f 371/814/69 567/1466/222 294/815/222
f 235/816/69 339/1158/224 567/817/222
f 441/819/222 568/1467/222 522/820/223
f 160/822/276 370/1468/222 568/823/222
f 370/825/222 256/1160/300 499/826/277
f 569/828/219 369/1469/219 161/829/219
f 522/831/223 569/1470/219 426/832/219
f 206/833/223 476/1134/219 569/834/219
f 442/836/219 570/1471/219 521/837/221
f 161/839/219 369/1472/219 570/840/219
f 369/842/219 257/1136/219 500/843/219
f 571/845/217 368/1473/217 162/846/217
f 521/848/221 571/1474/217 427/849/217
f 208/850/220 477/1116/218 571/851/217
f 311/853/60 572/1475/217 520/854/58
f 162/856/217 368/1476/217 572/857/217
f 368/859/217 258/1118/217 501/860/217
f 573/862/214 367/1477/214 163/863/214
f 520/865/58 573/1478/214 295/866/278
f 210/867/58 478/1095/216 573/868/214
f 312/870/214 574/1479/214 519/871/215
f 163/873/214 367/1480/214 574/874/214
f 367/876/214 259/1097/214 502/877/183
f 575/879/212 366/1481/212 164/880/212
f 519/882/215 575/1482/212 296/883/279
f 212/884/182 479/1167/213 575/885/212
f 313/887/212 576/1483/212 518/888/142
f 164/890/212 366/1484/212 576/891/212
f 366/893/212 260/1169/143 503/894/143
f 577/896/210 365/1485/210 165/897/210
f 518/899/142 577/1486/210 297/900/211
f 214/901/142 480/1146/211 577/902/210
f 443/904/210 578/1487/210 517/905/154
f 165/907/210 365/1488/210 578/908/210
f 365/910/210 261/1148/210 504/911/155
f 579/913/207 364/1489/207 166/914/207
f 517/916/154 579/1490/207 428/917/207
f 216/918/154 481/1125/209 579/919/207
f 314/921/53 580/1491/207 363/922/208
f 166/924/207 364/1492/207 580/925/207
f 364/927/207 262/1127/207 348/928/207
f 581/930/205 362/1493/205 167/931/205
f 363/933/208 581/1494/205 298/934/175
f 236/935/208 340/1104/206 581/936/205
f 444/938/205 582/1495/205 516/939/174
f 167/941/205 362/1496/205 582/942/205
f 362/944/205 263/1106/290 505/945/175
f 583/947/201 361/1497/201 168/948/280
f 516/950/174 583/1498/201 429/951/201
f 219/952/174 482/1083/204 583/953/201
f 315/955/201 584/1499/201 360/956/203
f 168/958/280 361/1500/201 584/959/201
f 361/961/201 264/1085/201 349/962/201
f 585/964/199 359/1501/199 169/965/199
f 360/967/203 585/1502/199 299/968/281
f 237/969/202 341/1155/200 585/970/199
f 316/972/199 586/1503/199 515/973/150
f 169/975/199 359/1504/199 586/976/199
f 359/978/199 265/1157/299 506/979/151
f 587/981/196 358/1505/196 170/982/196
f 515/984/150 587/1506/196 300/985/282
f 222/986/150 483/1131/198 587/987/196
f 445/989/196 588/1507/196 514/990/197
f 170/992/196 358/1508/196 588/993/196
f 358/995/196 266/1133/196 350/996/196
f 589/998/195 357/1509/195 171/999/195
f 514/1001/197 589/1510/195 430/1002/195
f 238/1003/197 342/1113/195 589/1004/195
f 317/1006/63 590/1511/195 513/1007/171
f 171/1009/195 357/1512/195 590/1010/195
f 357/1012/195 267/1115/195 507/1013/172
f 591/1015/193 356/1513/193 172/1016/193
f 513/1018/171 591/1514/193 301/1019/193
f 225/1020/171 484/1092/194 591/1021/193
f 446/1023/193 592/1515/193 512/1024/184
f 172/1026/193 356/1516/193 592/1027/193
f 356/1029/193 268/1094/194 508/1030/185
f 593/1032/192 355/1517/192 173/1033/192
f 512/1035/184 593/1518/192 431/1036/145
f 227/1037/184 485/1164/192 593/1038/192
f 318/1040/192 594/1519/192 511/1041/144
f 173/1043/192 355/1520/192 594/1044/192
f 355/1046/192 269/1166/192 509/1047/145
f 595/1049/189 354/1521/189 174/1050/189
f 511/1052/144 595/1522/189 302/1053/283
f 229/1054/144 486/1140/191 595/1055/189
f 319/1057/189 596/1523/189 353/1058/190
f 174/1060/189 354/1524/189 596/1061/189
f 354/1063/189 270/1142/297 351/1064/158
f 597/1066/187 352/1525/187 143/1067/284
f 353/1069/190 597/1526/187 286/1070/187
f 230/1071/157 334/1143/187 597/1072/187
f 432/1074/285 598/1527/187 510/1075/188
f 143/1077/284 352/1528/187 598/1078/187
f 352/1080/187 239/1145/187 487/1081/187
